<svg width="84" height="104" viewBox="0 0 84 104" fill="none" xmlns="http://www.w3.org/2000/svg">
<path d="M72.1658 39.0352H23.564V39.9558H72.1658V39.0352Z" fill="#19181B"/>
<path d="M72.1658 47.2285H23.564V47.6888H72.1658V47.2285Z" fill="#19181B"/>
<path d="M72.1658 51.1875H23.564V51.6478H72.1658V51.1875Z" fill="#19181B"/>
<path d="M72.1658 55.146H23.564V55.6063H72.1658V55.146Z" fill="#19181B"/>
<path d="M72.1658 59.1968H23.564V59.6571H72.1658V59.1968Z" fill="#19181B"/>
<path d="M72.1658 63.1558H23.564V63.6161H72.1658V63.1558Z" fill="#19181B"/>
<path d="M72.1658 67.1143H23.564V67.5746H72.1658V67.1143Z" fill="#19181B"/>
<path d="M72.1658 71.165H23.564V71.6254H72.1658V71.165Z" fill="#19181B"/>
<path d="M72.1658 75.124H23.564V75.5843H72.1658V75.124Z" fill="#19181B"/>
<path d="M72.1658 79.0825H23.564V79.5428H72.1658V79.0825Z" fill="#19181B"/>
<path d="M64.986 83.1333H23.564V83.5936H64.986V83.1333Z" fill="#19181B"/>
<path d="M82.0151 103.664H81.5549V101.914H14.6354V103.664H14.1752V101.914H12.4263V101.454H14.1752V15.0064H12.4263V14.5461H14.1752V12.7969H14.6354V14.5461H73.1785V12.7969H73.6387V14.5461H75.3876V15.0064H74.0069L81.5549 22.5556V21.1746H82.0151V22.9239H83.7641V23.3842H82.0151V101.454H83.7641V101.914H82.0151V103.664ZM79.806 101.454H81.5549V23.3842H73.6387V25.1334H73.1785V23.3842H71.4295V22.9239H73.1785V15.0064H14.6354V101.454H79.806ZM79.806 22.9239H81.1867L73.6387 15.3747V22.9239H79.806Z" fill="#19181B"/>
<path d="M2.30122 90.9587H1.84098V89.1174H0V88.6571H1.84098V2.20952H0V1.7492H1.84098V0H2.30122V1.7492H69.2207V0H69.681V1.7492H71.4299V2.20952H69.681V14.7302H69.2207V2.20952H2.30122V88.6571H14.8198V89.1174H2.30122V90.9587Z" fill="#19181B"/>
<path d="M10.2175 99.3366H9.75722V97.4954H8.0083V97.0351H9.75722V10.5874H8.0083V10.1271H9.75722V8.37793H10.2175V10.1271H77.137V8.37793H77.5972V10.1271H79.3462V10.5874H77.5972V18.3208H77.137V10.5874H10.2175V97.0351H14.3597V97.4954H10.2175V99.3366Z" fill="#19181B"/>
<path d="M6.25946 95.2856H5.79922V93.5364H4.05029V93.0761H5.79922V6.62847H4.05029V6.16815H5.79922V4.41895H6.25946V6.16815H73.179V4.41895H73.6392V6.16815H75.3881V6.62847H73.6392V19.5174H73.179V6.62847H6.25946V93.0761H14.82V93.5364H6.25946V95.2856Z" fill="#19181B"/>
<path d="M82.6596 102.191H14.3594V14.27H74.007L82.6596 22.924V102.191ZM15.2799 101.178H81.7391V23.2922L73.6388 15.1907H15.2799V101.178Z" fill="#19181B"/>
</svg>
