<svg width="219" height="203" viewBox="0 0 219 203" fill="none" xmlns="http://www.w3.org/2000/svg">
<path d="M207.212 202.772H11.2441C5.00787 202.772 0 197.764 0 191.528V184.914H218.457V191.528C218.457 197.764 213.354 202.772 207.212 202.772ZM0.944881 185.858V191.528C0.944881 197.197 5.5748 201.827 11.2441 201.827H207.212C212.882 201.827 217.512 197.197 217.512 191.528V185.858H0.944881Z" fill="white"/>
<path d="M131.623 192.945H86.8354C82.6779 192.945 79.2764 189.543 79.2764 185.386V184.914H139.087V185.386C139.087 189.543 135.78 192.945 131.623 192.945ZM80.2212 185.858C80.5047 189.26 83.3394 192 86.7409 192H131.528C135.024 192 137.859 189.26 138.048 185.858H80.2212Z" fill="white"/>
<path d="M200.032 185.858H19.2764V68.4092H113.198V71.4328C113.198 74.0785 115.371 76.2517 118.016 76.2517H152.221C154.867 76.2517 157.04 74.0785 157.04 71.4328V68.4092H200.032V185.858ZM20.2212 184.913H199.087V69.3541H157.985V71.4328C157.985 74.6454 155.434 77.1966 152.221 77.1966H118.016C114.804 77.1966 112.253 74.6454 112.253 71.4328V69.3541H20.2212V184.913Z" fill="white"/>
<path d="M209.953 185.858H9.35498V63.6844C9.35498 60.6608 11.8117 58.2041 14.8353 58.2041H113.197V71.338C113.197 73.9836 115.371 76.1568 118.016 76.1568H152.221C154.867 76.1568 157.04 73.9836 157.04 71.338V58.2041H204.567C207.591 58.2041 210.048 60.6608 210.048 63.6844V185.858H209.953ZM10.2999 184.913H209.008V63.6844C209.008 61.2277 207.024 59.149 204.473 59.149H157.89V71.338C157.89 74.5506 155.339 77.1017 152.127 77.1017H117.922C114.709 77.1017 112.158 74.5506 112.158 71.338V59.149H14.8353C12.3786 59.149 10.2999 61.1332 10.2999 63.6844V184.913Z" fill="white"/>
<path d="M199.559 80.9766H19.748V81.9214H199.559V80.9766Z" fill="white"/>
<path d="M55.2754 68.8818H54.3306V81.4488H55.2754V68.8818Z" fill="white"/>
<path d="M28.7245 76.6296C29.5072 76.6296 30.1418 75.995 30.1418 75.2122C30.1418 74.4295 29.5072 73.7949 28.7245 73.7949C27.9417 73.7949 27.3071 74.4295 27.3071 75.2122C27.3071 75.995 27.9417 76.6296 28.7245 76.6296Z" fill="white"/>
<path d="M37.2284 76.6296C38.0111 76.6296 38.6457 75.995 38.6457 75.2122C38.6457 74.4295 38.0111 73.7949 37.2284 73.7949C36.4456 73.7949 35.811 74.4295 35.811 75.2122C35.811 75.995 36.4456 76.6296 37.2284 76.6296Z" fill="white"/>
<path d="M44.7874 76.6296C45.5702 76.6296 46.2048 75.995 46.2048 75.2122C46.2048 74.4295 45.5702 73.7949 44.7874 73.7949C44.0047 73.7949 43.3701 74.4295 43.3701 75.2122C43.3701 75.995 44.0047 76.6296 44.7874 76.6296Z" fill="white"/>
<path d="M54.8031 159.024C55.5858 159.024 56.2204 158.389 56.2204 157.606C56.2204 156.824 55.5858 156.189 54.8031 156.189C54.0203 156.189 53.3857 156.824 53.3857 157.606C53.3857 158.389 54.0203 159.024 54.8031 159.024Z" fill="white"/>
<path d="M78.9928 151.275H57.733C51.8747 151.275 46.9613 147.118 45.922 141.354L40.3472 109.7H103.843L98.0794 135.495H78.9928V151.275ZM41.481 110.645L46.8668 141.259C47.8117 146.551 52.3472 150.425 57.733 150.425H78.0479V134.551H97.3235L102.615 110.645H41.481Z" fill="white"/>
<path d="M40.4403 110.267C40.3458 109.795 38.5505 98.5508 26.2671 98.5508V97.606C39.4009 97.606 41.3852 109.984 41.3852 110.078L40.4403 110.267Z" fill="white"/>
<path d="M78.519 140.882H46.3931V141.827H78.519V140.882Z" fill="white"/>
<path d="M57.0268 110.14L56.0884 110.25L59.7524 141.407L60.6909 141.297L57.0268 110.14Z" fill="white"/>
<path d="M72.567 110.173H71.6221V141.259H72.567V110.173Z" fill="white"/>
<path d="M88.4227 110.104L84.5923 134.944L85.5261 135.088L89.3565 110.248L88.4227 110.104Z" fill="white"/>
<path d="M100.157 123.59H43.3701V124.535H100.157V123.59Z" fill="white"/>
<path d="M54.8024 164.125C51.2118 164.125 48.2827 161.196 48.2827 157.606C48.2827 154.015 51.2118 151.086 54.8024 151.086C58.3929 151.086 61.3221 154.015 61.3221 157.606C61.3221 161.196 58.3929 164.125 54.8024 164.125ZM54.8024 152.031C51.7788 152.031 49.2276 154.488 49.2276 157.606C49.2276 160.724 51.6843 163.18 54.8024 163.18C57.9205 163.18 60.3772 160.724 60.3772 157.606C60.3772 154.488 57.9205 152.031 54.8024 152.031Z" fill="white"/>
<path d="M108.756 164.126H78.0479V134.551H108.756V164.126ZM78.9927 163.181H107.812V135.496H78.9927V163.181Z" fill="#FF6F43"/>
<path d="M92.9755 155.15C89.1015 155.15 85.9834 152.032 85.9834 148.158V140.788H86.9283V148.158C86.9283 151.465 89.6684 154.205 92.9755 154.205C96.2826 154.205 99.0228 151.465 99.0228 148.158V140.788H99.9676V148.158C99.9676 152.032 96.8495 155.15 92.9755 155.15Z" fill="#FF6F43"/>
<path d="M160.818 94.4878H142.487V95.4327H160.818V94.4878Z" fill="white"/>
<path d="M177.449 103.653H125.575V104.598H177.449V103.653Z" fill="white"/>
<path d="M176.031 32.0317H148.819V32.9766H176.031V32.0317Z" fill="#FF6F43"/>
<path d="M161.102 38.0786H148.819V39.0235H161.102V38.0786Z" fill="#FF6F43"/>
<path d="M204.378 38.0786H166.394V39.0235H204.378V38.0786Z" fill="#FF6F43"/>
<path d="M177.449 112.819H125.575V113.764H177.449V112.819Z" fill="white"/>
<path d="M177.449 121.606H125.575V122.551H177.449V121.606Z" fill="white"/>
<path d="M173.008 164.125H126.898C123.496 164.125 120.756 161.385 120.756 157.984V148.724C120.756 145.322 123.496 142.582 126.898 142.582H175.559C178.961 142.582 181.701 145.322 181.701 148.724V158.456L169.134 154.11L173.008 164.125ZM126.898 143.527C124.063 143.527 121.701 145.889 121.701 148.724V157.984C121.701 160.818 124.063 163.18 126.898 163.18H171.685L167.527 152.598L180.756 157.228V148.724C180.756 145.889 178.394 143.527 175.559 143.527H126.898Z" fill="#FF6F43"/>
<path d="M177.26 177.637L167.527 152.503L193.323 161.48L183.874 167.244L177.26 177.637ZM169.134 154.11L177.543 175.559L183.212 166.582L191.149 161.763L169.134 154.11Z" fill="white"/>
<path d="M152.22 77.1968H118.016C114.803 77.1968 112.252 74.6456 112.252 71.433V5.76377C112.252 2.55117 114.803 0 118.016 0H152.22C155.433 0 157.984 2.55117 157.984 5.76377V25.2283H142.583V30.3307L132.85 30.7086L142.583 40.4409V46.6771H157.984V71.433C157.984 74.5511 155.433 77.1968 152.22 77.1968ZM118.016 0.850387C115.37 0.850387 113.197 3.02362 113.197 5.66929V71.3385C113.197 73.9842 115.37 76.1574 118.016 76.1574H152.22C154.866 76.1574 157.039 73.9842 157.039 71.3385V47.622H141.638V40.8189L130.677 29.8582L141.638 29.3858V24.2834H157.039V5.76377C157.039 3.1181 154.866 0.944881 152.22 0.944881H118.016V0.850387Z" fill="white"/>
<path d="M157.512 64.4402H112.252V11.7158H157.512V12.6607H113.197V63.4953H157.512V64.4402Z" fill="white"/>
<path d="M135.118 71.8112C135.901 71.8112 136.535 71.1766 136.535 70.3939C136.535 69.6111 135.901 68.9766 135.118 68.9766C134.335 68.9766 133.701 69.6111 133.701 70.3939C133.701 71.1766 134.335 71.8112 135.118 71.8112Z" fill="white"/>
<path d="M201.449 47.6218H141.638V40.8186L130.678 29.858L141.638 29.3856V24.2832H201.449V47.6218ZM142.583 46.6769H200.504V25.2281H142.583V30.3304L132.851 30.7084L142.583 40.4407V46.6769Z" fill="#FF6F43"/>
<path d="M84.0943 48.0937L48.6613 12.6607H9.82666V11.7158H49.0392L84.7557 47.4323L84.0943 48.0937Z" fill="#FF6F43"/>
</svg>
