<svg width="121" height="126" viewBox="0 0 121 126" fill="none" xmlns="http://www.w3.org/2000/svg">
<path d="M1.10449 125.943L0.736328 125.666L1.47271 124.93V117.749H1.93295V124.47L2.30111 124.101L2.5773 124.47L2.20909 124.838H30.4681V117.749H30.9283V124.47L31.2965 124.101L31.5727 124.47L30.9283 125.114V125.298H30.7442L30.0999 125.943L29.7317 125.666L30.0999 125.298H1.74884L1.10449 125.943Z" fill="#19181B"/>
<path d="M3.03767 61.1301H2.57742V9.85076L0.276192 12.0603L0 11.7841L2.57742 9.11426L2.76147 9.29839L2.94558 9.11426L5.52295 11.7841L5.24681 12.0603L3.03767 9.85076V61.1301Z" fill="#19181B"/>
<path d="M12.0581 59.5651H11.5979V0.644445L9.38867 2.94603L9.02051 2.57778L11.6899 0L11.874 0.184128L12.0581 0L14.6355 2.57778L14.3594 2.94603L12.0581 0.644445V59.5651Z" fill="#19181B"/>
<path d="M21.1714 59.5651H20.7111V0.644445L18.502 2.94603L18.1338 2.57778L20.8032 0L20.9873 0.184128L21.0794 0L23.7488 2.57778L23.4726 2.94603L21.1714 0.644445V59.5651Z" fill="#19181B"/>
<path d="M30.2837 61.1301H29.8235V9.85076L27.6143 12.0603L27.2461 11.7841L29.9155 9.11426L30.0076 9.29839L30.1917 9.11426L32.8611 11.7841L32.4929 12.0603L30.2837 9.85076V61.1301Z" fill="#19181B"/>
<path d="M94.9944 79.0822C86.71 79.0822 80.2666 77.1489 80.2666 74.6631V67.7584C80.2666 65.2727 86.71 63.3394 94.9944 63.3394C103.279 63.3394 109.722 65.2727 109.722 67.7584V74.6631C109.722 77.1489 103.279 79.0822 94.9944 79.0822ZM80.7268 68.8632V74.5711C80.7268 76.5044 86.4339 78.5298 94.9944 78.5298C97.7559 78.5298 100.333 78.3457 102.358 77.9774V71.533C100.149 71.9013 97.6638 72.0854 94.9944 72.0854C87.9987 72.1774 82.2917 70.7965 80.7268 68.8632ZM102.911 71.533V77.9774C106.961 77.2409 109.354 75.952 109.354 74.6631V68.9552C108.342 69.9679 106.04 70.8886 102.911 71.533ZM80.7268 67.7584C80.7268 69.6917 86.4339 71.7171 94.9944 71.7171C103.555 71.7171 109.262 69.6917 109.262 67.7584C109.262 65.8251 103.555 63.7997 94.9944 63.7997C86.4339 63.7997 80.7268 65.8251 80.7268 67.7584Z" fill="#19181B"/>
<path d="M94.9944 25.7775C86.71 25.7775 80.2666 23.8442 80.2666 21.3585V14.4537C80.2666 11.968 86.71 10.0347 94.9944 10.0347C103.279 10.0347 109.722 11.968 109.722 14.4537V21.3585C109.722 23.8442 103.279 25.7775 94.9944 25.7775ZM80.7268 15.5585V21.2664C80.7268 23.1997 86.4339 25.2251 94.9944 25.2251C97.7559 25.2251 100.333 25.041 102.358 24.6728V18.2283C100.149 18.5966 97.6638 18.7807 94.9944 18.7807C87.9987 18.8728 82.2917 17.4918 80.7268 15.5585ZM102.911 18.2283V24.6728C106.961 23.9363 109.354 22.6474 109.354 21.3585V15.5585C108.342 16.7553 106.04 17.6759 102.911 18.2283ZM80.7268 14.4537C80.7268 16.3871 86.4339 18.4124 94.9944 18.4124C103.555 18.4124 109.262 16.3871 109.262 14.4537C109.262 12.5204 103.555 10.495 94.9944 10.495C86.4339 10.495 80.7268 12.5204 80.7268 14.4537Z" fill="#19181B"/>
<path d="M16.4769 80.0954C8.19245 80.0954 1.74902 78.1621 1.74902 75.6764V68.7716C1.74902 66.2859 8.19245 64.3525 16.4769 64.3525C24.7613 64.3525 31.2047 66.2859 31.2047 68.7716V75.6764C31.2047 78.1621 24.7613 80.0954 16.4769 80.0954ZM2.20927 69.8763V75.5843C2.20927 77.5176 7.91631 79.543 16.4769 79.543C19.2383 79.543 21.8157 79.3589 23.8408 78.9906V72.5462C21.6316 72.9144 19.1463 73.0986 16.4769 73.0986C9.48114 73.1906 3.86615 71.8097 2.20927 69.8763ZM24.3931 72.5462V78.9906C28.4432 78.2541 30.8365 76.9652 30.8365 75.6764V69.8763C29.8239 71.0732 27.5227 71.9938 24.3931 72.5462ZM2.20927 68.7716C2.20927 70.7049 7.91631 72.7303 16.4769 72.7303C25.0374 72.7303 30.7445 70.7049 30.7445 68.7716C30.7445 66.8383 25.0374 64.8129 16.4769 64.8129C7.91631 64.8129 2.20927 66.8383 2.20927 68.7716Z" fill="#19181B"/>
<path d="M16.4769 116C8.19245 116 1.74902 114.067 1.74902 111.581V104.676C1.74902 102.191 8.19245 100.257 16.4769 100.257C24.7613 100.257 31.2047 102.191 31.2047 104.676V111.581C31.2047 114.067 24.7613 116 16.4769 116ZM2.20927 105.781V111.489C2.20927 113.422 7.91631 115.448 16.4769 115.448C19.2383 115.448 21.8157 115.264 23.8408 114.895V108.451C21.6316 108.819 19.1463 109.003 16.4769 109.003C9.48114 109.095 3.86615 107.714 2.20927 105.781ZM24.3931 108.451V114.895C28.4432 114.159 30.8365 112.87 30.8365 111.581V105.781C29.8239 106.978 27.5227 107.899 24.3931 108.451ZM2.20927 104.676C2.20927 106.61 7.91631 108.635 16.4769 108.635C25.0374 108.635 30.7445 106.61 30.7445 104.676C30.7445 102.743 25.0374 100.718 16.4769 100.718C7.91631 100.718 2.20927 102.743 2.20927 104.676Z" fill="#19181B"/>
<path d="M94.9944 97.5866C86.71 97.5866 80.2666 95.6533 80.2666 93.1676V86.2628C80.2666 83.7771 86.71 81.8438 94.9944 81.8438C103.279 81.8438 109.722 83.7771 109.722 86.2628V93.1676C109.722 95.6533 103.279 97.5866 94.9944 97.5866ZM80.7268 87.3676V93.0755C80.7268 95.0088 86.4339 97.0342 94.9944 97.0342C97.7559 97.0342 100.333 96.8501 102.358 96.4818V90.0374C100.149 90.4056 97.6638 90.5898 94.9944 90.5898C87.9987 90.6818 82.2917 89.3009 80.7268 87.3676ZM102.911 90.0374V96.4818C106.961 95.7453 109.354 94.4564 109.354 93.1676V87.3676C108.342 88.5644 106.04 89.485 102.911 90.0374ZM80.7268 86.2628C80.7268 88.1961 86.4339 90.2215 94.9944 90.2215C103.555 90.2215 109.262 88.1961 109.262 86.2628C109.262 84.3295 103.555 82.3041 94.9944 82.3041C86.4339 82.3041 80.7268 84.3295 80.7268 86.2628Z" fill="#19181B"/>
<path d="M94.9944 116.091C86.71 116.091 80.2666 114.158 80.2666 111.672V104.768C80.2666 102.282 86.71 100.349 94.9944 100.349C103.279 100.349 109.722 102.282 109.722 104.768V111.672C109.722 114.158 103.279 116.091 94.9944 116.091ZM80.7268 105.964V111.672C80.7268 113.606 86.4339 115.631 94.9944 115.631C97.7559 115.631 100.333 115.447 102.358 115.079V108.634C100.149 109.003 97.6638 109.187 94.9944 109.187C87.9987 109.279 82.2917 107.898 80.7268 105.964ZM102.911 108.542V114.987C106.961 114.25 109.354 112.961 109.354 111.672V105.964C108.342 107.069 106.04 107.99 102.911 108.542ZM80.7268 104.768C80.7268 106.701 86.4339 108.726 94.9944 108.726C103.555 108.726 109.262 106.701 109.262 104.768C109.262 102.834 103.555 100.809 94.9944 100.809C86.4339 100.809 80.7268 102.926 80.7268 104.768Z" fill="#19181B"/>
<path d="M94.9944 61.4982C86.71 61.4982 80.2666 59.5649 80.2666 57.0792V50.1744C80.2666 47.6887 86.71 45.7554 94.9944 45.7554C103.279 45.7554 109.722 47.6887 109.722 50.1744V57.0792C109.722 59.5649 103.279 61.4982 94.9944 61.4982ZM80.7268 51.2792V56.9871C80.7268 58.9204 86.4339 60.9458 94.9944 60.9458C103.555 60.9458 109.262 58.9204 109.262 56.9871V51.2792C107.605 53.2125 101.99 54.5935 94.9944 54.5935C87.9987 54.5935 82.2917 53.2125 80.7268 51.2792ZM80.7268 50.1744C80.7268 52.1077 86.4339 54.1331 94.9944 54.1331C103.555 54.1331 109.262 52.1077 109.262 50.1744C109.262 48.2411 103.555 46.2157 94.9944 46.2157C86.4339 46.2157 80.7268 48.2411 80.7268 50.1744Z" fill="#19181B"/>
<path d="M94.9944 43.9142C86.71 43.9142 80.2666 41.9809 80.2666 39.4952V32.5904C80.2666 30.1047 86.71 28.1714 94.9944 28.1714C103.279 28.1714 109.722 30.1047 109.722 32.5904V39.4952C109.722 41.9809 103.279 43.9142 94.9944 43.9142ZM80.7268 33.6952V39.4952C80.7268 41.4285 86.4339 43.4539 94.9944 43.4539C103.555 43.4539 109.262 41.4285 109.262 39.4952V33.7873C107.605 35.7206 101.99 37.1016 94.9944 37.1016C87.9987 37.0095 82.2917 35.6285 80.7268 33.6952ZM80.7268 32.5904C80.7268 34.5238 86.4339 36.5492 94.9944 36.5492C103.555 36.5492 109.262 34.5238 109.262 32.5904C109.262 30.6571 103.555 28.6317 94.9944 28.6317C86.4339 28.6317 80.7268 30.6571 80.7268 32.5904Z" fill="#19181B"/>
<path d="M16.4769 98.2316C8.19245 98.2316 1.74902 96.2983 1.74902 93.8126V86.9078C1.74902 84.4221 8.19245 82.4888 16.4769 82.4888C24.7613 82.4888 31.2047 84.4221 31.2047 86.9078V93.8126C31.2047 96.2983 24.7613 98.2316 16.4769 98.2316ZM2.20927 88.0126V93.7205C2.20927 95.6538 7.91631 97.6792 16.4769 97.6792C25.0374 97.6792 30.7445 95.6538 30.7445 93.7205V88.0126C29.0876 89.9459 23.4726 91.3269 16.4769 91.3269C9.48114 91.3269 3.86615 89.9459 2.20927 88.0126ZM2.20927 86.9078C2.20927 88.8412 7.91631 90.8665 16.4769 90.8665C25.0374 90.8665 30.7445 88.8412 30.7445 86.9078C30.7445 84.9745 25.0374 82.9491 16.4769 82.9491C7.91631 82.9491 2.20927 84.9745 2.20927 86.9078Z" fill="#19181B"/>
<path d="M94.9942 79.2664C87.7223 79.2664 79.9902 77.6093 79.9902 74.5712V67.6664C79.9902 64.6283 87.7223 62.9712 94.9942 62.9712C102.266 62.9712 109.998 64.6283 109.998 67.6664V74.5712C109.998 77.6093 102.266 79.2664 94.9942 79.2664ZM80.9107 69.4156V74.5712C80.9107 76.3204 86.7098 78.3458 94.9942 78.3458C103.279 78.3458 109.078 76.4125 109.078 74.5712V69.4156C106.776 71.349 100.793 72.3617 94.9942 72.3617C89.1951 72.3617 83.2119 71.349 80.9107 69.4156ZM80.9107 67.7585C80.9107 69.5077 86.7098 71.5331 94.9942 71.5331C103.279 71.5331 109.078 69.5998 109.078 67.7585C109.078 66.0093 103.279 63.9839 94.9942 63.9839C86.7098 63.9839 80.9107 66.0093 80.9107 67.7585Z" fill="#19181B"/>
<path d="M94.9942 25.9617C87.7223 25.9617 79.9902 24.3046 79.9902 21.2665V14.3617C79.9902 11.3236 87.7223 9.6665 94.9942 9.6665C102.266 9.6665 109.998 11.3236 109.998 14.3617V21.2665C109.998 24.3967 102.266 25.9617 94.9942 25.9617ZM80.9107 16.203V21.3586C80.9107 23.1078 86.7098 25.1332 94.9942 25.1332C103.279 25.1332 109.078 23.1998 109.078 21.3586V16.203C106.776 18.1363 100.793 19.149 94.9942 19.149C89.1951 19.149 83.2119 18.1363 80.9107 16.203ZM80.9107 14.4538C80.9107 16.203 86.7098 18.2284 94.9942 18.2284C103.279 18.2284 109.078 16.2951 109.078 14.4538C109.078 12.7046 103.279 10.6792 94.9942 10.6792C86.7098 10.7713 80.9107 12.7046 80.9107 14.4538Z" fill="#19181B"/>
<path d="M16.4766 80.2791C9.20474 80.2791 1.47266 78.622 1.47266 75.5839V68.6791C1.47266 65.641 9.20474 63.9839 16.4766 63.9839C23.7484 63.9839 31.4805 65.641 31.4805 68.6791V75.5839C31.4805 78.714 23.7484 80.2791 16.4766 80.2791ZM2.39314 70.5204V75.676C2.39314 77.4252 8.1922 79.4505 16.4766 79.4505C24.761 79.4505 30.56 77.5172 30.56 75.676V70.5204C28.2588 72.4537 22.2757 73.4664 16.4766 73.4664C10.6775 73.4664 4.69436 72.4537 2.39314 70.5204ZM2.39314 68.7712C2.39314 70.5204 8.1922 72.5458 16.4766 72.5458C24.761 72.5458 30.56 70.6125 30.56 68.7712C30.56 67.022 24.761 64.9966 16.4766 64.9966C8.1922 65.0886 2.39314 67.022 2.39314 68.7712Z" fill="#19181B"/>
<path d="M16.4766 116.184C9.20474 116.184 1.47266 114.527 1.47266 111.489V104.584C1.47266 101.546 9.20474 99.8887 16.4766 99.8887C23.7484 99.8887 31.4805 101.546 31.4805 104.584V111.489C31.4805 114.619 23.7484 116.184 16.4766 116.184ZM2.39314 106.425V111.581C2.39314 113.33 8.1922 115.355 16.4766 115.355C24.761 115.355 30.56 113.422 30.56 111.581V106.425C28.2588 108.359 22.2757 109.371 16.4766 109.371C10.6775 109.371 4.69436 108.359 2.39314 106.425ZM2.39314 104.676C2.39314 106.425 8.1922 108.451 16.4766 108.451C24.761 108.451 30.56 106.517 30.56 104.676C30.56 102.927 24.761 100.901 16.4766 100.901C8.1922 100.993 2.39314 102.927 2.39314 104.676Z" fill="#19181B"/>
<path d="M94.9942 97.7713C87.7223 97.7713 79.9902 96.1142 79.9902 93.0761V86.1713C79.9902 83.1332 87.7223 81.4761 94.9942 81.4761C102.266 81.4761 109.998 83.1332 109.998 86.1713V93.0761C109.998 96.2062 102.266 97.7713 94.9942 97.7713ZM80.9107 88.0126V93.1681C80.9107 94.9173 86.7098 96.9427 94.9942 96.9427C103.279 96.9427 109.078 95.0094 109.078 93.1681V88.0126C106.776 89.9459 100.793 90.9586 94.9942 90.9586C89.1951 90.9586 83.2119 89.9459 80.9107 88.0126ZM80.9107 86.2634C80.9107 88.0126 86.7098 90.038 94.9942 90.038C103.279 90.038 109.078 88.1046 109.078 86.2634C109.078 84.5142 103.279 82.4888 94.9942 82.4888C86.7098 82.5808 80.9107 84.5142 80.9107 86.2634Z" fill="#19181B"/>
<path d="M94.9942 116.368C87.7223 116.368 79.9902 114.711 79.9902 111.673V104.768C79.9902 101.73 87.7223 100.073 94.9942 100.073C102.266 100.073 109.998 101.73 109.998 104.768V111.673C109.998 114.711 102.266 116.368 94.9942 116.368ZM80.9107 106.518V111.673C80.9107 113.422 86.7098 115.448 94.9942 115.448C103.279 115.448 109.078 113.514 109.078 111.673V106.518C106.776 108.451 100.793 109.464 94.9942 109.464C89.1951 109.464 83.2119 108.451 80.9107 106.518ZM80.9107 104.768C80.9107 106.518 86.7098 108.543 94.9942 108.543C103.279 108.543 109.078 106.61 109.078 104.768C109.078 103.019 103.279 100.994 94.9942 100.994C86.7098 101.086 80.9107 103.019 80.9107 104.768Z" fill="#19181B"/>
<path d="M56.426 79.0822C48.1416 79.0822 41.6982 77.1489 41.6982 74.6631V67.7584C41.6982 65.2727 48.1416 63.3394 56.426 63.3394C64.7104 63.3394 71.1538 65.2727 71.1538 67.7584V74.6631C71.1538 77.1489 64.7104 79.0822 56.426 79.0822ZM42.1585 68.8632V74.5711C42.1585 76.5044 47.8655 78.5298 56.426 78.5298C59.1875 78.5298 61.7648 78.3457 63.7899 77.9774V71.533C61.5807 71.9013 59.0954 72.0854 56.426 72.0854C49.4303 72.1774 43.8154 70.7965 42.1585 68.8632ZM64.3422 71.533V77.9774C68.3923 77.2409 70.7856 75.952 70.7856 74.6631V68.9552C69.773 69.9679 67.4718 70.8886 64.3422 71.533ZM42.1585 67.7584C42.1585 69.6917 47.8655 71.7171 56.426 71.7171C64.9865 71.7171 70.6936 69.6917 70.6936 67.7584C70.6936 65.8251 64.9865 63.7997 56.426 63.7997C47.8655 63.7997 42.1585 65.8251 42.1585 67.7584Z" fill="#19181B"/>
<path d="M56.426 25.7775C48.1416 25.7775 41.6982 23.8442 41.6982 21.3585V14.4537C41.6982 11.968 48.1416 10.0347 56.426 10.0347C64.7104 10.0347 71.1538 11.968 71.1538 14.4537V21.3585C71.1538 23.8442 64.7104 25.7775 56.426 25.7775ZM42.1585 15.5585V21.2664C42.1585 23.1997 47.8655 25.2251 56.426 25.2251C59.1875 25.2251 61.7648 25.041 63.7899 24.6728V18.2283C61.5807 18.5966 59.0954 18.7807 56.426 18.7807C49.4303 18.8728 43.8154 17.4918 42.1585 15.5585ZM64.3422 18.2283V24.6728C68.3923 23.9363 70.7856 22.6474 70.7856 21.3585V15.5585C69.773 16.7553 67.4718 17.6759 64.3422 18.2283ZM42.1585 14.4537C42.1585 16.3871 47.8655 18.4124 56.426 18.4124C64.9865 18.4124 70.6936 16.3871 70.6936 14.4537C70.6936 12.5204 64.9865 10.495 56.426 10.495C47.8655 10.495 42.1585 12.5204 42.1585 14.4537Z" fill="#19181B"/>
<path d="M56.426 97.5866C48.1416 97.5866 41.6982 95.6533 41.6982 93.1676V86.2628C41.6982 83.7771 48.1416 81.8438 56.426 81.8438C64.7104 81.8438 71.1538 83.7771 71.1538 86.2628V93.1676C71.1538 95.6533 64.7104 97.5866 56.426 97.5866ZM42.1585 87.3676V93.0755C42.1585 95.0088 47.8655 97.0342 56.426 97.0342C59.1875 97.0342 61.7648 96.8501 63.7899 96.4818V90.0374C61.5807 90.4056 59.0954 90.5898 56.426 90.5898C49.4303 90.6818 43.8154 89.3009 42.1585 87.3676ZM64.3422 90.0374V96.4818C68.3923 95.7453 70.7856 94.4564 70.7856 93.1676V87.3676C69.773 88.5644 67.4718 89.485 64.3422 90.0374ZM42.1585 86.2628C42.1585 88.1961 47.8655 90.2215 56.426 90.2215C64.9865 90.2215 70.6936 88.1961 70.6936 86.2628C70.6936 84.3295 64.9865 82.3041 56.426 82.3041C47.8655 82.3041 42.1585 84.3295 42.1585 86.2628Z" fill="#19181B"/>
<path d="M56.426 116.091C48.1416 116.091 41.6982 114.158 41.6982 111.672V104.768C41.6982 102.282 48.1416 100.349 56.426 100.349C64.7104 100.349 71.1538 102.282 71.1538 104.768V111.672C71.1538 114.158 64.7104 116.091 56.426 116.091ZM42.1585 105.964V111.672C42.1585 113.606 47.8655 115.631 56.426 115.631C59.1875 115.631 61.7648 115.447 63.7899 115.079V108.634C61.5807 109.003 59.0954 109.187 56.426 109.187C49.4303 109.279 43.8154 107.898 42.1585 105.964ZM64.3422 108.542V114.987C68.3923 114.25 70.7856 112.961 70.7856 111.672V105.964C69.773 107.069 67.4718 107.99 64.3422 108.542ZM42.1585 104.768C42.1585 106.701 47.8655 108.726 56.426 108.726C64.9865 108.726 70.6936 106.701 70.6936 104.768C70.6936 102.834 64.9865 100.809 56.426 100.809C47.8655 100.809 42.1585 102.926 42.1585 104.768Z" fill="#19181B"/>
<path d="M56.426 61.4982C48.1416 61.4982 41.6982 59.5649 41.6982 57.0792V50.1744C41.6982 47.6887 48.1416 45.7554 56.426 45.7554C64.7104 45.7554 71.1538 47.6887 71.1538 50.1744V57.0792C71.1538 59.5649 64.7104 61.4982 56.426 61.4982ZM42.1585 51.2792V56.9871C42.1585 58.9204 47.8655 60.9458 56.426 60.9458C64.9865 60.9458 70.6936 58.9204 70.6936 56.9871V51.2792C69.0367 53.2125 63.4217 54.5935 56.426 54.5935C49.4303 54.5935 43.8154 53.2125 42.1585 51.2792ZM42.1585 50.1744C42.1585 52.1077 47.8655 54.1331 56.426 54.1331C64.9865 54.1331 70.6936 52.1077 70.6936 50.1744C70.6936 48.2411 64.9865 46.2157 56.426 46.2157C47.8655 46.2157 42.1585 48.2411 42.1585 50.1744Z" fill="#19181B"/>
<path d="M56.426 43.9142C48.1416 43.9142 41.6982 41.9809 41.6982 39.4952V32.5904C41.6982 30.1047 48.1416 28.1714 56.426 28.1714C64.7104 28.1714 71.1538 30.1047 71.1538 32.5904V39.4952C71.1538 41.9809 64.7104 43.9142 56.426 43.9142ZM42.1585 33.6952V39.4952C42.1585 41.4285 47.8655 43.4539 56.426 43.4539C64.9865 43.4539 70.6936 41.4285 70.6936 39.4952V33.7873C69.0367 35.7206 63.4217 37.1016 56.426 37.1016C49.4303 37.0095 43.8154 35.6285 42.1585 33.6952ZM42.1585 32.5904C42.1585 34.5238 47.8655 36.5492 56.426 36.5492C64.9865 36.5492 70.6936 34.5238 70.6936 32.5904C70.6936 30.6571 64.9865 28.6317 56.426 28.6317C47.8655 28.6317 42.1585 30.6571 42.1585 32.5904Z" fill="#19181B"/>
<path d="M56.4259 79.2664C49.154 79.2664 41.4219 77.6093 41.4219 74.5712V67.6664C41.4219 64.6283 49.154 62.9712 56.4259 62.9712C63.6978 62.9712 71.4299 64.6283 71.4299 67.6664V74.5712C71.4299 77.6093 63.6978 79.2664 56.4259 79.2664ZM42.3424 69.4156V74.5712C42.3424 76.3204 48.1415 78.3458 56.4259 78.3458C64.7103 78.3458 70.5094 76.4125 70.5094 74.5712V69.4156C68.2081 71.349 62.225 72.3617 56.4259 72.3617C50.6268 72.3617 44.6436 71.349 42.3424 69.4156ZM42.3424 67.7585C42.3424 69.5077 48.1415 71.5331 56.4259 71.5331C64.7103 71.5331 70.5094 69.5998 70.5094 67.7585C70.5094 66.0093 64.7103 63.9839 56.4259 63.9839C48.1415 63.9839 42.3424 66.0093 42.3424 67.7585Z" fill="#19181B"/>
<path d="M56.4259 25.9617C49.154 25.9617 41.4219 24.3046 41.4219 21.2665V14.3617C41.4219 11.3236 49.154 9.6665 56.4259 9.6665C63.6978 9.6665 71.4299 11.3236 71.4299 14.3617V21.2665C71.4299 24.3967 63.6978 25.9617 56.4259 25.9617ZM42.3424 16.203V21.3586C42.3424 23.1078 48.1415 25.1332 56.4259 25.1332C64.7103 25.1332 70.5094 23.1998 70.5094 21.3586V16.203C68.2081 18.1363 62.225 19.149 56.4259 19.149C50.6268 19.149 44.6436 18.1363 42.3424 16.203ZM42.3424 14.4538C42.3424 16.203 48.1415 18.2284 56.4259 18.2284C64.7103 18.2284 70.5094 16.2951 70.5094 14.4538C70.5094 12.7046 64.7103 10.6792 56.4259 10.6792C48.1415 10.7713 42.3424 12.7046 42.3424 14.4538Z" fill="#19181B"/>
<path d="M56.4259 97.7713C49.154 97.7713 41.4219 96.1142 41.4219 93.0761V86.1713C41.4219 83.1332 49.154 81.4761 56.4259 81.4761C63.6978 81.4761 71.4299 83.1332 71.4299 86.1713V93.0761C71.4299 96.2062 63.6978 97.7713 56.4259 97.7713ZM42.3424 88.0126V93.1681C42.3424 94.9173 48.1415 96.9427 56.4259 96.9427C64.7103 96.9427 70.5094 95.0094 70.5094 93.1681V88.0126C68.2081 89.9459 62.225 90.9586 56.4259 90.9586C50.6268 90.9586 44.6436 89.9459 42.3424 88.0126ZM42.3424 86.2634C42.3424 88.0126 48.1415 90.038 56.4259 90.038C64.7103 90.038 70.5094 88.1046 70.5094 86.2634C70.5094 84.5142 64.7103 82.4888 56.4259 82.4888C48.1415 82.5808 42.3424 84.5142 42.3424 86.2634Z" fill="#19181B"/>
<path d="M56.4259 116.368C49.154 116.368 41.4219 114.711 41.4219 111.673V104.768C41.4219 101.73 49.154 100.073 56.4259 100.073C63.6978 100.073 71.4299 101.73 71.4299 104.768V111.673C71.4299 114.711 63.6978 116.368 56.4259 116.368ZM42.3424 106.518V111.673C42.3424 113.422 48.1415 115.448 56.4259 115.448C64.7103 115.448 70.5094 113.514 70.5094 111.673V106.518C68.2081 108.451 62.225 109.464 56.4259 109.464C50.6268 109.464 44.6436 108.451 42.3424 106.518ZM42.3424 104.768C42.3424 106.518 48.1415 108.543 56.4259 108.543C64.7103 108.543 70.5094 106.61 70.5094 104.768C70.5094 103.019 64.7103 100.994 56.4259 100.994C48.1415 101.086 42.3424 103.019 42.3424 104.768Z" fill="#19181B"/>
<path d="M119.847 58.1841L118.926 57.2634H113.312V56.8031H118.466L117.914 56.2507L118.282 55.8825L118.834 56.4349V49.6222H113.312V49.1618H118.466L117.914 48.6095L118.282 48.2412L120.215 50.1745L119.847 50.5428L119.295 49.9904V56.9872L120.215 57.9079L119.847 58.1841Z" fill="#19181B"/>
</svg>
