<svg width="143" height="132" viewBox="0 0 143 132" fill="none" xmlns="http://www.w3.org/2000/svg">
<path d="M80.2666 131.467C79.3461 131.467 78.3336 131.283 77.5051 130.822L0.920489 94.6414C0.368195 94.3652 0 93.9049 0 93.2604V90.4985C0 90.4064 0 90.3144 0 90.3144C0.0920489 89.6699 0.460244 89.1176 1.01254 88.9334L56.4259 66.562C56.9782 66.3779 57.5305 66.1938 58.0828 66.1017C57.8067 65.3652 57.7146 64.6287 57.7146 63.8922V2.85407C57.7146 2.30169 57.9908 1.84137 58.451 1.47312C58.6351 1.38105 58.7272 1.28899 58.9113 1.19693L61.1204 0.368356C61.2125 0.276293 61.3966 0.276292 61.4886 0.276292C61.8568 0.184229 62.225 0.184229 62.5932 0.368356L138.902 36.3652C141.111 37.4699 142.584 39.6795 142.584 42.2572V103.295C142.584 104.032 142.123 104.676 141.479 104.86L139.178 105.781V107.162C139.086 107.806 138.718 108.359 138.165 108.543L82.7519 130.914C81.9235 131.283 81.095 131.467 80.2666 131.467Z" fill="#FF6F43"/>
<path d="M80.2666 131.467C79.3461 131.467 78.3336 131.283 77.5051 130.822L0.920489 94.6414C0.368195 94.3652 0 93.9049 0 93.2604V90.4985C0 90.4064 0 90.3144 0 90.3144H0.460244H0C0.0920489 89.6699 0.460244 89.1176 1.01254 88.9334L56.426 66.562C56.9782 66.3779 57.5305 66.1938 58.0828 66.1017C57.8067 65.3652 57.7146 64.6287 57.7146 63.8922V2.85407C57.7146 2.30169 57.9908 1.84137 58.451 1.47312C58.6351 1.38105 58.7272 1.28899 58.9113 1.19693L61.1204 0.368356C61.2125 0.276293 61.3966 0.276292 61.4886 0.276292C61.8568 0.184229 62.225 0.184229 62.5932 0.368356L138.902 36.3652C141.111 37.4699 142.584 39.6795 142.584 42.2572V103.295C142.584 104.032 142.123 104.676 141.479 104.86L139.178 105.781V107.162C139.086 107.806 138.718 108.359 138.165 108.543L82.7519 130.914C81.9235 131.283 81.095 131.467 80.2666 131.467ZM0.920489 91.9715V93.2604C0.920489 93.3525 1.01254 93.6287 1.38073 93.8128L77.9654 129.994C79.3461 130.638 81.003 130.73 82.3837 130.086L137.797 107.714C138.165 107.53 138.257 107.254 138.257 107.07V105.781C138.257 105.781 138.165 105.781 138.165 105.873L82.7519 128.245C81.095 128.889 79.162 128.889 77.5972 128.06L0.920489 91.9715ZM0.920489 90.4985C0.920489 90.6826 1.01254 90.9588 1.38073 91.143L77.9654 127.324C79.3461 127.968 81.003 128.06 82.3837 127.416L137.797 105.045C138.165 104.86 138.257 104.584 138.257 104.4H138.718H138.257C138.257 104.124 138.165 103.848 137.797 103.664L61.2125 67.4826C60.4761 67.1144 59.6477 66.9303 58.7272 66.9303C58.0828 66.9303 57.3464 67.1144 56.7021 67.2985L1.38073 89.762C1.10459 89.8541 0.920489 90.1303 0.920489 90.4064V90.4985ZM60.5682 1.65724L136.324 37.4699C138.534 38.5747 140.006 40.8763 140.006 43.362V104.4C140.006 104.492 140.006 104.492 140.006 104.584L141.111 104.124L141.295 104.584L141.111 104.124L141.295 104.032C141.479 103.94 141.663 103.664 141.663 103.387V42.2572C141.663 40.1398 140.375 38.1144 138.441 37.1938L62.225 1.19693C62.0409 1.10486 61.9489 1.10487 61.7648 1.10487L61.4886 1.19693L61.3045 0.73661L61.4886 1.19693L60.5682 1.65724ZM59.0954 66.1017C60.0159 66.1017 60.8443 66.3779 61.6727 66.7461L69.2207 70.2445L138.257 102.927C138.718 103.203 139.086 103.572 139.178 104.124V43.362C139.178 41.2445 137.889 39.2191 135.956 38.2985L59.6477 2.20963C59.3715 2.11756 59.0954 2.11756 58.9113 2.30169C58.7272 2.48582 58.6351 2.66994 58.6351 2.94613V63.9842C58.6351 64.6287 58.7272 65.3652 59.0954 66.1017ZM56.7021 114.527C55.9657 114.527 55.1373 114.343 54.4009 113.975L27.4306 101.27C26.8783 100.994 26.6021 100.533 26.6021 99.9811C26.6021 99.4287 26.9703 98.8763 27.5226 98.6922L43.6312 92.2477C45.0119 91.6953 46.5767 91.7874 47.8654 92.3398L74.8357 105.045C75.388 105.321 75.6642 105.781 75.6642 106.333C75.6642 106.886 75.296 107.438 74.7437 107.622L58.6351 114.067C58.0828 114.435 57.3464 114.527 56.7021 114.527ZM43.9994 93.0763L27.8908 99.5207C27.6147 99.6128 27.6147 99.889 27.6147 99.9811C27.6147 100.073 27.6147 100.349 27.8908 100.441L54.8611 113.146C55.9657 113.699 57.2544 113.699 58.359 113.238L74.4675 106.794C74.7437 106.702 74.7437 106.425 74.7437 106.333C74.7437 106.241 74.7437 105.965 74.4675 105.873L47.4972 93.1683C46.3926 92.616 45.1039 92.616 43.9994 93.0763Z" fill="#19181B"/>
<path d="M80.2666 131.191C79.3461 131.191 78.4256 131.007 77.5972 130.638L1.01252 94.4573C0.552278 94.2732 0.276131 93.8129 0.184082 93.2605H0.36818H0.184082C0.184082 93.1684 0.184082 93.0764 0.184082 93.0764V90.5906C0.184082 90.4986 0.184082 90.4986 0.184082 90.4065H0.36818H0.184082C0.184082 89.8541 0.552278 89.3938 1.10457 89.2097L56.518 66.7462C57.2544 66.47 57.9908 66.2859 58.7272 66.2859C59.4636 66.2859 60.2 66.378 60.8443 66.6541C61.0284 66.7462 61.3045 66.8383 61.4886 66.9303L138.073 103.111L137.889 103.572L128.408 99.0605L125.831 100.073L137.337 105.505L137.797 105.321L137.981 105.781H137.889L138.073 105.873C138.626 106.149 138.902 106.702 138.902 107.346C138.81 107.899 138.534 108.359 137.981 108.543L82.5678 130.914C81.8314 131.099 81.095 131.191 80.2666 131.191ZM0.736375 93.2605C0.736375 93.6288 1.01252 93.9049 1.28867 94.0891L77.8733 130.27C79.3461 130.914 81.003 131.007 82.4758 130.362L137.889 107.991C138.257 107.807 138.442 107.53 138.534 107.162C138.534 106.794 138.441 106.426 137.981 106.149L137.429 105.873L82.6599 127.968C81.0951 128.613 79.2541 128.521 77.6892 127.784L1.74891 92.0637L1.28867 92.2478C0.920473 92.4319 0.736375 92.7081 0.644326 93.0764V93.2605H0.736375ZM2.39325 91.8795L77.8733 127.508C79.3461 128.153 81.003 128.245 82.4758 127.6L105.396 118.394L27.6146 81.6605L2.39325 91.8795ZM94.4421 112.686L105.948 118.118L136.785 105.689L125.279 100.257L94.4421 112.686ZM35.2547 84.7907L93.7978 112.41L124.634 99.9811L66.0911 72.3621L35.2547 84.7907ZM66.2752 71.9018L125.279 99.797L127.856 98.7843L61.3966 67.3907C61.2125 67.2986 61.0284 67.2065 60.8443 67.1145C60.2 66.9303 59.5556 66.7462 58.8192 66.8383C58.0828 66.8383 57.4385 67.0224 56.7941 67.2986L25.1293 80.0034L27.7067 81.2002L56.518 69.5081C58.0828 68.8637 59.9238 68.9557 61.4886 69.6922L66.2752 71.9018ZM0.736375 91.5113V92.1557C0.828424 92.0637 1.01252 91.9716 1.19662 91.8795H1.28867L1.10457 91.7875C0.920473 91.6954 0.828424 91.6033 0.736375 91.5113ZM0.736375 90.4986C0.736375 90.7748 0.920473 91.143 1.28867 91.3272L1.84096 91.6034L27.0624 81.3843L24.485 80.1875L1.28867 89.578C0.920473 89.7621 0.736375 90.0383 0.644326 90.4065V90.4986H0.736375ZM28.1669 81.3843L34.7024 84.5145L65.5388 72.0859L61.3045 70.0605C59.8318 69.4161 58.1749 69.324 56.7021 69.9684L28.1669 81.3843ZM134.207 94.5494C134.023 94.5494 133.747 94.5494 133.563 94.4573L65.0785 62.051C62.8694 61.0383 61.4886 58.8288 61.4886 56.4351V10.1272C61.4886 9.66686 61.7648 9.20654 62.133 8.93035C62.5012 8.65416 63.0535 8.65416 63.5137 8.83829L131.998 41.1526C134.207 42.1653 135.588 44.3748 135.588 46.7684V93.0764C135.588 93.5367 135.312 93.997 134.944 94.2732C134.668 94.4573 134.483 94.5494 134.207 94.5494ZM62.9614 9.11448C62.7773 9.11448 62.5932 9.20654 62.4091 9.2986C62.133 9.48273 61.9489 9.75892 61.9489 10.1272V56.4351C61.9489 58.6446 63.2376 60.67 65.2626 61.6827L133.747 93.997C134.023 94.1811 134.391 94.0891 134.667 93.9049C134.944 93.7208 135.128 93.4446 135.128 93.0764V46.7684C135.128 44.5589 133.839 42.5335 131.814 41.5208L63.3296 9.20654C63.2376 9.20654 63.1455 9.11448 62.9614 9.11448Z" fill="#19181B"/>
<path d="M87.3542 61.6825L82.6597 59.565L82.8438 40.2317L79.0698 43.0857L76.4004 38.4825L83.4882 33.2349L87.6304 35.0761L87.3542 61.6825Z" fill="#19181B"/>
<path d="M102.45 69.0477C99.0442 67.4827 96.2827 64.9969 94.0735 61.4065C91.8643 57.816 90.7598 54.0414 90.7598 49.9906C90.7598 45.9398 91.9564 43.1779 94.2576 41.6128C96.5588 40.0477 99.3203 40.0477 102.726 41.5208C106.868 43.362 109.906 46.9525 111.931 52.2001L107.881 52.7525C107.421 51.3716 106.684 50.1747 105.764 48.9779C104.843 47.7811 103.831 46.9525 102.726 46.4922C100.701 45.5716 99.0442 45.6636 97.7555 46.6763C96.4668 47.7811 95.7304 49.5303 95.7304 52.1081C95.7304 54.5938 96.3747 56.9874 97.6634 59.289C98.9521 61.4985 100.609 63.0636 102.634 63.9842C103.739 64.4446 104.751 64.6287 105.672 64.2604C106.592 63.9842 107.329 63.3398 107.881 62.4192L111.931 66.562C109.63 70.0604 106.5 70.889 102.45 69.0477Z" fill="#19181B"/>
</svg>
