<svg width="129" height="104" viewBox="0 0 129 104" fill="none" xmlns="http://www.w3.org/2000/svg">
<path d="M125.831 99.9808H2.39307V2.39355H125.831V99.9808ZM3.31355 99.0602H124.91V3.31419H3.31355V99.0602Z" fill="#19181B"/>
<path d="M40.3176 13.5332H35.0708V14.4538H40.3176V13.5332Z" fill="#19181B"/>
<path d="M91.3126 16.6636H35.0708V17.5842H91.3126V16.6636Z" fill="#19181B"/>
<path d="M91.3126 18.873H35.0708V19.7937H91.3126V18.873Z" fill="#19181B"/>
<path d="M91.3126 84.6064H35.0708V85.5271H91.3126V84.6064Z" fill="#19181B"/>
<path d="M91.3126 87.0923H35.0708V88.0129H91.3126V87.0923Z" fill="#19181B"/>
<path d="M91.3126 89.4858H35.0708V90.4065H91.3126V89.4858Z" fill="#19181B"/>
<path d="M91.3126 21.3589H35.0708V22.2795H91.3126V21.3589Z" fill="#19181B"/>
<path d="M91.2204 41.9808H34.6104V25.6855H91.2204V41.9808ZM35.5308 41.0602H90.2999V26.6062H35.5308V41.0602Z" fill="#19181B"/>
<path d="M90.7604 30.749H35.0708V31.6697H90.7604V30.749Z" fill="#19181B"/>
<path d="M90.7604 35.9048H35.0708V36.8254H90.7604V35.9048Z" fill="#19181B"/>
<path d="M49.5233 26.146H48.6021V41.6127H49.5233V26.146Z" fill="#19181B"/>
<path d="M63.4223 26.146H62.501V41.6127H63.4223V26.146Z" fill="#19181B"/>
<path d="M77.4139 26.146H76.4927V41.6127H77.4139V26.146Z" fill="#19181B"/>
<path d="M40.3176 44.4668H35.0708V45.3874H40.3176V44.4668Z" fill="#19181B"/>
<path d="M40.3176 47.5049H35.0708V48.4255H40.3176V47.5049Z" fill="#19181B"/>
<path d="M40.3176 50.7271H35.0708V51.6477H40.3176V50.7271Z" fill="#19181B"/>
<path d="M40.3176 53.9492H35.0708V54.8698H40.3176V53.9492Z" fill="#19181B"/>
<path d="M91.3125 47.5049H43.1709V48.4255H91.3125V47.5049Z" fill="#19181B"/>
<path d="M91.3125 50.7271H43.1709V51.6477H91.3125V50.7271Z" fill="#19181B"/>
<path d="M91.3125 53.9492H43.1709V54.8698H91.3125V53.9492Z" fill="#19181B"/>
<path d="M42.2521 47.5049H41.3301V48.4263H42.2521V47.5049Z" fill="#19181B"/>
<path d="M42.2521 50.7271H41.3301V51.6485H42.2521V50.7271Z" fill="#19181B"/>
<path d="M42.2521 53.9492H41.3301V54.8706H42.2521V53.9492Z" fill="#19181B"/>
<path d="M35.7152 79.2666L34.8867 78.8983C39.0289 69.5999 42.5268 65.273 45.6565 65.6412C46.5769 65.7333 47.2213 66.2857 47.9577 66.838C48.8782 67.4825 49.8907 68.3111 51.6396 68.7714C52.5601 69.0476 55.2295 69.692 57.8069 68.5872C59.3717 67.9428 59.924 66.9301 60.6604 65.8253C61.3048 64.7206 62.0411 63.5238 63.7901 62.6031C66.2754 61.2222 69.5892 60.946 72.1665 61.9587C74.7439 62.9714 75.5723 63.7079 77.7815 66.1015L78.4259 66.746C79.5305 67.8507 81.6476 68.5872 84.6852 68.6793H84.7772C87.999 68.6793 90.3922 63.7999 91.3127 59.1968L92.2332 59.3809C91.3127 64.5365 88.6433 69.5999 84.8693 69.5999H84.7772C81.5555 69.5079 79.2543 68.7714 77.9656 67.3904L77.3213 66.746C75.02 64.3523 74.3757 63.7079 71.9824 62.7873C69.5892 61.8666 66.5515 62.1428 64.3424 63.4317C62.7775 64.2603 62.2252 65.273 61.4888 66.3777C60.7525 67.4825 60.0161 68.6793 58.2671 69.5079C55.4136 70.7968 52.4681 69.9682 51.5476 69.7841C49.5225 69.2317 48.4179 68.4031 47.4974 67.6666C46.761 67.1142 46.3008 66.746 45.5644 66.6539C43.7234 66.3777 40.5937 68.4031 35.7152 79.2666Z" fill="#19181B"/>
<path d="M35.2545 81.1079C34.15 81.1079 33.2295 80.1873 33.2295 79.0825C33.2295 77.9778 34.15 77.0571 35.2545 77.0571C36.3591 77.0571 37.2796 77.9778 37.2796 79.0825C37.2796 80.1873 36.3591 81.1079 35.2545 81.1079ZM35.2545 77.9778C34.6102 77.9778 34.15 78.4381 34.15 79.0825C34.15 79.727 34.6102 80.1873 35.2545 80.1873C35.8989 80.1873 36.3591 79.727 36.3591 79.0825C36.3591 78.4381 35.8989 77.9778 35.2545 77.9778Z" fill="#19181B"/>
<path d="M45.5641 68.127C44.4596 68.127 43.5391 67.2063 43.5391 66.1016C43.5391 64.9968 44.4596 64.0762 45.5641 64.0762C46.6687 64.0762 47.5892 64.9968 47.5892 66.1016C47.5892 67.2063 46.6687 68.127 45.5641 68.127ZM45.5641 64.9968C44.9198 64.9968 44.4596 65.4571 44.4596 66.1016C44.4596 66.746 44.9198 67.2063 45.5641 67.2063C46.2085 67.2063 46.6687 66.746 46.6687 66.1016C46.6687 65.5492 46.1164 64.9968 45.5641 64.9968Z" fill="#19181B"/>
<path d="M55.0451 71.7173C53.9405 71.7173 53.02 70.7967 53.02 69.6919C53.02 68.5871 53.9405 67.6665 55.0451 67.6665C56.1496 67.6665 57.0701 68.5871 57.0701 69.6919C57.0701 70.7967 56.1496 71.7173 55.0451 71.7173ZM55.0451 68.5871C54.4007 68.5871 53.9405 69.0475 53.9405 69.6919C53.9405 70.3363 54.4007 70.7967 55.0451 70.7967C55.6894 70.7967 56.1496 70.3363 56.1496 69.6919C56.1496 69.0475 55.5973 68.5871 55.0451 68.5871Z" fill="#19181B"/>
<path d="M68.6687 63.8921C67.5641 63.8921 66.6436 62.9715 66.6436 61.8667C66.6436 60.7619 67.5641 59.8413 68.6687 59.8413C69.7732 59.8413 70.6937 60.7619 70.6937 61.8667C70.6937 62.9715 69.7732 63.8921 68.6687 63.8921ZM68.6687 60.7619C68.0243 60.7619 67.564 61.2223 67.564 61.8667C67.564 62.5111 68.0243 62.9715 68.6687 62.9715C69.313 62.9715 69.7732 62.5111 69.7732 61.8667C69.7732 61.2223 69.221 60.7619 68.6687 60.7619Z" fill="#19181B"/>
<path d="M84.0407 71.1646C82.9361 71.1646 82.0156 70.2439 82.0156 69.1392C82.0156 68.0344 82.9361 67.1138 84.0407 67.1138C85.1452 67.1138 86.0657 68.0344 86.0657 69.1392C86.0657 70.2439 85.1452 71.1646 84.0407 71.1646ZM84.0407 68.1265C83.3963 68.1265 82.9361 68.5868 82.9361 69.2312C82.9361 69.8757 83.3963 70.336 84.0407 70.336C84.685 70.336 85.1453 69.8757 85.1453 69.2312C85.1453 68.5868 84.593 68.1265 84.0407 68.1265Z" fill="#19181B"/>
<path d="M91.6808 61.3145C90.5763 61.3145 89.6558 60.3938 89.6558 59.2891C89.6558 58.1843 90.5763 57.2637 91.6808 57.2637C92.7854 57.2637 93.7059 58.1843 93.7059 59.2891C93.7059 60.3938 92.8775 61.3145 91.6808 61.3145ZM91.6808 58.1843C91.0365 58.1843 90.5762 58.6446 90.5762 59.2891C90.5762 59.9335 91.0365 60.3938 91.6808 60.3938C92.3252 60.3938 92.7854 59.9335 92.7854 59.2891C92.7854 58.6446 92.3252 58.1843 91.6808 58.1843Z" fill="#19181B"/>
<path d="M3.31435 0H2.39307V103.203H3.31435V0Z" fill="#19181B"/>
<path d="M125.831 0H124.91V103.203H125.831V0Z" fill="#19181B"/>
<path d="M128.316 2.39355H0V3.31419H128.316V2.39355Z" fill="#19181B"/>
<path d="M128.316 99.0605H0V99.9812H128.316V99.0605Z" fill="#19181B"/>
</svg>
