<svg width="227" height="203" viewBox="0 0 227 203" fill="none" xmlns="http://www.w3.org/2000/svg">
<path d="M0.000106812 202.999H226.758V116.861L181.196 116.773L181.284 76.459H0.000106812V202.999ZM225.883 202.125H0.874603V184.547H109.837V189.532H141.669V188.657H110.712V183.673H0.787125V80.1319H180.409L180.322 116.686H172.277V93.2494H154.874V116.686H148.315V93.2494H130.913V116.686H123.567V93.2494H107.389V94.1239H122.605V96.1352H107.389V97.0097H122.605V116.686H110.187V117.56H123.042V117.123V117.56H180.672L225.796 117.648V120.096H110.187V120.971H225.883V159.711H110.274V160.586H225.883V188.657H194.926V189.532H225.883V202.125ZM147.441 116.686H131.787V97.0097H147.441V116.686ZM171.402 116.686H155.748V97.0097H171.402V116.686ZM147.441 96.1352H131.787V94.1239H147.441V96.1352ZM171.402 96.1352H155.748V94.1239H171.402V96.1352ZM180.409 79.2574H0.874603V77.246H180.409V79.2574ZM118.145 133.389H136.247V132.514H118.058V133.389H118.145ZM145.342 133.389H163.532V132.514H145.342V133.389ZM172.626 133.389H190.816V132.514H172.626V133.389ZM199.911 133.389H218.1V132.514H199.911V133.389ZM118.145 131.29H136.247V130.416H118.058V131.29H118.145ZM145.342 131.29H163.532V130.416H145.342V131.29ZM172.626 131.29H190.816V130.416H172.626V131.29ZM199.911 131.29H218.1V130.416H199.911V131.29ZM11.5435 97.0097H27.197V96.1352H11.5435V97.0097ZM35.5048 97.0097H51.1583V96.1352H35.5048V97.0097ZM59.4661 97.0097H75.9941V96.1352H59.4661V97.0097ZM83.4273 97.0097H99.9554V96.1352H83.4273V97.0097ZM11.5435 94.1239H27.197V93.2494H11.5435V94.1239ZM35.5048 94.1239H51.1583V93.2494H35.5048V94.1239ZM59.4661 94.1239H75.9941V93.2494H59.4661V94.1239ZM83.4273 94.1239H99.9554V93.2494H83.4273V94.1239Z" fill="white"/>
<path d="M141.231 203H195.363V169.682H141.231V203ZM144.554 202.126H142.106V172.218H144.554V202.126ZM147.877 202.126H145.429V172.218H147.877V202.126ZM151.201 202.126H148.752V172.218H151.201V202.126ZM154.524 202.126H152.075V172.218H154.524V202.126ZM157.847 202.126H155.398V172.218H157.847V202.126ZM161.17 202.126H158.721V172.218H161.17V202.126ZM164.493 202.126H162.044V172.218H164.493V202.126ZM167.816 202.126H165.367V172.218H167.816V202.126ZM171.227 202.126H168.778V172.218H171.227V202.126ZM174.55 202.126H172.101V172.218H174.55V202.126ZM177.873 202.126H175.424V172.218H177.873V202.126ZM181.196 202.126H178.747V172.218H181.196V202.126ZM184.519 202.126H182.07V172.218H184.519V202.126ZM187.842 202.126H185.394V172.218H187.842V202.126ZM191.165 202.126H188.717V172.218H191.165V202.126ZM194.488 202.126H192.04V172.218H194.488V202.126ZM148.315 171.78V171.343H142.106V170.556H194.488V171.343H188.279V171.78V171.343H181.633V171.78V171.343H174.987V171.78V171.343H168.341V171.78V171.343H155.048V171.78V171.343H148.402V171.78H148.315Z" fill="#FF6F43"/>
<path d="M203.584 117.212L204.458 117.124L195.539 9.7944C198.25 9.7944 200.436 7.60814 200.436 4.8972C200.436 2.18625 198.25 0 195.539 0H156.711C154 0 151.814 2.18625 151.814 4.8972C151.814 7.60814 154 9.7944 156.711 9.7944L151.726 76.7222H152.601L157.323 14.779H194.839L203.584 117.212ZM194.926 14.0794H157.498V13.2924H194.839L194.926 14.0794ZM194.839 12.4179H157.585V11.6308H194.752L194.839 12.4179ZM194.664 10.7563H157.585V9.88185H194.577L194.664 10.7563ZM195.014 9.4446V9.00735H156.711C154.437 9.00735 152.688 7.1709 152.688 4.98465C152.688 2.71095 154.525 0.961948 156.711 0.961948H195.539C197.812 0.961948 199.561 2.7984 199.561 4.98465C199.561 7.25835 197.725 9.00735 195.539 9.00735H195.101V9.4446H195.014Z" fill="#FF6F43"/>
<path d="M0.000106812 202.999H226.758V116.861L181.196 116.773L181.284 76.459H0.000106812V202.999ZM109.837 202.125H0.787125V77.246H180.409L180.322 116.686H172.277V93.2494H154.874V116.686H148.315V93.2494H130.913V116.686H123.567V93.2494H107.039V167.669H109.925L109.837 202.125ZM225.883 202.125H110.712V189.094V184.11V167.145H110.274H110.712L110.624 117.56H180.672L225.796 117.648V202.125H225.883ZM109.837 166.795H107.826V94.1239H122.605V116.686H109.75L109.837 166.795ZM147.441 116.686H131.787V94.1239H147.441V116.686ZM171.402 116.686H155.748V94.1239H171.402V116.686ZM11.1063 167.669H27.6343V93.2494H11.1063V167.669ZM26.8472 166.795H12.0682V94.1239H26.8472V166.795ZM35.0675 167.669H51.5956V93.2494H35.0675V167.669ZM50.8085 166.795H36.0295V94.1239H50.8085V166.795ZM59.0288 167.669H76.4313V93.2494H59.0288V167.669ZM75.5568 166.795H59.9033V94.1239H75.5568V166.795ZM82.9901 167.669H100.393V93.2494H82.9901V167.669ZM99.5181 166.795H83.8646V94.1239H99.5181V166.795ZM117.708 149.48H136.772V130.416H117.708V149.48ZM135.81 148.605H118.495V131.29H135.81V148.605ZM144.905 149.48H163.969V130.416H144.905V149.48ZM163.094 148.605H145.779V131.29H163.094V148.605ZM172.189 149.48H191.253V130.416H172.189V149.48ZM190.379 148.605H173.064V131.29H190.379V148.605ZM199.473 149.48H218.538V130.416H199.473V149.48ZM217.663 148.605H200.348V131.29H217.663V148.605Z" fill="white"/>
</svg>
