<svg width="100" height="101" viewBox="0 0 100 101" fill="none" xmlns="http://www.w3.org/2000/svg">
<path d="M50.2018 100.425C22.7712 100.425 0.40332 78.0538 0.40332 50.6188C0.40332 23.1839 22.7712 0.8125 50.2018 0.8125C77.6324 0.8125 100 23.1839 100 50.6188C100 78.0538 77.6324 100.425 50.2018 100.425Z" fill="#FF6F43"/>
<path d="M50.2018 100.425C22.7712 100.425 0.40332 78.0538 0.40332 50.6188C0.40332 23.1839 22.7712 0.8125 50.2018 0.8125C77.6324 0.8125 100 23.1839 100 50.6188C100 78.0538 77.6324 100.425 50.2018 100.425ZM50.2018 1.73313C23.2314 1.73313 1.32381 23.6442 1.32381 50.6188C1.32381 77.5934 23.2314 99.5046 50.2018 99.5046C77.1721 99.5046 99.0797 77.5934 99.0797 50.6188C99.0797 23.6442 77.0801 1.73313 50.2018 1.73313Z" fill="#19181B"/>
<path d="M50.201 100.149C44.0337 100.149 38.0506 99.0444 32.2515 96.8349L32.3435 96.6508L32.2515 96.8349C23.0466 93.2444 15.1305 87.0762 9.42344 78.8825C3.62436 70.5048 0.494629 60.746 0.494629 50.527C0.494629 32.7587 10.1598 16.1873 25.624 7.34923L25.716 7.53335L25.624 7.34923C33.08 3.11431 41.4564 0.904785 50.109 0.904785C51.95 0.904785 53.7909 0.996851 55.6319 1.18098C69.0711 2.65399 81.4056 9.74288 89.598 20.5143C95.3971 28.1556 98.8028 37.2699 99.5392 46.8445H99.3551H99.5392C99.6312 48.0413 99.6313 49.3302 99.6313 50.4349C99.6313 62.8635 95.0288 74.7397 86.6523 83.854C78.368 92.9683 67.0459 98.5841 54.8955 99.781C53.4227 100.149 51.7658 100.149 50.201 100.149ZM33.5402 96.8349C38.879 98.7683 44.494 99.6889 50.201 99.6889C51.5817 99.6889 52.8705 99.5968 54.2512 99.5048C49.3726 97.2032 39.2472 96.7429 33.5402 96.8349ZM35.013 96.3746C41.1802 96.3746 50.7534 97.0191 54.9876 99.5048C80.209 97.0191 99.2631 76.0286 99.2631 50.6191C99.2631 49.6064 99.2631 48.5016 99.1711 47.3048C98.2506 47.673 96.5016 48.1333 96.0414 47.8572C95.9493 47.7651 95.8572 47.673 95.8572 47.4889C95.8572 46.9365 95.3049 44.6349 92.6355 44.6349C92.0832 44.6349 91.3469 44.5429 91.1628 44.0826C90.8866 43.3461 92.0832 42.3333 94.9367 40.1238C95.5811 39.5714 95.9494 38.927 95.9494 38.1905C95.9494 35.981 93.372 33.2191 91.8072 31.9302C90.1503 30.5492 89.4139 24.1048 89.2298 20.8826C81.4056 10.5714 69.6234 3.75875 56.9206 1.91748C57.657 2.3778 58.3014 3.20637 58.3014 4.31113C58.3014 4.95557 59.0377 5.23177 60.3264 5.69208C62.0753 6.24446 64.3766 7.07304 64.8368 9.83494C65.0209 11.1238 65.021 11.7683 64.6528 12.0445C64.2846 12.3207 63.8243 12.1365 63.364 11.8603C62.5356 11.4921 61.8913 11.308 61.431 12.0445C60.7867 13.0572 59.6821 12.873 58.6696 12.781C57.8411 12.6889 57.1047 12.5968 56.6444 13.0572C56.2762 13.3334 56.0922 13.8857 56.0001 14.7143C55.724 17.7524 52.2261 18.7651 49.0965 19.7778C47.7157 20.1461 46.5191 20.6064 45.5986 21.0667H45.5065C45.4145 21.0667 45.4145 21.1587 45.4145 21.1587C45.2304 21.527 45.7826 22.7238 46.1508 23.5524C46.7031 24.7492 47.0714 25.4857 46.8873 25.946C46.7952 26.0381 46.7031 26.1302 46.6111 26.2222C46.3349 26.3143 46.0588 26.3143 45.6906 26.1302C44.6781 25.5778 43.8497 23.7365 43.5735 22.6318C43.4815 22.3556 43.2053 22.0794 42.8371 21.8953C41.0882 21.1588 36.7619 21.9873 33.264 23.7365C31.9753 24.381 31.2389 25.1175 30.9628 26.1302C30.5025 27.7873 31.5151 29.7207 32.7117 31.654C32.9879 32.1143 33.264 32.2984 33.6322 32.3905C34.5527 32.5746 35.9335 31.2857 37.0381 30.273C37.7745 29.5365 38.6028 28.8921 39.2472 28.5238C39.9836 28.1556 40.2598 28.4318 40.4439 28.6159C41.0882 29.5365 39.7074 32.8508 37.8664 34.6921C37.4982 35.0603 37.4983 35.2445 37.4983 35.2445C37.5904 35.5207 39.0631 35.3365 39.7074 35.3365C41.0882 35.2445 41.7325 35.1524 41.8246 35.6127C41.9166 35.8889 41.6405 36.2572 41.1803 36.5333C40.7201 36.9016 40.5359 37.2699 40.8121 37.7302C41.6405 39.2953 46.5191 41.0445 48.8203 40.2159C51.9499 39.2032 53.3307 38.8349 58.8536 39.2032C61.7071 39.3873 63.364 40.5841 64.7448 41.5968C66.0335 42.6095 67.2301 43.4381 69.071 43.254C70.912 43.0699 72.5689 43.7143 73.7655 45.0032C74.9621 46.2921 75.6065 48.1333 75.4224 49.6984C75.3304 50.7111 77.1714 51.1714 79.3806 51.8159C82.6023 52.7365 86.5603 53.8413 87.3888 57.1556C87.6649 58.3524 87.6649 59.181 87.2968 59.6413C86.8365 60.1937 86.1001 60.2857 85.3637 60.3778C83.983 60.4699 82.6023 60.654 82.6023 63.3238C82.6023 66.7302 80.9453 67.7429 79.6567 68.4794C78.6441 69.0318 77.8157 69.4921 77.8157 70.873C77.8157 73.4508 73.2133 76.581 69.8995 78.8825C68.7029 79.7111 67.5983 80.4476 67.138 80.9079C65.3891 82.6571 60.2344 86.4317 58.7616 86.4317C58.3014 86.4317 58.0252 87.2603 57.8411 88.0889C57.4729 89.2857 57.0127 90.7587 55.6319 90.5746C55.4478 90.5746 55.1717 90.4825 55.0797 90.6667C54.8956 90.9429 55.2638 91.9556 55.9081 92.9683L56.0922 93.2445L55.816 93.3365C54.9875 93.7048 52.5943 93.981 50.109 92.3238C48.0839 90.9429 49.3726 88.273 50.8454 85.1429C51.7659 83.2095 52.7784 81.0921 53.0545 79.0667C53.2386 77.7778 53.7909 76.3968 54.3432 75.0159C55.0796 73.1746 55.816 71.3333 55.3557 70.3206C55.0796 69.8603 54.6193 69.5841 53.975 69.4C49.7407 68.2952 44.5861 56.6953 44.5861 54.3937C44.5861 52.3683 46.243 47.3968 48.176 46.6603C48.8203 46.3841 49.2806 45.6476 49.0965 44.9111C48.8203 43.7143 47.2554 42.9778 44.7701 42.9778C41.6404 42.9778 40.9041 41.4127 40.3518 40.1238C39.8916 39.0191 39.5234 38.1905 37.9586 38.1905C35.6574 38.1905 35.1971 37.0857 34.8289 36.073C34.5528 35.3365 34.3687 34.6921 33.3561 34.4159C32.6198 34.2318 31.8833 34.2318 31.1469 34.3238C29.4901 34.4159 27.6491 34.6 25.716 31.9302C25.2558 31.3778 24.8876 30.8254 24.6115 30.3651C22.9546 28.0635 22.6784 27.6953 21.0216 26.8667C20.4693 26.5905 20.101 25.7619 19.9169 24.5651C19.5487 21.4349 20.6534 15.9111 22.3103 14.5302C23.691 13.3334 24.9797 10.1111 25.532 8.26986C10.436 17.0159 1.13904 33.3111 1.13904 50.7111C1.13904 70.873 13.7497 89.1936 32.4357 96.5587C33.172 96.3746 34.0004 96.3746 35.013 96.3746ZM32.1595 33.7714C32.6197 33.7714 32.9879 33.7714 33.4482 33.9556C34.5528 34.3238 34.921 35.1524 35.1971 35.8889C35.5653 36.9016 35.8414 37.7302 37.8664 37.7302C39.7074 37.7302 40.2598 38.8349 40.7201 39.9397C41.2723 41.2286 41.9166 42.5175 44.7701 42.5175C48.7282 42.5175 49.3726 44.2667 49.4647 44.8191C49.6488 45.7397 49.0965 46.7524 48.268 47.0286C46.7032 47.673 44.9543 52.2762 44.9543 54.3937C44.9543 56.5111 50.109 67.927 54.0671 68.9397C54.8956 69.1238 55.4478 69.5841 55.816 70.1365C56.4603 71.4254 55.6319 73.2667 54.8955 75.2921C54.3432 76.581 53.791 77.9619 53.6069 79.1587C53.3307 81.2762 52.2262 83.4857 51.3057 85.4191C49.9249 88.3651 48.7283 90.8508 50.3852 91.9556C52.5023 93.3365 54.4352 93.3365 55.3557 93.0603C54.9875 92.4159 54.2512 91.127 54.7114 90.4826C54.8955 90.2064 55.2637 90.1143 55.7239 90.2064C56.6444 90.3905 57.0127 89.3778 57.3809 88.0889C57.657 87.0762 58.0252 86.0635 58.7616 86.0635C59.9582 86.0635 65.0209 82.473 66.8618 80.6318C67.3221 80.1714 68.4268 79.4349 69.7154 78.5143C72.7531 76.3968 77.4475 73.1746 77.4475 70.873C77.4475 69.2159 78.4601 68.6635 79.4726 68.1111C80.7613 67.3746 82.2341 66.546 82.2341 63.3238C82.2341 60.1937 83.983 60.0095 85.3637 59.9175C86.1001 59.8254 86.7444 59.8254 87.0206 59.3651C87.2967 58.9968 87.2967 58.2603 87.0206 57.2476C86.2842 54.2095 82.4181 53.1048 79.2884 52.2762C76.8031 51.5397 74.7781 50.9873 74.9622 49.6064C75.1463 48.2254 74.502 46.4762 73.3974 45.2794C72.2928 44.0826 70.7279 43.5302 69.071 43.6222C66.9539 43.8064 65.7573 42.8857 64.3766 41.873C62.9958 40.8603 61.5231 39.6635 58.7616 39.5714C53.3307 39.2032 51.9499 39.5714 48.9123 40.5841C46.427 41.4127 41.2723 39.7556 40.3518 37.8222C39.9836 37.1778 40.1677 36.5333 40.9041 35.981C41.1802 35.7968 41.2723 35.7048 41.3643 35.6127C41.0882 35.5206 40.2597 35.6127 39.7074 35.7048C38.2346 35.7968 37.2222 35.8889 37.0381 35.4286C36.854 35.0603 37.2222 34.6921 37.4983 34.4159C39.3393 32.5746 40.5359 29.5365 40.0756 28.8921C39.9836 28.708 39.7075 28.8 39.5234 28.9841C38.879 29.2603 38.2346 29.9048 37.4062 30.6413C36.1175 31.8381 34.7368 33.0349 33.6322 32.9429C33.172 32.8508 32.7117 32.5746 32.3435 32.0222C31.1469 30.0889 30.0424 27.9714 30.5947 26.1302C30.8708 25.0254 31.7912 24.1048 33.172 23.4603C36.3016 21.8953 40.9962 20.6984 43.1133 21.6191C43.6656 21.8032 43.9417 22.1714 44.1258 22.6318C44.6781 24.2889 45.4145 25.5778 46.0588 25.854C46.2429 25.946 46.427 25.946 46.6111 25.946C46.7952 25.6699 46.2429 24.6572 45.9668 23.9207C45.4145 22.8159 44.9542 21.7111 45.2304 21.1587C45.3224 20.9746 45.4145 20.8826 45.5986 20.7905C46.5191 20.2381 47.8078 19.8699 49.1885 19.5016C52.3182 18.581 55.5399 17.5683 55.7239 14.8984C55.816 13.9778 56.0922 13.3334 56.5524 12.9651C57.1968 12.4127 58.0252 12.5048 58.9457 12.5968C59.8661 12.6889 60.7866 12.781 61.3389 12.0445C62.0753 10.9397 63.0879 11.4 63.8243 11.6762C64.1925 11.8603 64.5607 11.9524 64.6528 11.8603C64.7448 11.7683 64.9289 11.4 64.6528 10.1111C64.2846 7.62542 62.1674 6.88891 60.5106 6.33653C59.2219 5.87621 58.2093 5.60002 58.2093 4.58732C58.2093 3.11431 56.7365 2.28573 56.0001 2.00954C54.2512 1.82542 52.4102 1.73336 50.5692 1.73336C42.1007 1.73336 33.7243 3.94288 26.4525 8.08574C25.9922 9.92701 24.6115 13.7016 22.9546 15.0826C21.5738 16.2794 20.3772 21.527 20.7454 24.7492C20.8374 25.7619 21.2056 26.4984 21.5738 26.6826C23.3228 27.6032 23.6909 27.9714 25.3478 30.3651C25.624 30.8254 25.9922 31.2857 26.4525 31.9302C28.2014 34.4159 29.7662 34.2318 31.5152 34.1397C31.4231 33.7714 31.7913 33.7714 32.1595 33.7714ZM89.782 21.527C90.0582 25.2095 90.7945 30.4572 92.1753 31.5619C92.6355 31.9302 96.5017 35.2445 96.4096 38.1905C96.4096 39.1111 95.9493 39.8476 95.2129 40.4921C93.8322 41.5968 91.4389 43.4381 91.623 43.9905C91.623 43.9905 91.715 44.2667 92.6355 44.2667C95.6731 44.2667 96.3175 46.9365 96.3175 47.581C96.5016 47.673 97.6983 47.3968 99.1711 46.9365C98.4347 37.6381 95.2129 28.8921 89.782 21.527ZM23.9671 48.5016C23.875 48.5016 23.7831 48.5016 23.691 48.5016H23.5989L23.5068 48.4095C23.4148 48.2254 22.8625 47.4889 23.0466 47.0286C23.1386 46.8445 23.3228 46.7524 23.691 46.7524C24.0592 46.7524 24.4274 46.9365 24.6115 47.3048C24.7956 47.673 24.7035 48.0413 24.5194 48.3175C24.5194 48.3175 24.3353 48.5016 23.9671 48.5016ZM23.8751 47.9492C23.9671 47.9492 24.1512 47.9492 24.2433 47.8572C24.3353 47.7651 24.3353 47.4889 24.2433 47.3048C24.1512 47.2127 24.0592 47.0286 23.783 47.0286C23.691 47.0286 23.5989 47.0286 23.5989 47.1206C23.5068 47.2127 23.691 47.673 23.8751 47.9492ZM6.10959 40.308H6.01756C5.18912 40.1238 5.64943 36.3492 5.74148 35.6127C6.01763 33.8635 6.5699 30.8254 7.67449 30.8254C9.51546 30.8254 10.9882 33.5873 11.3564 35.1524C11.4485 35.4286 11.3565 35.7048 11.2644 35.8889C11.0803 36.1651 10.8041 36.1651 10.436 36.2572C9.60751 36.3492 8.13468 36.6254 6.93805 39.4794C6.6619 39.8476 6.38573 40.308 6.10959 40.308ZM7.67449 31.2857C7.58244 31.2857 7.39836 31.3778 7.12221 32.0222C6.20173 34.1397 5.83344 39.0191 6.10959 39.7556C6.20164 39.6635 6.29373 39.4794 6.38578 39.2032C7.67446 36.1651 9.3313 35.8889 10.2518 35.7048C10.5279 35.7048 10.7121 35.6127 10.8042 35.5206C10.8042 35.5206 10.8962 35.4286 10.8042 35.1524C10.6201 33.8635 9.23932 31.2857 7.67449 31.2857ZM61.6151 37.6381C61.431 37.6381 61.2469 37.546 60.9708 37.3619C60.2344 36.8095 59.8662 36.073 60.0503 35.5206C60.1424 35.1524 60.6026 34.8762 61.1549 34.8762C61.6151 34.8762 61.9833 35.2445 62.1674 35.8889C62.3515 36.4413 62.3515 37.1778 61.9833 37.5461C61.8913 37.6381 61.7992 37.6381 61.6151 37.6381ZM61.1549 35.4286C60.7867 35.4286 60.6026 35.5207 60.5106 35.7968C60.4185 36.073 60.6025 36.5334 61.3389 37.0857C61.523 37.1778 61.7071 37.2699 61.7071 37.2699C61.7992 37.1778 61.8912 36.7175 61.7071 36.1651C61.523 35.7048 61.339 35.4286 61.1549 35.4286ZM53.7909 31.5619C53.5148 31.5619 53.2386 31.5619 53.0545 31.4699C52.7784 31.3778 52.6864 31.1937 52.6864 31.1016C52.6864 30.5492 53.6989 30.181 54.3432 30.0889C54.5273 29.9968 56.5524 29.6286 56.9206 30.3651C57.0127 30.5492 57.0127 30.7334 56.8286 30.8254C56.3684 31.1937 54.8035 31.5619 53.7909 31.5619ZM53.1466 31.0095C53.3307 31.1016 54.0671 31.1937 55.0797 30.9175C56.0922 30.7333 56.4604 30.4572 56.4604 30.3651C56.4604 30.273 56.0001 30.181 55.1717 30.273C54.0671 30.4572 53.2387 30.8254 53.1466 31.0095ZM49.0965 31.2857C47.0714 31.2857 41.9166 29.7206 41.9166 28.708C41.9166 28.2476 42.653 28.1556 42.9291 28.1556C43.2053 28.1556 43.4815 28.0635 43.6656 28.0635C45.5065 27.7873 46.335 27.6032 48.8203 28.8921C50.9374 29.9048 51.3056 30.3651 51.2135 30.8254C51.1215 31.1016 50.5693 31.2857 49.0965 31.2857ZM45.5065 28.2476C44.9543 28.2476 44.494 28.3397 43.7576 28.4318C43.4814 28.4318 43.2974 28.5238 43.0213 28.5238C42.469 28.6159 42.3769 28.708 42.3769 28.708C42.561 29.2603 46.8873 30.8254 49.0965 30.8254C50.5693 30.8254 50.7533 30.6413 50.7533 30.5492C50.7533 30.4572 50.6613 30.181 48.6362 29.1683C47.2555 28.4318 46.335 28.2476 45.5065 28.2476ZM73.5815 10.0191C71.7405 10.0191 69.2551 9.65081 68.1505 8.9143L67.8745 8.73018L68.0585 8.54606C68.6108 7.99368 70.4518 7.34923 74.1337 8.45399C75.3304 8.82224 75.6065 9.09843 75.6065 9.28256C75.6065 9.37462 75.6065 9.55875 75.4224 9.65082C75.2383 9.92701 74.5019 10.0191 73.5815 10.0191ZM68.795 8.73018C70.4518 9.55875 74.502 9.74288 75.2384 9.37462C75.1463 9.28256 74.8701 9.1905 74.1337 8.9143C71.0961 8.08573 69.4393 8.45399 68.795 8.73018Z" fill="#19181B"/>
<path d="M65.942 93.7967C65.2056 93.7967 64.5613 93.1523 64.5613 92.4158C64.5613 91.6793 65.2056 91.0348 65.942 91.0348C66.6784 91.0348 67.3228 91.6793 67.3228 92.4158C67.3228 93.1523 66.6784 93.7967 65.942 93.7967ZM65.942 91.4951C65.4818 91.4951 65.0215 91.8634 65.0215 92.4158C65.0215 92.9682 65.3897 93.3364 65.942 93.3364C66.4943 93.3364 66.8625 92.9682 66.8625 92.4158C66.8625 91.8634 66.4023 91.4951 65.942 91.4951ZM26.1769 80.7237C25.4405 80.7237 24.7962 80.0793 24.7962 79.3428C24.7962 78.6063 25.4405 77.9618 26.1769 77.9618C26.9133 77.9618 27.5576 78.6063 27.5576 79.3428C27.5576 80.1713 26.9133 80.7237 26.1769 80.7237ZM26.1769 78.5142C25.7167 78.5142 25.2564 78.8825 25.2564 79.4348C25.2564 79.8952 25.6246 80.3555 26.1769 80.3555C26.7292 80.3555 27.0974 79.9872 27.0974 79.4348C27.0974 78.8825 26.6372 78.5142 26.1769 78.5142ZM63.1805 62.219C62.4442 62.219 61.7998 61.5745 61.7998 60.838C61.7998 60.1015 62.4442 59.4571 63.1805 59.4571C63.9169 59.4571 64.5613 60.1015 64.5613 60.838C64.5613 61.5745 63.9169 62.219 63.1805 62.219ZM63.1805 60.0094C62.7203 60.0094 62.2601 60.3777 62.2601 60.9301C62.2601 61.4825 62.6283 61.8507 63.1805 61.8507C63.7328 61.8507 64.101 61.4825 64.101 60.9301C64.101 60.3777 63.6408 60.0094 63.1805 60.0094ZM32.9886 49.238C32.2522 49.238 31.6078 48.5936 31.6078 47.8571C31.6078 47.1206 32.2522 46.4761 32.9886 46.4761C33.7249 46.4761 34.3693 47.1206 34.3693 47.8571C34.3693 48.5936 33.817 49.238 32.9886 49.238ZM32.9886 46.9364C32.5283 46.9364 32.0681 47.3047 32.0681 47.8571C32.0681 48.4094 32.4363 48.7777 32.9886 48.7777C33.5408 48.7777 33.909 48.4094 33.909 47.8571C33.909 47.3047 33.5408 46.9364 32.9886 46.9364ZM96.7784 45.0952C96.042 45.0952 95.3977 44.4507 95.3977 43.7142C95.3977 42.9777 96.042 42.3332 96.7784 42.3332C97.5148 42.3332 98.1592 42.9777 98.1592 43.7142C98.1592 44.4507 97.5148 45.0952 96.7784 45.0952ZM96.7784 42.7936C96.3182 42.7936 95.8579 43.1618 95.8579 43.7142C95.8579 44.2666 96.2261 44.6348 96.7784 44.6348C97.3307 44.6348 97.6989 44.2666 97.6989 43.7142C97.6989 43.1618 97.2387 42.7936 96.7784 42.7936ZM8.59558 35.6126C7.85919 35.6126 7.21484 34.9682 7.21484 34.2317C7.21484 33.4952 7.85919 32.8507 8.59558 32.8507C9.33197 32.8507 9.97631 33.4952 9.97631 34.2317C9.97631 35.0602 9.42402 35.6126 8.59558 35.6126ZM8.59558 33.4031C8.13533 33.4031 7.67509 33.7713 7.67509 34.3237C7.67509 34.784 8.04328 35.2444 8.59558 35.2444C9.14787 35.2444 9.51607 34.8761 9.51607 34.3237C9.51607 33.7713 9.14787 33.4031 8.59558 33.4031ZM28.9384 21.8031C28.202 21.8031 27.5576 21.1586 27.5576 20.4221C27.5576 19.6856 28.202 19.0412 28.9384 19.0412C29.6748 19.0412 30.3191 19.6856 30.3191 20.4221C30.3191 21.1586 29.6748 21.8031 28.9384 21.8031ZM28.9384 19.5015C28.4781 19.5015 28.0179 19.8698 28.0179 20.4221C28.0179 20.8825 28.3861 21.3428 28.9384 21.3428C29.4907 21.3428 29.8589 20.9745 29.8589 20.4221C29.8589 19.9618 29.3986 19.5015 28.9384 19.5015ZM44.0344 18.3967C43.298 18.3967 42.6537 17.7523 42.6537 17.0158C42.6537 16.2793 43.298 15.6348 44.0344 15.6348C44.7708 15.6348 45.4152 16.2793 45.4152 17.0158C45.4152 17.7523 44.7708 18.3967 44.0344 18.3967ZM44.0344 16.0952C43.5742 16.0952 43.1139 16.4634 43.1139 17.0158C43.1139 17.5682 43.4821 17.9364 44.0344 17.9364C44.5867 17.9364 44.9549 17.5682 44.9549 17.0158C44.9549 16.4634 44.4947 16.0952 44.0344 16.0952ZM35.75 8.08564C35.0136 8.08564 34.3693 7.44119 34.3693 6.70468C34.3693 5.96817 35.0136 5.32373 35.75 5.32373C36.4864 5.32373 37.1308 5.96817 37.1308 6.70468C37.1308 7.44119 36.4864 8.08564 35.75 8.08564ZM35.75 5.78405C35.2898 5.78405 34.8295 6.1523 34.8295 6.70468C34.8295 7.25706 35.1977 7.62532 35.75 7.62532C36.2103 7.62532 36.6705 7.25706 36.6705 6.70468C36.6705 6.1523 36.3023 5.78405 35.75 5.78405Z" fill="#19181B"/>
</svg>
