<svg width="99" height="102" viewBox="0 0 99 102" fill="none" xmlns="http://www.w3.org/2000/svg">
<path d="M7.3639 38.5744C6.62751 38.5744 5.89113 38.4823 5.24679 38.2982C2.11713 37.3776 0 34.5236 0 31.2093C0 27.1585 3.31376 23.8442 7.3639 23.8442C9.20487 23.8442 10.8617 24.4887 12.2425 25.6855C13.8073 27.0665 14.8199 29.0919 14.8199 31.2093C14.7278 35.2601 11.414 38.5744 7.3639 38.5744ZM7.3639 24.7649C3.774 24.7649 0.920488 27.7109 0.920488 31.2093C0.920488 34.0633 2.85351 36.6411 5.52293 37.3776C6.07522 37.5617 6.71956 37.6538 7.3639 37.6538C10.9538 37.6538 13.8073 34.7077 13.8073 31.2093C13.8073 29.368 12.9789 27.5268 11.5982 26.33C10.4015 25.3173 8.92873 24.7649 7.3639 24.7649Z" fill="#19181B"/>
<path d="M49.2462 14.7302C48.5098 14.7302 47.7735 14.6381 47.1291 14.454C44.1836 13.6254 42.0664 10.9556 41.8823 7.91746C41.8823 7.73333 41.8823 7.54921 41.8823 7.36508C41.8823 3.31429 45.1961 0 49.2462 0C51.0872 0 52.7441 0.644444 54.1248 1.84127C55.6896 3.22222 56.7022 5.24762 56.7022 7.36508C56.7022 7.54921 56.7022 7.73333 56.7022 7.91746C56.242 11.7841 53.0202 14.7302 49.2462 14.7302ZM49.2462 0.920635C45.6563 0.920635 42.8028 3.86667 42.8028 7.36508C42.8028 7.54921 42.8028 7.64127 42.8028 7.8254C42.9869 10.4952 44.8279 12.7968 47.4052 13.6254C47.9575 13.8095 48.6019 13.9016 49.2462 13.9016C52.56 13.9016 55.4135 11.2317 55.6896 7.91746C55.6896 7.73333 55.6896 7.5492 55.6896 7.45714C55.6896 5.61587 54.8612 3.7746 53.4805 2.57778C52.2839 1.47301 50.8111 0.920635 49.2462 0.920635Z" fill="#19181B"/>
<path d="M75.2038 23.4762C74.4674 23.4762 73.731 23.3842 73.0867 23.2C69.957 22.2794 67.8398 19.4254 67.8398 16.1112C67.8398 14.5461 68.3001 13.0731 69.2206 11.7842C70.6013 9.85086 72.8105 8.74609 75.2038 8.74609C77.0448 8.74609 78.7016 9.39054 80.0824 10.5874C81.6472 11.9683 82.6597 13.9937 82.6597 16.1112C82.6597 17.4921 82.2915 18.9651 81.4631 20.162C79.9903 22.1874 77.6891 23.4762 75.2038 23.4762ZM75.2038 9.57467C73.0866 9.57467 71.1536 10.5874 69.957 12.2445C69.1285 13.3493 68.7603 14.6382 68.7603 16.0191C68.7603 18.8731 70.6934 21.4508 73.3628 22.1874C73.9151 22.3715 74.5594 22.4635 75.2038 22.4635C77.4129 22.4635 79.4381 21.3588 80.6347 19.5175C81.279 18.5048 81.6472 17.2159 81.6472 16.0191C81.6472 14.1778 80.8187 12.3366 79.438 11.1397C78.2414 10.127 76.7686 9.57467 75.2038 9.57467Z" fill="#19181B"/>
<path d="M28.8112 57.8161C24.761 57.8161 21.4473 54.5018 21.4473 50.451C21.4473 46.4002 24.761 43.0859 28.8112 43.0859C32.8613 43.0859 36.175 46.4002 36.175 50.451C36.175 54.5018 32.8613 57.8161 28.8112 57.8161ZM28.8112 44.0066C25.2213 44.0066 22.3678 46.9526 22.3678 50.451C22.3678 54.0415 25.3133 56.8955 28.8112 56.8955C32.309 56.8955 35.2546 53.9494 35.2546 50.451C35.2546 46.8605 32.4011 44.0066 28.8112 44.0066Z" fill="#19181B"/>
<path d="M53.3884 41.5207C49.3382 41.5207 46.0244 38.2064 46.0244 34.1556C46.0244 30.1048 49.3382 26.7905 53.3884 26.7905C57.4385 26.7905 60.7523 30.1048 60.7523 34.1556C60.7523 38.2064 57.5306 41.5207 53.3884 41.5207ZM53.3884 27.7112C49.7984 27.7112 46.9449 30.6572 46.9449 34.1556C46.9449 37.7461 49.8905 40.6 53.3884 40.6C56.8862 40.6 59.8318 37.654 59.8318 34.1556C59.9239 30.5651 56.9783 27.7112 53.3884 27.7112Z" fill="#19181B"/>
<path d="M71.798 59.6574C67.7478 59.6574 64.4341 56.3431 64.4341 52.2923C64.4341 48.2415 67.7478 44.9272 71.798 44.9272C75.8481 44.9272 79.1619 48.2415 79.1619 52.2923C79.1619 56.3431 75.8481 59.6574 71.798 59.6574ZM71.798 45.8479C68.2081 45.8479 65.3546 48.7939 65.3546 52.2923C65.3546 55.8828 68.3001 58.7368 71.798 58.7368C75.2958 58.7368 78.2414 55.7907 78.2414 52.2923C78.2414 48.7018 75.3879 45.8479 71.798 45.8479Z" fill="#19181B"/>
<path d="M44.92 77.4255C40.8699 77.4255 37.5562 74.1112 37.5562 70.0604C37.5562 66.0096 40.8699 62.6953 44.92 62.6953C48.9701 62.6953 52.2839 66.0096 52.2839 70.0604C52.2839 74.1112 49.0622 77.4255 44.92 77.4255ZM44.92 63.5239C41.3301 63.5239 38.4766 66.4699 38.4766 69.9683C38.4766 73.5588 41.4222 76.4128 44.92 76.4128C48.4178 76.4128 51.3634 73.4667 51.3634 69.9683C51.4554 66.4699 48.5099 63.5239 44.92 63.5239Z" fill="#19181B"/>
<path d="M7.3639 77.4255C3.31376 77.4255 0 74.1112 0 70.0604C0 67.5747 1.28869 65.181 3.40582 63.8921C4.60245 63.1556 5.9832 62.6953 7.45598 62.6953C11.5061 62.6953 14.8199 66.0096 14.8199 70.0604C14.8199 73.6509 12.1504 76.8731 8.56052 77.3334C8.10028 77.3334 7.7321 77.4255 7.3639 77.4255ZM7.3639 63.5239C6.07522 63.5239 4.8786 63.8921 3.86606 64.5366C2.02508 65.7334 0.920488 67.7588 0.920488 69.9683C0.920488 73.5588 3.86605 76.4128 7.3639 76.4128C7.7321 76.4128 8.00828 76.4128 8.37647 76.3207C11.5061 75.8604 13.8994 73.0985 13.8994 69.9683C13.8073 66.4699 10.8618 63.5239 7.3639 63.5239Z" fill="#19181B"/>
<path d="M26.878 99.2446C22.8279 99.2446 19.5142 95.9303 19.5142 91.8795C19.5142 91.5113 19.5141 91.0509 19.6062 90.5906C20.2505 87.0001 23.2882 84.4224 26.878 84.4224C30.9282 84.4224 34.2419 87.7366 34.2419 91.7874C34.2419 94.089 33.2294 96.2065 31.4805 97.5874C30.1918 98.6001 28.5349 99.2446 26.878 99.2446ZM26.878 85.343C23.7484 85.343 21.079 87.5525 20.5267 90.6827C20.4346 91.0509 20.4346 91.4192 20.4346 91.7874C20.4346 95.3779 23.3802 98.2319 26.878 98.2319C28.3508 98.2319 29.7316 97.7716 30.9282 96.8509C32.493 95.6541 33.4135 93.8128 33.4135 91.7874C33.3214 88.289 30.4679 85.343 26.878 85.343Z" fill="#19181B"/>
<path d="M69.6808 99.2443C68.3001 99.2443 66.9193 98.8761 65.8147 98.1395C63.6056 96.7586 62.3169 94.457 62.3169 91.8792C62.3169 87.8284 65.6307 84.5142 69.6808 84.5142C73.731 84.5142 77.0447 87.8284 77.0447 91.8792C77.0447 91.9713 77.0447 91.9713 77.0447 92.0634C76.9527 96.0221 73.731 99.2443 69.6808 99.2443ZM69.6808 85.3427C66.0909 85.3427 63.2374 88.2888 63.2374 91.7872C63.2374 94.0887 64.342 96.1141 66.275 97.311C67.2875 97.9554 68.4842 98.2316 69.6808 98.2316C73.2707 98.2316 76.0322 95.4697 76.1242 91.8792V91.7872C76.1242 88.2888 73.2707 85.3427 69.6808 85.3427Z" fill="#19181B"/>
<path d="M90.9442 79.7268C90.1157 79.7268 89.3794 79.6347 88.643 79.3585C85.6054 78.3458 83.4883 75.5839 83.4883 72.3617C83.4883 68.3109 86.802 64.9966 90.8521 64.9966C92.1408 64.9966 93.4295 65.3648 94.5341 66.0093C96.8353 67.2982 98.308 69.7839 98.308 72.4537C98.308 76.4125 94.9943 79.7268 90.9442 79.7268ZM90.9442 65.8251C87.3543 65.8251 84.5008 68.7712 84.5008 72.2696C84.5008 75.1236 86.3418 77.6093 89.0112 78.4379C89.6555 78.622 90.2998 78.7141 90.9442 78.7141C94.5341 78.7141 97.3876 75.768 97.3876 72.2696C97.3876 69.968 96.0989 67.7585 94.0738 66.6537C93.1534 66.1934 92.0488 65.8251 90.9442 65.8251Z" fill="#19181B"/>
<path d="M49.1542 101.27C42.8028 101.27 36.7276 100.073 30.9285 97.5874L30.1921 97.3113L30.8364 96.8509C32.4012 95.6541 33.3217 93.8128 33.3217 91.7874C33.3217 88.197 30.3762 85.343 26.8783 85.343C23.7487 85.343 21.0792 87.5525 20.5269 90.6827L20.4349 91.4192L19.7906 90.9589C15.004 87.0922 10.9539 82.397 8.00831 77.0573L7.64009 76.5049L8.28444 76.4128C11.4141 75.9525 13.7153 73.1906 13.7153 70.0605C13.7153 66.47 10.8618 63.616 7.27193 63.616C5.98324 63.616 4.78662 63.9843 3.77408 64.6287L3.22176 64.997L3.03765 64.3525C2.30126 61.0382 1.93311 57.5398 1.93311 54.1335C1.93311 48.5176 2.9456 42.9938 4.87862 37.7462L5.06273 37.3779L5.52298 37.47C6.07527 37.6541 6.71961 37.7462 7.36395 37.7462C10.9539 37.7462 13.8074 34.8002 13.8074 31.3017C13.8074 29.4605 12.979 27.6192 11.5982 26.4224L11.23 26.1462L11.5062 25.7779C19.0542 15.743 29.9159 9.29857 42.2505 7.4573L42.7107 7.36523V7.82555C42.8948 10.4954 44.7358 12.797 47.3132 13.5335C47.8655 13.7176 48.5098 13.8097 49.1542 13.8097C52.4679 13.8097 55.3214 11.1398 55.5976 7.82555V7.36523L56.0578 7.4573C60.7523 8.1938 65.3547 9.57476 69.681 11.6002L70.1413 11.8763L69.8652 12.3367C69.0367 13.4414 68.6685 14.7303 68.6685 16.1113C68.6685 18.9652 70.6016 21.543 73.271 22.2795C73.8233 22.4636 74.4676 22.5557 75.1119 22.5557C77.3211 22.5557 79.3462 21.451 80.5428 19.6097L80.8189 19.1494L81.1871 19.5176C90.7602 28.4478 96.2832 41.0605 96.2832 54.1335C96.2832 58.2763 95.7309 62.4192 94.6263 66.47L94.4422 67.0224L94.074 66.7462C93.1535 66.1938 92.0489 65.9176 90.8523 65.9176C87.2624 65.9176 84.4089 68.8636 84.4089 72.3621C84.4089 75.216 86.2499 77.7017 88.9193 78.5303L89.4715 78.7144L89.1954 79.1748C85.9737 84.3303 81.8315 88.7494 76.8608 92.3398L75.7562 93.1684L76.2165 91.7874C76.2165 88.197 73.2709 85.343 69.7731 85.343C66.1832 85.343 63.3297 88.289 63.3297 91.7874C63.3297 94.089 64.4343 96.1144 66.3673 97.3113L67.1957 97.7716L66.3673 98.1398C60.7523 100.257 55.0453 101.27 49.1542 101.27ZM32.033 97.1271C37.4639 99.3367 43.263 100.441 49.1542 100.441C54.585 100.441 59.9239 99.5208 64.9866 97.6795C63.2376 96.2986 62.2251 94.1811 62.2251 91.8795C62.2251 87.8287 65.5389 84.5144 69.589 84.5144C73.363 84.5144 76.5847 87.4605 76.9529 91.143C81.3713 87.8287 85.0532 83.87 87.9988 79.2668C85.2373 78.1621 83.3963 75.4922 83.3963 72.4541C83.3963 68.4033 86.7101 65.089 90.7603 65.089C91.8648 65.089 92.8773 65.3652 93.8899 65.8256C94.8104 62.0509 95.3627 58.1843 95.3627 54.3176C95.3627 41.6129 90.1159 29.4605 80.911 20.7144C79.5303 22.5557 77.3211 23.6605 75.0199 23.6605C74.2835 23.6605 73.5471 23.5684 72.9028 23.3843C69.7731 22.4636 67.656 19.6097 67.656 16.2954C67.656 14.9144 68.0242 13.6256 68.7606 12.4287C64.8025 10.5875 60.6602 9.29857 56.426 8.65412C55.8737 12.2446 52.8361 15.0065 49.1542 15.0065C48.4178 15.0065 47.6814 14.9144 47.037 14.7303C44.2756 13.9017 42.2505 11.5081 41.7902 8.65412C30.008 10.4954 19.6065 16.7557 12.3346 26.2382C13.7153 27.6192 14.5438 29.5525 14.5438 31.4859C14.5438 35.5367 11.23 38.8509 7.17985 38.8509C6.62755 38.8509 6.07527 38.7589 5.52298 38.6668C3.682 43.7303 2.76151 48.9779 2.76151 54.3176C2.76151 57.4478 3.03766 60.5779 3.682 63.7081C4.78659 63.1557 5.89118 62.8795 7.08782 62.8795C11.138 62.8795 14.4517 66.1938 14.4517 70.2446C14.4517 73.6509 12.0585 76.597 8.83677 77.4256C11.5982 82.2129 15.1881 86.5398 19.5144 90.0382C20.4349 86.9081 23.2884 84.6986 26.6022 84.6986C30.6523 84.6986 33.9661 88.0128 33.9661 92.0636C34.2422 93.8129 33.4138 95.7462 32.033 97.1271Z" fill="#19181B"/>
<path d="M38.0162 69.5078H14.2676V70.4285H38.0162V69.5078Z" fill="#19181B"/>
<path d="M64.8945 52.7522H47.8654L32.1251 31.6697H14.2676V30.749H32.5853L48.3257 51.8316H64.8945V52.7522Z" fill="#19181B"/>
<path d="M70.8777 33.6953H60.3843V34.616H70.8777V33.6953Z" fill="#19181B"/>
<path d="M52.0995 92.2474H33.7817V91.3268H51.6392L65.3545 71.9014H84.0404V72.822H65.8147L52.0995 92.2474Z" fill="#19181B"/>
<path d="M23.7487 26.1459C22.7362 26.1459 21.9077 25.3173 21.9077 24.3046C21.9077 23.2919 22.7362 22.4634 23.7487 22.4634C24.7612 22.4634 25.5897 23.2919 25.5897 24.3046C25.5897 25.3173 24.7612 26.1459 23.7487 26.1459ZM23.7487 23.384C23.2884 23.384 22.8282 23.7523 22.8282 24.3046C22.8282 24.857 23.1964 25.2253 23.7487 25.2253C24.301 25.2253 24.6692 24.857 24.6692 24.3046C24.6692 23.7523 24.301 23.384 23.7487 23.384Z" fill="#19181B"/>
<path d="M30.192 26.1459C29.1795 26.1459 28.3511 25.3173 28.3511 24.3046C28.3511 23.2919 29.1795 22.4634 30.192 22.4634C31.2046 22.4634 32.033 23.2919 32.033 24.3046C32.033 25.3173 31.2046 26.1459 30.192 26.1459ZM30.192 23.384C29.7318 23.384 29.2716 23.7523 29.2716 24.3046C29.2716 24.857 29.6398 25.2253 30.192 25.2253C30.7443 25.2253 31.1125 24.857 31.1125 24.3046C31.1125 23.7523 30.6523 23.384 30.192 23.384Z" fill="#19181B"/>
<path d="M25.1295 65.8256C24.117 65.8256 23.2886 64.997 23.2886 63.9843C23.2886 62.9716 24.117 62.1431 25.1295 62.1431C26.1421 62.1431 26.9705 62.9716 26.9705 63.9843C26.9705 65.0891 26.1421 65.8256 25.1295 65.8256ZM25.1295 63.1558C24.6693 63.1558 24.2091 63.524 24.2091 64.0764C24.2091 64.6288 24.5773 64.997 25.1295 64.997C25.6818 64.997 26.05 64.6288 26.05 64.0764C26.05 63.524 25.6818 63.1558 25.1295 63.1558Z" fill="#19181B"/>
<path d="M31.5729 65.8256C30.5604 65.8256 29.7319 64.997 29.7319 63.9843C29.7319 62.9716 30.5604 62.1431 31.5729 62.1431C32.5854 62.1431 33.4138 62.9716 33.4138 63.9843C33.4138 65.0891 32.5854 65.8256 31.5729 65.8256ZM31.5729 63.1558C31.1126 63.1558 30.6524 63.524 30.6524 64.0764C30.6524 64.6288 31.0206 64.997 31.5729 64.997C32.1252 64.997 32.4933 64.6288 32.4933 64.0764C32.4933 63.524 32.0331 63.1558 31.5729 63.1558Z" fill="#19181B"/>
<path d="M50.5348 98.2319C49.5223 98.2319 48.6938 97.4033 48.6938 96.3906C48.6938 95.3779 49.5223 94.5493 50.5348 94.5493C51.5474 94.5493 52.3758 95.3779 52.3758 96.3906C52.3758 97.4033 51.5474 98.2319 50.5348 98.2319ZM50.5348 95.47C50.0746 95.47 49.6143 95.8382 49.6143 96.3906C49.6143 96.943 49.9825 97.3112 50.5348 97.3112C51.0871 97.3112 51.4553 96.943 51.4553 96.3906C51.4553 95.8382 51.0871 95.47 50.5348 95.47Z" fill="#19181B"/>
<path d="M76.4928 35.997C75.4803 35.997 74.6519 35.1684 74.6519 34.1557C74.6519 33.143 75.4803 32.3145 76.4928 32.3145C77.5053 32.3145 78.3337 33.143 78.3337 34.1557C78.3337 35.1684 77.5053 35.997 76.4928 35.997ZM76.4928 33.2351C76.0326 33.2351 75.5723 33.6033 75.5723 34.1557C75.5723 34.7081 75.9405 35.0764 76.4928 35.0764C77.0451 35.0764 77.4133 34.7081 77.4133 34.1557C77.4133 33.6033 77.0451 33.2351 76.4928 33.2351Z" fill="#19181B"/>
<path d="M82.6598 35.997C81.6473 35.997 80.8188 35.1684 80.8188 34.1557C80.8188 33.143 81.6473 32.3145 82.6598 32.3145C83.6724 32.3145 84.5008 33.143 84.5008 34.1557C84.5008 35.1684 83.6724 35.997 82.6598 35.997ZM82.6598 33.2351C82.1996 33.2351 81.7393 33.6033 81.7393 34.1557C81.7393 34.7081 82.1075 35.0764 82.6598 35.0764C83.2121 35.0764 83.5803 34.7081 83.5803 34.1557C83.5803 33.6033 83.1201 33.2351 82.6598 33.2351Z" fill="#19181B"/>
<path d="M36.6354 26.1459C35.6229 26.1459 34.7944 25.3173 34.7944 24.3046C34.7944 23.2919 35.6229 22.4634 36.6354 22.4634C37.6479 22.4634 38.4764 23.2919 38.4764 24.3046C38.4764 25.3173 37.6479 26.1459 36.6354 26.1459ZM36.6354 23.384C36.1752 23.384 35.7149 23.7523 35.7149 24.3046C35.7149 24.857 36.0831 25.2253 36.6354 25.2253C37.1877 25.2253 37.5559 24.857 37.5559 24.3046C37.5559 23.7523 37.1877 23.384 36.6354 23.384Z" fill="#19181B"/>
<path d="M64.9865 67.2065C63.9739 67.2065 63.1455 66.3779 63.1455 65.3652C63.1455 64.3525 63.9739 63.5239 64.9865 63.5239C65.999 63.5239 66.8275 64.3525 66.8275 65.3652C66.8275 66.3779 65.999 67.2065 64.9865 67.2065ZM64.9865 64.5366C64.5262 64.5366 64.066 64.9049 64.066 65.4573C64.066 66.0096 64.4342 66.3779 64.9865 66.3779C65.5388 66.3779 65.907 66.0096 65.907 65.4573C65.907 64.9049 65.4467 64.5366 64.9865 64.5366Z" fill="#19181B"/>
<path d="M71.3376 67.2065C70.325 67.2065 69.4966 66.3779 69.4966 65.3652C69.4966 64.3525 70.325 63.5239 71.3376 63.5239C72.3501 63.5239 73.1786 64.3525 73.1786 65.3652C73.1786 66.3779 72.3501 67.2065 71.3376 67.2065ZM71.3376 64.5366C70.8773 64.5366 70.4171 64.9049 70.4171 65.4573C70.4171 66.0096 70.7853 66.3779 71.3376 66.3779C71.8899 66.3779 72.2581 66.0096 72.2581 65.4573C72.2581 64.9049 71.8899 64.5366 71.3376 64.5366Z" fill="#19181B"/>
<path d="M77.8732 67.2065C76.8607 67.2065 76.0322 66.3779 76.0322 65.3652C76.0322 64.3525 76.8607 63.5239 77.8732 63.5239C78.8857 63.5239 79.7142 64.3525 79.7142 65.3652C79.7142 66.3779 78.8857 67.2065 77.8732 67.2065ZM77.8732 64.5366C77.413 64.5366 76.9527 64.9049 76.9527 65.4573C76.9527 66.0096 77.3209 66.3779 77.8732 66.3779C78.4255 66.3779 78.7937 66.0096 78.7937 65.4573C78.7937 64.9049 78.3334 64.5366 77.8732 64.5366Z" fill="#19181B"/>
</svg>
