<svg width="232" height="208" viewBox="0 0 232 208" fill="none" xmlns="http://www.w3.org/2000/svg">
<path d="M114.277 207.946L113.753 207.422L115.026 206.074H2.32148L0.524172 207.946L0 207.422L1.79726 205.55V55.2515H2.54613V204.801L3.89408 203.528L4.4183 204.052L3.07035 205.325H115.551V190.422H116.299V204.801L117.647 203.528L118.172 204.052L116.225 205.999L115.925 205.699L116.225 205.999L114.277 207.946Z" fill="white"/>
<path d="M116.375 90.0741H115.626V3.42992L114.353 4.703L113.829 4.17879L117.723 0.284668L118.247 0.808877L116.974 2.08196H229.679L231.476 0.284668L232 0.808877L230.203 2.60616V63.0399H229.454V3.42992L228.181 4.703L227.657 4.17879L228.93 2.90571H116.45V90.0741H116.375Z" fill="white"/>
<path d="M116.375 90.0745H115.626V40.8738L114.353 42.1468L113.829 41.6226L117.723 37.7285L118.247 38.2527L116.899 39.6007H166.699L168.571 37.7285L169.095 38.2527L167.223 40.1249V63.1152H166.474V40.8738L165.201 42.1468L164.677 41.6226L165.95 40.3496H116.375V90.0745Z" fill="white"/>
<path d="M107.913 185.18C107.539 185.18 107.239 185.105 107.089 184.881C106.715 184.506 105.517 183.458 106.34 169.978C105.067 172.449 103.27 174.771 101.398 175.145C100.275 175.37 99.301 174.921 98.3275 173.872C97.9531 173.423 97.6535 172.824 97.5786 172C96.4553 172.449 94.8827 172.674 93.6845 172C92.6361 171.401 91.9621 170.352 91.6626 168.705C90.6141 169.154 89.2662 169.304 88.068 168.705C86.72 168.031 85.8214 166.458 85.5218 164.137C85.5218 163.987 85.4469 163.762 85.5218 163.538C84.3985 164.362 82.9757 164.886 81.6277 164.586C80.13 164.212 78.9318 162.789 78.1829 160.392C77.9582 159.718 77.9583 158.97 78.108 157.996C76.9847 158.371 75.6367 158.445 74.4386 157.771C73.1655 157.023 72.4166 155.6 72.2669 153.503C72.2669 153.203 72.2668 152.829 72.3417 152.454C70.9189 152.305 69.2714 151.78 68.223 150.358C67.3243 149.159 67.0996 147.662 67.4741 145.79C65.9015 145.864 64.0293 145.49 62.8311 144.217C61.7827 143.094 61.4083 141.371 61.7827 139.274C61.8576 138.975 61.9324 138.675 62.0822 138.376C61.1087 138.6 59.9105 138.6 59.0119 137.926C57.8137 137.103 57.2146 135.455 57.2895 132.984C57.2895 132.535 57.4392 132.085 57.6639 131.636C55.8666 131.411 53.0958 129.689 52.8711 124.522C52.8711 123.773 53.0958 123.024 53.6949 122.2C52.6464 122.05 51.3734 121.451 50.4747 120.403C49.3514 119.055 49.0519 117.108 49.5012 114.786C49.5761 114.412 49.7259 114.037 50.0254 113.588C48.6026 112.989 46.8802 111.866 46.1313 110.218C45.6071 109.02 45.5322 107.747 46.1313 106.399C46.2811 106.025 46.5806 105.65 47.1048 105.276C45.682 103.329 44.334 100.333 44.9331 98.0866C45.1578 97.113 45.7569 96.3642 46.6555 95.8399C42.8363 96.0646 37.8189 95.6153 35.9467 92.2454C35.722 91.796 35.722 91.3467 35.8718 90.9723C36.2462 90.2234 37.4444 89.4746 39.5413 88.8755C35.3476 88.9503 29.9557 88.501 26.9603 85.9549C25.5374 84.7567 24.8634 83.184 24.7885 81.3119C24.7885 79.3648 26.3612 77.942 29.5813 76.8935C25.2379 76.8187 18.7227 75.7702 15.2779 71.2021C14.7537 70.5281 14.8286 69.9291 14.9784 69.6295C15.2779 68.9555 16.1016 68.1318 20.0707 67.5327C14.9783 66.5591 8.08873 64.013 6.66587 58.8458C6.5161 58.3965 6.59098 57.8723 6.89053 57.4978C7.63939 56.5243 9.81115 55.8503 13.4806 55.4759C9.5116 54.5023 5.24303 52.5553 3.44574 49.7845C2.62199 48.4365 2.39734 47.0136 2.84666 45.5159C5.01838 37.8774 63.5051 51.8813 69.2714 53.2293C69.4212 52.7799 69.7207 52.3306 70.2449 52.106C70.9938 51.6566 72.1171 51.5069 73.0906 51.5818C70.2449 48.5863 68.0732 45.8903 66.8001 43.5689C66.2759 42.6702 66.201 42.0711 66.4256 41.6967C66.6503 41.3971 67.0247 41.3222 67.549 41.3971C71.9673 42.2209 92.711 59.2951 97.2042 77.0433C102.971 99.9587 112.406 105.351 120.943 107.522C128.657 109.544 130.379 114.562 132.251 119.879L131.577 120.103C129.78 115.011 128.058 110.143 120.794 108.196C108.437 104.976 101.173 95.6902 96.5302 77.1931C92.3365 60.5682 73.3902 44.3926 68.1481 42.2958C67.3992 41.9962 67.1745 42.0711 67.1745 42.0711C67.1745 42.0711 67.0996 42.2958 67.549 43.1195C68.9718 45.5908 71.2933 48.5114 74.5883 51.8064L74.2888 52.106L74.5883 51.8064C76.161 53.379 77.9583 55.1014 79.8304 56.749C81.0286 57.7974 82.3017 58.8458 83.2752 59.6695L82.9008 60.2686C80.5044 59.0704 79.0816 58.8458 78.8569 59.0704C78.8569 59.0704 78.782 59.2951 79.0067 59.7444C79.1565 59.9691 79.3062 60.3435 79.6058 60.6431C81.9273 63.7883 84.099 64.9116 84.9227 65.2861C85.1474 65.361 85.4469 65.4358 85.6716 65.5107L85.5218 66.2596C85.2972 66.1847 84.9976 66.1098 84.6981 66.0349C82.4515 65.361 81.3282 65.361 81.1035 65.5107C81.1035 65.5107 81.1784 65.8103 82.0022 66.634C82.751 67.308 83.4999 67.982 84.2488 68.656C86.2707 70.3784 88.742 72.1008 88.742 72.1008L88.3676 72.7748C87.4689 72.4003 84.8478 71.5017 83.6496 72.1008C83.3501 72.2505 83.2004 72.4752 83.1255 72.7748L82.751 72.6999L83.1255 72.7748C83.1255 72.9245 83.0506 73.0743 83.0506 73.2241C83.0506 73.8232 83.3501 74.4223 83.8743 74.9465C85.6716 76.594 89.5657 77.268 90.015 77.1931L90.09 77.942C88.2927 78.0917 86.2707 78.5411 85.8963 79.2899C85.8963 79.3648 85.7465 79.6644 86.1958 80.1137C86.2707 80.1886 86.4205 80.3383 86.4954 80.4881C87.3191 81.237 88.2178 81.9859 89.1913 82.5849C90.4644 83.4087 91.5877 84.0078 92.1119 84.1576L91.9621 84.9064C90.0151 84.9813 87.7684 85.4307 87.3191 86.2544C87.2442 86.3293 87.0945 86.6288 87.4689 87.2279L87.1693 87.4526L87.4689 87.2279C87.6187 87.4526 87.8433 87.6773 88.1429 87.9768C90.5392 90.1485 92.4114 90.8974 93.3101 90.8225H93.5347L93.6845 91.5714C93.6096 91.5714 93.4598 91.5714 93.3849 91.6463C92.2616 91.796 90.8388 92.1705 90.2397 92.7696C90.0151 92.9942 90.015 93.144 90.015 93.2189C90.015 93.3687 90.1648 93.7431 90.9886 94.3422C91.363 94.6418 91.8123 94.8664 92.1868 95.0911L92.037 95.3906L92.1868 95.0911C94.3585 96.2893 95.7813 96.0646 96.1558 95.9897C96.2307 95.9897 96.3805 95.9148 96.4553 95.9148L96.7549 96.5888C96.68 96.6637 96.5302 96.6637 96.4553 96.7386C94.9576 97.2628 93.4598 98.1614 93.3849 98.9852C93.3101 99.3596 93.6096 99.7341 94.2087 100.183C96.68 101.906 98.8517 101.906 99.6755 101.756L100.649 101.531L100.05 102.355C99.1513 103.628 98.028 105.5 97.7284 106.699L97.354 106.624L97.7284 106.699C97.5787 107.298 97.6535 107.447 97.7284 107.447C97.7284 107.447 97.8782 107.522 97.9531 107.522C99.7504 107.447 102.521 107.073 103.719 106.923L103.944 107.597C102.671 108.271 100.424 109.844 100.949 111.267C101.023 111.491 101.248 111.791 101.473 112.016C102.446 112.839 103.42 112.914 104.543 112.24C105.067 111.866 105.592 111.342 105.966 110.817L106.64 111.117C106.266 113.363 106.191 115.46 106.49 116.733C106.64 117.407 106.865 117.857 107.164 118.081C107.539 118.306 108.512 118.306 110.609 115.76L111.208 116.134C110.384 117.932 110.01 120.178 110.759 121.002C110.983 121.301 111.433 121.376 111.882 121.376C112.481 121.376 113.155 121.227 114.054 120.852L114.578 120.628V121.227C114.503 122.425 114.653 124.222 115.027 125.57C115.102 125.795 115.177 125.944 115.252 126.169C115.776 127.367 116.45 127.292 116.899 127.218C117.499 127.068 117.948 127.143 118.397 127.367C119.146 127.817 119.371 128.865 119.67 129.839L119.82 130.288L119.446 130.363L119.82 130.288C119.97 130.812 120.194 131.411 120.494 131.561C120.719 131.636 121.018 131.561 121.393 131.336C122.067 130.962 122.591 130.962 122.965 131.261C123.49 131.636 123.564 132.385 123.714 133.059L122.965 133.134C122.89 132.834 122.816 132.085 122.591 131.861C122.441 131.711 122.067 131.861 121.842 132.01C121.243 132.31 120.719 132.385 120.344 132.235C119.97 132.085 119.745 131.786 119.521 131.411C118.772 133.059 117.049 136.354 114.803 137.926C114.728 139.574 114.952 141.221 115.327 142.345C115.701 143.393 116.151 144.067 116.75 144.292C117.349 144.516 118.098 144.292 118.996 143.693L119.446 144.292C118.322 145.041 117.349 145.265 116.525 144.966C116.076 144.816 115.626 144.442 115.252 143.917C115.252 144.142 115.252 144.367 115.177 144.591C114.952 148.411 114.803 151.481 115.926 157.247L115.177 157.397C114.728 155.001 114.428 153.054 114.353 151.331C113.754 158.221 113.38 166.009 114.803 169.978L114.129 170.203C112.032 164.212 113.679 150.133 114.578 142.495C114.204 141.371 114.054 139.948 114.054 138.376C112.93 138.975 111.732 138.9 110.909 138.376C110.834 138.75 110.759 139.199 110.684 140.098C110.609 141.072 110.384 142.495 110.16 144.591L109.785 144.516L110.16 144.591C109.111 152.604 108.287 161.516 107.763 168.256C106.79 181.885 107.688 184.207 108.138 184.656C108.213 184.731 108.362 184.731 108.587 184.731C109.411 184.656 110.759 183.907 111.358 183.158C113.155 181.061 113.904 175.445 114.054 172.749L114.803 172.824C114.653 175.595 113.829 181.436 111.957 183.682C111.283 184.506 109.785 185.48 108.662 185.555C107.988 185.18 107.988 185.18 107.913 185.18ZM98.1777 171.476C98.2526 172.374 98.4024 172.974 98.7768 173.423C99.5257 174.247 100.349 174.621 101.173 174.396C103.42 173.947 105.517 170.128 106.415 167.806C106.865 161.516 107.614 153.503 108.587 145.939C104.393 153.203 97.8782 165.934 98.1777 171.476H97.8033H98.1777ZM92.1868 168.256C92.4114 169.903 92.9356 170.952 93.9092 171.476C94.9576 172.075 96.3805 171.775 97.354 171.326C97.2042 165.11 104.393 151.406 108.737 144.217C108.961 142.12 109.186 140.772 109.261 139.799C109.411 138.6 109.486 138.076 109.561 137.627C108.887 136.803 108.662 135.53 108.587 134.482C101.772 145.116 91.8123 162.564 92.037 167.507C92.1868 167.731 92.1868 167.956 92.1868 168.256L91.8123 168.331L92.1868 168.256ZM86.1958 162.789C86.1209 163.313 86.1209 163.762 86.1209 164.062C86.4205 166.159 87.1693 167.432 88.2926 168.031C89.3411 168.555 90.5393 168.331 91.4379 167.956C91.4379 167.806 91.4379 167.582 91.363 167.432C91.0635 161.516 103.42 141.147 108.512 133.209C107.239 134.257 106.116 134.706 105.217 134.482C104.618 134.332 104.169 133.957 103.794 133.433C97.5786 141.521 87.3191 156.199 86.1958 162.789ZM78.4076 157.547L78.782 157.622C78.4824 158.745 78.4825 159.644 78.6323 160.243C79.3062 162.34 80.2797 163.613 81.5528 163.912C82.9008 164.287 84.3986 163.463 85.3721 162.564C86.6452 155.675 97.1293 140.697 103.27 132.759C102.671 131.261 102.596 129.314 102.671 128.191C102.521 128.266 102.371 128.341 102.222 128.416C101.248 128.865 100.349 128.94 99.6006 128.79C92.711 135.979 80.729 149.983 78.782 157.547H78.4076ZM72.9408 152.305C72.791 152.754 72.791 153.203 72.791 153.503C72.9408 155.375 73.5399 156.573 74.5883 157.247C75.7116 157.921 77.0596 157.697 78.0331 157.322C80.13 149.684 91.8872 135.904 98.7768 128.64C97.1293 127.742 96.68 125.196 96.8298 122.799C88.8918 130.737 74.5134 146.314 72.9408 152.305ZM67.7737 145.565L68.0732 145.64C67.6238 147.512 67.7736 149.01 68.5974 150.058C69.496 151.256 71.0687 151.78 72.3417 151.855C74.3637 145.565 88.4424 130.213 96.3804 122.275C95.0325 122.35 93.9092 122.05 93.1603 121.376C92.711 121.002 92.3366 120.553 92.1119 120.028C84.099 126.918 69.3462 140.772 68.0732 145.64L67.7737 145.565ZM62.906 138.076C62.6064 138.675 62.3818 139.125 62.3069 139.574C61.9324 141.446 62.232 142.944 63.1306 143.842C64.1791 144.966 66.0512 145.265 67.3992 145.116C69.1216 139.799 83.3501 126.469 91.7375 119.205C91.363 118.081 91.5128 116.883 91.7375 115.985C91.0635 115.835 90.4644 115.46 90.09 114.936L90.3895 115.46C82.4515 120.628 66.4257 132.01 62.906 138.076ZM57.9634 131.486L58.263 131.636C57.9634 132.235 57.7388 132.759 57.7388 133.209C57.6639 135.38 58.1132 136.803 59.0867 137.477C60.0603 138.151 61.3334 137.926 62.232 137.552C65.9015 131.336 81.3282 120.328 89.9402 114.786C89.0415 113.289 89.416 110.593 90.09 108.571C88.068 108.646 86.5703 107.972 85.7465 106.474C76.0861 109.844 59.0119 116.808 54.3689 122.2L54.0693 121.975L54.3689 122.2C53.62 123.099 53.2456 123.848 53.2456 124.522C53.4702 129.464 56.1662 130.887 57.6639 130.962C61.3334 124.746 78.782 114.711 88.5922 109.769L88.9666 110.443C79.8304 115.086 61.558 125.57 58.263 131.561L57.9634 131.486ZM110.384 137.178C110.759 137.552 111.283 137.777 111.882 137.777C112.406 137.777 113.005 137.552 113.604 137.103C115.776 135.605 117.648 132.01 118.547 130.063L118.472 129.764C118.247 128.94 118.023 128.041 117.499 127.742C117.274 127.592 116.974 127.592 116.6 127.667C116.001 127.817 115.177 127.817 114.503 126.918C113.904 127.966 112.406 129.764 109.561 132.385C109.486 132.609 109.486 132.834 109.486 133.134H109.111H109.486C109.411 134.032 109.336 136.129 110.384 137.178ZM104.169 132.684C104.468 133.358 104.918 133.733 105.367 133.883C106.116 134.032 107.089 133.583 108.287 132.535C108.512 132.31 108.737 132.085 108.961 131.935L109.186 132.235L108.961 131.935C112.93 128.416 113.979 126.618 114.054 126.169C113.979 126.019 113.904 125.795 113.829 125.57C113.38 124.147 113.305 122.5 113.305 121.526C112.556 121.751 111.957 121.901 111.358 121.901C110.834 121.901 110.459 121.826 110.085 121.601C109.261 123.249 107.239 125.944 103.495 127.892C103.495 128.79 103.42 131.112 104.169 132.684L103.794 132.834L104.169 132.684ZM99.5257 128.416L99.6006 128.041C100.2 128.191 101.023 128.116 101.997 127.742C102.371 127.592 102.671 127.442 102.971 127.292C106.79 125.42 108.812 122.5 109.486 121.077C108.737 120.103 108.961 118.531 109.336 117.258C107.988 118.531 106.939 118.905 106.116 118.381C105.816 118.156 105.517 117.857 105.367 117.407C103.495 120.028 100.275 121.601 97.6535 122.05C97.4288 124.147 97.5787 127.517 99.6006 128.116L99.5257 128.416ZM97.2791 121.376L97.354 121.751L97.2791 121.376C99.8252 121.002 103.345 119.28 105.067 116.509C104.843 115.086 104.918 113.363 105.067 112.016C104.843 112.24 104.618 112.465 104.318 112.615C103.045 113.438 101.772 113.438 100.574 112.54C99.0015 113.963 95.7065 116.209 92.4863 116.134C92.2617 116.958 92.1119 118.156 92.5612 119.28L92.2616 119.354L92.5612 119.28C92.7859 119.879 93.1603 120.403 93.6096 120.777C94.3585 121.376 95.7065 121.601 97.2791 121.376ZM50.6245 113.813C50.2501 114.262 50.0254 114.637 49.9505 115.086C49.5761 117.258 49.8008 118.905 50.7743 120.103C51.6729 121.227 52.946 121.676 53.9196 121.751C58.7872 116.284 75.8614 109.32 85.5218 105.95C85.2972 104.901 85.5967 104.152 85.9712 103.703C85.2223 103.478 84.6232 102.954 84.1739 102.205C74.2139 104.078 54.5935 108.87 50.6245 113.813ZM92.2616 115.76V115.385V115.76ZM92.2616 115.385C95.332 115.61 98.5522 113.438 100.05 112.09C99.8252 111.866 99.6755 111.566 99.6006 111.342C99.0764 109.844 100.349 108.496 101.548 107.672C100.2 107.822 98.6271 107.972 97.4289 108.047C96.9795 108.121 96.68 107.897 96.6051 107.747C96.4553 107.597 96.3804 107.373 96.3804 107.073C94.3585 107.972 92.5612 108.496 91.1383 108.72C90.5392 110.368 89.8653 113.214 90.8388 114.637C91.0635 115.011 91.5877 115.311 92.2616 115.385ZM47.2546 105.425L47.4793 105.725C46.9551 106.099 46.6555 106.474 46.5057 106.773C46.0564 107.897 46.0564 109.02 46.5057 109.994C47.2546 111.491 48.9021 112.615 50.2501 113.064C54.6684 108.121 73.2404 103.404 83.9492 101.382C83.4999 100.034 83.7994 98.8354 84.099 98.0117C83.2003 98.0865 81.9273 98.0117 80.9537 97.113C70.4696 98.6856 52.272 102.28 47.4793 105.65L47.2546 105.425ZM86.3456 105.95C87.0945 107.447 88.5173 108.047 90.689 107.822C92.2617 107.672 94.2087 107.073 96.4553 106.025C96.7549 104.976 97.5786 103.478 98.4024 102.28C97.2791 102.28 95.4069 101.981 93.3849 100.708C91.6625 102.28 89.0415 103.928 86.8698 103.778C86.4954 104.003 85.9712 104.751 86.3456 105.95ZM49.2766 95.6153C48.4528 95.8399 47.7788 95.9897 47.3295 96.2144C46.2062 96.6637 45.5322 97.4126 45.2327 98.3861C44.6336 100.483 46.2062 103.404 47.3295 104.976C52.5716 101.681 69.8704 98.1614 80.2797 96.5888C79.9802 96.1395 79.7555 95.6902 79.6058 95.0911C79.3811 94.1175 79.456 93.2189 79.6806 92.3951C71.5929 92.8445 59.7607 93.8929 52.272 95.0911C51.3734 95.2408 50.325 95.4655 49.2766 95.6153ZM84.7729 101.531C85.2972 102.43 85.9712 102.954 86.8698 103.029L86.7949 103.404L86.8698 103.029C88.8918 103.254 91.363 101.531 92.7859 100.258C92.1868 99.7341 91.9621 99.2098 92.037 98.6856C92.1868 97.787 93.0854 97.0381 93.9841 96.5139C93.3101 96.3641 92.4863 96.1395 91.5128 95.6153C89.7155 96.5139 87.0196 97.5623 84.9976 97.8619C84.5483 98.5359 84.099 99.9587 84.7729 101.531ZM84.7729 97.6372L84.6981 97.2628C86.4205 97.0381 88.8917 96.0646 90.689 95.2408C90.4644 95.0911 90.2397 94.9413 90.015 94.7915C89.1913 94.2673 88.8169 93.6682 88.742 93.144C88.742 92.9193 88.742 92.47 89.1164 92.0956C89.5658 91.6463 90.3146 91.3467 90.9886 91.1221C90.0151 90.7476 88.6671 89.9239 87.0196 88.4261C86.7949 88.2015 86.6452 88.0517 86.4954 87.9019C85.6716 88.4261 83.5748 89.6992 81.9273 89.6992C81.4779 90.2234 79.6806 92.3203 80.2797 94.8664C80.4295 95.6153 80.7291 96.1395 81.1784 96.5888L80.9537 96.8884L81.1784 96.5888C82.2268 97.6372 83.9492 97.4126 84.6232 97.2628L84.7729 97.6372ZM44.4089 88.5759C37.9686 89.6992 36.4709 90.8225 36.2462 91.4216C36.1713 91.6463 36.1713 91.796 36.2462 92.0207C38.4928 96.1395 46.6555 95.3157 49.2017 94.9413C50.0254 94.7166 50.9989 94.5669 52.1971 94.3422L52.272 94.7166L52.1223 94.2673C59.6858 92.9942 71.7426 92.0207 79.9053 91.5714C80.2797 90.6727 80.7291 89.9988 81.1035 89.5494C79.8304 89.175 77.2843 88.1266 76.9847 85.7302C67.2494 85.88 56.6155 86.7786 46.8802 88.1266C46.1313 88.2764 45.2327 88.4261 44.4089 88.5759ZM81.9273 88.9503C83.0506 89.0252 84.8479 88.2015 86.1958 87.3028C85.8963 86.7037 86.046 86.2544 86.1958 85.9549C86.72 84.9064 88.6671 84.4571 90.015 84.3074C89.4908 84.0078 88.8918 83.6334 88.2178 83.2589C87.2442 82.585 86.2707 81.8361 85.447 81.0872C85.3721 81.0123 85.2972 80.9374 85.2223 80.8626C83.7246 81.4617 81.5528 81.9859 79.9053 81.8361C79.456 82.0607 77.8085 83.0343 77.8085 85.4307H77.434H77.8085C77.8085 88.1266 81.8524 88.9503 81.9273 88.9503ZM33.6252 76.7438C28.0087 77.5675 25.1629 79.1401 25.2378 81.3119C25.2378 82.9594 25.9118 84.3822 27.11 85.4307C31.3786 89.1001 41.2637 88.2015 44.2591 87.827C45.0829 87.6773 45.9067 87.5275 46.8053 87.4526C56.5406 86.1046 67.2494 85.206 76.9847 85.0562C77.0596 83.4087 77.8834 82.3603 78.5573 81.7612C77.0596 81.7612 74.7381 81.6114 73.3902 80.3383C72.7911 79.7392 72.4166 78.9155 72.4166 77.8671C61.7827 76.3693 46.6555 75.0214 34.2992 76.6689C34.1494 76.6689 33.9247 76.7438 33.6252 76.7438ZM79.8304 81.3868L79.9053 81.0123C81.403 81.237 83.4999 80.6379 84.7729 80.1886C84.4734 79.6644 84.5483 79.2899 84.6981 78.9904C84.9976 78.2415 86.1209 77.7922 87.1693 77.5675C85.7465 77.1931 83.9492 76.5191 82.8259 75.4707C82.077 74.7967 81.7775 74.0478 81.7775 73.2241C81.7775 73.1492 81.7775 73.1492 81.7775 73.0743L77.2843 73.2241C76.9098 73.299 73.5399 74.1227 73.3902 77.5675H73.0157H73.3902C73.3902 77.6424 73.3902 77.7922 73.3902 77.8671C73.3902 78.6908 73.6148 79.2899 74.139 79.8141C75.4121 81.0872 78.108 81.0123 79.3811 81.0123C79.6807 81.0123 79.9053 81.0123 80.0551 81.0123L79.8304 81.3868ZM46.8802 75.1711C56.0164 75.1711 65.3024 76.1447 72.5664 77.1182C72.791 75.0214 74.139 73.8232 75.3372 73.1492C75.0377 73.1492 74.6632 73.0743 74.4386 72.9994C74.3637 72.9994 74.2888 72.9994 74.139 72.9245C69.8705 72.4003 67.2494 70.9775 66.4256 68.8058C53.4702 67.6824 35.4974 66.7089 22.6917 67.9071V67.5327V67.9071C16.8505 68.4313 15.5774 69.4048 15.3528 69.9291C15.2779 70.0039 15.203 70.3035 15.5774 70.7528C20.5949 77.3429 32.2772 76.1447 33.6252 75.92C33.8498 75.92 34.0745 75.8451 34.374 75.8451C38.2682 75.3958 42.6116 75.1711 46.8802 75.1711ZM66.9499 68.4313C67.6238 70.4533 70.0203 71.8012 74.139 72.2506C74.2888 72.2506 74.4386 72.2505 74.4386 72.3254C75.1125 72.4752 76.0112 72.4752 77.0596 72.4752L81.7775 72.3254C81.9272 71.951 82.2268 71.5766 82.6013 71.4268C83.425 70.9775 84.6232 71.1272 85.7465 71.3519C84.9228 70.7528 83.9492 70.0039 83.0506 69.2551C82.3017 68.656 81.5528 67.982 80.8039 67.308C77.6587 66.3345 73.3153 64.6121 71.1436 62.8148C70.9938 62.8897 70.844 62.8897 70.6942 62.9646C69.1216 63.4139 66.4257 64.1628 66.7252 67.6824C66.875 67.9071 66.875 68.2067 66.9499 68.4313ZM36.0216 66.7089C46.2062 66.7089 57.3644 67.3829 66.1261 68.1318C66.1261 67.982 66.0512 67.8322 66.0512 67.6824C65.6768 63.5637 68.9718 62.665 70.5444 62.2157H70.6193C70.0202 61.5417 69.7956 60.9426 69.7956 60.3435C52.8711 58.022 28.7575 55.6256 15.8021 56.1499C9.51159 56.3745 7.56452 57.2732 7.04031 58.022C6.89053 58.2467 6.81564 58.4714 6.89053 58.696C8.53804 64.5372 17.8241 66.8587 22.467 67.2331C26.6607 66.8587 31.2288 66.7089 36.0216 66.7089ZM71.5929 62.0659C73.3902 63.7134 77.2843 65.2861 79.9053 66.1847C79.6806 65.8103 79.6058 65.5107 79.7556 65.2112C79.8304 64.9865 80.13 64.6121 81.7775 64.8367C80.729 64.0879 79.5309 62.9646 78.2578 61.2422C78.0332 60.9426 77.8085 60.6431 77.6587 60.3435C76.3856 59.8193 74.9628 59.1453 73.7646 58.4713C73.2404 58.3216 72.4166 58.2467 71.6677 58.5462C71.1435 58.8458 70.6942 59.37 70.4696 60.1189L70.0951 60.044L70.4696 60.1938C70.4696 60.718 70.7691 61.3919 71.5929 62.0659ZM19.6962 55.3261C33.2508 55.3261 54.6684 57.5727 70.0203 59.6695C70.3198 58.8458 70.844 58.3216 71.4431 57.9471C71.6677 57.7974 71.9673 57.7225 72.2669 57.6476C70.2449 56.5992 68.6723 55.7005 68.6723 54.053C43.0609 47.7625 4.64392 40.4985 3.14618 45.7406C2.77174 47.0136 2.92153 48.2867 3.6704 49.41C5.84212 52.8548 12.3573 54.727 15.877 55.3261C17.0752 55.3261 18.3483 55.3261 19.6962 55.3261ZM74.2139 57.7974C75.1874 58.3216 76.3107 58.8458 77.434 59.37C77.434 59.0704 77.5089 58.8458 77.6587 58.696C78.108 58.2467 79.1564 58.3965 80.2049 58.696C79.6807 58.2467 79.2313 57.8723 78.7071 57.4229C76.9098 55.8503 75.1125 54.1279 73.5399 52.5553C72.5664 52.2557 71.0686 52.2557 70.17 52.8548C69.7956 53.0795 69.5709 53.4539 69.496 53.9032C69.2714 55.2512 70.6942 56.075 73.1655 57.2732C73.465 57.4229 73.8395 57.5727 74.2139 57.7974L74.0641 58.022L74.2139 57.7974Z" fill="#FF6F43"/>
<path d="M146.329 184.432C142.584 184.432 138.69 184.207 135.021 183.683C121.915 181.886 113.902 177.542 113.603 172.151C112.704 158.147 122.215 122.126 132.924 119.131C133.448 118.681 137.192 115.012 135.021 107.523C133.074 100.634 127.981 88.2772 126.483 84.6826C126.109 83.8589 125.884 83.1849 125.81 82.5109C124.087 73.8989 129.479 65.2869 138.091 63.0403C142.434 61.8421 147.003 62.4412 150.897 64.6878C154.791 66.9344 157.562 70.529 158.76 74.8725L163.553 92.7704C165.574 100.634 166.323 106.175 163.927 109.32C162.279 111.417 159.284 112.466 154.416 112.466L154.042 126.095C155.689 128.566 177.556 162.116 172.838 175.446C170.667 181.586 158.91 184.432 146.329 184.432ZM132.999 119.88C122.889 122.95 113.453 158.746 114.277 172.151C114.576 177.093 122.589 181.287 135.095 183.009C150.822 185.181 169.469 182.859 172.09 175.296C176.283 163.389 157.636 133.284 153.892 127.443C153.817 129.091 153.518 131.187 152.619 131.412C151.645 131.637 139.963 124.373 132.999 119.88ZM133.673 119.43C140.562 123.849 151.496 130.588 152.544 130.663C152.844 130.513 153.218 128.417 153.293 126.17H153.667H153.293L153.667 111.642H154.042C158.835 111.642 161.83 110.743 163.328 108.796C165.574 105.876 164.826 100.559 162.879 92.9202L158.086 75.0222C156.962 70.9034 154.341 67.4586 150.597 65.2869C146.853 63.1152 142.509 62.591 138.316 63.7143C130.153 65.886 124.986 74.1236 126.633 82.3611C126.783 82.9602 126.933 83.5593 127.307 84.3831C128.805 88.0526 133.822 100.409 135.844 107.298C137.717 114.413 134.721 118.307 133.673 119.43Z" fill="white"/>
<path d="M198.076 138.526L172.314 110.593L172.839 110.069L198.6 138.002L198.076 138.526ZM218.819 119.055L175.46 101.157L175.759 100.483L219.119 118.381L218.819 119.055ZM226.533 91.5719H177.557V90.8231H226.533V91.5719ZM175.759 81.9864L175.46 81.3124L218.819 63.4145L219.119 64.0884L175.759 81.9864ZM172.914 72.4009L172.389 71.8767L198.15 43.9438L198.675 44.4681L172.914 72.4009Z" fill="white"/>
<path d="M220.917 65.1371C219.644 65.1371 218.595 64.0887 218.595 62.8156C218.595 61.5426 219.644 60.4941 220.917 60.4941C222.19 60.4941 223.238 61.5426 223.238 62.8156C223.238 64.0887 222.19 65.1371 220.917 65.1371ZM220.917 61.243C220.018 61.243 219.344 61.9919 219.344 62.8156C219.344 63.7143 220.093 64.3883 220.917 64.3883C221.815 64.3883 222.489 63.6394 222.489 62.8156C222.489 61.917 221.815 61.243 220.917 61.243Z" fill="#FF6F43"/>
<path d="M220.917 121.976C219.644 121.976 218.595 120.927 218.595 119.654C218.595 118.381 219.644 117.333 220.917 117.333C222.19 117.333 223.238 118.381 223.238 119.654C223.238 120.927 222.19 121.976 220.917 121.976ZM220.917 118.081C220.018 118.081 219.344 118.755 219.344 119.654C219.344 120.553 220.093 121.227 220.917 121.227C221.815 121.227 222.489 120.478 222.489 119.654C222.489 118.755 221.815 118.081 220.917 118.081Z" fill="#FF6F43"/>
<path d="M199.872 45.0673C198.599 45.0673 197.551 44.0189 197.551 42.7458C197.551 41.4727 198.599 40.4243 199.872 40.4243C201.145 40.4243 202.194 41.4727 202.194 42.7458C202.194 44.0189 201.145 45.0673 199.872 45.0673ZM199.872 41.1732C198.974 41.1732 198.3 41.9221 198.3 42.7458C198.3 43.6445 199.049 44.3184 199.872 44.3184C200.696 44.3184 201.445 43.5696 201.445 42.7458C201.445 41.8472 200.696 41.1732 199.872 41.1732Z" fill="#FF6F43"/>
<path d="M199.872 142.046C198.599 142.046 197.551 140.997 197.551 139.724C197.551 138.451 198.599 137.403 199.872 137.403C201.145 137.403 202.194 138.451 202.194 139.724C202.194 140.997 201.145 142.046 199.872 142.046ZM199.872 138.152C198.974 138.152 198.3 138.901 198.3 139.724C198.3 140.623 199.049 141.297 199.872 141.297C200.696 141.297 201.445 140.548 201.445 139.724C201.445 138.901 200.696 138.152 199.872 138.152Z" fill="#FF6F43"/>
<path d="M228.255 93.5942C226.982 93.5942 225.933 92.5457 225.933 91.2727C225.933 89.9996 226.982 88.9512 228.255 88.9512C229.528 88.9512 230.576 89.9996 230.576 91.2727C230.576 92.5457 229.528 93.5942 228.255 93.5942ZM228.255 89.6252C227.356 89.6252 226.682 90.374 226.682 91.1978C226.682 92.0964 227.356 92.7704 228.255 92.7704C229.153 92.7704 229.827 92.0964 229.827 91.1978C229.827 90.374 229.153 89.6252 228.255 89.6252Z" fill="#FF6F43"/>
<path d="M228.255 93.5942C226.982 93.5942 225.933 92.5457 225.933 91.2727C225.933 89.9996 226.982 88.9512 228.255 88.9512C229.528 88.9512 230.576 89.9996 230.576 91.2727C230.576 92.5457 229.528 93.5942 228.255 93.5942ZM228.255 89.6252C227.356 89.6252 226.682 90.374 226.682 91.1978C226.682 92.0215 227.356 92.7704 228.255 92.7704C229.153 92.7704 229.827 92.0215 229.827 91.1978C229.827 90.374 229.153 89.6252 228.255 89.6252Z" fill="#FF6F43"/>
</svg>
