<svg width="158" height="160" viewBox="0 0 158 160" fill="none" xmlns="http://www.w3.org/2000/svg">
<path d="M9.68719 154.48C10.3912 154.48 11.0472 154.384 11.6232 154.176C12.1992 153.984 12.7112 153.712 13.1592 153.376C13.6072 153.04 13.9752 152.656 14.2792 152.224C14.5672 151.792 14.8072 151.344 14.9672 150.88L13.8472 150.72C13.6872 151.088 13.4792 151.44 13.2392 151.76C12.9832 152.08 12.6952 152.368 12.3592 152.624C12.0232 152.88 11.6392 153.072 11.1912 153.216C10.7432 153.376 10.2312 153.44 9.68719 153.44C9.11119 153.44 8.53519 153.312 7.99119 153.056C7.44719 152.8 6.95119 152.448 6.53519 152C6.10319 151.552 5.76719 151.04 5.51119 150.432C5.25519 149.824 5.12719 149.184 5.12719 148.48C5.12719 147.808 5.25519 147.168 5.51119 146.56C5.76719 145.952 6.10319 145.424 6.53519 144.976C6.95119 144.528 7.44719 144.176 7.99119 143.92C8.53519 143.664 9.11119 143.52 9.68719 143.52C10.1992 143.52 10.6792 143.6 11.0952 143.744C11.5112 143.888 11.8792 144.08 12.1992 144.304C12.5192 144.544 12.7912 144.816 13.0152 145.104C13.2392 145.408 13.3992 145.712 13.5272 146L14.6472 145.84C14.5192 145.456 14.3272 145.056 14.0552 144.656C13.7672 144.256 13.4152 143.888 12.9992 143.568C12.5832 143.248 12.0872 142.992 11.5432 142.784C10.9832 142.592 10.3592 142.48 9.68719 142.48C8.95119 142.48 8.23119 142.64 7.54319 142.96C6.85519 143.28 6.24719 143.712 5.73519 144.256C5.20719 144.8 4.79119 145.44 4.47119 146.16C4.15119 146.896 4.00719 147.664 4.00719 148.48C4.00719 149.312 4.15119 150.08 4.47119 150.8C4.79119 151.536 5.20719 152.16 5.73519 152.704C6.24719 153.248 6.85519 153.68 7.54319 154C8.23119 154.32 8.95119 154.48 9.68719 154.48ZM15.2928 144H19.2128V154H20.3328V144H24.2528V142.96H15.2928V144ZM33.8609 154L31.1409 142.96H26.5009L23.7809 154H24.9009L25.6209 151.2H32.0209L32.7409 154H33.8609ZM25.8609 150.16L27.3809 144H30.2609L31.7809 150.16H25.8609ZM33.0584 144H36.9784V154H38.0984V144H42.0184V142.96H33.0584V144ZM50.8197 150.32C50.8197 150.688 50.7397 151.024 50.5957 151.344C50.4517 151.664 50.2437 151.952 49.9877 152.192C49.7317 152.432 49.4117 152.624 49.0597 152.752C48.6917 152.896 48.2917 152.96 47.8597 152.96H44.4997V147.68H47.8597C48.2917 147.68 48.6917 147.76 49.0597 147.888C49.4117 148.032 49.7317 148.224 49.9877 148.464C50.2437 148.704 50.4517 148.976 50.5957 149.296C50.7397 149.616 50.8197 149.968 50.8197 150.32ZM51.9397 150.32C51.9397 149.824 51.8277 149.36 51.6357 148.912C51.4277 148.464 51.1397 148.08 50.7877 147.744C50.4357 147.408 50.0037 147.136 49.5077 146.944C48.9957 146.752 48.4517 146.64 47.8597 146.64H44.4997V142.96H43.3797V154H47.8597C48.4517 154 48.9957 153.904 49.5077 153.712C50.0037 153.52 50.4357 153.248 50.7877 152.912C51.1397 152.576 51.4277 152.192 51.6357 151.744C51.8277 151.296 51.9397 150.832 51.9397 150.32ZM56.5828 142.96V154H57.7028V144H64.0228V154H65.1428V142.96H56.5828ZM76.7359 154L74.0159 142.96H69.3759L66.6559 154H67.7759L68.4959 151.2H74.8959L75.6159 154H76.7359ZM68.7359 150.16L70.2559 144H73.1359L74.6559 150.16H68.7359ZM86.0147 146.88C86.0147 147.296 85.9347 147.68 85.7907 148.032C85.6467 148.384 85.4387 148.688 85.1667 148.944C84.8947 149.2 84.5747 149.408 84.1907 149.552C83.8067 149.696 83.3747 149.76 82.8947 149.76H79.3747V144H82.8947C83.3747 144 83.8067 144.08 84.1907 144.224C84.5747 144.368 84.8947 144.56 85.1667 144.816C85.4387 145.072 85.6467 145.376 85.7907 145.728C85.9347 146.08 86.0147 146.464 86.0147 146.88ZM87.1347 146.88C87.1347 146.336 87.0227 145.808 86.8307 145.328C86.6227 144.848 86.3347 144.432 85.9667 144.08C85.5987 143.728 85.1507 143.456 84.6387 143.264C84.1107 143.072 83.5347 142.96 82.8947 142.96H78.2547V154H79.3747V150.8H82.8947C83.5347 150.8 84.1107 150.704 84.6387 150.512C85.1507 150.32 85.5987 150.032 85.9667 149.68C86.3347 149.328 86.6227 148.928 86.8307 148.448C87.0227 147.968 87.1347 147.456 87.1347 146.88ZM87.9334 144H91.8534V154H92.9734V144H96.8934V142.96H87.9334V144ZM98.2547 142.96V154H99.3747V148.96H105.695V154H106.815V142.96H105.695V147.92H99.3747V142.96H98.2547ZM117.128 152.96H110.328V148.96H115.688V147.92H110.328V144H117.128V142.96H109.208V154H117.128V152.96ZM126.483 146.88C126.483 147.296 126.403 147.68 126.259 148.032C126.115 148.384 125.907 148.688 125.635 148.944C125.363 149.2 125.043 149.408 124.659 149.552C124.275 149.696 123.843 149.76 123.363 149.76H119.843V144H123.363C123.843 144 124.275 144.08 124.659 144.224C125.043 144.368 125.363 144.56 125.635 144.816C125.907 145.072 126.115 145.376 126.259 145.728C126.403 146.08 126.483 146.464 126.483 146.88ZM127.603 146.88C127.603 146.336 127.491 145.808 127.299 145.328C127.091 144.848 126.803 144.432 126.435 144.08C126.067 143.728 125.619 143.456 125.107 143.264C124.579 143.072 124.003 142.96 123.363 142.96H118.723V154H119.843V150.8H123.363C124.003 150.8 124.579 150.704 125.107 150.512C125.619 150.32 126.067 150.032 126.435 149.68C126.803 149.328 127.091 148.928 127.299 148.448C127.491 147.968 127.603 147.456 127.603 146.88ZM128.882 148.48C128.882 149.312 129.026 150.08 129.346 150.8C129.666 151.536 130.082 152.16 130.626 152.704C131.17 153.248 131.794 153.68 132.498 154C133.202 154.32 133.938 154.48 134.722 154.48C135.49 154.48 136.242 154.32 136.946 154C137.65 153.68 138.258 153.248 138.802 152.704C139.346 152.16 139.762 151.536 140.082 150.8C140.402 150.08 140.562 149.312 140.562 148.48C140.562 147.664 140.402 146.896 140.082 146.16C139.762 145.44 139.346 144.8 138.802 144.256C138.258 143.712 137.65 143.28 136.946 142.96C136.242 142.64 135.49 142.48 134.722 142.48C133.938 142.48 133.202 142.64 132.498 142.96C131.794 143.28 131.17 143.728 130.626 144.272C130.082 144.816 129.666 145.456 129.346 146.176C129.026 146.912 128.882 147.68 128.882 148.48ZM139.442 148.48C139.442 149.168 139.298 149.808 139.042 150.416C138.786 151.024 138.434 151.536 138.002 151.984C137.57 152.432 137.074 152.8 136.498 153.056C135.922 153.312 135.33 153.44 134.722 153.44C134.098 153.44 133.506 153.312 132.93 153.056C132.354 152.8 131.858 152.432 131.426 151.984C130.994 151.536 130.642 151.024 130.386 150.416C130.13 149.808 130.002 149.168 130.002 148.48C130.002 147.808 130.13 147.168 130.386 146.56C130.642 145.952 130.994 145.424 131.426 144.976C131.858 144.528 132.354 144.176 132.93 143.92C133.506 143.664 134.098 143.52 134.722 143.52C135.33 143.52 135.922 143.664 136.498 143.92C137.074 144.176 137.57 144.528 138.002 144.976C138.434 145.424 138.786 145.952 139.042 146.56C139.298 147.168 139.442 147.808 139.442 148.48ZM143.595 144.64L147.915 149.92L152.235 144.64H152.315V154H153.435V142.96H152.235L147.915 148.24L143.595 142.96H142.395V154H143.515V144.64H143.595Z" fill="#19181B"/>
<circle cx="79" cy="60" r="59.5" stroke="#2D2C31"/>
<line x1="79.5" y1="38" x2="79.5" y2="82" stroke="#19181B"/>
<line x1="79.5" y1="38" x2="79.5" y2="82" stroke="#19181B"/>
<line x1="79.5" y1="38" x2="79.5" y2="82" stroke="#19181B"/>
<line x1="101" y1="60.5" x2="57" y2="60.5" stroke="#19181B"/>
<line x1="101" y1="60.5" x2="57" y2="60.5" stroke="#19181B"/>
<line x1="101" y1="60.5" x2="57" y2="60.5" stroke="#19181B"/>
</svg>
