<svg width="600" height="565" viewBox="0 0 600 565" fill="none" xmlns="http://www.w3.org/2000/svg">
<g opacity="0.2">
<path d="M377.401 300.427C404.628 300.427 426.7 278.355 426.7 251.128C426.7 223.9 404.628 201.828 377.401 201.828C350.174 201.828 328.102 223.9 328.102 251.128C328.102 278.355 350.174 300.427 377.401 300.427Z" stroke="white" stroke-width="0.5"/>
<path d="M3.60722 92.4061L7.21458 88.7987L10.8218 85.1915M192.225 168.159C214.14 168.159 231.904 150.393 231.904 128.479C231.904 106.564 214.14 88.7987 192.225 88.7987V168.159ZM192.225 168.159C170.311 168.159 152.545 150.393 152.545 128.479C152.545 106.564 170.311 88.7987 192.225 88.7987V168.159ZM192.225 168.159H7.21458H192.225ZM192.225 88.7987H0H192.225ZM0 168.159H7.21458H0ZM7.21458 80.3818V168.159V80.3818ZM7.21458 177.778V168.159V177.778ZM7.21458 168.159L3.60722 171.766L7.21458 168.159ZM7.21458 168.159L10.8218 164.552L7.21458 168.159Z" stroke="white" stroke-width="0.5"/>
<path d="M538.871 219.873L535.264 216.265L531.656 212.657M371.393 286.006H535.264H371.393ZM371.393 216.265H542.478H371.393ZM542.478 286.006H535.264H542.478ZM535.264 207.848V286.006V207.848ZM535.264 295.625V286.006V295.625ZM535.264 286.006L538.871 289.612L535.264 286.006ZM535.264 286.006L531.656 282.399L535.264 286.006Z" stroke="white" stroke-width="0.5"/>
<path d="M330.6 493.895L330.857 494.114L330.6 493.895ZM156.977 507.318L158.301 510.994L160.821 508.01L156.977 507.318ZM160.775 510.876C161.686 511.593 162.603 512.294 163.529 512.982L163.932 512.439C163.012 511.756 162.1 511.057 161.194 510.344L160.775 510.876ZM166.333 515.006C167.283 515.672 168.238 516.321 169.201 516.956L169.573 516.392C168.617 515.76 167.665 515.113 166.721 514.453L166.333 515.006ZM172.113 518.819C173.099 519.431 174.09 520.026 175.086 520.607L175.427 520.022C174.436 519.444 173.45 518.853 172.471 518.246L172.113 518.819ZM178.103 522.305C179.119 522.859 180.141 523.397 181.169 523.92L181.476 523.317C180.453 522.796 179.437 522.262 178.426 521.711L178.103 522.305ZM184.277 525.446C185.322 525.941 186.372 526.42 187.428 526.884L187.7 526.265C186.651 525.803 185.606 525.327 184.567 524.834L184.277 525.446ZM190.62 528.233C191.69 528.668 192.765 529.086 193.843 529.489L194.08 528.856C193.007 528.455 191.939 528.039 190.874 527.607L190.62 528.233ZM197.108 530.657C198.202 531.031 199.299 531.388 200.399 531.73L200.601 531.083C199.506 530.744 198.414 530.388 197.328 530.017L197.108 530.657ZM203.723 532.71C204.836 533.022 205.952 533.317 207.071 533.596L207.236 532.94C206.122 532.663 205.012 532.369 203.906 532.059L203.723 532.71ZM210.443 534.388C211.571 534.637 212.703 534.868 213.837 535.085L213.964 534.42C212.835 534.205 211.711 533.974 210.588 533.727L210.443 534.388ZM217.247 535.686C218.387 535.87 219.53 536.039 220.674 536.19L220.764 535.519C219.626 535.369 218.489 535.201 217.354 535.017L217.247 535.686ZM224.113 536.599C225.262 536.719 226.412 536.824 227.563 536.912L227.615 536.236C226.47 536.15 225.327 536.046 224.183 535.926L224.113 536.599ZM231.02 537.127C232.174 537.184 233.327 537.223 234.481 537.246L234.495 536.569C233.347 536.546 232.2 536.507 231.052 536.451L231.02 537.127ZM237.945 537.269C239.1 537.261 240.254 537.235 241.408 537.194L241.384 536.519C240.236 536.56 239.089 536.584 237.94 536.592L237.945 537.269ZM244.867 537.024C246.02 536.951 247.171 536.862 248.32 536.757L248.259 536.083C247.116 536.188 245.971 536.276 244.825 536.349L244.867 537.024ZM251.765 536.393C252.912 536.257 254.056 536.104 255.199 535.935L255.098 535.266C253.963 535.434 252.825 535.585 251.684 535.722L251.765 536.393ZM258.618 535.38C259.753 535.179 260.887 534.963 262.019 534.73L261.883 534.067C260.757 534.299 259.63 534.514 258.5 534.714L258.618 535.38ZM265.402 533.986C266.526 533.722 267.645 533.442 268.763 533.147L268.59 532.493C267.479 532.787 266.365 533.064 265.247 533.327L265.402 533.986ZM272.097 532.215C273.206 531.889 274.308 531.546 275.407 531.189L275.199 530.545C274.105 530.901 273.008 531.24 271.906 531.565L272.097 532.215ZM278.685 530.071C279.771 529.683 280.854 529.28 281.931 528.86L281.686 528.229C280.614 528.646 279.538 529.048 278.457 529.434L278.685 530.071ZM285.141 527.561C286.203 527.113 287.261 526.649 288.313 526.17L288.033 525.554C286.986 526.031 285.935 526.492 284.878 526.937L285.141 527.561ZM291.445 524.691C292.48 524.183 293.51 523.661 294.533 523.124L294.218 522.526C293.202 523.059 292.177 523.579 291.148 524.083L291.445 524.691ZM297.579 521.469C298.583 520.905 299.582 520.325 300.573 519.731L300.225 519.152C299.238 519.742 298.246 520.319 297.248 520.879L297.579 521.469ZM303.519 517.909C304.49 517.287 305.454 516.653 306.41 516.003L306.03 515.443C305.079 516.09 304.121 516.72 303.155 517.338L303.519 517.909ZM309.248 514.017C310.183 513.343 311.11 512.654 312.029 511.95L311.617 511.413C310.704 512.113 309.781 512.798 308.852 513.469L309.248 514.017ZM314.747 509.808C315.645 509.082 316.532 508.341 317.412 507.586L316.971 507.072C316.097 507.823 315.213 508.561 314.321 509.283L314.747 509.808ZM320.003 505.297C320.856 504.521 321.701 503.732 322.536 502.929L322.068 502.44C321.237 503.24 320.397 504.025 319.547 504.796L320.003 505.297ZM324.997 500.497C325.806 499.677 326.604 498.842 327.393 497.994L326.898 497.532C326.113 498.377 325.319 499.206 324.515 500.023L324.997 500.497ZM329.718 495.428C330.099 494.994 330.48 494.555 330.857 494.114L330.343 493.674C329.968 494.113 329.589 494.548 329.209 494.98L329.718 495.428ZM330.857 494.114C331.228 493.682 331.595 493.248 331.957 492.812L331.438 492.379C331.076 492.812 330.711 493.244 330.343 493.674L330.857 494.114ZM334.098 490.172C334.802 489.279 335.491 488.38 336.166 487.475L335.623 487.071C334.952 487.972 334.266 488.865 333.566 489.753L334.098 490.172ZM338.162 484.719C338.815 483.788 339.455 482.851 340.081 481.909L339.516 481.535C338.894 482.472 338.258 483.403 337.608 484.329L338.162 484.719ZM341.921 479.049C342.522 478.085 343.109 477.115 343.68 476.139L343.097 475.797C342.529 476.767 341.944 477.732 341.346 478.69L341.921 479.049ZM345.359 473.184C345.908 472.188 346.439 471.187 346.956 470.181L346.355 469.871C345.84 470.873 345.311 471.867 344.767 472.858L345.359 473.184ZM348.47 467.134C348.962 466.11 349.438 465.081 349.898 464.047L349.281 463.771C348.822 464.8 348.349 465.823 347.86 466.842L348.47 467.134ZM351.24 460.923C351.673 459.873 352.092 458.82 352.495 457.762L351.863 457.521C351.461 458.572 351.046 459.621 350.615 460.664L351.24 460.923ZM353.661 454.567C354.035 453.496 354.395 452.421 354.738 451.342L354.093 451.136C353.752 452.209 353.395 453.278 353.023 454.343L353.661 454.567ZM355.726 448.086C356.04 446.996 356.339 445.902 356.623 444.806L355.967 444.636C355.686 445.726 355.388 446.814 355.075 447.899L355.726 448.086ZM357.429 441.502C357.683 440.396 357.92 439.288 358.143 438.177L357.48 438.044C357.258 439.148 357.021 440.25 356.77 441.35L357.429 441.502ZM358.766 434.833C358.958 433.715 359.134 432.596 359.296 431.474L358.626 431.378C358.465 432.493 358.289 433.607 358.098 434.719L358.766 434.833ZM359.733 428.101C359.863 426.975 359.978 425.846 360.077 424.718L359.403 424.658C359.304 425.781 359.191 426.903 359.061 428.024L359.733 428.101ZM360.329 421.325C360.398 420.194 360.45 419.061 360.487 417.929L359.81 417.907C359.774 419.033 359.721 420.159 359.653 421.285L360.329 421.325ZM360.552 414.528C360.559 413.394 360.549 412.262 360.525 411.128L359.848 411.143C359.873 412.27 359.882 413.397 359.875 414.526L360.552 414.528ZM360.403 407.73C360.347 406.597 360.276 405.466 360.189 404.335L359.514 404.387C359.601 405.511 359.672 406.636 359.728 407.762L360.403 407.73ZM359.882 400.948C359.764 399.82 359.632 398.694 359.483 397.571L358.812 397.659C358.959 398.777 359.092 399.897 359.209 401.018L359.882 400.948ZM358.99 394.206C358.812 393.087 358.617 391.969 358.407 390.855L357.741 390.98C357.951 392.088 358.144 393.199 358.323 394.313L358.99 394.206ZM357.732 387.522C357.491 386.414 357.235 385.31 356.964 384.208L356.307 384.369C356.577 385.466 356.831 386.564 357.07 387.666L357.732 387.522ZM356.108 380.917C355.806 379.825 355.491 378.736 355.159 377.651L354.512 377.848C354.841 378.927 355.155 380.011 355.454 381.097L356.108 380.917ZM354.123 374.413C353.943 373.875 353.759 373.338 353.571 372.804L352.932 373.027C353.119 373.56 353.303 374.093 353.481 374.628L354.123 374.413Z" fill="white"/>
<path d="M249.815 14.5513L249.973 14.2519L249.815 14.5513ZM83.48 66.1083L86.7991 64.0483L83.3555 62.2039L83.48 66.1083ZM86.2842 61.7403C86.863 60.7437 87.4539 59.7582 88.0568 58.7838L87.4814 58.4279C86.8753 59.4076 86.2811 60.3984 85.6991 61.4004L86.2842 61.7403ZM89.907 55.8839C90.5406 54.9207 91.186 53.969 91.8429 53.0288L91.2883 52.6412C90.6277 53.5866 89.9788 54.5436 89.3418 55.5121L89.907 55.8839ZM93.8517 50.238C94.5382 49.3118 95.236 48.3977 95.9451 47.4956L95.413 47.0774C94.7001 47.9846 93.9984 48.9038 93.3081 49.835L93.8517 50.238ZM98.1095 44.8196C98.8461 43.935 99.5936 43.0625 100.352 42.2024L99.8442 41.755C99.0818 42.6199 98.3302 43.4971 97.5896 44.3867L98.1095 44.8196ZM102.666 39.6511C103.45 38.8103 104.245 37.9823 105.05 37.1669L104.568 36.6915C103.759 37.5114 102.96 38.3441 102.171 39.1895L102.666 39.6511ZM107.506 34.7488C108.336 33.9545 109.175 33.1732 110.025 32.405L109.571 31.9031C108.717 32.6757 107.872 33.4614 107.038 34.2601L107.506 34.7488ZM112.615 30.1285C113.488 29.382 114.372 28.649 115.263 27.9293L114.838 27.4027C113.941 28.1264 113.054 28.8635 112.175 29.614L112.615 30.1285ZM117.977 25.8042C118.89 25.108 119.814 24.4256 120.747 23.7569L120.351 23.2071C119.415 23.8795 118.485 24.5657 117.567 25.2658L117.977 25.8042ZM123.572 21.7888C124.525 21.1453 125.485 20.5156 126.454 19.8999L126.092 19.329C125.117 19.948 124.151 20.5811 123.193 21.2282L123.572 21.7888ZM129.385 18.0942C130.373 17.5052 131.368 16.9303 132.369 16.3698L132.039 15.7793C131.032 16.3429 130.031 16.9208 129.039 17.5131L129.385 18.0942ZM135.399 14.7307C136.417 14.1981 137.441 13.6801 138.473 13.1765L138.176 12.5686C137.139 13.0748 136.108 13.5956 135.085 14.1311L135.399 14.7307ZM141.59 11.709C142.636 11.2343 143.687 10.7745 144.746 10.3294L144.483 9.70572C143.419 10.1532 142.361 10.6156 141.31 11.0929L141.59 11.709ZM147.939 9.03792C149.009 8.62235 150.087 8.22181 151.168 7.83641L150.94 7.19906C149.852 7.58661 148.771 7.98933 147.694 8.4072L147.939 9.03792ZM154.429 6.72514C155.521 6.36993 156.617 6.02994 157.719 5.7053L157.528 5.05629C156.42 5.38273 155.317 5.72457 154.219 6.08172L154.429 6.72514ZM161.037 4.7775C162.146 4.48374 163.26 4.20543 164.378 3.94265L164.223 3.28401C163.099 3.54822 161.979 3.82806 160.863 4.12343L161.037 4.7775ZM167.743 3.20121C168.866 2.96985 169.995 2.75411 171.126 2.55411L171.008 1.88785C169.87 2.08895 168.736 2.30586 167.606 2.53849L167.743 3.20121ZM174.525 2.00165C175.661 1.83342 176.8 1.681 177.941 1.54446L177.86 0.872664C176.713 1.00993 175.569 1.16321 174.427 1.33236L174.525 2.00165ZM181.366 1.18306C182.509 1.07859 183.654 0.990082 184.802 0.917631L184.758 0.242372C183.605 0.315228 182.454 0.404227 181.304 0.509263L181.366 1.18306ZM188.24 0.748806C189.388 0.70863 190.536 0.684516 191.685 0.676586L191.681 0C190.524 0.00798387 189.37 0.0322196 188.217 0.0726261L188.24 0.748806ZM195.129 0.701241C196.275 0.725599 197.424 0.7661 198.572 0.822853L198.606 0.147079C197.451 0.0900145 196.297 0.0492836 195.144 0.0247907L195.129 0.701241ZM202.01 1.04154C203.154 1.13042 204.296 1.23551 205.439 1.35691L205.51 0.684096C204.361 0.562024 203.212 0.456352 202.063 0.366974L202.01 1.04154ZM208.861 1.76959C209.997 1.92276 211.132 2.09213 212.265 2.27783L212.374 1.61012C211.235 1.4234 210.094 1.25309 208.952 1.09907L208.861 1.76959ZM215.659 2.88298C216.783 3.10011 217.908 3.33348 219.029 3.58319L219.177 2.92273C218.048 2.67165 216.917 2.43698 215.786 2.21864L215.659 2.88298ZM222.381 4.37861C223.492 4.65913 224.602 4.95587 225.71 5.26892L225.894 4.61782C224.78 4.30304 223.664 4.00466 222.546 3.72258L222.381 4.37861ZM229.008 6.25147C230.104 6.5945 231.196 6.9537 232.285 7.3291L232.506 6.68946C231.41 6.31191 230.312 5.95073 229.211 5.6058L229.008 6.25147ZM235.521 8.49461C236.594 8.89841 237.666 9.3183 238.732 9.7543L238.988 9.12791C237.915 8.68961 236.839 8.26741 235.759 7.86131L235.521 8.49461ZM241.898 11.0994C242.947 11.562 243.992 12.0405 245.032 12.535L245.322 11.9239C244.276 11.4267 243.226 10.9457 242.172 10.4804L241.898 11.0994ZM248.122 14.055C248.635 14.3163 249.146 14.5814 249.658 14.8506L249.973 14.2519C249.459 13.9814 248.945 13.7148 248.429 13.4522L248.122 14.055ZM249.658 14.8506C250.158 15.1143 250.656 15.3812 251.152 15.6507L251.475 15.0565C250.977 14.7854 250.476 14.5172 249.973 14.2519L249.658 14.8506ZM254.1 17.3069C255.077 17.8738 256.045 18.4523 257 19.042L257.356 18.4662C256.394 17.8731 255.422 17.2915 254.439 16.7217L254.1 17.3069ZM259.857 20.8581C260.803 21.4777 261.738 22.1089 262.661 22.7511L263.046 22.1956C262.118 21.5499 261.179 20.9152 260.228 20.2922L259.857 20.8581ZM265.41 24.7199C266.321 25.3902 267.218 26.0714 268.105 26.7635L268.521 26.23C267.63 25.5342 266.727 24.8492 265.812 24.1752L265.41 24.7199ZM270.742 28.8803C271.612 29.5998 272.471 30.3298 273.32 31.0703L273.765 30.5607C272.912 29.8163 272.048 29.082 271.172 28.3586L270.742 28.8803ZM275.835 33.3314C276.665 34.0978 277.482 34.8745 278.289 35.661L278.761 35.177C277.952 34.3862 277.129 33.6051 276.295 32.8345L275.835 33.3314ZM280.674 38.0577C281.461 38.8685 282.233 39.6892 282.994 40.5193L283.492 40.0622C282.727 39.2275 281.95 38.4023 281.16 37.5869L280.674 38.0577ZM285.243 43.0441C285.982 43.8973 286.708 44.7595 287.421 45.6309L287.945 45.2022C287.228 44.3261 286.497 43.459 285.754 42.601L285.243 43.0441ZM289.528 48.2774C290.22 49.1701 290.896 50.0715 291.561 50.9811L292.108 50.5821C291.439 49.6674 290.758 48.7611 290.064 47.8634L289.528 48.2774ZM293.518 53.7398C294.158 54.669 294.786 55.6064 295.399 56.5513L295.965 56.1831C295.35 55.2329 294.719 54.2904 294.075 53.356L293.518 53.7398ZM297.2 59.4136C297.787 60.3765 298.362 61.3469 298.922 62.3245L299.508 61.9879C298.945 61.0051 298.369 60.0294 297.777 59.0611L297.2 59.4136ZM300.564 65.282C301.097 66.2758 301.616 67.2764 302.123 68.2835L302.727 67.9799C302.219 66.9671 301.696 65.961 301.159 64.9618L300.564 65.282ZM303.599 71.3266C304.078 72.348 304.542 73.3756 304.991 74.4091L305.612 74.139C305.159 73.0998 304.694 72.0667 304.212 71.0396L303.599 71.3266ZM306.299 77.5285C306.721 78.5743 307.128 79.6258 307.52 80.6825L308.155 80.4468C307.76 79.3844 307.35 78.3271 306.926 77.2754L306.299 77.5285ZM308.656 83.8689C309.018 84.9361 309.368 86.0083 309.702 87.0852L310.349 86.8845C310.012 85.8018 309.661 84.7237 309.296 83.6506L308.656 83.8689ZM310.661 90.3288C310.966 91.4142 311.255 92.5039 311.53 93.5974L312.186 93.4325C311.91 92.3329 311.619 91.2373 311.312 90.146L310.661 90.3288ZM312.309 96.8887C312.554 97.989 312.784 99.0929 313 100.2L313.664 100.071C313.447 98.9581 313.216 97.8481 312.971 96.7417L312.309 96.8887ZM313.598 103.529C313.782 104.641 313.951 105.756 314.104 106.874L314.775 106.782C314.619 105.658 314.45 104.537 314.265 103.419L313.598 103.529ZM314.519 110.23C314.641 111.35 314.749 112.473 314.841 113.597L315.515 113.542C315.423 112.411 315.315 111.283 315.192 110.157L314.519 110.23ZM315.07 116.972C315.101 117.534 315.127 118.098 315.15 118.662L315.826 118.634C315.803 118.067 315.776 117.501 315.747 116.935L315.07 116.972Z" fill="white"/>
<path d="M185.233 387.381C194.509 362.231 222.665 349.272 248.12 358.439C273.574 367.606 286.689 395.425 277.412 420.577C268.134 445.728 239.979 458.687 214.524 449.52C189.071 440.354 175.955 412.533 185.233 387.381Z" stroke="white" stroke-width="0.5"/>
<path d="M263.164 266.167V236.108L295.629 220.475L297.895 215.002L285.993 180.992L307.249 159.736L341.257 171.64L346.732 169.372L362.363 136.907H392.424L408.055 169.372L413.529 171.64L447.539 159.736L468.795 180.992L456.891 215.002L459.159 220.475L491.625 236.108V266.167L459.159 281.8L456.891 287.272L468.795 321.282L447.539 342.538L413.529 330.635L408.055 332.902L392.424 365.368H362.363L346.732 332.902L341.257 330.635L307.249 342.538L285.993 321.282L297.895 287.273L295.629 281.8L263.164 266.167Z" stroke="white"/>
<path d="M362.966 116.461L366.574 112.854M362.966 136.902V116.461V136.902ZM391.825 136.902V116.461V136.902ZM391.825 116.461H362.966H391.825ZM391.825 116.461V108.044V116.461ZM391.825 116.461L388.218 120.068L391.825 116.461ZM391.825 116.461L395.432 112.854L391.825 116.461ZM391.825 116.461H399.04H391.825ZM362.966 116.461H355.752H362.966ZM362.966 116.461V108.044V116.461ZM362.966 116.461L359.36 120.068L362.966 116.461Z" stroke="white" stroke-width="0.5"/>
<path d="M377.403 286.002C396.661 286.002 412.273 270.39 412.273 251.132C412.273 231.874 396.661 216.262 377.403 216.262C358.144 216.262 342.532 231.874 342.532 251.132C342.532 270.39 358.144 286.002 377.403 286.002Z" stroke="white"/>
<path d="M192.225 156.134C207.499 156.134 219.881 143.752 219.881 128.478C219.881 113.204 207.499 100.822 192.225 100.822C176.951 100.822 164.569 113.204 164.569 128.478C164.569 143.752 176.951 156.134 192.225 156.134Z" stroke="white"/>
<path d="M212.658 397.682C216.389 387.445 227.714 382.168 237.952 385.901C248.19 389.631 253.465 400.956 249.733 411.195C246.002 421.433 234.677 426.708 224.439 422.976C214.202 419.245 208.927 407.92 212.658 397.682Z" stroke="white"/>
<path d="M152.865 65.5061L175.531 56.1058L186.184 19.0674L198.281 19.0778L209.12 56.0628L231.697 65.6714M119.845 111.793L129.242 89.1263L110.584 55.4042L119.131 46.8426L152.948 65.3303L175.714 56.1735L119.845 111.793ZM264.598 145.191L255.217 167.865L273.875 201.586L265.313 210.133L231.497 191.646L208.739 200.816L264.598 145.191ZM208.926 56.1027L231.592 65.5004L265.313 46.8425L273.875 55.3894L255.388 89.2065L264.545 111.973L208.926 56.1027ZM175.527 200.856L152.853 191.475L119.131 210.133L110.584 201.572L129.072 167.755L119.903 144.996L175.527 200.856ZM255.217 89.1094L264.599 111.782L301.637 122.434L301.648 134.531L264.662 145.372L255.04 167.945L255.217 89.1094ZM129.245 167.85L119.845 145.184L82.8066 134.531L82.8169 122.434L119.803 111.595L129.41 89.0175L129.245 167.85ZM231.607 191.478L208.934 200.86L198.281 237.898L186.184 237.909L175.345 200.923L152.771 191.301L231.607 191.478Z" stroke="white"/>
<path d="M304.237 401.243L303.697 388.871M293.335 444.758L284.868 453.984L293.335 444.758ZM284.868 453.984L276.744 462.836L282.727 500.909L271.765 506.026L246.323 477.077L234.139 477.477L284.868 453.984ZM284.868 453.984L293.308 444.959L331.768 447.439L335.92 436.076L304.768 413.386L304.237 401.243L284.868 453.984ZM284.868 453.984L276.548 462.88L284.868 453.984ZM234.139 477.477L221.798 477.885L234.139 477.477ZM234.139 477.477L246.46 476.94L234.139 477.477ZM234.139 477.477L221.945 478.01L199.255 509.162L187.892 505.009L190.372 466.549L181.632 458.377L234.139 477.477ZM168.769 363.813L177.004 354.825L168.769 363.813ZM177.004 354.825L185.345 345.722L179.363 307.649L190.333 302.551L215.776 331.5L227.963 331.091L177.004 354.825ZM177.004 354.825L168.769 363.62L130.308 361.14L126.175 372.511L157.327 395.201L157.851 407.421L177.004 354.825ZM177.004 354.825L185.54 345.708L177.004 354.825ZM227.963 331.091L240.299 330.677L227.963 331.091ZM227.963 331.091L215.615 331.621L227.963 331.091ZM227.963 331.091L240.131 330.569L262.821 299.418L274.191 303.551L271.71 342.011L280.755 350.478L227.963 331.091ZM190.57 466.579L181.632 458.377L190.57 466.579ZM181.632 458.377L172.491 449.987L134.419 455.971L129.303 445.009L158.252 419.566L157.851 407.421L181.632 458.377ZM181.632 458.377L172.451 449.791L181.632 458.377ZM157.851 407.421L157.444 395.04L157.851 407.421ZM157.851 407.421L158.379 419.716L157.851 407.421ZM271.514 342.013L280.755 350.478L271.514 342.013ZM280.755 350.478L289.607 358.589L327.679 352.607L332.778 363.577L303.827 389.019L304.237 401.243L280.755 350.478ZM280.755 350.478L289.624 358.781L280.755 350.478ZM304.237 401.243L304.65 413.543L304.237 401.243Z" stroke="white"/>
<path d="M477.862 385.05C490.138 358.488 521.622 346.906 548.185 359.182C574.747 371.458 586.329 402.943 574.053 429.505C561.778 456.068 530.293 467.649 503.73 455.374C477.168 443.098 465.586 411.613 477.862 385.05Z" stroke="white" stroke-width="0.5"/>
<path d="M535.401 480.944L510.882 479.968L485.675 509.122L474.698 504.038L480.375 465.917L463.912 447.723M584.794 452.781L566.755 469.413L569.545 507.852L558.194 512.038L535.252 481.07L510.746 479.83L584.794 452.781ZM467.406 361.738L485.433 345.091L482.643 306.652L494 302.485L516.942 333.453L541.449 334.678L467.406 361.738ZM480.568 465.963L463.936 447.923L425.497 450.712L421.312 439.363L452.279 416.421L453.519 391.913L480.568 465.963ZM571.611 348.574L588.258 366.601L626.697 363.811L630.864 375.168L599.895 398.111L598.671 422.616L571.611 348.574ZM452.395 416.58L453.389 392.063L424.236 366.856L429.302 355.87L467.422 361.546L485.628 345.092L452.395 416.58ZM599.778 397.951L598.803 422.469L627.954 447.677L622.871 458.654L584.75 452.979L566.556 469.442L599.778 397.951ZM516.772 333.562L541.289 334.556L566.496 305.403L577.483 310.469L571.806 348.589L588.26 366.795L516.772 333.562Z" stroke="white"/>
<path d="M541.45 373.755C522.936 365.199 500.992 373.271 492.437 391.784C483.881 410.297 491.953 432.241 510.466 440.797C528.979 449.353 550.923 441.281 559.479 422.768C568.035 404.254 559.963 382.311 541.45 373.755Z" stroke="white"/>
<path d="M491.267 485.76L412.407 564.619H356.329M439.277 182.588L532.741 89.1255H640.808L439.277 182.588Z" stroke="white" stroke-width="0.5"/>
<path d="M587.649 291.67V274.453L606.244 265.5L607.541 262.365L600.724 242.887L612.899 230.712L632.377 237.53L635.512 236.232L644.465 217.638H661.682L670.634 236.232L673.77 237.53L693.248 230.712L705.422 242.887L698.605 262.366L699.904 265.5L718.498 274.453V291.67L699.904 300.623L698.605 303.758L705.422 323.236L693.248 335.411L673.77 328.593L670.634 329.892L661.682 348.487H644.465L635.512 329.892L632.377 328.593L612.899 335.411L600.724 323.237L607.541 303.758L606.244 300.623L587.649 291.67Z" stroke="white"/>
</g>
</svg>
