<svg width="15" height="15" viewBox="0 0 15 15" fill="none" xmlns="http://www.w3.org/2000/svg">
<circle cx="7.5" cy="7.5" r="7" stroke="#6D73FF"/>
<path d="M7.55 4.95C7.75 4.95 7.93 4.99 8.1 5.05C8.27 5.12 8.42 5.21 8.55 5.32C8.67 5.43 8.77 5.55 8.84 5.69C8.91 5.83 8.95 5.96 8.95 6.1C8.95 6.34 8.9 6.53 8.8 6.68C8.7 6.83 8.57 6.96 8.43 7.08C8.28 7.2 8.12 7.32 7.95 7.43C7.77 7.55 7.61 7.68 7.47 7.84C7.32 8 7.2 8.19 7.1 8.41C7 8.63 6.95 8.91 6.95 9.25H7.85C7.85 8.99 7.9 8.78 8.01 8.61C8.11 8.45 8.25 8.3 8.41 8.17C8.57 8.05 8.74 7.93 8.92 7.81C9.1 7.7 9.28 7.57 9.44 7.42C9.6 7.28 9.73 7.1 9.84 6.89C9.94 6.69 10 6.42 10 6.1C10 5.83 9.94 5.57 9.82 5.31C9.7 5.06 9.53 4.84 9.32 4.64C9.1 4.45 8.84 4.3 8.54 4.18C8.24 4.06 7.91 4 7.55 4C7.19 4 6.87 4.06 6.59 4.16C6.31 4.27 6.06 4.42 5.84 4.6C5.62 4.78 5.44 5 5.3 5.25C5.16 5.5 5.06 5.77 5 6.05L6.05 6.2C6.15 5.82 6.32 5.52 6.57 5.29C6.82 5.07 7.15 4.95 7.55 4.95ZM6.8 10.85C6.8 11.03 6.85 11.17 6.97 11.28C7.08 11.4 7.22 11.45 7.4 11.45C7.57 11.45 7.71 11.4 7.83 11.28C7.94 11.17 8 11.03 8 10.85C8 10.68 7.94 10.54 7.83 10.42C7.71 10.31 7.57 10.25 7.4 10.25C7.22 10.25 7.08 10.31 6.97 10.42C6.85 10.54 6.8 10.68 6.8 10.85Z" fill="#6D73FF"/>
</svg>
