<svg width="226" height="48" viewBox="0 0 226 48" fill="none" xmlns="http://www.w3.org/2000/svg">
<path d="M78.6856 22.6007C79.5142 22.9774 80.2676 23.5047 80.9079 24.1827C81.5482 24.8607 82.0756 25.6517 82.4522 26.5557C82.8289 27.4597 83.0172 28.4014 83.0172 29.456L81.8872 30.586H71.9432C72.0186 31.1134 72.1692 31.603 72.3952 32.0927C72.6212 32.5447 72.9226 32.959 73.2992 33.298C73.6759 33.637 74.0902 33.9384 74.5799 34.1267C75.0696 34.315 75.5969 34.428 76.1619 34.428C77.2919 34.428 78.1582 34.202 78.7986 33.7124C79.4012 33.2227 79.8532 32.6577 80.1546 32.0174L82.8666 32.394C82.6782 32.9214 82.4146 33.4487 82.0379 33.976C81.6612 34.5034 81.1716 34.993 80.6442 35.4074C80.0792 35.8217 79.4389 36.1607 78.6856 36.4244C77.9322 36.688 77.1036 36.801 76.1996 36.801C75.1826 36.801 74.2786 36.6127 73.4122 36.236C72.5459 35.8594 71.7926 35.3697 71.1522 34.6917C70.5119 34.0514 70.0222 33.2604 69.6456 32.3564C69.2689 31.4524 69.0806 30.473 69.0806 29.4184C69.0806 28.3637 69.2689 27.3844 69.6456 26.4427C70.0222 25.5387 70.5119 24.7477 71.1522 24.1074C71.7926 23.467 72.5082 22.9397 73.3746 22.563C74.2032 22.1864 75.1072 21.998 76.0866 21.998C76.9529 22.0357 77.8569 22.224 78.6856 22.6007ZM74.5422 24.7477C74.0526 24.936 73.6382 25.1997 73.2992 25.5764C72.9226 25.9154 72.6589 26.3297 72.3952 26.744C72.1316 27.1584 72.0186 27.648 71.9432 28.1377H80.1922C80.1169 27.648 79.9662 27.1584 79.7402 26.744C79.5142 26.292 79.2129 25.9154 78.8362 25.5764C78.4596 25.2374 78.0452 24.9737 77.5932 24.7477C77.1036 24.5594 76.6139 24.4464 76.0866 24.4464C75.5216 24.4464 74.9942 24.5594 74.5422 24.7477Z" fill="white"/>
<path d="M85.1268 26.4798C85.5035 25.5758 85.9555 24.7848 86.5581 24.1445C87.1608 23.5042 87.8388 22.9768 88.5921 22.6002C89.3455 22.2235 90.1365 22.0352 90.9651 22.0352C91.6808 22.0352 92.2835 22.1482 92.8108 22.3742C93.3381 22.6002 93.7525 22.8638 94.0915 23.1652C94.5058 23.5042 94.8071 23.8808 95.0708 24.2952H95.3721V22.6002H98.0841V36.2355H95.3721V34.5405H95.0708C94.8071 34.9548 94.4681 35.3315 94.0915 35.6705C93.7525 35.9718 93.3381 36.1978 92.8108 36.4615C92.2835 36.6875 91.6808 36.8005 90.9651 36.8005C90.1365 36.8005 89.3455 36.6122 88.5921 36.2355C87.8388 35.8588 87.1608 35.3692 86.5581 34.6912C85.9555 34.0508 85.4658 33.2598 85.1268 32.3558C84.7501 31.4518 84.5995 30.4725 84.5995 29.4178C84.5618 28.3632 84.7501 27.3838 85.1268 26.4798ZM94.3175 26.0278C93.9785 25.6512 93.5265 25.2745 93.0368 24.9732C92.5095 24.6342 91.9068 24.4835 91.2665 24.4835C90.7391 24.4835 90.2118 24.5965 89.7598 24.8225C89.3078 25.0485 88.8558 25.3875 88.4791 25.8018C88.1025 26.2162 87.8388 26.7435 87.6128 27.3838C87.3868 28.0242 87.2738 28.7022 87.2738 29.4555C87.2738 30.2465 87.3868 30.9245 87.6128 31.5272C87.8388 32.1298 88.1025 32.6572 88.4791 33.1092C88.8558 33.5235 89.2701 33.8625 89.7598 34.0885C90.2495 34.3145 90.7391 34.4275 91.2665 34.4275C91.9445 34.4275 92.5095 34.2768 93.0368 33.9378C93.5641 33.5988 93.9785 33.2598 94.3175 32.8455C94.7318 32.3935 95.0708 31.8662 95.3721 31.2635V27.5722C95.0708 27.0072 94.7318 26.4798 94.3175 26.0278Z" fill="white"/>
<path d="M101.436 24.5588C101.7 24.0692 102.039 23.6548 102.491 23.2782C102.943 22.9015 103.546 22.6002 104.224 22.3742C104.902 22.1482 105.693 22.0352 106.597 22.0352C107.425 22.0352 108.141 22.1482 108.819 22.3742C109.497 22.6002 110.062 22.9015 110.589 23.2782C111.117 23.6548 111.493 24.0315 111.832 24.4835C112.171 24.8978 112.397 25.3122 112.548 25.7265L109.987 26.1408C109.761 25.6888 109.422 25.3122 108.894 24.9732C108.367 24.6342 107.614 24.4458 106.597 24.4458C105.655 24.4458 104.977 24.6342 104.487 25.0485C103.998 25.4628 103.772 25.8772 103.772 26.2915C103.772 26.7058 103.998 27.0448 104.412 27.2708C104.864 27.4968 105.391 27.7228 106.032 27.8735C106.672 28.0618 107.388 28.2125 108.141 28.4008C108.894 28.5892 109.61 28.8528 110.25 29.1918C110.891 29.5308 111.456 29.9828 111.87 30.5102C112.322 31.0752 112.51 31.7908 112.51 32.6572C112.51 33.1845 112.397 33.7118 112.171 34.2015C111.945 34.6912 111.569 35.1432 111.117 35.5198C110.627 35.8965 110.024 36.1978 109.309 36.4615C108.555 36.6875 107.689 36.8005 106.71 36.8005C105.768 36.8005 104.977 36.6875 104.261 36.4615C103.546 36.2355 102.943 35.9342 102.378 35.5198C101.813 35.1055 101.399 34.6912 101.022 34.2015C100.645 33.7118 100.382 33.1845 100.156 32.6572L102.868 32.2428C103.169 32.8078 103.583 33.2975 104.148 33.7495C104.713 34.1638 105.58 34.3898 106.71 34.3898C107.802 34.3898 108.593 34.1638 109.083 33.7495C109.572 33.3352 109.836 32.8832 109.836 32.3935C109.836 31.9792 109.61 31.6402 109.196 31.4142C108.744 31.1882 108.216 30.9622 107.576 30.8115C106.936 30.6608 106.22 30.4725 105.467 30.2842C104.713 30.0958 103.998 29.8322 103.357 29.4932C102.717 29.1542 102.152 28.7398 101.738 28.1748C101.286 27.6475 101.097 26.8942 101.097 25.9902C101.06 25.5005 101.173 25.0108 101.436 24.5588Z" fill="white"/>
<path d="M124.225 36.2354C123.735 38.5707 123.019 40.2657 122.153 41.2827C121.249 42.2997 120.194 42.7894 118.989 42.7894C118.612 42.7894 118.311 42.7517 118.01 42.714C117.708 42.6387 117.482 42.601 117.256 42.5257C116.993 42.4504 116.767 42.3374 116.578 42.2244L116.993 39.8137C117.181 39.9267 117.332 40.0397 117.52 40.115C117.671 40.1904 117.859 40.2657 118.047 40.3034C118.273 40.3787 118.462 40.3787 118.688 40.3787C118.989 40.3787 119.253 40.3034 119.516 40.1904C119.78 40.0397 120.044 39.8137 120.27 39.5124C120.496 39.211 120.722 38.759 120.948 38.2317C121.174 37.7044 121.362 37.064 121.513 36.273H116.842L113.829 22.6377H116.541L118.951 33.8624H121.927L124.338 22.6377H127.05L124.225 36.2354Z" fill="white"/>
<path d="M132.662 36.2356C131.796 35.859 131.005 35.3316 130.364 34.6536C129.686 33.9756 129.197 33.1846 128.782 32.2806C128.406 31.3766 128.217 30.435 128.217 29.3803C128.217 28.3633 128.406 27.384 128.782 26.48C129.159 25.576 129.686 24.785 130.364 24.107C131.042 23.429 131.796 22.9016 132.662 22.525C133.528 22.1483 134.47 21.96 135.487 21.96C136.466 21.96 137.408 22.1483 138.274 22.525C139.141 22.9016 139.932 23.429 140.61 24.107C141.288 24.785 141.777 25.576 142.192 26.48C142.568 27.384 142.757 28.3256 142.757 29.3803C142.757 30.3973 142.568 31.3766 142.192 32.2806C141.815 33.1846 141.288 33.9756 140.61 34.6536C139.932 35.3316 139.178 35.859 138.274 36.2356C137.408 36.6123 136.466 36.8006 135.487 36.8006C134.47 36.8006 133.528 36.6123 132.662 36.2356ZM137.182 34.0133C137.747 33.7496 138.199 33.4106 138.651 32.9586C139.065 32.5066 139.404 32.017 139.63 31.3766C139.894 30.774 140.007 30.096 140.007 29.3803C140.007 28.6646 139.894 28.0243 139.63 27.4216C139.367 26.819 139.065 26.2916 138.651 25.8396C138.237 25.3876 137.747 25.0486 137.182 24.785C136.617 24.5213 136.052 24.4083 135.449 24.4083C134.847 24.4083 134.282 24.5213 133.717 24.785C133.152 25.0486 132.7 25.3876 132.285 25.8396C131.871 26.2916 131.532 26.819 131.306 27.4216C131.042 28.0243 130.929 28.7023 130.929 29.3803C130.929 30.096 131.042 30.774 131.306 31.3766C131.57 31.9793 131.871 32.5066 132.285 32.9586C132.7 33.4106 133.189 33.7496 133.717 34.0133C134.244 34.277 134.847 34.39 135.449 34.39C136.052 34.39 136.655 34.277 137.182 34.0133Z" fill="white"/>
<path d="M155.224 36.2355V28.2878C155.224 27.7228 155.149 27.1955 154.961 26.7058C154.772 26.2162 154.546 25.8395 154.207 25.5005C153.906 25.1615 153.529 24.8978 153.115 24.7095C152.701 24.5212 152.249 24.4082 151.797 24.4082C151.232 24.4082 150.704 24.5588 150.215 24.8978C149.725 25.2368 149.348 25.5758 149.009 25.9525C148.595 26.4422 148.256 26.9318 147.955 27.5345V36.1978H145.243V22.6002H147.955V24.2952H148.256C148.557 23.8808 148.896 23.5042 149.273 23.1652C149.612 22.8638 150.026 22.6378 150.516 22.3742C151.006 22.1482 151.571 22.0352 152.211 22.0352C153.002 22.0352 153.718 22.1858 154.433 22.4872C155.111 22.7885 155.714 23.2028 156.241 23.7678C156.769 24.3328 157.145 24.9732 157.447 25.7265C157.748 26.4798 157.899 27.3462 157.899 28.2878V36.2355H155.224Z" fill="white"/>
<path d="M169.952 22.6002C170.78 22.9768 171.534 23.5042 172.174 24.1822C172.814 24.8602 173.342 25.6512 173.718 26.5552C174.095 27.4592 174.283 28.4008 174.283 29.4555L173.153 30.5855H163.209C163.285 31.1128 163.435 31.6025 163.661 32.0922C163.887 32.5442 164.189 32.9585 164.565 33.2975C164.942 33.6365 165.356 33.9378 165.846 34.1262C166.336 34.3145 166.863 34.4275 167.428 34.4275C168.558 34.4275 169.424 34.2015 170.065 33.7118C170.667 33.2222 171.119 32.6572 171.421 32.0168L174.133 32.4312C173.944 32.9585 173.681 33.4858 173.304 34.0132C172.927 34.5405 172.438 35.0302 171.91 35.4445C171.345 35.8588 170.705 36.1978 169.952 36.4615C169.198 36.7252 168.37 36.8382 167.466 36.8382C166.449 36.8382 165.545 36.6498 164.678 36.2732C163.812 35.8965 163.059 35.4068 162.418 34.7288C161.778 34.0885 161.288 33.2975 160.912 32.3935C160.535 31.4895 160.347 30.5102 160.347 29.4555C160.347 28.4008 160.535 27.4215 160.912 26.4798C161.288 25.5758 161.778 24.7848 162.418 24.1445C163.059 23.5042 163.774 22.9768 164.641 22.6002C165.469 22.2235 166.373 22.0352 167.353 22.0352C168.219 22.0352 169.123 22.2235 169.952 22.6002ZM165.808 24.7472C165.319 24.9355 164.904 25.1992 164.565 25.5758C164.189 25.9148 163.925 26.3292 163.661 26.7435C163.398 27.1578 163.285 27.6475 163.209 28.1372H171.458C171.383 27.6475 171.232 27.1578 171.006 26.7435C170.78 26.2915 170.479 25.9148 170.102 25.5758C169.726 25.2368 169.311 24.9732 168.859 24.7472C168.37 24.5588 167.88 24.4458 167.353 24.4458C166.788 24.4458 166.26 24.5588 165.808 24.7472Z" fill="white"/>
<path d="M182.947 36.2359H178.238L175.526 22.6006H178.238L180.385 33.5616H181.101L183.361 22.6006H187.052L189.312 33.5616H190.028L192.175 22.6006H194.887L192.175 36.2359H187.467L185.32 25.8399H185.018L182.947 36.2359Z" fill="#FF6F43"/>
<path d="M205.622 22.6007C206.451 22.9774 207.204 23.5047 207.844 24.1827C208.485 24.8607 209.012 25.6517 209.389 26.5557C209.765 27.4597 209.954 28.4014 209.954 29.456L208.824 30.586H198.88C198.955 31.1134 199.106 31.603 199.332 32.0927C199.558 32.5447 199.859 32.959 200.236 33.298C200.612 33.637 201.027 33.9384 201.516 34.1267C202.006 34.315 202.533 34.428 203.098 34.428C204.228 34.428 205.095 34.202 205.735 33.7124C206.338 33.2227 206.79 32.6577 207.091 32.0174L209.803 32.394C209.615 32.9214 209.351 33.4487 208.974 33.976C208.598 34.5034 208.108 34.993 207.581 35.4074C207.016 35.8217 206.375 36.1607 205.622 36.4244C204.869 36.688 204.04 36.801 203.136 36.801C202.119 36.801 201.215 36.6127 200.349 36.236C199.482 35.8594 198.729 35.3697 198.089 34.6917C197.448 34.0514 196.959 33.2604 196.582 32.3564C196.205 31.4524 196.017 30.473 196.017 29.4184C196.017 28.3637 196.205 27.3844 196.582 26.4427C196.959 25.5387 197.448 24.7477 198.089 24.1074C198.729 23.467 199.445 22.9397 200.311 22.563C201.14 22.1864 202.044 21.998 203.023 21.998C203.927 22.0357 204.793 22.224 205.622 22.6007ZM201.479 24.7477C200.989 24.936 200.575 25.1997 200.236 25.5764C199.859 25.9154 199.595 26.3297 199.332 26.744C199.068 27.1584 198.955 27.648 198.88 28.1377H207.129C207.053 27.648 206.903 27.1584 206.677 26.744C206.451 26.292 206.149 25.9154 205.773 25.5764C205.396 25.2374 204.982 24.9737 204.53 24.7477C204.04 24.5594 203.55 24.4464 203.023 24.4464C202.458 24.4464 201.931 24.5594 201.479 24.7477Z" fill="#FF6F43"/>
<path d="M225.472 32.3937C225.096 33.2977 224.644 34.0887 224.041 34.729C223.438 35.3693 222.76 35.8967 222.007 36.2733C221.254 36.65 220.463 36.8383 219.634 36.8383C218.918 36.8383 218.316 36.7253 217.788 36.4993C217.261 36.2733 216.847 36.0097 216.508 35.7083C216.093 35.3693 215.792 34.9927 215.528 34.5783H215.227V36.2733H212.515V16.3477H215.227V24.2953H215.528C215.792 23.881 216.131 23.5043 216.508 23.1653C216.847 22.864 217.261 22.638 217.788 22.3743C218.316 22.1483 218.918 22.0353 219.634 22.0353C220.463 22.0353 221.254 22.2237 222.007 22.6003C222.76 22.977 223.438 23.4667 224.041 24.1447C224.644 24.785 225.133 25.576 225.472 26.48C225.849 27.384 226 28.3633 226 29.4557C226 30.4727 225.811 31.452 225.472 32.3937ZM216.244 32.8457C216.583 33.26 216.997 33.599 217.525 33.938C218.052 34.277 218.617 34.4277 219.333 34.4277C219.86 34.4277 220.387 34.3147 220.839 34.0887C221.291 33.8627 221.743 33.5237 222.12 33.1093C222.497 32.695 222.76 32.1677 222.986 31.5273C223.212 30.9247 223.325 30.209 223.325 29.4557C223.325 28.6647 223.212 27.9867 222.986 27.384C222.76 26.7813 222.497 26.254 222.12 25.802C221.743 25.3877 221.329 25.0487 220.839 24.8227C220.35 24.5967 219.86 24.4837 219.333 24.4837C218.655 24.4837 218.052 24.6343 217.525 24.9733C216.997 25.3123 216.583 25.6513 216.244 26.028C215.83 26.5177 215.491 27.0073 215.189 27.61V31.2637C215.491 31.8663 215.867 32.3937 216.244 32.8457Z" fill="#FF6F43"/>
<path d="M37.1393 20.0391C34.2767 20.0391 31.979 22.3744 31.979 25.1994V31.3391C31.979 34.2017 34.3143 36.4994 37.1393 36.4994C40.002 36.4994 42.2997 34.1641 42.2997 31.3391V25.2371C42.3373 22.3744 40.002 20.0391 37.1393 20.0391ZM39.8513 30.8871C39.8513 32.3561 38.646 33.5614 37.177 33.5614C35.708 33.5614 34.5027 32.3561 34.5027 30.8871V25.7267C34.5027 24.2577 35.708 23.0524 37.177 23.0524C38.646 23.0524 39.8513 24.2577 39.8513 25.7267V30.8871Z" fill="white"/>
<path d="M37.1395 47.6862C33.8625 47.6862 30.7361 46.6692 28.0618 44.7859C25.4251 46.7069 22.2988 47.6862 18.9841 47.6862C10.3961 47.6862 3.39014 40.6802 3.39014 32.0922C3.39014 31.6779 3.72914 31.3389 4.14347 31.3389C4.5578 31.3389 4.8968 31.6779 4.8968 32.0922C4.8968 39.8515 11.2248 46.1795 18.9841 46.1795C22.1481 46.1795 25.1238 45.1625 27.6098 43.2415C27.8735 43.0155 28.2501 43.0155 28.5515 43.2415C31.0375 45.1625 34.0131 46.1795 37.1771 46.1795C44.9365 46.1795 51.2645 39.8515 51.2645 32.0922C51.2645 31.6779 51.6035 31.3389 52.0178 31.3389C52.4321 31.3389 52.7711 31.6779 52.7711 32.0922C52.7335 40.6802 45.7275 47.6862 37.1395 47.6862Z" fill="#FF6F43"/>
<path d="M51.9801 27.0825C51.5657 27.0825 51.2267 26.7435 51.2267 26.3291C51.2267 18.5698 44.8987 12.2418 37.1394 12.2418H19.0217C11.2624 12.2418 4.9344 18.5698 4.9344 26.3291C4.9344 26.7435 4.5954 27.0825 4.18107 27.0825C3.76673 27.0825 3.42773 26.7435 3.42773 26.3291V7.6088C3.42773 7.19447 3.76673 6.85547 4.18107 6.85547C4.5954 6.85547 4.9344 7.19447 4.9344 7.6088V19.6621C7.45807 14.3888 12.8067 10.7728 19.0217 10.7728H37.1771C43.3921 10.7728 48.7407 14.4265 51.2644 19.6621V7.6088C51.2644 7.19447 51.6034 6.85547 52.0177 6.85547C52.4321 6.85547 52.7711 7.19447 52.7711 7.6088V26.3291C52.7334 26.7435 52.3944 27.0825 51.9801 27.0825Z" fill="#FF6F43"/>
<path d="M16.3097 32.0542C16.3097 31.3762 16.8747 30.8112 17.5527 30.8112H24.182V25.2365C24.182 22.3738 21.8467 20.0762 19.0217 20.0762C16.159 20.0762 13.8613 22.4115 13.8613 25.2365V31.3762C13.8613 34.2388 16.1967 36.5365 19.0217 36.5365C21.2063 36.5365 23.052 35.1805 23.843 33.2595H17.5903C16.8747 33.2972 16.3097 32.7322 16.3097 32.0542ZM16.3097 25.7262C16.3097 24.2572 17.515 23.0518 18.984 23.0518C20.453 23.0518 21.6583 24.2572 21.6583 25.7262V28.3252H16.3097V25.7262Z" fill="white"/>
<path d="M4.181 8.362C1.88333 8.362 0 6.47867 0 4.181C0 1.88333 1.88333 0 4.181 0C6.47867 0 8.362 1.88333 8.362 4.181C8.362 6.47867 6.47867 8.362 4.181 8.362ZM4.181 1.50667C2.712 1.50667 1.50667 2.712 1.50667 4.181C1.50667 5.65 2.712 6.85533 4.181 6.85533C5.65 6.85533 6.85533 5.65 6.85533 4.181C6.85533 2.712 5.65 1.50667 4.181 1.50667Z" fill="#FF6F43"/>
<path d="M51.9803 8.362C49.6826 8.362 47.7993 6.47867 47.7993 4.181C47.7993 1.88333 49.6826 0 51.9803 0C54.278 0 56.1613 1.88333 56.1613 4.181C56.1613 6.47867 54.278 8.362 51.9803 8.362ZM51.9803 1.50667C50.5113 1.50667 49.306 2.712 49.306 4.181C49.306 5.65 50.5113 6.85533 51.9803 6.85533C53.4493 6.85533 54.6547 5.65 54.6547 4.181C54.6547 2.712 53.4493 1.50667 51.9803 1.50667Z" fill="#FF6F43"/>
</svg>
