<svg width="140" height="822" viewBox="0 0 140 822" fill="none" xmlns="http://www.w3.org/2000/svg">
<path d="M-2.51821e-05 710.81L0 134.71L140 134.71L140 710.81L-2.51821e-05 710.81ZM0.317459 135.028L0.317434 710.493L139.683 710.493L139.683 135.028L0.317459 135.028Z" fill="#19181B"/>
<path d="M70.0002 134.837L70.0002 105L69.6828 105L69.6828 134.837L70.0002 134.837Z" fill="#19181B"/>
<path d="M70.0002 737.284L70.0002 710.621L69.6828 710.621L69.6828 737.284L70.0002 737.284Z" fill="#19181B"/>
<path d="M70.5557 821.121C52.0723 821.121 37.0002 806.047 37.0002 787.561C37.0002 769.074 52.0723 754 70.5557 754C89.0391 754 104.111 769.074 104.111 787.561C104.111 806.047 89.0391 821.121 70.5557 821.121ZM70.5557 754.62C52.3824 754.62 37.6205 769.385 37.6205 787.561C37.6205 805.737 52.3824 820.501 70.5557 820.501C88.729 820.501 103.491 805.737 103.491 787.561C103.491 769.385 88.6669 754.62 70.5557 754.62Z" fill="#19181B"/>
<path d="M70.5552 820.935C66.3995 820.935 62.3679 820.191 58.4603 818.702L58.5223 818.578L58.4603 818.702C52.2578 816.283 46.9238 812.126 43.0782 806.605C39.1707 800.96 37.0618 794.385 37.0618 787.499C37.0618 775.526 43.5744 764.36 53.9946 758.404L54.0566 758.529L53.9946 758.404C59.0186 755.551 64.6628 754.062 70.4932 754.062C71.7336 754.062 72.9741 754.124 74.2146 754.248C83.2703 755.241 91.5816 760.017 97.1018 767.275C101.009 772.424 103.304 778.566 103.8 785.017H103.676H103.8C103.862 785.824 103.863 786.692 103.863 787.437C103.863 795.811 100.761 803.814 95.117 809.955C89.5347 816.097 81.9057 819.881 73.7184 820.687C72.726 820.935 71.6096 820.935 70.5552 820.935ZM59.3287 818.702C62.9261 820.005 66.7096 820.625 70.5552 820.625C71.4855 820.625 72.3539 820.563 73.2843 820.501C69.997 818.95 63.1742 818.64 59.3287 818.702ZM60.3211 818.392C64.4767 818.392 70.9274 818.826 73.7805 820.501C90.7753 818.826 103.614 804.682 103.614 787.561C103.614 786.878 103.614 786.134 103.552 785.327C102.932 785.576 101.754 785.886 101.444 785.7C101.382 785.638 101.319 785.576 101.319 785.452C101.319 785.079 100.947 783.528 99.1486 783.528C98.7764 783.528 98.2802 783.466 98.1562 783.156C97.9701 782.66 98.7764 781.978 100.699 780.489C101.133 780.117 101.382 779.682 101.382 779.186C101.382 777.697 99.6448 775.836 98.5904 774.968C97.474 774.037 96.9777 769.695 96.8537 767.524C91.5816 760.576 83.6424 755.985 75.083 754.744C75.5792 755.055 76.0134 755.613 76.0134 756.357C76.0134 756.792 76.5095 756.978 77.3779 757.288C78.5564 757.66 80.107 758.218 80.4171 760.079C80.5412 760.948 80.5412 761.382 80.2931 761.568C80.045 761.754 79.7349 761.63 79.4247 761.444C78.8665 761.196 78.4324 761.072 78.1222 761.568C77.6881 762.251 76.9438 762.127 76.2615 762.064C75.7033 762.002 75.207 761.94 74.8969 762.251C74.6488 762.437 74.5248 762.809 74.4628 763.367C74.2767 765.414 71.9197 766.097 69.8109 766.779C68.8805 767.027 68.0742 767.337 67.4539 767.648H67.3919C67.3299 767.648 67.3299 767.71 67.3299 767.71C67.2059 767.958 67.578 768.764 67.8261 769.323C68.1982 770.129 68.4463 770.625 68.3223 770.935C68.2603 770.997 68.1982 771.06 68.1362 771.122C67.9501 771.184 67.764 771.184 67.5159 771.06C66.8337 770.687 66.2755 769.447 66.0894 768.702C66.0274 768.516 65.8413 768.33 65.5932 768.206C64.4147 767.71 61.4995 768.268 59.1426 769.447C58.2742 769.881 57.778 770.377 57.592 771.06C57.2818 772.176 57.9641 773.479 58.7704 774.782C58.9565 775.092 59.1426 775.216 59.3907 775.278C60.0109 775.402 60.9414 774.533 61.6857 773.851C62.1819 773.355 62.74 772.921 63.1742 772.672C63.6704 772.424 63.8565 772.61 63.9805 772.734C64.4147 773.355 63.4843 775.588 62.2438 776.829C61.9957 777.077 61.9958 777.201 61.9958 777.201C62.0578 777.387 63.0501 777.263 63.4843 777.263C64.4147 777.201 64.8489 777.139 64.9109 777.449C64.9729 777.635 64.7869 777.883 64.4768 778.069C64.1667 778.318 64.0426 778.566 64.2287 778.876C64.7869 779.93 68.0742 781.109 69.6248 780.551C71.7336 779.868 72.664 779.62 76.3855 779.868C78.3083 779.992 79.4247 780.799 80.3551 781.481C81.2235 782.164 82.0298 782.722 83.2702 782.598C84.5107 782.474 85.6272 782.908 86.4335 783.777C87.2398 784.645 87.674 785.886 87.55 786.94C87.4879 787.623 88.7285 787.933 90.2171 788.367C92.3879 788.988 95.055 789.732 95.6132 791.965C95.7993 792.772 95.7993 793.33 95.5512 793.64C95.2411 794.012 94.7449 794.074 94.2487 794.136C93.3183 794.198 92.3879 794.323 92.3879 796.122C92.3879 798.417 91.2714 799.099 90.4031 799.595C89.7208 799.968 89.1626 800.278 89.1626 801.208C89.1626 802.945 86.0614 805.054 83.8285 806.605C83.0222 807.164 82.2779 807.66 81.9677 807.97C80.7893 809.149 77.3159 811.692 76.3235 811.692C76.0134 811.692 75.8273 812.251 75.7033 812.809C75.4552 813.615 75.145 814.608 74.2146 814.484C74.0906 814.484 73.9045 814.422 73.8425 814.546C73.7185 814.732 73.9666 815.414 74.4007 816.097L74.5248 816.283L74.3387 816.345C73.7804 816.593 72.1678 816.779 70.4932 815.662C69.1286 814.732 69.997 812.933 70.9894 810.824C71.6096 809.521 72.2918 808.094 72.4779 806.729C72.602 805.861 72.9741 804.93 73.3463 804C73.8425 802.759 74.3387 801.519 74.0285 800.836C73.8425 800.526 73.5323 800.34 73.0982 800.216C70.245 799.471 66.7717 791.655 66.7717 790.104C66.7717 788.739 67.8881 785.39 69.1906 784.893C69.6248 784.707 69.9349 784.211 69.8109 783.715C69.6248 782.908 68.5704 782.412 66.8957 782.412C64.7868 782.412 64.2907 781.357 63.9185 780.489C63.6084 779.744 63.3603 779.186 62.3059 779.186C60.7553 779.186 60.4451 778.442 60.197 777.759C60.011 777.263 59.8869 776.829 59.2047 776.643C58.7085 776.519 58.2123 776.519 57.7161 776.581C56.5996 776.643 55.3591 776.767 54.0566 774.968C53.7465 774.595 53.4984 774.223 53.3123 773.913C52.1959 772.362 52.0098 772.114 50.8933 771.556C50.5212 771.37 50.273 770.811 50.149 770.005C49.9009 767.896 50.6452 764.174 51.7617 763.243C52.6921 762.437 53.5604 760.265 53.9326 759.025C43.7605 764.918 37.496 775.898 37.496 787.623C37.496 801.208 45.9934 813.553 58.5844 818.516C59.0806 818.392 59.6388 818.392 60.3211 818.392ZM58.3983 776.208C58.7084 776.208 58.9566 776.208 59.2667 776.332C60.011 776.581 60.2591 777.139 60.4452 777.635C60.6933 778.318 60.8793 778.876 62.2438 778.876C63.4843 778.876 63.8565 779.62 64.1667 780.365C64.5388 781.233 64.9729 782.102 66.8957 782.102C69.5627 782.102 69.997 783.28 70.059 783.653C70.1831 784.273 69.8109 784.955 69.2527 785.141C68.1982 785.576 67.0198 788.677 67.0198 790.104C67.0198 791.531 70.4932 799.223 73.1602 799.906C73.7185 800.03 74.0906 800.34 74.3387 800.712C74.7728 801.581 74.2146 802.821 73.7184 804.186C73.3463 805.054 72.9742 805.985 72.8501 806.791C72.6641 808.218 71.9198 809.707 71.2995 811.01C70.3691 812.995 69.5628 814.67 70.6793 815.414C72.1058 816.345 73.4083 816.345 74.0285 816.159C73.7804 815.724 73.2843 814.856 73.5944 814.422C73.7184 814.236 73.9665 814.174 74.2766 814.236C74.8969 814.36 75.145 813.677 75.3931 812.809C75.5792 812.126 75.8273 811.444 76.3235 811.444C77.1298 811.444 80.5411 809.025 81.7816 807.784C82.0918 807.474 82.8361 806.978 83.7045 806.357C85.7513 804.93 88.9145 802.759 88.9145 801.208C88.9145 800.092 89.5968 799.72 90.2791 799.347C91.1474 798.851 92.1398 798.293 92.1398 796.122C92.1398 794.012 93.3183 793.888 94.2487 793.826C94.7449 793.764 95.179 793.764 95.3651 793.454C95.5512 793.206 95.5512 792.71 95.3651 792.027C94.8689 789.98 92.2638 789.236 90.155 788.677C88.4803 788.181 87.1158 787.809 87.2398 786.878C87.3639 785.948 86.9298 784.769 86.1855 783.963C85.4412 783.156 84.3867 782.784 83.2702 782.846C81.8437 782.97 81.0374 782.35 80.107 781.667C79.1766 780.985 78.1842 780.179 76.3235 780.117C72.664 779.868 71.7336 780.117 69.6868 780.799C68.0121 781.357 64.5388 780.241 63.9185 778.938C63.6704 778.504 63.7945 778.069 64.2907 777.697C64.4767 777.573 64.5388 777.511 64.6008 777.449C64.4147 777.387 63.8565 777.449 63.4843 777.511C62.4919 777.573 61.8097 777.635 61.6857 777.325C61.5616 777.077 61.8097 776.829 61.9958 776.643C63.2363 775.402 64.0426 773.355 63.7324 772.921C63.6704 772.796 63.4843 772.859 63.3603 772.983C62.9261 773.169 62.4919 773.603 61.9337 774.099C61.0654 774.906 60.135 775.712 59.3907 775.65C59.0806 775.588 58.7704 775.402 58.5223 775.03C57.716 773.727 56.9718 772.3 57.3439 771.06C57.53 770.315 58.1502 769.695 59.0806 769.261C61.1894 768.206 64.3527 767.399 65.7793 768.02C66.1514 768.144 66.3375 768.392 66.4615 768.702C66.8337 769.819 67.3299 770.687 67.764 770.873C67.8881 770.935 68.0121 770.935 68.1362 770.935C68.2602 770.749 67.8881 770.067 67.702 769.571C67.3299 768.826 67.0197 768.082 67.2058 767.71C67.2678 767.586 67.3299 767.524 67.4539 767.461C68.0742 767.089 68.9425 766.841 69.8729 766.593C71.9817 765.973 74.1526 765.29 74.2766 763.491C74.3387 762.871 74.5248 762.437 74.8349 762.189C75.2691 761.816 75.8273 761.878 76.4475 761.94C77.0678 762.002 77.688 762.064 78.0601 761.568C78.5563 760.824 79.2387 761.134 79.7349 761.32C79.983 761.444 80.2311 761.506 80.2931 761.444C80.3551 761.382 80.4792 761.134 80.2931 760.265C80.045 758.591 78.6184 758.094 77.502 757.722C76.6336 757.412 75.9514 757.226 75.9514 756.543C75.9514 755.551 74.959 754.993 74.4628 754.806C73.2843 754.682 72.0438 754.62 70.8033 754.62C65.097 754.62 59.4528 756.109 54.5528 758.901C54.2427 760.141 53.3123 762.685 52.1958 763.615C51.2655 764.422 50.4591 767.958 50.7072 770.129C50.7692 770.811 51.0174 771.308 51.2655 771.432C52.4439 772.052 52.692 772.3 53.8085 773.913C53.9945 774.223 54.2427 774.533 54.5528 774.968C55.7313 776.643 56.7857 776.519 57.9642 776.457C57.9021 776.208 58.1502 776.208 58.3983 776.208ZM97.2258 767.958C97.4119 770.439 97.9081 773.975 98.8385 774.72C99.1486 774.968 101.754 777.201 101.692 779.186C101.692 779.806 101.382 780.303 100.885 780.737C99.9549 781.481 98.3423 782.722 98.4663 783.094C98.4663 783.094 98.5283 783.28 99.1486 783.28C101.195 783.28 101.63 785.079 101.63 785.514C101.754 785.576 102.56 785.39 103.552 785.079C103.056 778.814 100.885 772.921 97.2258 767.958ZM52.8781 786.134C52.8161 786.134 52.7541 786.134 52.6921 786.134H52.63L52.568 786.072C52.5059 785.948 52.1338 785.452 52.2578 785.141C52.3199 785.017 52.444 784.955 52.6921 784.955C52.9402 784.955 53.1883 785.079 53.3123 785.327C53.4364 785.576 53.3743 785.824 53.2502 786.01C53.2502 786.01 53.1262 786.134 52.8781 786.134ZM52.8161 785.762C52.8781 785.762 53.0022 785.762 53.0642 785.7C53.1262 785.638 53.1262 785.452 53.0642 785.327C53.0022 785.265 52.9401 785.141 52.7541 785.141C52.692 785.141 52.63 785.141 52.63 785.203C52.568 785.265 52.692 785.576 52.8161 785.762ZM40.8453 780.613H40.7833C40.225 780.489 40.5352 777.945 40.5972 777.449C40.7833 776.27 41.1554 774.223 41.8997 774.223C43.1402 774.223 44.1326 776.084 44.3807 777.139C44.4427 777.325 44.3807 777.511 44.3187 777.635C44.1947 777.821 44.0086 777.821 43.7605 777.883C43.2023 777.945 42.2098 778.131 41.4035 780.055C41.2174 780.303 41.0313 780.613 40.8453 780.613ZM41.8997 774.533C41.8377 774.533 41.7137 774.595 41.5276 775.03C40.9074 776.457 40.6592 779.744 40.8453 780.241C40.9073 780.179 40.9693 780.055 41.0314 779.868C41.8997 777.821 43.0161 777.635 43.6364 777.511C43.8225 777.511 43.9466 777.449 44.0086 777.387C44.0086 777.387 44.0706 777.325 44.0086 777.139C43.8845 776.27 42.9542 774.533 41.8997 774.533ZM78.2463 778.814C78.1222 778.814 77.9982 778.752 77.8121 778.628C77.3159 778.256 77.0678 777.759 77.1919 777.387C77.2539 777.139 77.564 776.953 77.9361 776.953C78.2463 776.953 78.4943 777.201 78.6184 777.635C78.7424 778.007 78.7425 778.504 78.4944 778.752C78.4323 778.814 78.3703 778.814 78.2463 778.814ZM77.9361 777.325C77.688 777.325 77.564 777.387 77.502 777.573C77.44 777.759 77.5639 778.069 78.0601 778.442C78.1842 778.504 78.3083 778.566 78.3083 778.566C78.3703 778.504 78.4323 778.193 78.3083 777.821C78.1842 777.511 78.0602 777.325 77.9361 777.325ZM72.9741 774.72C72.7881 774.72 72.602 774.72 72.4779 774.658C72.2918 774.595 72.2299 774.471 72.2299 774.409C72.2299 774.037 72.9121 773.789 73.3463 773.727C73.4703 773.665 74.8349 773.417 75.083 773.913C75.145 774.037 75.145 774.161 75.021 774.223C74.7109 774.471 73.6564 774.72 72.9741 774.72ZM72.54 774.347C72.6641 774.409 73.1602 774.471 73.8425 774.285C74.5248 774.161 74.7729 773.975 74.7729 773.913C74.7729 773.851 74.4627 773.789 73.9045 773.851C73.1602 773.975 72.602 774.223 72.54 774.347ZM69.8109 774.533C68.4463 774.533 64.9729 773.479 64.9729 772.796C64.9729 772.486 65.4691 772.424 65.6552 772.424C65.8413 772.424 66.0274 772.362 66.1514 772.362C67.3919 772.176 67.9501 772.052 69.6248 772.921C71.0514 773.603 71.2994 773.913 71.2374 774.223C71.1754 774.409 70.8033 774.533 69.8109 774.533ZM67.3919 772.486C67.0198 772.486 66.7096 772.548 66.2134 772.61C66.0273 772.61 65.9033 772.672 65.7173 772.672C65.3451 772.734 65.2831 772.796 65.2831 772.796C65.4071 773.169 68.3223 774.223 69.8109 774.223C70.8033 774.223 70.9273 774.099 70.9273 774.037C70.9273 773.975 70.8653 773.789 69.5008 773.107C68.5704 772.61 67.9501 772.486 67.3919 772.486ZM86.3095 760.203C85.069 760.203 83.3943 759.955 82.65 759.459L82.464 759.335L82.588 759.211C82.9601 758.839 84.2006 758.404 86.6816 759.149C87.4879 759.397 87.674 759.583 87.674 759.707C87.674 759.769 87.674 759.893 87.55 759.955C87.4259 760.141 86.9297 760.203 86.3095 760.203ZM83.0842 759.335C84.2007 759.893 86.9298 760.017 87.426 759.769C87.3639 759.707 87.1778 759.645 86.6816 759.459C84.6348 758.901 83.5184 759.149 83.0842 759.335Z" fill="#19181B"/>
<path d="M81.1624 816.655C80.6662 816.655 80.232 816.221 80.232 815.724C80.232 815.228 80.6662 814.794 81.1624 814.794C81.6586 814.794 82.0928 815.228 82.0928 815.724C82.0928 816.221 81.6586 816.655 81.1624 816.655ZM81.1624 815.104C80.8523 815.104 80.5421 815.352 80.5421 815.724C80.5421 816.097 80.7902 816.345 81.1624 816.345C81.5345 816.345 81.7826 816.097 81.7826 815.724C81.7826 815.352 81.4725 815.104 81.1624 815.104ZM54.3677 807.846C53.8715 807.846 53.4373 807.412 53.4373 806.915C53.4373 806.419 53.8715 805.985 54.3677 805.985C54.8639 805.985 55.2981 806.419 55.2981 806.915C55.2981 807.474 54.8639 807.846 54.3677 807.846ZM54.3677 806.357C54.0576 806.357 53.7474 806.605 53.7474 806.977C53.7474 807.288 53.9955 807.598 54.3677 807.598C54.7398 807.598 54.9879 807.35 54.9879 806.977C54.9879 806.605 54.6778 806.357 54.3677 806.357ZM79.3017 795.377C78.8055 795.377 78.3713 794.943 78.3713 794.446C78.3713 793.95 78.8055 793.516 79.3017 793.516C79.7978 793.516 80.232 793.95 80.232 794.446C80.232 794.943 79.7978 795.377 79.3017 795.377ZM79.3017 793.888C78.9915 793.888 78.6814 794.136 78.6814 794.508C78.6814 794.881 78.9295 795.129 79.3017 795.129C79.6738 795.129 79.9219 794.881 79.9219 794.508C79.9219 794.136 79.6118 793.888 79.3017 793.888ZM58.9575 786.63C58.4613 786.63 58.0272 786.196 58.0272 785.7C58.0272 785.203 58.4613 784.769 58.9575 784.769C59.4537 784.769 59.8879 785.203 59.8879 785.7C59.8879 786.196 59.5158 786.63 58.9575 786.63ZM58.9575 785.079C58.6474 785.079 58.3373 785.327 58.3373 785.7C58.3373 786.072 58.5854 786.32 58.9575 786.32C59.3297 786.32 59.5778 786.072 59.5778 785.7C59.5778 785.327 59.3297 785.079 58.9575 785.079ZM101.941 783.839C101.445 783.839 101.01 783.404 101.01 782.908C101.01 782.412 101.445 781.977 101.941 781.977C102.437 781.977 102.871 782.412 102.871 782.908C102.871 783.404 102.437 783.839 101.941 783.839ZM101.941 782.288C101.631 782.288 101.32 782.536 101.32 782.908C101.32 783.28 101.569 783.528 101.941 783.528C102.313 783.528 102.561 783.28 102.561 782.908C102.561 782.536 102.251 782.288 101.941 782.288ZM42.5209 777.449C42.0248 777.449 41.5906 777.015 41.5906 776.518C41.5906 776.022 42.0248 775.588 42.5209 775.588C43.0171 775.588 43.4513 776.022 43.4513 776.518C43.4513 777.077 43.0792 777.449 42.5209 777.449ZM42.5209 775.96C42.2108 775.96 41.9007 776.208 41.9007 776.58C41.9007 776.891 42.1488 777.201 42.5209 777.201C42.8931 777.201 43.1412 776.953 43.1412 776.58C43.1412 776.208 42.8931 775.96 42.5209 775.96ZM56.2284 768.144C55.7322 768.144 55.2981 767.71 55.2981 767.213C55.2981 766.717 55.7322 766.283 56.2284 766.283C56.7246 766.283 57.1588 766.717 57.1588 767.213C57.1588 767.71 56.7246 768.144 56.2284 768.144ZM56.2284 766.593C55.9183 766.593 55.6082 766.841 55.6082 767.213C55.6082 767.523 55.8563 767.834 56.2284 767.834C56.6006 767.834 56.8487 767.585 56.8487 767.213C56.8487 766.903 56.5386 766.593 56.2284 766.593ZM66.4005 765.848C65.9043 765.848 65.4701 765.414 65.4701 764.918C65.4701 764.422 65.9043 763.987 66.4005 763.987C66.8967 763.987 67.3309 764.422 67.3309 764.918C67.3309 765.414 66.8967 765.848 66.4005 765.848ZM66.4005 764.298C66.0904 764.298 65.7803 764.546 65.7803 764.918C65.7803 765.29 66.0284 765.538 66.4005 765.538C66.7727 765.538 67.0208 765.29 67.0208 764.918C67.0208 764.546 66.7106 764.298 66.4005 764.298ZM60.8183 758.901C60.3221 758.901 59.8879 758.466 59.8879 757.97C59.8879 757.474 60.3221 757.04 60.8183 757.04C61.3145 757.04 61.7487 757.474 61.7487 757.97C61.7487 758.466 61.3145 758.901 60.8183 758.901ZM60.8183 757.35C60.5082 757.35 60.198 757.598 60.198 757.97C60.198 758.342 60.4461 758.59 60.8183 758.59C61.1284 758.59 61.4385 758.342 61.4385 757.97C61.4385 757.598 61.1904 757.35 60.8183 757.35Z" fill="#19181B"/>
<path d="M69.0856 88.2542C68.4654 88.2542 67.8451 88.1301 67.2869 87.8819L15.6822 63.5023C15.3721 63.3783 15.186 63.0681 15.124 62.6959H15.2481H15.124C15.124 62.6338 15.124 62.5718 15.124 62.5718V60.8969C15.124 60.8348 15.124 60.8348 15.124 60.7728H15.2481H15.124C15.124 60.4006 15.3721 60.0904 15.7443 59.9663L53.0832 44.8299C53.5794 44.6438 54.0756 44.5197 54.5718 44.5197C55.068 44.5197 55.5642 44.5818 55.9984 44.7679C56.1224 44.8299 56.3085 44.8919 56.4325 44.954L108.037 69.3336L107.913 69.6438L101.525 66.6041L99.7879 67.2864L107.541 70.9465L107.851 70.8224L107.975 71.1326H107.913L108.037 71.1946C108.409 71.3807 108.595 71.7529 108.595 72.1872C108.533 72.5594 108.347 72.8696 107.975 72.9936L70.6362 88.068C70.14 88.1921 69.6438 88.2542 69.0856 88.2542ZM15.4962 62.6959C15.4962 62.944 15.6822 63.1301 15.8683 63.2542L67.473 87.6338C68.4654 88.068 69.5818 88.1301 70.5742 87.6958L107.913 72.6214C108.161 72.4974 108.285 72.3112 108.347 72.0631C108.347 71.815 108.285 71.5668 107.975 71.3807L107.603 71.1946L70.6983 86.0829C69.6438 86.5172 68.4033 86.4551 67.3489 85.9589L16.1784 61.8894L15.8683 62.0135C15.6202 62.1376 15.4962 62.3237 15.4341 62.5718V62.6959H15.4962ZM16.6126 61.7654L67.473 85.7728C68.4654 86.207 69.5818 86.269 70.5742 85.8348L86.0184 79.6313L33.6074 54.8795L16.6126 61.7654ZM78.6374 75.7852L86.3905 79.4452L107.169 71.0706L99.4157 67.4105L78.6374 75.7852ZM38.7555 56.9887L78.2033 75.5991L98.9816 67.2244L59.5338 48.614L38.7555 56.9887ZM59.6578 48.3038L99.4157 67.1003L101.152 66.418L56.3705 45.2641C56.2465 45.2021 56.1224 45.1401 55.9984 45.078C55.5642 44.954 55.13 44.8299 54.6338 44.8919C54.1376 44.8919 53.7035 45.016 53.2693 45.2021L31.9327 53.7629L33.6694 54.5693L53.0832 46.6909C54.1376 46.2567 55.3781 46.3187 56.4325 46.815L59.6578 48.3038ZM15.4962 61.5172V61.9515C15.5582 61.8894 15.6822 61.8274 15.8063 61.7654H15.8683L15.7443 61.7033C15.6202 61.6413 15.5582 61.5793 15.4962 61.5172ZM15.4962 60.8348C15.4962 61.0209 15.6202 61.2691 15.8683 61.3931L16.2405 61.5793L33.2353 54.6934L31.4986 53.887L15.8683 60.2145C15.6202 60.3386 15.4962 60.5247 15.4341 60.7728V60.8348H15.4962ZM33.9796 54.6934L38.3833 56.8026L59.1616 48.4279L56.3085 47.0631C55.3161 46.6289 54.1996 46.5669 53.2073 47.0011L33.9796 54.6934ZM105.432 63.5644C105.308 63.5644 105.122 63.5644 104.998 63.5023L58.8515 41.6661C57.3629 40.9837 56.4325 39.4949 56.4325 37.882V6.67859C56.4325 6.36841 56.6186 6.05824 56.8667 5.87214C57.1148 5.68603 57.487 5.68603 57.7971 5.8101L103.944 27.5843C105.432 28.2666 106.363 29.7555 106.363 31.3684V62.5718C106.363 62.882 106.176 63.1922 105.928 63.3783C105.742 63.5023 105.618 63.5644 105.432 63.5644ZM57.4249 5.99621C57.3009 5.99621 57.1768 6.05824 57.0528 6.12027C56.8667 6.24434 56.7427 6.43045 56.7427 6.67859V37.882C56.7427 39.3708 57.611 40.7356 58.9756 41.418L105.122 63.1922C105.308 63.3162 105.556 63.2542 105.742 63.1301C105.928 63.0061 106.052 62.82 106.052 62.5718V31.3684C106.052 29.8795 105.184 28.5148 103.819 27.8324L57.673 6.05824C57.611 6.05824 57.549 5.99621 57.4249 5.99621Z" fill="#19181B"/>
<path d="M69.0859 88.4401C68.4656 88.4401 67.7833 88.3161 67.2251 88.0059L15.6205 63.6263C15.2483 63.4402 15.0002 63.13 15.0002 62.6958V60.8347C15.0002 60.7727 15.0002 60.7107 15.0002 60.7107H15.3104H15.0002C15.0623 60.2764 15.3104 59.9042 15.6825 59.7801L53.0214 44.7057C53.3936 44.5816 53.7657 44.4576 54.1379 44.3955C53.9518 43.8993 53.8898 43.403 53.8898 42.9067V1.77772C53.8898 1.40551 54.0759 1.09534 54.386 0.847198C54.51 0.785163 54.5721 0.723129 54.6961 0.661094L56.1847 0.102783C56.2467 0.0407479 56.3708 0.0407476 56.4328 0.0407476C56.6809 -0.021287 56.929 -0.0212868 57.1771 0.102783L108.596 24.3583C110.084 25.1028 111.077 26.5916 111.077 28.3286V69.4575C111.077 69.9538 110.767 70.388 110.332 70.5121L108.782 71.1325V72.063C108.72 72.4972 108.472 72.8694 108.099 72.9935L70.7605 88.0679C70.2023 88.3161 69.6441 88.4401 69.0859 88.4401ZM15.6205 61.8273V62.6958C15.6205 62.7578 15.6825 62.9439 15.9306 63.068L67.5352 87.4476C68.4656 87.8818 69.5821 87.9439 70.5124 87.5096L107.851 72.4352C108.099 72.3111 108.161 72.125 108.161 72.001V71.1325C108.161 71.1325 108.099 71.1325 108.099 71.1945L70.7605 86.2689C69.6441 86.7032 68.3416 86.7032 67.2871 86.1449L15.6205 61.8273ZM15.6205 60.8347C15.6205 60.9588 15.6825 61.1449 15.9306 61.269L67.5352 85.6486C68.4656 86.0828 69.5821 86.1449 70.5124 85.7106L107.851 70.6362C108.099 70.5121 108.161 70.326 108.161 70.2019H108.472H108.161C108.161 70.0158 108.099 69.8297 107.851 69.7057L56.2467 45.3261C55.7505 45.0779 55.1923 44.9538 54.5721 44.9538C54.1379 44.9538 53.6417 45.0779 53.2075 45.202L15.9306 60.3384C15.7445 60.4005 15.6205 60.5866 15.6205 60.7727V60.8347ZM55.8126 0.971268L106.859 25.1027C108.348 25.8472 109.34 27.398 109.34 29.073V70.2019C109.34 70.264 109.34 70.264 109.34 70.326L110.084 70.0158L110.208 70.326L110.084 70.0158L110.208 69.9538C110.332 69.8918 110.456 69.7057 110.456 69.5196V28.3286C110.456 26.9018 109.588 25.537 108.286 24.9166L56.929 0.661094C56.805 0.59906 56.7429 0.599061 56.6189 0.599061L56.4328 0.661094L56.3088 0.350921L56.4328 0.661094L55.8126 0.971268ZM54.8202 44.3955C55.4404 44.3955 55.9986 44.5816 56.5569 44.8298L61.6429 47.1871L108.161 69.2094C108.472 69.3955 108.72 69.6436 108.782 70.0158V29.073C108.782 27.6462 107.913 26.2814 106.611 25.6611L55.1923 1.34348C55.0062 1.28144 54.8202 1.28144 54.6961 1.40551C54.5721 1.52958 54.51 1.65365 54.51 1.83975V42.9687C54.51 43.403 54.5721 43.8993 54.8202 44.3955ZM53.2075 77.0258C52.7113 77.0258 52.1531 76.9017 51.6569 76.6536L33.4836 68.0928C33.1115 67.9067 32.9254 67.5965 32.9254 67.2243C32.9254 66.8521 33.1735 66.4799 33.5457 66.3558L44.4 62.0134C45.3304 61.6412 46.3848 61.7032 47.2531 62.0754L65.4264 70.6362C65.7986 70.8223 65.9846 71.1325 65.9846 71.5047C65.9846 71.8769 65.7365 72.2491 65.3644 72.3732L54.51 76.7156C54.1379 76.9637 53.6417 77.0258 53.2075 77.0258ZM44.6481 62.5717L33.7938 66.9141C33.6077 66.9762 33.6077 67.1623 33.6077 67.2243C33.6077 67.2863 33.6077 67.4724 33.7938 67.5345L51.967 76.0952C52.7113 76.4674 53.5797 76.4675 54.324 76.1573L65.1783 71.8148C65.3644 71.7528 65.3644 71.5667 65.3644 71.5047C65.3644 71.4426 65.3644 71.2565 65.1783 71.1945L47.005 62.6337C46.2607 62.2615 45.3924 62.2615 44.6481 62.5717Z" fill="#19181B"/>
<path d="M73.8619 41.4177L70.6986 39.9909L70.8227 26.9637L68.2797 28.8867L66.481 25.785L71.2569 22.249L74.048 23.4897L73.8619 41.4177Z" fill="#19181B"/>
<path d="M84.0341 46.3804C81.7392 45.3258 79.8785 43.6509 78.3899 41.2315C76.9013 38.8122 76.157 36.2688 76.157 33.5392C76.157 30.8097 76.9633 28.9487 78.5139 27.8941C80.0645 26.8395 81.9253 26.8395 84.2202 27.8321C87.0113 29.0727 89.0581 31.4921 90.4227 35.0281L87.6936 35.4003C87.3835 34.4698 86.8873 33.6633 86.267 32.8569C85.6468 32.0504 84.9645 31.4921 84.2202 31.1819C82.8557 30.5616 81.7392 30.6236 80.8709 31.306C80.0025 32.0504 79.5063 33.2291 79.5063 34.966C79.5063 36.641 79.9405 38.2539 80.8088 39.8047C81.6772 41.2936 82.7936 42.3482 84.1582 42.9685C84.9025 43.2787 85.5848 43.4027 86.205 43.1546C86.8252 42.9685 87.3214 42.5343 87.6936 41.9139L90.4227 44.7055C88.8721 47.0628 86.7632 47.6211 84.0341 46.3804Z" fill="#19181B"/>
<path d="M90.6275 340.844H57.8784V341.465H90.6275V340.844Z" fill="#19181B"/>
<path d="M90.6275 346.365H57.8784V346.675H90.6275V346.365Z" fill="#19181B"/>
<path d="M90.6275 349.033H57.8784V349.343H90.6275V349.033Z" fill="#19181B"/>
<path d="M90.6275 351.7H57.8784V352.01H90.6275V351.7Z" fill="#19181B"/>
<path d="M90.6275 354.429H57.8784V354.739H90.6275V354.429Z" fill="#19181B"/>
<path d="M90.6275 357.097H57.8784V357.407H90.6275V357.097Z" fill="#19181B"/>
<path d="M90.6275 359.765H57.8784V360.075H90.6275V359.765Z" fill="#19181B"/>
<path d="M90.6275 362.494H57.8784V362.804H90.6275V362.494Z" fill="#19181B"/>
<path d="M90.6275 365.162H57.8784V365.472H90.6275V365.162Z" fill="#19181B"/>
<path d="M90.6275 367.829H57.8784V368.139H90.6275V367.829Z" fill="#19181B"/>
<path d="M85.7896 370.558H57.8784V370.868H85.7896V370.558Z" fill="#19181B"/>
<path d="M97.264 384.392H96.9539V383.214H51.8619V384.392H51.5518V383.214H50.3733V382.903H51.5518V324.653H50.3733V324.343H51.5518V323.164H51.8619V324.343H91.3096V323.164H91.6197V324.343H92.7982V324.653H91.8678L96.9539 329.74V328.809H97.264V329.988H98.4425V330.298H97.264V382.903H98.4425V383.214H97.264V384.392ZM95.7754 382.903H96.9539V330.298H91.6197V331.477H91.3096V330.298H90.1311V329.988H91.3096V324.653H51.8619V382.903H95.7754ZM95.7754 329.988H96.7058L91.6197 324.901V329.988H95.7754Z" fill="#19181B"/>
<path d="M43.5509 375.831H43.2407V374.591H42.0002V374.28H43.2407V316.03H42.0002V315.72H43.2407V314.541H43.5509V315.72H88.6429V314.541H88.953V315.72H90.1315V316.03H88.953V324.467H88.6429V316.03H43.5509V374.28H51.9862V374.591H43.5509V375.831Z" fill="#19181B"/>
<path d="M48.8851 381.477H48.575V380.236H47.3965V379.926H48.575V321.675H47.3965V321.365H48.575V320.187H48.8851V321.365H93.9771V320.187H94.2872V321.365H95.4657V321.675H94.2872V326.886H93.9771V321.675H48.8851V379.926H51.6762V380.236H48.8851V381.477Z" fill="#19181B"/>
<path d="M46.2183 378.747H45.9082V377.568H44.7297V377.258H45.9082V319.007H44.7297V318.697H45.9082V317.519H46.2183V318.697H91.3104V317.519H91.6205V318.697H92.7989V319.007H91.6205V327.692H91.3104V319.007H46.2183V377.258H51.9866V377.568H46.2183V378.747Z" fill="#19181B"/>
<path d="M97.6986 383.399H51.6763V324.156H91.8683L97.6986 329.988V383.399ZM52.2965 382.717H97.0784V330.236L91.6202 324.777H52.2965V382.717Z" fill="#19181B"/>
<path d="M29.7444 529.255L29.4963 529.069L29.9925 528.573V523.734H30.3027V528.263L30.5507 528.015L30.7368 528.263L30.4887 528.511H49.5303V523.734H49.8405V528.263L50.0885 528.015L50.2746 528.263L49.8405 528.697V528.821H49.7164L49.2822 529.255L49.0341 529.069L49.2822 528.821H30.1786L29.7444 529.255Z" fill="#19181B"/>
<path d="M31.0471 485.583H30.737V451.03L29.1863 452.519L29.0002 452.333L30.737 450.534L30.861 450.658L30.9851 450.534L32.7217 452.333L32.5357 452.519L31.0471 451.03V485.583Z" fill="#19181B"/>
<path d="M37.1252 484.529H36.8151V444.826L35.3264 446.377L35.0784 446.129L36.8771 444.392L37.0011 444.516L37.1252 444.392L38.8619 446.129L38.6758 446.377L37.1252 444.826V484.529Z" fill="#19181B"/>
<path d="M43.2656 484.529H42.9554V444.826L41.4669 446.377L41.2188 446.129L43.0175 444.392L43.1415 444.516L43.2035 444.392L45.0023 446.129L44.8162 446.377L43.2656 444.826V484.529Z" fill="#19181B"/>
<path d="M49.4057 485.583H49.0956V451.03L47.607 452.519L47.3589 452.333L49.1576 450.534L49.2196 450.658L49.3437 450.534L51.1424 452.333L50.8943 452.519L49.4057 451.03V485.583Z" fill="#19181B"/>
<path d="M93.0099 497.679C87.4277 497.679 83.0859 496.376 83.0859 494.702V490.049C83.0859 488.374 87.4277 487.071 93.0099 487.071C98.5921 487.071 102.934 488.374 102.934 490.049V494.702C102.934 496.376 98.5921 497.679 93.0099 497.679ZM83.3961 490.793V494.64C83.3961 495.942 87.2416 497.307 93.0099 497.307C94.8706 497.307 96.6073 497.183 97.9719 496.935V492.592C96.4833 492.841 94.8086 492.965 93.0099 492.965C88.296 493.027 84.4505 492.096 83.3961 490.793ZM98.3441 492.592V496.935C101.073 496.439 102.686 495.57 102.686 494.702V490.855C102.004 491.538 100.453 492.158 98.3441 492.592ZM83.3961 490.049C83.3961 491.352 87.2416 492.716 93.0099 492.716C98.7782 492.716 102.624 491.352 102.624 490.049C102.624 488.746 98.7782 487.381 93.0099 487.381C87.2416 487.381 83.3961 488.746 83.3961 490.049Z" fill="#19181B"/>
<path d="M93.0099 461.762C87.4277 461.762 83.0859 460.459 83.0859 458.784V454.131C83.0859 452.457 87.4277 451.154 93.0099 451.154C98.5921 451.154 102.934 452.457 102.934 454.131V458.784C102.934 460.459 98.5921 461.762 93.0099 461.762ZM83.3961 454.876V458.722C83.3961 460.025 87.2416 461.39 93.0099 461.39C94.8706 461.39 96.6073 461.265 97.9719 461.017V456.675C96.4833 456.923 94.8086 457.047 93.0099 457.047C88.296 457.109 84.4505 456.179 83.3961 454.876ZM98.3441 456.675V461.017C101.073 460.521 102.686 459.653 102.686 458.784V454.876C102.004 455.682 100.453 456.303 98.3441 456.675ZM83.3961 454.131C83.3961 455.434 87.2416 456.799 93.0099 456.799C98.7782 456.799 102.624 455.434 102.624 454.131C102.624 452.829 98.7782 451.464 93.0099 451.464C87.2416 451.464 83.3961 452.829 83.3961 454.131Z" fill="#19181B"/>
<path d="M40.1029 498.363C34.5207 498.363 30.179 497.06 30.179 495.385V490.733C30.179 489.058 34.5207 487.755 40.1029 487.755C45.6852 487.755 50.0269 489.058 50.0269 490.733V495.385C50.0269 497.06 45.6852 498.363 40.1029 498.363ZM30.4891 491.477V495.323C30.4891 496.626 34.3346 497.991 40.1029 497.991C41.9637 497.991 43.7004 497.867 45.0649 497.618V493.276C43.5763 493.524 41.9017 493.648 40.1029 493.648C35.389 493.71 31.6055 492.78 30.4891 491.477ZM45.4371 493.276V497.618C48.1662 497.122 49.7788 496.254 49.7788 495.385V491.477C49.0965 492.283 47.5459 492.904 45.4371 493.276ZM30.4891 490.733C30.4891 492.035 34.3346 493.4 40.1029 493.4C45.8713 493.4 49.7168 492.035 49.7168 490.733C49.7168 489.43 45.8713 488.065 40.1029 488.065C34.3346 488.065 30.4891 489.43 30.4891 490.733Z" fill="#19181B"/>
<path d="M40.1029 522.555C34.5207 522.555 30.179 521.252 30.179 519.578V514.925C30.179 513.25 34.5207 511.947 40.1029 511.947C45.6852 511.947 50.0269 513.25 50.0269 514.925V519.578C50.0269 521.252 45.6852 522.555 40.1029 522.555ZM30.4891 515.669V519.515C30.4891 520.818 34.3346 522.183 40.1029 522.183C41.9637 522.183 43.7004 522.059 45.0649 521.811V517.468C43.5763 517.716 41.9017 517.841 40.1029 517.841C35.389 517.903 31.6055 516.972 30.4891 515.669ZM45.4371 517.468V521.811C48.1662 521.314 49.7788 520.446 49.7788 519.578V515.669C49.0965 516.476 47.5459 517.096 45.4371 517.468ZM30.4891 514.925C30.4891 516.228 34.3346 517.592 40.1029 517.592C45.8713 517.592 49.7168 516.228 49.7168 514.925C49.7168 513.622 45.8713 512.257 40.1029 512.257C34.3346 512.257 30.4891 513.622 30.4891 514.925Z" fill="#19181B"/>
<path d="M93.0099 510.148C87.4277 510.148 83.0859 508.846 83.0859 507.171V502.518C83.0859 500.843 87.4277 499.541 93.0099 499.541C98.5921 499.541 102.934 500.843 102.934 502.518V507.171C102.934 508.846 98.5921 510.148 93.0099 510.148ZM83.3961 503.263V507.109C83.3961 508.411 87.2416 509.776 93.0099 509.776C94.8706 509.776 96.6073 509.652 97.9719 509.404V505.062C96.4833 505.31 94.8086 505.434 93.0099 505.434C88.296 505.496 84.4505 504.565 83.3961 503.263ZM98.3441 505.062V509.404C101.073 508.908 102.686 508.039 102.686 507.171V503.263C102.004 504.069 100.453 504.689 98.3441 505.062ZM83.3961 502.518C83.3961 503.821 87.2416 505.186 93.0099 505.186C98.7782 505.186 102.624 503.821 102.624 502.518C102.624 501.215 98.7782 499.851 93.0099 499.851C87.2416 499.851 83.3961 501.215 83.3961 502.518Z" fill="#19181B"/>
<path d="M93.0099 522.618C87.4277 522.618 83.0859 521.315 83.0859 519.64V514.987C83.0859 513.312 87.4277 512.01 93.0099 512.01C98.5921 512.01 102.934 513.312 102.934 514.987V519.64C102.934 521.315 98.5921 522.618 93.0099 522.618ZM83.3961 515.794V519.64C83.3961 520.943 87.2416 522.308 93.0099 522.308C94.8706 522.308 96.6073 522.183 97.9719 521.935V517.593C96.4833 517.841 94.8086 517.965 93.0099 517.965C88.296 518.027 84.4505 517.097 83.3961 515.794ZM98.3441 517.531V521.873C101.073 521.377 102.686 520.509 102.686 519.64V515.794C102.004 516.538 100.453 517.159 98.3441 517.531ZM83.3961 514.987C83.3961 516.29 87.2416 517.655 93.0099 517.655C98.7782 517.655 102.624 516.29 102.624 514.987C102.624 513.685 98.7782 512.32 93.0099 512.32C87.2416 512.32 83.3961 513.747 83.3961 514.987Z" fill="#19181B"/>
<path d="M93.0099 485.831C87.4277 485.831 83.0859 484.528 83.0859 482.853V478.201C83.0859 476.526 87.4277 475.223 93.0099 475.223C98.5921 475.223 102.934 476.526 102.934 478.201V482.853C102.934 484.528 98.5921 485.831 93.0099 485.831ZM83.3961 478.945V482.791C83.3961 484.094 87.2416 485.459 93.0099 485.459C98.7782 485.459 102.624 484.094 102.624 482.791V478.945C101.507 480.248 97.7238 481.178 93.0099 481.178C88.296 481.178 84.4505 480.248 83.3961 478.945ZM83.3961 478.201C83.3961 479.504 87.2416 480.868 93.0099 480.868C98.7782 480.868 102.624 479.504 102.624 478.201C102.624 476.898 98.7782 475.533 93.0099 475.533C87.2416 475.533 83.3961 476.898 83.3961 478.201Z" fill="#19181B"/>
<path d="M93.0099 473.982C87.4277 473.982 83.0859 472.68 83.0859 471.005V466.352C83.0859 464.677 87.4277 463.375 93.0099 463.375C98.5921 463.375 102.934 464.677 102.934 466.352V471.005C102.934 472.68 98.5921 473.982 93.0099 473.982ZM83.3961 467.097V471.005C83.3961 472.308 87.2416 473.672 93.0099 473.672C98.7782 473.672 102.624 472.308 102.624 471.005V467.159C101.507 468.461 97.7238 469.392 93.0099 469.392C88.296 469.33 84.4505 468.399 83.3961 467.097ZM83.3961 466.352C83.3961 467.655 87.2416 469.02 93.0099 469.02C98.7782 469.02 102.624 467.655 102.624 466.352C102.624 465.049 98.7782 463.685 93.0099 463.685C87.2416 463.685 83.3961 465.049 83.3961 466.352Z" fill="#19181B"/>
<path d="M40.1029 510.583C34.5207 510.583 30.179 509.28 30.179 507.605V502.953C30.179 501.278 34.5207 499.975 40.1029 499.975C45.6852 499.975 50.0269 501.278 50.0269 502.953V507.605C50.0269 509.28 45.6852 510.583 40.1029 510.583ZM30.4891 503.697V507.543C30.4891 508.846 34.3346 510.211 40.1029 510.211C45.8713 510.211 49.7168 508.846 49.7168 507.543V503.697C48.6003 505 44.8168 505.93 40.1029 505.93C35.389 505.93 31.6055 505 30.4891 503.697ZM30.4891 502.953C30.4891 504.255 34.3346 505.62 40.1029 505.62C45.8713 505.62 49.7168 504.255 49.7168 502.953C49.7168 501.65 45.8713 500.285 40.1029 500.285C34.3346 500.285 30.4891 501.65 30.4891 502.953Z" fill="#19181B"/>
<path d="M93.0097 497.804C88.1097 497.804 82.8997 496.687 82.8997 494.64V489.987C82.8997 487.94 88.1097 486.824 93.0097 486.824C97.9096 486.824 103.12 487.94 103.12 489.987V494.64C103.12 496.687 97.9096 497.804 93.0097 497.804ZM83.5199 491.166V494.64C83.5199 495.819 87.4275 497.184 93.0097 497.184C98.5919 497.184 102.499 495.881 102.499 494.64V491.166C100.949 492.469 96.9172 493.151 93.0097 493.151C89.1021 493.151 85.0705 492.469 83.5199 491.166ZM83.5199 490.05C83.5199 491.228 87.4275 492.593 93.0097 492.593C98.5919 492.593 102.499 491.29 102.499 490.05C102.499 488.871 98.5919 487.506 93.0097 487.506C87.4275 487.506 83.5199 488.871 83.5199 490.05Z" fill="#19181B"/>
<path d="M93.0097 461.886C88.1097 461.886 82.8997 460.769 82.8997 458.722V454.07C82.8997 452.022 88.1097 450.906 93.0097 450.906C97.9096 450.906 103.12 452.022 103.12 454.07V458.722C103.12 460.831 97.9096 461.886 93.0097 461.886ZM83.5199 455.31V458.784C83.5199 459.963 87.4275 461.328 93.0097 461.328C98.5919 461.328 102.499 460.025 102.499 458.784V455.31C100.949 456.613 96.9172 457.295 93.0097 457.295C89.1021 457.295 85.0705 456.613 83.5199 455.31ZM83.5199 454.132C83.5199 455.31 87.4275 456.675 93.0097 456.675C98.5919 456.675 102.499 455.372 102.499 454.132C102.499 452.953 98.5919 451.588 93.0097 451.588C87.4275 451.65 83.5199 452.953 83.5199 454.132Z" fill="#19181B"/>
<path d="M40.1027 498.486C35.2027 498.486 29.9927 497.369 29.9927 495.322V490.67C29.9927 488.622 35.2027 487.506 40.1027 487.506C45.0027 487.506 50.2127 488.622 50.2127 490.67V495.322C50.2127 497.431 45.0027 498.486 40.1027 498.486ZM30.6129 491.91V495.384C30.6129 496.563 34.5205 497.928 40.1027 497.928C45.6849 497.928 49.5925 496.625 49.5925 495.384V491.91C48.0419 493.213 44.0103 493.895 40.1027 493.895C36.1951 493.895 32.1635 493.213 30.6129 491.91ZM30.6129 490.732C30.6129 491.91 34.5205 493.275 40.1027 493.275C45.6849 493.275 49.5925 491.972 49.5925 490.732C49.5925 489.553 45.6849 488.188 40.1027 488.188C34.5205 488.25 30.6129 489.553 30.6129 490.732Z" fill="#19181B"/>
<path d="M40.1027 522.68C35.2027 522.68 29.9927 521.564 29.9927 519.517V514.864C29.9927 512.817 35.2027 511.7 40.1027 511.7C45.0027 511.7 50.2127 512.817 50.2127 514.864V519.517C50.2127 521.626 45.0027 522.68 40.1027 522.68ZM30.6129 516.105V519.579C30.6129 520.757 34.5205 522.122 40.1027 522.122C45.6849 522.122 49.5925 520.819 49.5925 519.579V516.105C48.0419 517.407 44.0103 518.09 40.1027 518.09C36.1951 518.09 32.1635 517.407 30.6129 516.105ZM30.6129 514.926C30.6129 516.105 34.5205 517.469 40.1027 517.469C45.6849 517.469 49.5925 516.167 49.5925 514.926C49.5925 513.747 45.6849 512.383 40.1027 512.383C34.5205 512.445 30.6129 513.747 30.6129 514.926Z" fill="#19181B"/>
<path d="M93.0097 510.273C88.1097 510.273 82.8997 509.156 82.8997 507.109V502.457C82.8997 500.41 88.1097 499.293 93.0097 499.293C97.9096 499.293 103.12 500.41 103.12 502.457V507.109C103.12 509.219 97.9096 510.273 93.0097 510.273ZM83.5199 503.697V507.171C83.5199 508.35 87.4275 509.715 93.0097 509.715C98.5919 509.715 102.499 508.412 102.499 507.171V503.697C100.949 505 96.9172 505.683 93.0097 505.683C89.1021 505.683 85.0705 505 83.5199 503.697ZM83.5199 502.519C83.5199 503.697 87.4275 505.062 93.0097 505.062C98.5919 505.062 102.499 503.759 102.499 502.519C102.499 501.34 98.5919 499.975 93.0097 499.975C87.4275 500.037 83.5199 501.34 83.5199 502.519Z" fill="#19181B"/>
<path d="M93.0097 522.804C88.1097 522.804 82.8997 521.688 82.8997 519.641V514.988C82.8997 512.941 88.1097 511.824 93.0097 511.824C97.9096 511.824 103.12 512.941 103.12 514.988V519.641C103.12 521.688 97.9096 522.804 93.0097 522.804ZM83.5199 516.167V519.641C83.5199 520.819 87.4275 522.184 93.0097 522.184C98.5919 522.184 102.499 520.881 102.499 519.641V516.167C100.949 517.469 96.9172 518.152 93.0097 518.152C89.1021 518.152 85.0705 517.469 83.5199 516.167ZM83.5199 514.988C83.5199 516.167 87.4275 517.531 93.0097 517.531C98.5919 517.531 102.499 516.229 102.499 514.988C102.499 513.809 98.5919 512.445 93.0097 512.445C87.4275 512.507 83.5199 513.809 83.5199 514.988Z" fill="#19181B"/>
<path d="M67.0214 497.679C61.4391 497.679 57.0974 496.376 57.0974 494.702V490.049C57.0974 488.374 61.4391 487.071 67.0214 487.071C72.6036 487.071 76.9453 488.374 76.9453 490.049V494.702C76.9453 496.376 72.6036 497.679 67.0214 497.679ZM57.4075 490.793V494.64C57.4075 495.942 61.2531 497.307 67.0214 497.307C68.8821 497.307 70.6188 497.183 71.9833 496.935V492.592C70.4947 492.841 68.8201 492.965 67.0214 492.965C62.3075 493.027 58.524 492.096 57.4075 490.793ZM72.3555 492.592V496.935C75.0845 496.439 76.6972 495.57 76.6972 494.702V490.855C76.0149 491.538 74.4643 492.158 72.3555 492.592ZM57.4075 490.049C57.4075 491.352 61.2531 492.716 67.0214 492.716C72.7896 492.716 76.6352 491.352 76.6352 490.049C76.6352 488.746 72.7896 487.381 67.0214 487.381C61.2531 487.381 57.4075 488.746 57.4075 490.049Z" fill="#19181B"/>
<path d="M67.0214 461.762C61.4391 461.762 57.0974 460.459 57.0974 458.784V454.131C57.0974 452.457 61.4391 451.154 67.0214 451.154C72.6036 451.154 76.9453 452.457 76.9453 454.131V458.784C76.9453 460.459 72.6036 461.762 67.0214 461.762ZM57.4075 454.876V458.722C57.4075 460.025 61.2531 461.39 67.0214 461.39C68.8821 461.39 70.6188 461.265 71.9833 461.017V456.675C70.4947 456.923 68.8201 457.047 67.0214 457.047C62.3075 457.109 58.524 456.179 57.4075 454.876ZM72.3555 456.675V461.017C75.0845 460.521 76.6972 459.653 76.6972 458.784V454.876C76.0149 455.682 74.4643 456.303 72.3555 456.675ZM57.4075 454.131C57.4075 455.434 61.2531 456.799 67.0214 456.799C72.7896 456.799 76.6352 455.434 76.6352 454.131C76.6352 452.829 72.7896 451.464 67.0214 451.464C61.2531 451.464 57.4075 452.829 57.4075 454.131Z" fill="#19181B"/>
<path d="M67.0214 510.148C61.4391 510.148 57.0974 508.846 57.0974 507.171V502.518C57.0974 500.843 61.4391 499.541 67.0214 499.541C72.6036 499.541 76.9453 500.843 76.9453 502.518V507.171C76.9453 508.846 72.6036 510.148 67.0214 510.148ZM57.4075 503.263V507.109C57.4075 508.411 61.2531 509.776 67.0214 509.776C68.8821 509.776 70.6188 509.652 71.9833 509.404V505.062C70.4947 505.31 68.8201 505.434 67.0214 505.434C62.3075 505.496 58.524 504.565 57.4075 503.263ZM72.3555 505.062V509.404C75.0845 508.908 76.6972 508.039 76.6972 507.171V503.263C76.0149 504.069 74.4643 504.689 72.3555 505.062ZM57.4075 502.518C57.4075 503.821 61.2531 505.186 67.0214 505.186C72.7896 505.186 76.6352 503.821 76.6352 502.518C76.6352 501.215 72.7896 499.851 67.0214 499.851C61.2531 499.851 57.4075 501.215 57.4075 502.518Z" fill="#19181B"/>
<path d="M67.0214 522.618C61.4391 522.618 57.0974 521.315 57.0974 519.64V514.987C57.0974 513.312 61.4391 512.01 67.0214 512.01C72.6036 512.01 76.9453 513.312 76.9453 514.987V519.64C76.9453 521.315 72.6036 522.618 67.0214 522.618ZM57.4075 515.794V519.64C57.4075 520.943 61.2531 522.308 67.0214 522.308C68.8821 522.308 70.6188 522.183 71.9833 521.935V517.593C70.4947 517.841 68.8201 517.965 67.0214 517.965C62.3075 518.027 58.524 517.097 57.4075 515.794ZM72.3555 517.531V521.873C75.0845 521.377 76.6972 520.509 76.6972 519.64V515.794C76.0149 516.538 74.4643 517.159 72.3555 517.531ZM57.4075 514.987C57.4075 516.29 61.2531 517.655 67.0214 517.655C72.7896 517.655 76.6352 516.29 76.6352 514.987C76.6352 513.685 72.7896 512.32 67.0214 512.32C61.2531 512.32 57.4075 513.747 57.4075 514.987Z" fill="#19181B"/>
<path d="M67.0214 485.831C61.4391 485.831 57.0974 484.528 57.0974 482.853V478.201C57.0974 476.526 61.4391 475.223 67.0214 475.223C72.6036 475.223 76.9453 476.526 76.9453 478.201V482.853C76.9453 484.528 72.6036 485.831 67.0214 485.831ZM57.4075 478.945V482.791C57.4075 484.094 61.2531 485.459 67.0214 485.459C72.7896 485.459 76.6352 484.094 76.6352 482.791V478.945C75.5187 480.248 71.7352 481.178 67.0214 481.178C62.3075 481.178 58.524 480.248 57.4075 478.945ZM57.4075 478.201C57.4075 479.504 61.2531 480.868 67.0214 480.868C72.7896 480.868 76.6352 479.504 76.6352 478.201C76.6352 476.898 72.7896 475.533 67.0214 475.533C61.2531 475.533 57.4075 476.898 57.4075 478.201Z" fill="#19181B"/>
<path d="M67.0214 473.982C61.4391 473.982 57.0974 472.68 57.0974 471.005V466.352C57.0974 464.677 61.4391 463.375 67.0214 463.375C72.6036 463.375 76.9453 464.677 76.9453 466.352V471.005C76.9453 472.68 72.6036 473.982 67.0214 473.982ZM57.4075 467.097V471.005C57.4075 472.308 61.2531 473.672 67.0214 473.672C72.7896 473.672 76.6352 472.308 76.6352 471.005V467.159C75.5187 468.461 71.7352 469.392 67.0214 469.392C62.3075 469.33 58.524 468.399 57.4075 467.097ZM57.4075 466.352C57.4075 467.655 61.2531 469.02 67.0214 469.02C72.7896 469.02 76.6352 467.655 76.6352 466.352C76.6352 465.049 72.7896 463.685 67.0214 463.685C61.2531 463.685 57.4075 465.049 57.4075 466.352Z" fill="#19181B"/>
<path d="M67.0212 497.804C62.1213 497.804 56.9111 496.687 56.9111 494.64V489.987C56.9111 487.94 62.1213 486.824 67.0212 486.824C71.9212 486.824 77.1313 487.94 77.1313 489.987V494.64C77.1313 496.687 71.9212 497.804 67.0212 497.804ZM57.5314 491.166V494.64C57.5314 495.819 61.439 497.184 67.0212 497.184C72.6034 497.184 76.511 495.881 76.511 494.64V491.166C74.9604 492.469 70.9288 493.151 67.0212 493.151C63.1136 493.151 59.082 492.469 57.5314 491.166ZM57.5314 490.05C57.5314 491.228 61.439 492.593 67.0212 492.593C72.6034 492.593 76.511 491.29 76.511 490.05C76.511 488.871 72.6034 487.506 67.0212 487.506C61.439 487.506 57.5314 488.871 57.5314 490.05Z" fill="#19181B"/>
<path d="M67.0212 461.886C62.1213 461.886 56.9111 460.769 56.9111 458.722V454.07C56.9111 452.022 62.1213 450.906 67.0212 450.906C71.9212 450.906 77.1313 452.022 77.1313 454.07V458.722C77.1313 460.831 71.9212 461.886 67.0212 461.886ZM57.5314 455.31V458.784C57.5314 459.963 61.439 461.328 67.0212 461.328C72.6034 461.328 76.511 460.025 76.511 458.784V455.31C74.9604 456.613 70.9288 457.295 67.0212 457.295C63.1136 457.295 59.082 456.613 57.5314 455.31ZM57.5314 454.132C57.5314 455.31 61.439 456.675 67.0212 456.675C72.6034 456.675 76.511 455.372 76.511 454.132C76.511 452.953 72.6034 451.588 67.0212 451.588C61.439 451.65 57.5314 452.953 57.5314 454.132Z" fill="#19181B"/>
<path d="M67.0212 510.273C62.1213 510.273 56.9111 509.156 56.9111 507.109V502.457C56.9111 500.41 62.1213 499.293 67.0212 499.293C71.9212 499.293 77.1313 500.41 77.1313 502.457V507.109C77.1313 509.219 71.9212 510.273 67.0212 510.273ZM57.5314 503.697V507.171C57.5314 508.35 61.439 509.715 67.0212 509.715C72.6034 509.715 76.511 508.412 76.511 507.171V503.697C74.9604 505 70.9288 505.683 67.0212 505.683C63.1136 505.683 59.082 505 57.5314 503.697ZM57.5314 502.519C57.5314 503.697 61.439 505.062 67.0212 505.062C72.6034 505.062 76.511 503.759 76.511 502.519C76.511 501.34 72.6034 499.975 67.0212 499.975C61.439 500.037 57.5314 501.34 57.5314 502.519Z" fill="#19181B"/>
<path d="M67.0212 522.804C62.1213 522.804 56.9111 521.688 56.9111 519.641V514.988C56.9111 512.941 62.1213 511.824 67.0212 511.824C71.9212 511.824 77.1313 512.941 77.1313 514.988V519.641C77.1313 521.688 71.9212 522.804 67.0212 522.804ZM57.5314 516.167V519.641C57.5314 520.819 61.439 522.184 67.0212 522.184C72.6034 522.184 76.511 520.881 76.511 519.641V516.167C74.9604 517.469 70.9288 518.152 67.0212 518.152C63.1136 518.152 59.082 517.469 57.5314 516.167ZM57.5314 514.988C57.5314 516.167 61.439 517.531 67.0212 517.531C72.6034 517.531 76.511 516.229 76.511 514.988C76.511 513.809 72.6034 512.445 67.0212 512.445C61.439 512.507 57.5314 513.809 57.5314 514.988Z" fill="#19181B"/>
<path d="M109.756 483.598L109.136 482.978H105.352V482.668H108.826L108.454 482.295L108.702 482.047L109.074 482.42V477.829H105.352V477.519H108.826L108.454 477.147L108.702 476.898L110.004 478.201L109.756 478.449L109.384 478.077V482.792L110.004 483.412L109.756 483.598Z" fill="#19181B"/>
<path d="M111.788 252.37H28.613V186.613H111.788V252.37ZM29.2333 251.749H111.168V187.233H29.2333V251.749Z" fill="#19181B"/>
<path d="M54.167 194.119H50.6316V194.739H54.167V194.119Z" fill="#19181B"/>
<path d="M88.5287 196.228H50.6316V196.848H88.5287V196.228Z" fill="#19181B"/>
<path d="M88.5287 197.717H50.6316V198.338H88.5287V197.717Z" fill="#19181B"/>
<path d="M88.5287 242.01H50.6316V242.63H88.5287V242.01Z" fill="#19181B"/>
<path d="M88.5287 243.685H50.6316V244.305H88.5287V243.685Z" fill="#19181B"/>
<path d="M88.5287 245.298H50.6316V245.918H88.5287V245.298Z" fill="#19181B"/>
<path d="M88.5287 199.392H50.6316V200.012H88.5287V199.392Z" fill="#19181B"/>
<path d="M88.4668 213.288H50.3215V202.308H88.4668V213.288ZM50.9418 212.667H87.8465V202.928H50.9418V212.667Z" fill="#19181B"/>
<path d="M88.1566 205.719H50.6316V206.34H88.1566V205.719Z" fill="#19181B"/>
<path d="M88.1566 209.193H50.6316V209.814H88.1566V209.193Z" fill="#19181B"/>
<path d="M60.3703 202.618H59.7495V213.039H60.3703V202.618Z" fill="#19181B"/>
<path d="M69.7358 202.618H69.115V213.039H69.7358V202.618Z" fill="#19181B"/>
<path d="M79.164 202.618H78.5432V213.039H79.164V202.618Z" fill="#19181B"/>
<path d="M54.167 214.963H50.6316V215.584H54.167V214.963Z" fill="#19181B"/>
<path d="M54.167 217.01H50.6316V217.63H54.167V217.01Z" fill="#19181B"/>
<path d="M54.167 219.181H50.6316V219.801H54.167V219.181Z" fill="#19181B"/>
<path d="M54.167 221.353H50.6316V221.973H54.167V221.353Z" fill="#19181B"/>
<path d="M88.5286 217.01H56.0896V217.63H88.5286V217.01Z" fill="#19181B"/>
<path d="M88.5286 219.181H56.0896V219.801H88.5286V219.181Z" fill="#19181B"/>
<path d="M88.5286 221.353H56.0896V221.973H88.5286V221.353Z" fill="#19181B"/>
<path d="M55.4709 217.01H54.8496V217.631H55.4709V217.01Z" fill="#19181B"/>
<path d="M55.4709 219.181H54.8496V219.802H55.4709V219.181Z" fill="#19181B"/>
<path d="M55.4709 221.353H54.8496V221.973H55.4709V221.353Z" fill="#19181B"/>
<path d="M51.0658 238.412L50.5076 238.164C53.2987 231.898 55.6556 228.982 57.7645 229.231C58.3847 229.293 58.8189 229.665 59.3151 230.037C59.9353 230.471 60.6176 231.03 61.7961 231.34C62.4163 231.526 64.2151 231.96 65.9517 231.216C67.0062 230.781 67.3783 230.099 67.8745 229.355C68.3087 228.61 68.8049 227.804 69.9834 227.183C71.658 226.253 73.8909 226.067 75.6276 226.749C77.3643 227.432 77.9225 227.928 79.4111 229.541L79.8453 229.975C80.5896 230.719 82.0162 231.216 84.063 231.278H84.125C86.2959 231.278 87.9086 227.99 88.5288 224.888L89.149 225.012C88.5288 228.486 86.7301 231.898 84.1871 231.898H84.125C81.9542 231.836 80.4035 231.34 79.5352 230.409L79.101 229.975C77.5504 228.362 77.1162 227.928 75.5036 227.308C73.8909 226.687 71.8441 226.873 70.3555 227.742C69.3011 228.3 68.9289 228.982 68.4327 229.727C67.9365 230.471 67.4403 231.278 66.2619 231.836C64.3391 232.705 62.3543 232.146 61.7341 232.022C60.3695 231.65 59.6252 231.092 59.005 230.595C58.5088 230.223 58.1987 229.975 57.7025 229.913C56.462 229.727 54.3531 231.092 51.0658 238.412Z" fill="#19181B"/>
<path d="M50.7561 239.652C50.0118 239.652 49.3916 239.032 49.3916 238.288C49.3916 237.543 50.0118 236.923 50.7561 236.923C51.5004 236.923 52.1207 237.543 52.1207 238.288C52.1207 239.032 51.5004 239.652 50.7561 239.652ZM50.7561 237.543C50.322 237.543 50.0118 237.853 50.0118 238.288C50.0118 238.722 50.322 239.032 50.7561 239.032C51.1903 239.032 51.5004 238.722 51.5004 238.288C51.5004 237.853 51.1903 237.543 50.7561 237.543Z" fill="#19181B"/>
<path d="M57.7027 230.905C56.9584 230.905 56.3381 230.285 56.3381 229.541C56.3381 228.796 56.9584 228.176 57.7027 228.176C58.447 228.176 59.0672 228.796 59.0672 229.541C59.0672 230.285 58.447 230.905 57.7027 230.905ZM57.7027 228.796C57.2685 228.796 56.9584 229.106 56.9584 229.541C56.9584 229.975 57.2685 230.285 57.7027 230.285C58.1369 230.285 58.447 229.975 58.447 229.541C58.447 229.168 58.0748 228.796 57.7027 228.796Z" fill="#19181B"/>
<path d="M64.0908 233.325C63.3465 233.325 62.7263 232.704 62.7263 231.96C62.7263 231.216 63.3465 230.595 64.0908 230.595C64.8351 230.595 65.4554 231.216 65.4554 231.96C65.4554 232.704 64.8351 233.325 64.0908 233.325ZM64.0908 231.216C63.6567 231.216 63.3466 231.526 63.3466 231.96C63.3466 232.394 63.6567 232.704 64.0908 232.704C64.525 232.704 64.8351 232.394 64.8351 231.96C64.8351 231.526 64.463 231.216 64.0908 231.216Z" fill="#19181B"/>
<path d="M73.2708 228.052C72.5265 228.052 71.9062 227.431 71.9062 226.687C71.9062 225.943 72.5265 225.322 73.2708 225.322C74.0151 225.322 74.6354 225.943 74.6354 226.687C74.6354 227.431 74.0151 228.052 73.2708 228.052ZM73.2708 225.943C72.8366 225.943 72.5265 226.253 72.5265 226.687C72.5265 227.121 72.8366 227.431 73.2708 227.431C73.705 227.431 74.0151 227.121 74.0151 226.687C74.0151 226.253 73.643 225.943 73.2708 225.943Z" fill="#19181B"/>
<path d="M83.6289 232.952C82.8846 232.952 82.2644 232.332 82.2644 231.587C82.2644 230.843 82.8846 230.223 83.6289 230.223C84.3732 230.223 84.9935 230.843 84.9935 231.587C84.9935 232.332 84.3732 232.952 83.6289 232.952ZM83.6289 230.905C83.1948 230.905 82.8846 231.215 82.8846 231.649C82.8846 232.084 83.1948 232.394 83.6289 232.394C84.0631 232.394 84.3732 232.084 84.3732 231.649C84.3732 231.215 84.0011 230.905 83.6289 230.905Z" fill="#19181B"/>
<path d="M88.7767 226.315C88.0324 226.315 87.4121 225.695 87.4121 224.951C87.4121 224.206 88.0324 223.586 88.7767 223.586C89.521 223.586 90.1412 224.206 90.1412 224.951C90.1412 225.695 89.583 226.315 88.7767 226.315ZM88.7767 224.206C88.3425 224.206 88.0324 224.516 88.0324 224.951C88.0324 225.385 88.3425 225.695 88.7767 225.695C89.2108 225.695 89.5209 225.385 89.5209 224.951C89.5209 224.516 89.2108 224.206 88.7767 224.206Z" fill="#19181B"/>
<path d="M29.2338 185H28.613V254.541H29.2338V185Z" fill="#19181B"/>
<path d="M111.789 185H111.168V254.541H111.789V185Z" fill="#19181B"/>
<path d="M113.463 186.613H27.0002V187.233H113.463V186.613Z" fill="#19181B"/>
<path d="M113.463 251.75H27.0002V252.37H113.463V251.75Z" fill="#19181B"/>
<path d="M41.9622 615.248C41.466 615.248 40.9698 615.186 40.5357 615.062C38.4268 614.441 37.0002 612.518 37.0002 610.285C37.0002 607.556 39.2331 605.322 41.9622 605.322C43.2027 605.322 44.3192 605.757 45.2495 606.563C46.3039 607.493 46.9862 608.858 46.9862 610.285C46.9242 613.015 44.6913 615.248 41.9622 615.248ZM41.9622 605.943C39.5433 605.943 37.6205 607.928 37.6205 610.285C37.6205 612.208 38.923 613.945 40.7217 614.441C41.0939 614.565 41.528 614.627 41.9622 614.627C44.3812 614.627 46.304 612.642 46.304 610.285C46.304 609.044 45.7458 607.804 44.8154 606.997C44.0091 606.315 43.0166 605.943 41.9622 605.943Z" fill="#19181B"/>
<path d="M70.1837 599.181C69.6875 599.181 69.1913 599.119 68.7571 598.995C66.7723 598.437 65.3457 596.638 65.2217 594.591C65.2217 594.467 65.2217 594.343 65.2217 594.219C65.2217 591.489 67.4546 589.256 70.1837 589.256C71.4242 589.256 72.5406 589.69 73.471 590.497C74.5254 591.427 75.2077 592.792 75.2077 594.219C75.2077 594.343 75.2077 594.467 75.2077 594.591C74.8976 597.196 72.7267 599.181 70.1837 599.181ZM70.1837 589.876C67.7647 589.876 65.8419 591.861 65.8419 594.219C65.8419 594.343 65.8419 594.405 65.8419 594.529C65.966 596.328 67.2065 597.879 68.9432 598.437C69.3153 598.561 69.7495 598.623 70.1837 598.623C72.4165 598.623 74.3393 596.824 74.5254 594.591C74.5254 594.467 74.5254 594.343 74.5254 594.281C74.5254 593.04 73.9672 591.799 73.0368 590.993C72.2305 590.248 71.2381 589.876 70.1837 589.876Z" fill="#19181B"/>
<path d="M87.6749 605.075C87.1787 605.075 86.6825 605.013 86.2483 604.889C84.1395 604.268 82.7129 602.345 82.7129 600.112C82.7129 599.058 83.023 598.065 83.6433 597.197C84.5736 595.894 86.0622 595.149 87.6749 595.149C88.9154 595.149 90.0318 595.584 90.9622 596.39C92.0166 597.321 92.6989 598.685 92.6989 600.112C92.6989 601.043 92.4508 602.035 91.8926 602.842C90.9002 604.206 89.3496 605.075 87.6749 605.075ZM87.6749 595.708C86.2483 595.708 84.9458 596.39 84.1395 597.507C83.5812 598.251 83.3331 599.12 83.3331 600.05C83.3331 601.973 84.6357 603.71 86.4344 604.206C86.8065 604.331 87.2407 604.393 87.6749 604.393C89.1635 604.393 90.5281 603.648 91.3344 602.407C91.7685 601.725 92.0166 600.857 92.0166 600.05C92.0166 598.809 91.4584 597.569 90.528 596.762C89.7217 596.08 88.7293 595.708 87.6749 595.708Z" fill="#19181B"/>
<path d="M56.4136 628.214C53.6845 628.214 51.4517 625.98 51.4517 623.251C51.4517 620.521 53.6845 618.288 56.4136 618.288C59.1427 618.288 61.3756 620.521 61.3756 623.251C61.3756 625.98 59.1427 628.214 56.4136 628.214ZM56.4136 618.908C53.9947 618.908 52.0719 620.894 52.0719 623.251C52.0719 625.67 54.0567 627.593 56.4136 627.593C58.7706 627.593 60.7554 625.608 60.7554 623.251C60.7554 620.832 58.8326 618.908 56.4136 618.908Z" fill="#19181B"/>
<path d="M72.9747 617.233C70.2456 617.233 68.0127 615 68.0127 612.27C68.0127 609.541 70.2456 607.308 72.9747 607.308C75.7038 607.308 77.9367 609.541 77.9367 612.27C77.9367 615 75.7658 617.233 72.9747 617.233ZM72.9747 607.928C70.5557 607.928 68.6329 609.913 68.6329 612.27C68.6329 614.69 70.6178 616.613 72.9747 616.613C75.3317 616.613 77.3165 614.628 77.3165 612.27C77.3785 609.851 75.3937 607.928 72.9747 607.928Z" fill="#19181B"/>
<path d="M85.3792 629.454C82.6501 629.454 80.4172 627.221 80.4172 624.492C80.4172 621.762 82.6501 619.529 85.3792 619.529C88.1083 619.529 90.3412 621.762 90.3412 624.492C90.3412 627.221 88.1083 629.454 85.3792 629.454ZM85.3792 620.149C82.9602 620.149 81.0375 622.134 81.0375 624.492C81.0375 626.911 83.0223 628.834 85.3792 628.834C87.7361 628.834 89.7209 626.849 89.7209 624.492C89.7209 622.072 87.7982 620.149 85.3792 620.149Z" fill="#19181B"/>
<path d="M67.2686 641.427C64.5395 641.427 62.3066 639.194 62.3066 636.465C62.3066 633.735 64.5395 631.502 67.2686 631.502C69.9977 631.502 72.2305 633.735 72.2305 636.465C72.2305 639.194 70.0597 641.427 67.2686 641.427ZM67.2686 632.06C64.8496 632.06 62.9269 634.045 62.9269 636.403C62.9269 638.822 64.9117 640.745 67.2686 640.745C69.6255 640.745 71.6103 638.76 71.6103 636.403C71.6723 634.045 69.6875 632.06 67.2686 632.06Z" fill="#19181B"/>
<path d="M41.9622 641.427C39.2331 641.427 37.0002 639.194 37.0002 636.465C37.0002 634.79 37.8686 633.177 39.2952 632.308C40.1015 631.812 41.0319 631.502 42.0243 631.502C44.7534 631.502 46.9862 633.735 46.9862 636.465C46.9862 638.884 45.1875 641.055 42.7685 641.365C42.4584 641.365 42.2103 641.427 41.9622 641.427ZM41.9622 632.06C41.0939 632.06 40.2876 632.308 39.6053 632.743C38.3648 633.549 37.6205 634.914 37.6205 636.403C37.6205 638.822 39.6053 640.745 41.9622 640.745C42.2103 640.745 42.3964 640.745 42.6445 640.683C44.7534 640.373 46.366 638.512 46.366 636.403C46.304 634.045 44.3192 632.06 41.9622 632.06Z" fill="#19181B"/>
<path d="M55.1114 656.129C52.3823 656.129 50.1494 653.896 50.1494 651.166C50.1494 650.918 50.1494 650.608 50.2114 650.298C50.6456 647.879 52.6924 646.142 55.1114 646.142C57.8405 646.142 60.0734 648.375 60.0734 651.104C60.0734 652.655 59.3911 654.082 58.2126 655.013C57.3443 655.695 56.2278 656.129 55.1114 656.129ZM55.1114 646.762C53.0025 646.762 51.2038 648.251 50.8317 650.36C50.7696 650.608 50.7697 650.856 50.7697 651.104C50.7697 653.524 52.7544 655.447 55.1114 655.447C56.1038 655.447 57.0342 655.137 57.8405 654.516C58.8949 653.71 59.5151 652.469 59.5151 651.104C59.4531 648.747 57.5303 646.762 55.1114 646.762Z" fill="#19181B"/>
<path d="M83.9532 656.129C83.0228 656.129 82.0924 655.881 81.3481 655.385C79.8596 654.454 78.9912 652.903 78.9912 651.166C78.9912 648.437 81.2241 646.204 83.9532 646.204C86.6823 646.204 88.9152 648.437 88.9152 651.166C88.9152 651.228 88.9152 651.228 88.9152 651.29C88.8532 653.958 86.6823 656.129 83.9532 656.129ZM83.9532 646.762C81.5342 646.762 79.6115 648.747 79.6115 651.104C79.6115 652.655 80.3558 654.02 81.6583 654.826C82.3405 655.261 83.1469 655.447 83.9532 655.447C86.3722 655.447 88.2329 653.586 88.2949 651.166V651.104C88.2949 648.747 86.3722 646.762 83.9532 646.762Z" fill="#19181B"/>
<path d="M98.281 642.978C97.7228 642.978 97.2266 642.916 96.7304 642.73C94.6836 642.047 93.2571 640.186 93.2571 638.015C93.2571 635.285 95.49 633.052 98.219 633.052C99.0874 633.052 99.9557 633.3 100.7 633.735C102.251 634.603 103.243 636.278 103.243 638.077C103.243 640.745 101.01 642.978 98.281 642.978ZM98.281 633.611C95.8621 633.611 93.9393 635.596 93.9393 637.953C93.9393 639.876 95.1798 641.551 96.9785 642.109C97.4127 642.233 97.8469 642.295 98.281 642.295C100.7 642.295 102.623 640.31 102.623 637.953C102.623 636.402 101.754 634.913 100.39 634.169C99.7696 633.859 99.0253 633.611 98.281 633.611Z" fill="#19181B"/>
<path d="M70.1214 657.495C65.8417 657.495 61.7481 656.688 57.8405 655.013L57.3443 654.827L57.7785 654.517C58.8329 653.71 59.4532 652.47 59.4532 651.105C59.4532 648.686 57.4684 646.763 55.1114 646.763C53.0026 646.763 51.2039 648.251 50.8317 650.361L50.7697 650.857L50.3355 650.547C47.1102 647.941 44.3811 644.777 42.3964 641.179L42.1482 640.807L42.5824 640.745C44.6913 640.435 46.2419 638.574 46.2419 636.465C46.2419 634.045 44.3191 632.122 41.9002 632.122C41.0318 632.122 40.2255 632.371 39.5432 632.805L39.1711 633.053L39.047 632.619C38.5508 630.385 38.3027 628.028 38.3027 625.733C38.3027 621.949 38.985 618.227 40.2875 614.691L40.4116 614.443L40.7217 614.505C41.0938 614.629 41.528 614.691 41.9622 614.691C44.3811 614.691 46.3039 612.706 46.3039 610.348C46.3039 609.108 45.7457 607.867 44.8153 607.06L44.5672 606.874L44.7533 606.626C49.8393 599.864 57.1583 595.522 65.4696 594.281L65.7797 594.219V594.529C65.9038 596.328 67.1443 597.879 68.881 598.376C69.2531 598.5 69.6873 598.562 70.1214 598.562C72.3543 598.562 74.2771 596.763 74.4632 594.529V594.219L74.7733 594.281C77.9366 594.778 81.0378 595.708 83.953 597.073L84.2631 597.259L84.077 597.569C83.5188 598.314 83.2707 599.182 83.2707 600.113C83.2707 602.036 84.5732 603.773 86.372 604.269C86.7441 604.393 87.1783 604.455 87.6124 604.455C89.101 604.455 90.4656 603.711 91.2719 602.47L91.458 602.16L91.7061 602.408C98.1566 608.425 101.878 616.924 101.878 625.733C101.878 628.524 101.506 631.316 100.762 634.045L100.638 634.418L100.39 634.232C99.7693 633.859 99.025 633.673 98.2187 633.673C95.7997 633.673 93.8769 635.658 93.8769 638.016C93.8769 639.939 95.1174 641.614 96.9162 642.172L97.2883 642.296L97.1022 642.606C94.9314 646.08 92.1402 649.058 88.7909 651.477L88.0466 652.036L88.3567 651.105C88.3567 648.686 86.3719 646.763 84.015 646.763C81.596 646.763 79.6732 648.748 79.6732 651.105C79.6732 652.656 80.4176 654.021 81.7201 654.827L82.2783 655.137L81.7201 655.385C77.9366 656.812 74.091 657.495 70.1214 657.495ZM58.5848 654.703C62.2443 656.192 66.1519 656.936 70.1214 656.936C73.7809 656.936 77.3784 656.316 80.7897 655.075C79.6112 654.145 78.929 652.718 78.929 651.167C78.929 648.438 81.1619 646.204 83.891 646.204C86.434 646.204 88.6048 648.189 88.8529 650.671C91.8301 648.438 94.3111 645.77 96.2959 642.668C94.4352 641.924 93.1947 640.125 93.1947 638.078C93.1947 635.348 95.4276 633.115 98.1567 633.115C98.901 633.115 99.5832 633.301 100.265 633.611C100.886 631.068 101.258 628.462 101.258 625.857C101.258 617.296 97.7225 609.108 91.52 603.214C90.5896 604.455 89.101 605.199 87.5504 605.199C87.0542 605.199 86.558 605.137 86.1238 605.013C84.015 604.393 82.5884 602.47 82.5884 600.237C82.5884 599.306 82.8365 598.438 83.3327 597.631C80.6657 596.39 77.8745 595.522 75.0214 595.088C74.6492 597.507 72.6024 599.368 70.1214 599.368C69.6252 599.368 69.1291 599.306 68.6949 599.182C66.8341 598.624 65.4696 597.011 65.1595 595.088C57.2203 596.328 50.2115 600.547 45.3115 606.936C46.2419 607.867 46.8001 609.17 46.8001 610.472C46.8001 613.202 44.5672 615.435 41.8381 615.435C41.466 615.435 41.0938 615.373 40.7217 615.311C39.4812 618.723 38.8609 622.259 38.8609 625.857C38.8609 627.966 39.047 630.075 39.4812 632.184C40.2255 631.812 40.9698 631.626 41.7761 631.626C44.5052 631.626 46.7381 633.859 46.7381 636.589C46.7381 638.884 45.1255 640.869 42.9546 641.428C44.8153 644.653 47.2343 647.569 50.1495 649.926C50.7697 647.817 52.6925 646.328 54.9254 646.328C57.6545 646.328 59.8874 648.562 59.8874 651.291C60.0734 652.47 59.5152 653.773 58.5848 654.703Z" fill="#19181B"/>
<path d="M62.6164 636.092H46.614V636.712H62.6164V636.092Z" fill="#19181B"/>
<path d="M80.7277 624.801H69.2531L58.6468 610.595H46.614V609.975H58.957L69.5632 624.181H80.7277V624.801Z" fill="#19181B"/>
<path d="M84.7592 611.961H77.6885V612.581H84.7592V611.961Z" fill="#19181B"/>
<path d="M72.1061 651.414H59.7632V650.793H71.796L81.0377 637.704H93.6287V638.324H81.3478L72.1061 651.414Z" fill="#19181B"/>
<path d="M53.0029 606.874C52.3207 606.874 51.7625 606.316 51.7625 605.633C51.7625 604.951 52.3207 604.393 53.0029 604.393C53.6852 604.393 54.2434 604.951 54.2434 605.633C54.2434 606.316 53.6852 606.874 53.0029 606.874ZM53.0029 605.013C52.6928 605.013 52.3827 605.261 52.3827 605.633C52.3827 606.005 52.6308 606.254 53.0029 606.254C53.3751 606.254 53.6232 606.005 53.6232 605.633C53.6232 605.261 53.3751 605.013 53.0029 605.013Z" fill="#19181B"/>
<path d="M57.3443 606.874C56.662 606.874 56.1038 606.316 56.1038 605.633C56.1038 604.951 56.662 604.393 57.3443 604.393C58.0265 604.393 58.5847 604.951 58.5847 605.633C58.5847 606.316 58.0265 606.874 57.3443 606.874ZM57.3443 605.013C57.0341 605.013 56.724 605.261 56.724 605.633C56.724 606.005 56.9721 606.254 57.3443 606.254C57.7164 606.254 57.9645 606.005 57.9645 605.633C57.9645 605.261 57.6544 605.013 57.3443 605.013Z" fill="#19181B"/>
<path d="M53.9334 633.611C53.2511 633.611 52.6929 633.052 52.6929 632.37C52.6929 631.688 53.2511 631.129 53.9334 631.129C54.6156 631.129 55.1739 631.688 55.1739 632.37C55.1739 633.114 54.6156 633.611 53.9334 633.611ZM53.9334 631.812C53.6232 631.812 53.3131 632.06 53.3131 632.432C53.3131 632.804 53.5612 633.052 53.9334 633.052C54.3055 633.052 54.5536 632.804 54.5536 632.432C54.5536 632.06 54.3055 631.812 53.9334 631.812Z" fill="#19181B"/>
<path d="M58.2747 633.611C57.5924 633.611 57.0342 633.052 57.0342 632.37C57.0342 631.688 57.5924 631.129 58.2747 631.129C58.9569 631.129 59.5151 631.688 59.5151 632.37C59.5151 633.114 58.9569 633.611 58.2747 633.611ZM58.2747 631.812C57.9645 631.812 57.6544 632.06 57.6544 632.432C57.6544 632.804 57.9025 633.052 58.2747 633.052C58.6468 633.052 58.8949 632.804 58.8949 632.432C58.8949 632.06 58.5848 631.812 58.2747 631.812Z" fill="#19181B"/>
<path d="M71.0518 655.446C70.3695 655.446 69.8113 654.888 69.8113 654.206C69.8113 653.523 70.3695 652.965 71.0518 652.965C71.734 652.965 72.2923 653.523 72.2923 654.206C72.2923 654.888 71.734 655.446 71.0518 655.446ZM71.0518 653.585C70.7416 653.585 70.4315 653.833 70.4315 654.206C70.4315 654.578 70.6796 654.826 71.0518 654.826C71.4239 654.826 71.672 654.578 71.672 654.206C71.672 653.833 71.4239 653.585 71.0518 653.585Z" fill="#19181B"/>
<path d="M88.5427 613.512C87.8605 613.512 87.3022 612.953 87.3022 612.271C87.3022 611.589 87.8605 611.03 88.5427 611.03C89.225 611.03 89.7832 611.589 89.7832 612.271C89.7832 612.953 89.225 613.512 88.5427 613.512ZM88.5427 611.651C88.2326 611.651 87.9225 611.899 87.9225 612.271C87.9225 612.643 88.1706 612.891 88.5427 612.891C88.9149 612.891 89.163 612.643 89.163 612.271C89.163 611.899 88.9149 611.651 88.5427 611.651Z" fill="#19181B"/>
<path d="M92.6985 613.512C92.0162 613.512 91.458 612.953 91.458 612.271C91.458 611.589 92.0162 611.03 92.6985 611.03C93.3808 611.03 93.939 611.589 93.939 612.271C93.939 612.953 93.3808 613.512 92.6985 613.512ZM92.6985 611.651C92.3884 611.651 92.0783 611.899 92.0783 612.271C92.0783 612.643 92.3264 612.891 92.6985 612.891C93.0706 612.891 93.3187 612.643 93.3187 612.271C93.3187 611.899 93.0086 611.651 92.6985 611.651Z" fill="#19181B"/>
<path d="M61.686 606.874C61.0038 606.874 60.4456 606.316 60.4456 605.633C60.4456 604.951 61.0038 604.393 61.686 604.393C62.3683 604.393 62.9265 604.951 62.9265 605.633C62.9265 606.316 62.3683 606.874 61.686 606.874ZM61.686 605.013C61.3759 605.013 61.0658 605.261 61.0658 605.633C61.0658 606.005 61.3139 606.254 61.686 606.254C62.0582 606.254 62.3063 606.005 62.3063 605.633C62.3063 605.261 62.0582 605.013 61.686 605.013Z" fill="#19181B"/>
<path d="M80.7901 634.541C80.1078 634.541 79.5496 633.983 79.5496 633.3C79.5496 632.618 80.1078 632.06 80.7901 632.06C81.4723 632.06 82.0305 632.618 82.0305 633.3C82.0305 633.983 81.4723 634.541 80.7901 634.541ZM80.7901 632.742C80.4799 632.742 80.1698 632.99 80.1698 633.362C80.1698 633.735 80.4179 633.983 80.7901 633.983C81.1622 633.983 81.4103 633.735 81.4103 633.362C81.4103 632.99 81.1002 632.742 80.7901 632.742Z" fill="#19181B"/>
<path d="M85.0694 634.541C84.3871 634.541 83.8289 633.983 83.8289 633.3C83.8289 632.618 84.3871 632.06 85.0694 632.06C85.7517 632.06 86.3099 632.618 86.3099 633.3C86.3099 633.983 85.7517 634.541 85.0694 634.541ZM85.0694 632.742C84.7592 632.742 84.4491 632.99 84.4491 633.362C84.4491 633.735 84.6972 633.983 85.0694 633.983C85.4415 633.983 85.6896 633.735 85.6896 633.362C85.6896 632.99 85.4415 632.742 85.0694 632.742Z" fill="#19181B"/>
<path d="M89.4729 634.541C88.7906 634.541 88.2324 633.983 88.2324 633.3C88.2324 632.618 88.7906 632.06 89.4729 632.06C90.1552 632.06 90.7134 632.618 90.7134 633.3C90.7134 633.983 90.1552 634.541 89.4729 634.541ZM89.4729 632.742C89.1628 632.742 88.8527 632.99 88.8527 633.362C88.8527 633.735 89.1008 633.983 89.4729 633.983C89.8451 633.983 90.0932 633.735 90.0932 633.362C90.0932 632.99 89.783 632.742 89.4729 632.742Z" fill="#19181B"/>
</svg>
