<svg width="1160" height="203" viewBox="0 0 1160 203" fill="none" xmlns="http://www.w3.org/2000/svg">
<path d="M1022.39 203H187.043V0H1022.39V203ZM187.504 202.54H1021.93V0.460317H187.504V202.54Z" fill="#19181B"/>
<path d="M496.166 88.0352H447.564V88.9558H496.166V88.0352Z" fill="#19181B"/>
<path d="M496.166 96.2285H447.564V96.6888H496.166V96.2285Z" fill="#19181B"/>
<path d="M496.166 100.188H447.564V100.648H496.166V100.188Z" fill="#19181B"/>
<path d="M496.166 104.146H447.564V104.606H496.166V104.146Z" fill="#19181B"/>
<path d="M496.166 108.197H447.564V108.657H496.166V108.197Z" fill="#19181B"/>
<path d="M496.166 112.156H447.564V112.616H496.166V112.156Z" fill="#19181B"/>
<path d="M496.166 116.114H447.564V116.575H496.166V116.114Z" fill="#19181B"/>
<path d="M496.166 120.165H447.564V120.625H496.166V120.165Z" fill="#19181B"/>
<path d="M496.166 124.124H447.564V124.584H496.166V124.124Z" fill="#19181B"/>
<path d="M496.166 128.083H447.564V128.543H496.166V128.083Z" fill="#19181B"/>
<path d="M488.986 132.133H447.564V132.594H488.986V132.133Z" fill="#19181B"/>
<path d="M506.015 152.664H505.555V150.914H438.635V152.664H438.175V150.914H436.426V150.454H438.175V64.0064H436.426V63.5461H438.175V61.7969H438.635V63.5461H497.178V61.7969H497.639V63.5461H499.388V64.0064H498.007L505.555 71.5556V70.1746H506.015V71.9239H507.764V72.3842H506.015V150.454H507.764V150.914H506.015V152.664ZM503.806 150.454H505.555V72.3842H497.639V74.1334H497.178V72.3842H495.43V71.9239H497.178V64.0064H438.635V150.454H503.806ZM503.806 71.9239H505.187L497.639 64.3747V71.9239H503.806Z" fill="#19181B"/>
<path d="M426.301 139.959H425.841V138.117H424V137.657H425.841V51.2095H424V50.7492H425.841V49H426.301V50.7492H493.221V49H493.681V50.7492H495.43V51.2095H493.681V63.7302H493.221V51.2095H426.301V137.657H438.82V138.117H426.301V139.959Z" fill="#19181B"/>
<path d="M434.217 148.337H433.757V146.495H432.008V146.035H433.757V59.5874H432.008V59.1271H433.757V57.3779H434.217V59.1271H501.137V57.3779H501.597V59.1271H503.346V59.5874H501.597V67.3208H501.137V59.5874H434.217V146.035H438.36V146.495H434.217V148.337Z" fill="#19181B"/>
<path d="M430.259 144.286H429.799V142.536H428.05V142.076H429.799V55.6285H428.05V55.1682H429.799V53.4189H430.259V55.1682H497.179V53.4189H497.639V55.1682H499.388V55.6285H497.639V68.5174H497.179V55.6285H430.259V142.076H438.82V142.536H430.259V144.286Z" fill="#19181B"/>
<path d="M506.66 151.191H438.359V63.27H498.007L506.66 71.924V151.191ZM439.28 150.178H505.739V72.2922L497.639 64.1907H439.28V150.178Z" fill="#19181B"/>
<path d="M637.104 163.943L636.736 163.666L637.473 162.93V155.749H637.933V162.47L638.301 162.101L638.577 162.47L638.209 162.838H666.468V155.749H666.928V162.47L667.296 162.101L667.573 162.47L666.928 163.114V163.298H666.744L666.1 163.943L665.732 163.666L666.1 163.298H637.749L637.104 163.943Z" fill="#19181B"/>
<path d="M639.038 99.1301H638.577V47.8508L636.276 50.0603L636 49.7841L638.577 47.1143L638.761 47.2984L638.946 47.1143L641.523 49.7841L641.247 50.0603L639.038 47.8508V99.1301Z" fill="#19181B"/>
<path d="M648.058 97.5651H647.598V38.6444L645.389 40.946L645.021 40.5778L647.69 38L647.874 38.1841L648.058 38L650.635 40.5778L650.359 40.946L648.058 38.6444V97.5651Z" fill="#19181B"/>
<path d="M657.171 97.5651H656.711V38.6444L654.502 40.946L654.134 40.5778L656.803 38L656.987 38.1841L657.079 38L659.749 40.5778L659.473 40.946L657.171 38.6444V97.5651Z" fill="#19181B"/>
<path d="M666.284 99.1301H665.823V47.8508L663.614 50.0603L663.246 49.7841L665.915 47.1143L666.008 47.2984L666.192 47.1143L668.861 49.7841L668.493 50.0603L666.284 47.8508V99.1301Z" fill="#19181B"/>
<path d="M730.994 117.082C722.71 117.082 716.267 115.149 716.267 112.663V105.758C716.267 103.273 722.71 101.339 730.994 101.339C739.279 101.339 745.722 103.273 745.722 105.758V112.663C745.722 115.149 739.279 117.082 730.994 117.082ZM716.727 106.863V112.571C716.727 114.504 722.434 116.53 730.994 116.53C733.756 116.53 736.333 116.346 738.358 115.977V109.533C736.149 109.901 733.664 110.085 730.994 110.085C723.999 110.177 718.292 108.796 716.727 106.863ZM738.911 109.533V115.977C742.961 115.241 745.354 113.952 745.354 112.663V106.955C744.342 107.968 742.04 108.889 738.911 109.533ZM716.727 105.758C716.727 107.692 722.434 109.717 730.994 109.717C739.555 109.717 745.262 107.692 745.262 105.758C745.262 103.825 739.555 101.8 730.994 101.8C722.434 101.8 716.727 103.825 716.727 105.758Z" fill="#19181B"/>
<path d="M730.994 63.7775C722.71 63.7775 716.267 61.8442 716.267 59.3585V52.4537C716.267 49.968 722.71 48.0347 730.994 48.0347C739.279 48.0347 745.722 49.968 745.722 52.4537V59.3585C745.722 61.8442 739.279 63.7775 730.994 63.7775ZM716.727 53.5585V59.2664C716.727 61.1997 722.434 63.2251 730.994 63.2251C733.756 63.2251 736.333 63.041 738.358 62.6728V56.2283C736.149 56.5966 733.664 56.7807 730.994 56.7807C723.999 56.8728 718.292 55.4918 716.727 53.5585ZM738.911 56.2283V62.6728C742.961 61.9363 745.354 60.6474 745.354 59.3585V53.5585C744.342 54.7553 742.04 55.6759 738.911 56.2283ZM716.727 52.4537C716.727 54.3871 722.434 56.4124 730.994 56.4124C739.555 56.4124 745.262 54.3871 745.262 52.4537C745.262 50.5204 739.555 48.495 730.994 48.495C722.434 48.495 716.727 50.5204 716.727 52.4537Z" fill="#19181B"/>
<path d="M652.477 118.095C644.192 118.095 637.749 116.162 637.749 113.676V106.772C637.749 104.286 644.192 102.353 652.477 102.353C660.761 102.353 667.205 104.286 667.205 106.772V113.676C667.205 116.162 660.761 118.095 652.477 118.095ZM638.209 107.876V113.584C638.209 115.518 643.916 117.543 652.477 117.543C655.238 117.543 657.816 117.359 659.841 116.991V110.546C657.632 110.914 655.146 111.099 652.477 111.099C645.481 111.191 639.866 109.81 638.209 107.876ZM660.393 110.546V116.991C664.443 116.254 666.836 114.965 666.836 113.676V107.876C665.824 109.073 663.523 109.994 660.393 110.546ZM638.209 106.772C638.209 108.705 643.916 110.73 652.477 110.73C661.037 110.73 666.744 108.705 666.744 106.772C666.744 104.838 661.037 102.813 652.477 102.813C643.916 102.813 638.209 104.838 638.209 106.772Z" fill="#19181B"/>
<path d="M652.477 154C644.192 154 637.749 152.067 637.749 149.581V142.676C637.749 140.191 644.192 138.257 652.477 138.257C660.761 138.257 667.205 140.191 667.205 142.676V149.581C667.205 152.067 660.761 154 652.477 154ZM638.209 143.781V149.489C638.209 151.422 643.916 153.448 652.477 153.448C655.238 153.448 657.816 153.264 659.841 152.895V146.451C657.632 146.819 655.146 147.003 652.477 147.003C645.481 147.095 639.866 145.714 638.209 143.781ZM660.393 146.451V152.895C664.443 152.159 666.836 150.87 666.836 149.581V143.781C665.824 144.978 663.523 145.899 660.393 146.451ZM638.209 142.676C638.209 144.61 643.916 146.635 652.477 146.635C661.037 146.635 666.744 144.61 666.744 142.676C666.744 140.743 661.037 138.718 652.477 138.718C643.916 138.718 638.209 140.743 638.209 142.676Z" fill="#19181B"/>
<path d="M730.994 135.587C722.71 135.587 716.267 133.653 716.267 131.168V124.263C716.267 121.777 722.71 119.844 730.994 119.844C739.279 119.844 745.722 121.777 745.722 124.263V131.168C745.722 133.653 739.279 135.587 730.994 135.587ZM716.727 125.368V131.075C716.727 133.009 722.434 135.034 730.994 135.034C733.756 135.034 736.333 134.85 738.358 134.482V128.037C736.149 128.406 733.664 128.59 730.994 128.59C723.999 128.682 718.292 127.301 716.727 125.368ZM738.911 128.037V134.482C742.961 133.745 745.354 132.456 745.354 131.168V125.368C744.342 126.564 742.04 127.485 738.911 128.037ZM716.727 124.263C716.727 126.196 722.434 128.222 730.994 128.222C739.555 128.222 745.262 126.196 745.262 124.263C745.262 122.329 739.555 120.304 730.994 120.304C722.434 120.304 716.727 122.329 716.727 124.263Z" fill="#19181B"/>
<path d="M730.994 154.091C722.71 154.091 716.267 152.158 716.267 149.672V142.768C716.267 140.282 722.71 138.349 730.994 138.349C739.279 138.349 745.722 140.282 745.722 142.768V149.672C745.722 152.158 739.279 154.091 730.994 154.091ZM716.727 143.964V149.672C716.727 151.606 722.434 153.631 730.994 153.631C733.756 153.631 736.333 153.447 738.358 153.079V146.634C736.149 147.003 733.664 147.187 730.994 147.187C723.999 147.279 718.292 145.898 716.727 143.964ZM738.911 146.542V152.987C742.961 152.25 745.354 150.961 745.354 149.672V143.964C744.342 145.069 742.04 145.99 738.911 146.542ZM716.727 142.768C716.727 144.701 722.434 146.726 730.994 146.726C739.555 146.726 745.262 144.701 745.262 142.768C745.262 140.834 739.555 138.809 730.994 138.809C722.434 138.809 716.727 140.926 716.727 142.768Z" fill="#19181B"/>
<path d="M730.994 99.4982C722.71 99.4982 716.267 97.5649 716.267 95.0792V88.1744C716.267 85.6887 722.71 83.7554 730.994 83.7554C739.279 83.7554 745.722 85.6887 745.722 88.1744V95.0792C745.722 97.5649 739.279 99.4982 730.994 99.4982ZM716.727 89.2792V94.9871C716.727 96.9204 722.434 98.9458 730.994 98.9458C739.555 98.9458 745.262 96.9204 745.262 94.9871V89.2792C743.605 91.2125 737.99 92.5935 730.994 92.5935C723.999 92.5935 718.292 91.2125 716.727 89.2792ZM716.727 88.1744C716.727 90.1077 722.434 92.1331 730.994 92.1331C739.555 92.1331 745.262 90.1077 745.262 88.1744C745.262 86.2411 739.555 84.2157 730.994 84.2157C722.434 84.2157 716.727 86.2411 716.727 88.1744Z" fill="#19181B"/>
<path d="M730.994 81.9142C722.71 81.9142 716.267 79.9809 716.267 77.4952V70.5904C716.267 68.1047 722.71 66.1714 730.994 66.1714C739.279 66.1714 745.722 68.1047 745.722 70.5904V77.4952C745.722 79.9809 739.279 81.9142 730.994 81.9142ZM716.727 71.6952V77.4952C716.727 79.4285 722.434 81.4539 730.994 81.4539C739.555 81.4539 745.262 79.4285 745.262 77.4952V71.7873C743.605 73.7206 737.99 75.1016 730.994 75.1016C723.999 75.0095 718.292 73.6285 716.727 71.6952ZM716.727 70.5904C716.727 72.5238 722.434 74.5492 730.994 74.5492C739.555 74.5492 745.262 72.5238 745.262 70.5904C745.262 68.6571 739.555 66.6317 730.994 66.6317C722.434 66.6317 716.727 68.6571 716.727 70.5904Z" fill="#19181B"/>
<path d="M652.477 136.232C644.192 136.232 637.749 134.298 637.749 131.813V124.908C637.749 122.422 644.192 120.489 652.477 120.489C660.761 120.489 667.205 122.422 667.205 124.908V131.813C667.205 134.298 660.761 136.232 652.477 136.232ZM638.209 126.013V131.721C638.209 133.654 643.916 135.679 652.477 135.679C661.037 135.679 666.744 133.654 666.744 131.721V126.013C665.088 127.946 659.473 129.327 652.477 129.327C645.481 129.327 639.866 127.946 638.209 126.013ZM638.209 124.908C638.209 126.841 643.916 128.867 652.477 128.867C661.037 128.867 666.744 126.841 666.744 124.908C666.744 122.974 661.037 120.949 652.477 120.949C643.916 120.949 638.209 122.974 638.209 124.908Z" fill="#19181B"/>
<path d="M730.994 117.266C723.722 117.266 715.99 115.609 715.99 112.571V105.666C715.99 102.628 723.722 100.971 730.994 100.971C738.266 100.971 745.998 102.628 745.998 105.666V112.571C745.998 115.609 738.266 117.266 730.994 117.266ZM716.911 107.416V112.571C716.911 114.32 722.71 116.346 730.994 116.346C739.279 116.346 745.078 114.412 745.078 112.571V107.416C742.776 109.349 736.793 110.362 730.994 110.362C725.195 110.362 719.212 109.349 716.911 107.416ZM716.911 105.758C716.911 107.508 722.71 109.533 730.994 109.533C739.279 109.533 745.078 107.6 745.078 105.758C745.078 104.009 739.279 101.984 730.994 101.984C722.71 101.984 716.911 104.009 716.911 105.758Z" fill="#19181B"/>
<path d="M730.994 63.9617C723.722 63.9617 715.99 62.3046 715.99 59.2665V52.3617C715.99 49.3236 723.722 47.6665 730.994 47.6665C738.266 47.6665 745.998 49.3236 745.998 52.3617V59.2665C745.998 62.3967 738.266 63.9617 730.994 63.9617ZM716.911 54.203V59.3586C716.911 61.1078 722.71 63.1332 730.994 63.1332C739.279 63.1332 745.078 61.1998 745.078 59.3586V54.203C742.776 56.1363 736.793 57.149 730.994 57.149C725.195 57.149 719.212 56.1363 716.911 54.203ZM716.911 52.4538C716.911 54.203 722.71 56.2284 730.994 56.2284C739.279 56.2284 745.078 54.2951 745.078 52.4538C745.078 50.7046 739.279 48.6792 730.994 48.6792C722.71 48.7713 716.911 50.7046 716.911 52.4538Z" fill="#19181B"/>
<path d="M652.477 118.279C645.205 118.279 637.473 116.622 637.473 113.584V106.679C637.473 103.641 645.205 101.984 652.477 101.984C659.748 101.984 667.481 103.641 667.481 106.679V113.584C667.481 116.714 659.748 118.279 652.477 118.279ZM638.393 108.52V113.676C638.393 115.425 644.192 117.451 652.477 117.451C660.761 117.451 666.56 115.517 666.56 113.676V108.52C664.259 110.454 658.276 111.466 652.477 111.466C646.678 111.466 640.694 110.454 638.393 108.52ZM638.393 106.771C638.393 108.52 644.192 110.546 652.477 110.546C660.761 110.546 666.56 108.612 666.56 106.771C666.56 105.022 660.761 102.997 652.477 102.997C644.192 103.089 638.393 105.022 638.393 106.771Z" fill="#19181B"/>
<path d="M652.477 154.184C645.205 154.184 637.473 152.527 637.473 149.489V142.584C637.473 139.546 645.205 137.889 652.477 137.889C659.748 137.889 667.481 139.546 667.481 142.584V149.489C667.481 152.619 659.748 154.184 652.477 154.184ZM638.393 144.425V149.581C638.393 151.33 644.192 153.355 652.477 153.355C660.761 153.355 666.56 151.422 666.56 149.581V144.425C664.259 146.359 658.276 147.371 652.477 147.371C646.678 147.371 640.694 146.359 638.393 144.425ZM638.393 142.676C638.393 144.425 644.192 146.451 652.477 146.451C660.761 146.451 666.56 144.517 666.56 142.676C666.56 140.927 660.761 138.901 652.477 138.901C644.192 138.993 638.393 140.927 638.393 142.676Z" fill="#19181B"/>
<path d="M730.994 135.771C723.722 135.771 715.99 134.114 715.99 131.076V124.171C715.99 121.133 723.722 119.476 730.994 119.476C738.266 119.476 745.998 121.133 745.998 124.171V131.076C745.998 134.206 738.266 135.771 730.994 135.771ZM716.911 126.013V131.168C716.911 132.917 722.71 134.943 730.994 134.943C739.279 134.943 745.078 133.009 745.078 131.168V126.013C742.776 127.946 736.793 128.959 730.994 128.959C725.195 128.959 719.212 127.946 716.911 126.013ZM716.911 124.263C716.911 126.013 722.71 128.038 730.994 128.038C739.279 128.038 745.078 126.105 745.078 124.263C745.078 122.514 739.279 120.489 730.994 120.489C722.71 120.581 716.911 122.514 716.911 124.263Z" fill="#19181B"/>
<path d="M730.994 154.368C723.722 154.368 715.99 152.711 715.99 149.673V142.768C715.99 139.73 723.722 138.073 730.994 138.073C738.266 138.073 745.998 139.73 745.998 142.768V149.673C745.998 152.711 738.266 154.368 730.994 154.368ZM716.911 144.518V149.673C716.911 151.422 722.71 153.448 730.994 153.448C739.279 153.448 745.078 151.514 745.078 149.673V144.518C742.776 146.451 736.793 147.464 730.994 147.464C725.195 147.464 719.212 146.451 716.911 144.518ZM716.911 142.768C716.911 144.518 722.71 146.543 730.994 146.543C739.279 146.543 745.078 144.61 745.078 142.768C745.078 141.019 739.279 138.994 730.994 138.994C722.71 139.086 716.911 141.019 716.911 142.768Z" fill="#19181B"/>
<path d="M692.426 117.082C684.142 117.082 677.698 115.149 677.698 112.663V105.758C677.698 103.273 684.142 101.339 692.426 101.339C700.71 101.339 707.154 103.273 707.154 105.758V112.663C707.154 115.149 700.71 117.082 692.426 117.082ZM678.158 106.863V112.571C678.158 114.504 683.865 116.53 692.426 116.53C695.187 116.53 697.765 116.346 699.79 115.977V109.533C697.581 109.901 695.095 110.085 692.426 110.085C685.43 110.177 679.815 108.796 678.158 106.863ZM700.342 109.533V115.977C704.392 115.241 706.786 113.952 706.786 112.663V106.955C705.773 107.968 703.472 108.889 700.342 109.533ZM678.158 105.758C678.158 107.692 683.865 109.717 692.426 109.717C700.987 109.717 706.694 107.692 706.694 105.758C706.694 103.825 700.987 101.8 692.426 101.8C683.865 101.8 678.158 103.825 678.158 105.758Z" fill="#19181B"/>
<path d="M692.426 63.7775C684.142 63.7775 677.698 61.8442 677.698 59.3585V52.4537C677.698 49.968 684.142 48.0347 692.426 48.0347C700.71 48.0347 707.154 49.968 707.154 52.4537V59.3585C707.154 61.8442 700.71 63.7775 692.426 63.7775ZM678.158 53.5585V59.2664C678.158 61.1997 683.865 63.2251 692.426 63.2251C695.187 63.2251 697.765 63.041 699.79 62.6728V56.2283C697.581 56.5966 695.095 56.7807 692.426 56.7807C685.43 56.8728 679.815 55.4918 678.158 53.5585ZM700.342 56.2283V62.6728C704.392 61.9363 706.786 60.6474 706.786 59.3585V53.5585C705.773 54.7553 703.472 55.6759 700.342 56.2283ZM678.158 52.4537C678.158 54.3871 683.865 56.4124 692.426 56.4124C700.987 56.4124 706.694 54.3871 706.694 52.4537C706.694 50.5204 700.987 48.495 692.426 48.495C683.865 48.495 678.158 50.5204 678.158 52.4537Z" fill="#19181B"/>
<path d="M692.426 135.587C684.142 135.587 677.698 133.653 677.698 131.168V124.263C677.698 121.777 684.142 119.844 692.426 119.844C700.71 119.844 707.154 121.777 707.154 124.263V131.168C707.154 133.653 700.71 135.587 692.426 135.587ZM678.158 125.368V131.075C678.158 133.009 683.865 135.034 692.426 135.034C695.187 135.034 697.765 134.85 699.79 134.482V128.037C697.581 128.406 695.095 128.59 692.426 128.59C685.43 128.682 679.815 127.301 678.158 125.368ZM700.342 128.037V134.482C704.392 133.745 706.786 132.456 706.786 131.168V125.368C705.773 126.564 703.472 127.485 700.342 128.037ZM678.158 124.263C678.158 126.196 683.865 128.222 692.426 128.222C700.987 128.222 706.694 126.196 706.694 124.263C706.694 122.329 700.987 120.304 692.426 120.304C683.865 120.304 678.158 122.329 678.158 124.263Z" fill="#19181B"/>
<path d="M692.426 154.091C684.142 154.091 677.698 152.158 677.698 149.672V142.768C677.698 140.282 684.142 138.349 692.426 138.349C700.71 138.349 707.154 140.282 707.154 142.768V149.672C707.154 152.158 700.71 154.091 692.426 154.091ZM678.158 143.964V149.672C678.158 151.606 683.865 153.631 692.426 153.631C695.187 153.631 697.765 153.447 699.79 153.079V146.634C697.581 147.003 695.095 147.187 692.426 147.187C685.43 147.279 679.815 145.898 678.158 143.964ZM700.342 146.542V152.987C704.392 152.25 706.786 150.961 706.786 149.672V143.964C705.773 145.069 703.472 145.99 700.342 146.542ZM678.158 142.768C678.158 144.701 683.865 146.726 692.426 146.726C700.987 146.726 706.694 144.701 706.694 142.768C706.694 140.834 700.987 138.809 692.426 138.809C683.865 138.809 678.158 140.926 678.158 142.768Z" fill="#19181B"/>
<path d="M692.426 99.4982C684.142 99.4982 677.698 97.5649 677.698 95.0792V88.1744C677.698 85.6887 684.142 83.7554 692.426 83.7554C700.71 83.7554 707.154 85.6887 707.154 88.1744V95.0792C707.154 97.5649 700.71 99.4982 692.426 99.4982ZM678.158 89.2792V94.9871C678.158 96.9204 683.865 98.9458 692.426 98.9458C700.987 98.9458 706.694 96.9204 706.694 94.9871V89.2792C705.037 91.2125 699.422 92.5935 692.426 92.5935C685.43 92.5935 679.815 91.2125 678.158 89.2792ZM678.158 88.1744C678.158 90.1077 683.865 92.1331 692.426 92.1331C700.987 92.1331 706.694 90.1077 706.694 88.1744C706.694 86.2411 700.987 84.2157 692.426 84.2157C683.865 84.2157 678.158 86.2411 678.158 88.1744Z" fill="#19181B"/>
<path d="M692.426 81.9142C684.142 81.9142 677.698 79.9809 677.698 77.4952V70.5904C677.698 68.1047 684.142 66.1714 692.426 66.1714C700.71 66.1714 707.154 68.1047 707.154 70.5904V77.4952C707.154 79.9809 700.71 81.9142 692.426 81.9142ZM678.158 71.6952V77.4952C678.158 79.4285 683.865 81.4539 692.426 81.4539C700.987 81.4539 706.694 79.4285 706.694 77.4952V71.7873C705.037 73.7206 699.422 75.1016 692.426 75.1016C685.43 75.0095 679.815 73.6285 678.158 71.6952ZM678.158 70.5904C678.158 72.5238 683.865 74.5492 692.426 74.5492C700.987 74.5492 706.694 72.5238 706.694 70.5904C706.694 68.6571 700.987 66.6317 692.426 66.6317C683.865 66.6317 678.158 68.6571 678.158 70.5904Z" fill="#19181B"/>
<path d="M692.426 117.266C685.154 117.266 677.422 115.609 677.422 112.571V105.666C677.422 102.628 685.154 100.971 692.426 100.971C699.698 100.971 707.43 102.628 707.43 105.666V112.571C707.43 115.609 699.698 117.266 692.426 117.266ZM678.342 107.416V112.571C678.342 114.32 684.141 116.346 692.426 116.346C700.71 116.346 706.509 114.412 706.509 112.571V107.416C704.208 109.349 698.225 110.362 692.426 110.362C686.627 110.362 680.644 109.349 678.342 107.416ZM678.342 105.758C678.342 107.508 684.141 109.533 692.426 109.533C700.71 109.533 706.509 107.6 706.509 105.758C706.509 104.009 700.71 101.984 692.426 101.984C684.141 101.984 678.342 104.009 678.342 105.758Z" fill="#19181B"/>
<path d="M692.426 63.9617C685.154 63.9617 677.422 62.3046 677.422 59.2665V52.3617C677.422 49.3236 685.154 47.6665 692.426 47.6665C699.698 47.6665 707.43 49.3236 707.43 52.3617V59.2665C707.43 62.3967 699.698 63.9617 692.426 63.9617ZM678.342 54.203V59.3586C678.342 61.1078 684.141 63.1332 692.426 63.1332C700.71 63.1332 706.509 61.1998 706.509 59.3586V54.203C704.208 56.1363 698.225 57.149 692.426 57.149C686.627 57.149 680.644 56.1363 678.342 54.203ZM678.342 52.4538C678.342 54.203 684.141 56.2284 692.426 56.2284C700.71 56.2284 706.509 54.2951 706.509 52.4538C706.509 50.7046 700.71 48.6792 692.426 48.6792C684.141 48.7713 678.342 50.7046 678.342 52.4538Z" fill="#19181B"/>
<path d="M692.426 135.771C685.154 135.771 677.422 134.114 677.422 131.076V124.171C677.422 121.133 685.154 119.476 692.426 119.476C699.698 119.476 707.43 121.133 707.43 124.171V131.076C707.43 134.206 699.698 135.771 692.426 135.771ZM678.342 126.013V131.168C678.342 132.917 684.141 134.943 692.426 134.943C700.71 134.943 706.509 133.009 706.509 131.168V126.013C704.208 127.946 698.225 128.959 692.426 128.959C686.627 128.959 680.644 127.946 678.342 126.013ZM678.342 124.263C678.342 126.013 684.141 128.038 692.426 128.038C700.71 128.038 706.509 126.105 706.509 124.263C706.509 122.514 700.71 120.489 692.426 120.489C684.141 120.581 678.342 122.514 678.342 124.263Z" fill="#19181B"/>
<path d="M692.426 154.368C685.154 154.368 677.422 152.711 677.422 149.673V142.768C677.422 139.73 685.154 138.073 692.426 138.073C699.698 138.073 707.43 139.73 707.43 142.768V149.673C707.43 152.711 699.698 154.368 692.426 154.368ZM678.342 144.518V149.673C678.342 151.422 684.141 153.448 692.426 153.448C700.71 153.448 706.509 151.514 706.509 149.673V144.518C704.208 146.451 698.225 147.464 692.426 147.464C686.627 147.464 680.644 146.451 678.342 144.518ZM678.342 142.768C678.342 144.518 684.141 146.543 692.426 146.543C700.71 146.543 706.509 144.61 706.509 142.768C706.509 141.019 700.71 138.994 692.426 138.994C684.141 139.086 678.342 141.019 678.342 142.768Z" fill="#19181B"/>
<path d="M755.847 96.1841L754.926 95.2634H749.312V94.8031H754.466L753.914 94.2507L754.282 93.8825L754.834 94.4349V87.6222H749.312V87.1618H754.466L753.914 86.6095L754.282 86.2412L756.215 88.1745L755.847 88.5428L755.295 87.9904V94.9872L756.215 95.9079L755.847 96.1841Z" fill="#19181B"/>
<path d="M187.227 115.816H143.964V116.276H187.227V115.816Z" fill="#19181B"/>
<path d="M1060.77 115.816H1022.11V116.276H1060.77V115.816Z" fill="#19181B"/>
<path d="M80.2666 160.191C79.3461 160.191 78.4256 160.007 77.5972 159.638L1.01252 123.457C0.552278 123.273 0.276131 122.813 0.184082 122.26H0.36818H0.184082C0.184082 122.168 0.184082 122.076 0.184082 122.076V119.591C0.184082 119.499 0.184082 119.499 0.184082 119.407H0.36818H0.184082C0.184082 118.854 0.552278 118.394 1.10457 118.21L56.518 95.7462C57.2544 95.47 57.9908 95.2859 58.7272 95.2859C59.4636 95.2859 60.2 95.378 60.8443 95.6541C61.0284 95.7462 61.3045 95.8383 61.4886 95.9303L138.073 132.111L137.889 132.572L128.408 128.061L125.831 129.073L137.337 134.505L137.797 134.321L137.981 134.781H137.889L138.073 134.873C138.626 135.149 138.902 135.702 138.902 136.346C138.81 136.899 138.534 137.359 137.981 137.543L82.5678 159.914C81.8314 160.099 81.095 160.191 80.2666 160.191ZM0.736375 122.26C0.736375 122.629 1.01252 122.905 1.28867 123.089L77.8733 159.27C79.3461 159.914 81.003 160.007 82.4758 159.362L137.889 136.991C138.257 136.807 138.441 136.53 138.534 136.162C138.534 135.794 138.441 135.426 137.981 135.149L137.429 134.873L82.6599 156.968C81.0951 157.613 79.2541 157.521 77.6892 156.784L1.74891 121.064L1.28867 121.248C0.920473 121.432 0.736375 121.708 0.644326 122.076V122.26H0.736375ZM2.39325 120.88L77.8733 156.508C79.3461 157.153 81.003 157.245 82.4758 156.6L105.396 147.394L27.6146 110.66L2.39325 120.88ZM94.4421 141.686L105.948 147.118L136.785 134.689L125.279 129.257L94.4421 141.686ZM35.2547 113.791L93.7978 141.41L124.634 128.981L66.0911 101.362L35.2547 113.791ZM66.2752 100.902L125.279 128.797L127.856 127.784L61.3966 96.3907C61.2125 96.2986 61.0284 96.2065 60.8443 96.1145C60.2 95.9303 59.5556 95.7462 58.8192 95.8383C58.0828 95.8383 57.4385 96.0224 56.7941 96.2986L25.1293 109.003L27.7067 110.2L56.518 98.5081C58.0828 97.8637 59.9238 97.9557 61.4886 98.6922L66.2752 100.902ZM0.736375 120.511V121.156C0.828424 121.064 1.01252 120.972 1.19662 120.88H1.28867L1.10457 120.787C0.920473 120.695 0.828424 120.603 0.736375 120.511ZM0.736375 119.499C0.736375 119.775 0.920473 120.143 1.28867 120.327L1.84096 120.603L27.0624 110.384L24.485 109.187L1.28867 118.578C0.920473 118.762 0.736375 119.038 0.644326 119.407V119.499H0.736375ZM28.1669 110.384L34.7024 113.514L65.5388 101.086L61.3045 99.0605C59.8318 98.4161 58.1749 98.324 56.7021 98.9684L28.1669 110.384ZM134.207 123.549C134.023 123.549 133.747 123.549 133.563 123.457L65.0785 91.051C62.8694 90.0383 61.4886 87.8288 61.4886 85.4351V39.1272C61.4886 38.6669 61.7648 38.2065 62.133 37.9304C62.5012 37.6542 63.0535 37.6542 63.5137 37.8383L131.998 70.1526C134.207 71.1653 135.588 73.3748 135.588 75.7684V122.076C135.588 122.537 135.312 122.997 134.944 123.273C134.667 123.457 134.483 123.549 134.207 123.549ZM62.9614 38.1145C62.7773 38.1145 62.5932 38.2065 62.4091 38.2986C62.133 38.4827 61.9489 38.7589 61.9489 39.1272V85.4351C61.9489 87.6446 63.2376 89.67 65.2626 90.6827L133.747 122.997C134.023 123.181 134.391 123.089 134.667 122.905C134.944 122.721 135.128 122.445 135.128 122.076V75.7684C135.128 73.5589 133.839 71.5335 131.814 70.5208L63.3296 38.2065C63.2376 38.2065 63.1455 38.1145 62.9614 38.1145Z" fill="#19181B"/>
<path d="M80.2666 160.467C79.3461 160.467 78.3336 160.283 77.5051 159.822L0.920489 123.641C0.368195 123.365 0 122.905 0 122.26V119.499C0 119.406 0 119.314 0 119.314H0.460244H0C0.0920489 118.67 0.460244 118.118 1.01254 117.933L56.4259 95.562C56.9782 95.3779 57.5305 95.1938 58.0828 95.1017C57.8067 94.3652 57.7146 93.6287 57.7146 92.8922V31.8541C57.7146 31.3017 57.9908 30.8414 58.451 30.4731C58.6351 30.3811 58.7272 30.289 58.9113 30.1969L61.1204 29.3684C61.2125 29.2763 61.3966 29.2763 61.4886 29.2763C61.8568 29.1842 62.225 29.1842 62.5932 29.3684L138.902 65.3652C141.111 66.4699 142.584 68.6795 142.584 71.2572V132.295C142.584 133.032 142.123 133.676 141.479 133.86L139.178 134.781V136.162C139.086 136.806 138.718 137.359 138.165 137.543L82.7519 159.914C81.9235 160.283 81.095 160.467 80.2666 160.467ZM0.920489 120.972V122.26C0.920489 122.352 1.01254 122.629 1.38073 122.813L77.9654 158.994C79.3461 159.638 81.003 159.73 82.3837 159.086L137.797 136.714C138.165 136.53 138.257 136.254 138.257 136.07V134.781C138.257 134.781 138.165 134.781 138.165 134.873L82.7519 157.245C81.095 157.889 79.162 157.889 77.5972 157.06L0.920489 120.972ZM0.920489 119.499C0.920489 119.683 1.01254 119.959 1.38073 120.143L77.9654 156.324C79.3461 156.968 81.003 157.06 82.3837 156.416L137.797 134.045C138.165 133.86 138.257 133.584 138.257 133.4H138.718H138.257C138.257 133.124 138.165 132.848 137.797 132.664L61.2125 96.4826C60.4761 96.1144 59.6477 95.9303 58.7272 95.9303C58.0828 95.9303 57.3464 96.1144 56.7021 96.2985L1.38073 118.762C1.10459 118.854 0.920489 119.13 0.920489 119.406V119.499ZM60.5682 30.6572L136.324 66.4699C138.534 67.5747 140.006 69.8763 140.006 72.362V133.4C140.006 133.492 140.006 133.492 140.006 133.584L141.111 133.124L141.295 133.584L141.111 133.124L141.295 133.032C141.479 132.94 141.663 132.664 141.663 132.387V71.2572C141.663 69.1398 140.375 67.1144 138.441 66.1938L62.225 30.1969C62.0409 30.1049 61.9489 30.1049 61.7648 30.1049L61.4886 30.1969L61.3045 29.7366L61.4886 30.1969L60.5682 30.6572ZM59.0954 95.1017C60.0159 95.1017 60.8443 95.3779 61.6727 95.7461L69.2207 99.2445L138.257 131.927C138.718 132.203 139.086 132.572 139.178 133.124V72.362C139.178 70.2445 137.889 68.2191 135.956 67.2985L59.6477 31.2096C59.3715 31.1176 59.0954 31.1176 58.9113 31.3017C58.7272 31.4858 58.6351 31.6699 58.6351 31.9461V92.9842C58.6351 93.6287 58.7272 94.3652 59.0954 95.1017ZM56.7021 143.527C55.9657 143.527 55.1373 143.343 54.4009 142.975L27.4306 130.27C26.8783 129.994 26.6021 129.533 26.6021 128.981C26.6021 128.429 26.9703 127.876 27.5226 127.692L43.6312 121.248C45.0119 120.695 46.5767 120.787 47.8654 121.34L74.8357 134.045C75.388 134.321 75.6642 134.781 75.6642 135.333C75.6642 135.886 75.296 136.438 74.7437 136.622L58.6351 143.067C58.0828 143.435 57.3464 143.527 56.7021 143.527ZM43.9994 122.076L27.8908 128.521C27.6147 128.613 27.6147 128.889 27.6147 128.981C27.6147 129.073 27.6147 129.349 27.8908 129.441L54.8611 142.146C55.9657 142.699 57.2544 142.699 58.359 142.238L74.4675 135.794C74.7437 135.702 74.7437 135.425 74.7437 135.333C74.7437 135.241 74.7437 134.965 74.4675 134.873L47.4972 122.168C46.3926 121.616 45.1039 121.616 43.9994 122.076Z" fill="#19181B"/>
<path d="M1110.2 164.425C1082.77 164.425 1060.4 142.054 1060.4 114.619C1060.4 87.1839 1082.77 64.8125 1110.2 64.8125C1137.63 64.8125 1160 87.1839 1160 114.619C1160 142.054 1137.63 164.425 1110.2 164.425ZM1110.2 65.7331C1083.23 65.7331 1061.32 87.6442 1061.32 114.619C1061.32 141.593 1083.23 163.505 1110.2 163.505C1137.17 163.505 1159.08 141.593 1159.08 114.619C1159.08 87.6442 1137.08 65.7331 1110.2 65.7331Z" fill="#19181B"/>
<path d="M1110.2 164.149C1104.03 164.149 1098.05 163.044 1092.25 160.835L1092.34 160.651L1092.25 160.835C1083.05 157.244 1075.13 151.076 1069.42 142.883C1063.62 134.505 1060.49 124.746 1060.49 114.527C1060.49 96.7587 1070.16 80.1873 1085.62 71.3492L1085.72 71.5334L1085.62 71.3492C1093.08 67.1143 1101.46 64.9048 1110.11 64.9048C1111.95 64.9048 1113.79 64.9969 1115.63 65.181C1129.07 66.654 1141.41 73.7429 1149.6 84.5143C1155.4 92.1556 1158.8 101.27 1159.54 110.844H1159.36H1159.54C1159.63 112.041 1159.63 113.33 1159.63 114.435C1159.63 126.864 1155.03 138.74 1146.65 147.854C1138.37 156.968 1127.05 162.584 1114.9 163.781C1113.42 164.149 1111.77 164.149 1110.2 164.149ZM1093.54 160.835C1098.88 162.768 1104.49 163.689 1110.2 163.689C1111.58 163.689 1112.87 163.597 1114.25 163.505C1109.37 161.203 1099.25 160.743 1093.54 160.835ZM1095.01 160.375C1101.18 160.375 1110.75 161.019 1114.99 163.505C1140.21 161.019 1159.26 140.029 1159.26 114.619C1159.26 113.606 1159.26 112.502 1159.17 111.305C1158.25 111.673 1156.5 112.133 1156.04 111.857C1155.95 111.765 1155.86 111.673 1155.86 111.489C1155.86 110.937 1155.3 108.635 1152.64 108.635C1152.08 108.635 1151.35 108.543 1151.16 108.083C1150.89 107.346 1152.08 106.333 1154.94 104.124C1155.58 103.571 1155.95 102.927 1155.95 102.19C1155.95 99.981 1153.37 97.2191 1151.81 95.9302C1150.15 94.5492 1149.41 88.1048 1149.23 84.8826C1141.41 74.5714 1129.62 67.7588 1116.92 65.9175C1117.66 66.3778 1118.3 67.2064 1118.3 68.3111C1118.3 68.9556 1119.04 69.2318 1120.33 69.6921C1122.08 70.2445 1124.38 71.073 1124.84 73.8349C1125.02 75.1238 1125.02 75.7683 1124.65 76.0445C1124.28 76.3207 1123.82 76.1365 1123.36 75.8603C1122.54 75.4921 1121.89 75.308 1121.43 76.0445C1120.79 77.0572 1119.68 76.873 1118.67 76.781C1117.84 76.6889 1117.1 76.5968 1116.64 77.0572C1116.28 77.3334 1116.09 77.8857 1116 78.7143C1115.72 81.7524 1112.23 82.7651 1109.1 83.7778C1107.72 84.1461 1106.52 84.6064 1105.6 85.0667H1105.51C1105.41 85.0667 1105.41 85.1587 1105.41 85.1587C1105.23 85.527 1105.78 86.7238 1106.15 87.5524C1106.7 88.7492 1107.07 89.4857 1106.89 89.946C1106.8 90.0381 1106.7 90.1302 1106.61 90.2222C1106.33 90.3143 1106.06 90.3143 1105.69 90.1302C1104.68 89.5778 1103.85 87.7365 1103.57 86.6318C1103.48 86.3556 1103.21 86.0794 1102.84 85.8953C1101.09 85.1588 1096.76 85.9873 1093.26 87.7365C1091.98 88.381 1091.24 89.1175 1090.96 90.1302C1090.5 91.7873 1091.52 93.7207 1092.71 95.654C1092.99 96.1143 1093.26 96.2984 1093.63 96.3905C1094.55 96.5746 1095.93 95.2857 1097.04 94.273C1097.77 93.5365 1098.6 92.8921 1099.25 92.5238C1099.98 92.1556 1100.26 92.4318 1100.44 92.6159C1101.09 93.5365 1099.71 96.8508 1097.87 98.6921C1097.5 99.0603 1097.5 99.2445 1097.5 99.2445C1097.59 99.5207 1099.06 99.3365 1099.71 99.3365C1101.09 99.2445 1101.73 99.1524 1101.82 99.6127C1101.92 99.8889 1101.64 100.257 1101.18 100.533C1100.72 100.902 1100.54 101.27 1100.81 101.73C1101.64 103.295 1106.52 105.044 1108.82 104.216C1111.95 103.203 1113.33 102.835 1118.85 103.203C1121.71 103.387 1123.36 104.584 1124.74 105.597C1126.03 106.61 1127.23 107.438 1129.07 107.254C1130.91 107.07 1132.57 107.714 1133.77 109.003C1134.96 110.292 1135.61 112.133 1135.42 113.698C1135.33 114.711 1137.17 115.171 1139.38 115.816C1142.6 116.737 1146.56 117.841 1147.39 121.156C1147.66 122.352 1147.66 123.181 1147.3 123.641C1146.84 124.194 1146.1 124.286 1145.36 124.378C1143.98 124.47 1142.6 124.654 1142.6 127.324C1142.6 130.73 1140.95 131.743 1139.66 132.479C1138.64 133.032 1137.82 133.492 1137.82 134.873C1137.82 137.451 1133.21 140.581 1129.9 142.883C1128.7 143.711 1127.6 144.448 1127.14 144.908C1125.39 146.657 1120.23 150.432 1118.76 150.432C1118.3 150.432 1118.03 151.26 1117.84 152.089C1117.47 153.286 1117.01 154.759 1115.63 154.575C1115.45 154.575 1115.17 154.483 1115.08 154.667C1114.9 154.943 1115.26 155.956 1115.91 156.968L1116.09 157.244L1115.82 157.337C1114.99 157.705 1112.59 157.981 1110.11 156.324C1108.08 154.943 1109.37 152.273 1110.85 149.143C1111.77 147.21 1112.78 145.092 1113.05 143.067C1113.24 141.778 1113.79 140.397 1114.34 139.016C1115.08 137.175 1115.82 135.333 1115.36 134.321C1115.08 133.86 1114.62 133.584 1113.97 133.4C1109.74 132.295 1104.59 120.695 1104.59 118.394C1104.59 116.368 1106.24 111.397 1108.18 110.66C1108.82 110.384 1109.28 109.648 1109.1 108.911C1108.82 107.714 1107.26 106.978 1104.77 106.978C1101.64 106.978 1100.9 105.413 1100.35 104.124C1099.89 103.019 1099.52 102.19 1097.96 102.19C1095.66 102.19 1095.2 101.086 1094.83 100.073C1094.55 99.3365 1094.37 98.6921 1093.36 98.4159C1092.62 98.2318 1091.88 98.2318 1091.15 98.3238C1089.49 98.4159 1087.65 98.6 1085.72 95.9302C1085.26 95.3778 1084.89 94.8254 1084.61 94.3651C1082.95 92.0635 1082.68 91.6953 1081.02 90.8667C1080.47 90.5905 1080.1 89.7619 1079.92 88.5651C1079.55 85.4349 1080.65 79.9111 1082.31 78.5302C1083.69 77.3334 1084.98 74.1111 1085.53 72.2699C1070.44 81.0159 1061.14 97.3111 1061.14 114.711C1061.14 134.873 1073.75 153.194 1092.44 160.559C1093.17 160.375 1094 160.375 1095.01 160.375ZM1092.16 97.7714C1092.62 97.7714 1092.99 97.7714 1093.45 97.9556C1094.55 98.3238 1094.92 99.1524 1095.2 99.8889C1095.57 100.902 1095.84 101.73 1097.87 101.73C1099.71 101.73 1100.26 102.835 1100.72 103.94C1101.27 105.229 1101.92 106.517 1104.77 106.517C1108.73 106.517 1109.37 108.267 1109.46 108.819C1109.65 109.74 1109.1 110.752 1108.27 111.029C1106.7 111.673 1104.95 116.276 1104.95 118.394C1104.95 120.511 1110.11 131.927 1114.07 132.94C1114.9 133.124 1115.45 133.584 1115.82 134.137C1116.46 135.425 1115.63 137.267 1114.9 139.292C1114.34 140.581 1113.79 141.962 1113.61 143.159C1113.33 145.276 1112.23 147.486 1111.31 149.419C1109.92 152.365 1108.73 154.851 1110.39 155.956C1112.5 157.337 1114.44 157.337 1115.36 157.06C1114.99 156.416 1114.25 155.127 1114.71 154.483C1114.9 154.206 1115.26 154.114 1115.72 154.206C1116.64 154.39 1117.01 153.378 1117.38 152.089C1117.66 151.076 1118.03 150.063 1118.76 150.063C1119.96 150.063 1125.02 146.473 1126.86 144.632C1127.32 144.171 1128.43 143.435 1129.72 142.514C1132.75 140.397 1137.45 137.175 1137.45 134.873C1137.45 133.216 1138.46 132.664 1139.47 132.111C1140.76 131.375 1142.23 130.546 1142.23 127.324C1142.23 124.194 1143.98 124.01 1145.36 123.917C1146.1 123.825 1146.74 123.825 1147.02 123.365C1147.3 122.997 1147.3 122.26 1147.02 121.248C1146.28 118.21 1142.42 117.105 1139.29 116.276C1136.8 115.54 1134.78 114.987 1134.96 113.606C1135.15 112.225 1134.5 110.476 1133.4 109.279C1132.29 108.083 1130.73 107.53 1129.07 107.622C1126.95 107.806 1125.76 106.886 1124.38 105.873C1123 104.86 1121.52 103.664 1118.76 103.571C1113.33 103.203 1111.95 103.571 1108.91 104.584C1106.43 105.413 1101.27 103.756 1100.35 101.822C1099.98 101.178 1100.17 100.533 1100.9 99.981C1101.18 99.7968 1101.27 99.7048 1101.36 99.6127C1101.09 99.5206 1100.26 99.6127 1099.71 99.7048C1098.23 99.7968 1097.22 99.8889 1097.04 99.4286C1096.85 99.0603 1097.22 98.6921 1097.5 98.4159C1099.34 96.5746 1100.54 93.5365 1100.08 92.8921C1099.98 92.708 1099.71 92.8 1099.52 92.9841C1098.88 93.2603 1098.23 93.9048 1097.41 94.6413C1096.12 95.8381 1094.74 97.0349 1093.63 96.9429C1093.17 96.8508 1092.71 96.5746 1092.34 96.0222C1091.15 94.0889 1090.04 91.9714 1090.59 90.1302C1090.87 89.0254 1091.79 88.1048 1093.17 87.4603C1096.3 85.8953 1101 84.6984 1103.11 85.6191C1103.67 85.8032 1103.94 86.1714 1104.13 86.6318C1104.68 88.2889 1105.41 89.5778 1106.06 89.854C1106.24 89.946 1106.43 89.946 1106.61 89.946C1106.8 89.6699 1106.24 88.6572 1105.97 87.9207C1105.41 86.8159 1104.95 85.7111 1105.23 85.1587C1105.32 84.9746 1105.41 84.8826 1105.6 84.7905C1106.52 84.2381 1107.81 83.8699 1109.19 83.5016C1112.32 82.581 1115.54 81.5683 1115.72 78.8984C1115.82 77.9778 1116.09 77.3334 1116.55 76.9651C1117.2 76.4127 1118.03 76.5048 1118.95 76.5968C1119.87 76.6889 1120.79 76.781 1121.34 76.0445C1122.08 74.9397 1123.09 75.4 1123.82 75.6762C1124.19 75.8603 1124.56 75.9524 1124.65 75.8603C1124.74 75.7683 1124.93 75.4 1124.65 74.1111C1124.28 71.6254 1122.17 70.8889 1120.51 70.3365C1119.22 69.8762 1118.21 69.6 1118.21 68.5873C1118.21 67.1143 1116.74 66.2857 1116 66.0095C1114.25 65.8254 1112.41 65.7334 1110.57 65.7334C1102.1 65.7334 1093.72 67.9429 1086.45 72.0857C1085.99 73.927 1084.61 77.7016 1082.95 79.0826C1081.57 80.2794 1080.38 85.527 1080.75 88.7492C1080.84 89.7619 1081.21 90.4984 1081.57 90.6826C1083.32 91.6032 1083.69 91.9714 1085.35 94.3651C1085.62 94.8254 1085.99 95.2857 1086.45 95.9302C1088.2 98.4159 1089.77 98.2318 1091.52 98.1397C1091.42 97.7714 1091.79 97.7714 1092.16 97.7714ZM1149.78 85.527C1150.06 89.2095 1150.79 94.4572 1152.18 95.5619C1152.64 95.9302 1156.5 99.2445 1156.41 102.19C1156.41 103.111 1155.95 103.848 1155.21 104.492C1153.83 105.597 1151.44 107.438 1151.62 107.99C1151.62 107.99 1151.72 108.267 1152.64 108.267C1155.67 108.267 1156.32 110.937 1156.32 111.581C1156.5 111.673 1157.7 111.397 1159.17 110.937C1158.43 101.638 1155.21 92.8921 1149.78 85.527ZM1083.97 112.502C1083.88 112.502 1083.78 112.502 1083.69 112.502H1083.6L1083.51 112.41C1083.41 112.225 1082.86 111.489 1083.05 111.029C1083.14 110.844 1083.32 110.752 1083.69 110.752C1084.06 110.752 1084.43 110.937 1084.61 111.305C1084.8 111.673 1084.7 112.041 1084.52 112.317C1084.52 112.317 1084.34 112.502 1083.97 112.502ZM1083.88 111.949C1083.97 111.949 1084.15 111.949 1084.24 111.857C1084.34 111.765 1084.34 111.489 1084.24 111.305C1084.15 111.213 1084.06 111.029 1083.78 111.029C1083.69 111.029 1083.6 111.029 1083.6 111.121C1083.51 111.213 1083.69 111.673 1083.88 111.949ZM1066.11 104.308H1066.02C1065.19 104.124 1065.65 100.349 1065.74 99.6127C1066.02 97.8635 1066.57 94.8254 1067.67 94.8254C1069.52 94.8254 1070.99 97.5873 1071.36 99.1524C1071.45 99.4286 1071.36 99.7048 1071.26 99.8889C1071.08 100.165 1070.8 100.165 1070.44 100.257C1069.61 100.349 1068.13 100.625 1066.94 103.479C1066.66 103.848 1066.39 104.308 1066.11 104.308ZM1067.67 95.2857C1067.58 95.2857 1067.4 95.3778 1067.12 96.0222C1066.2 98.1397 1065.83 103.019 1066.11 103.756C1066.2 103.664 1066.29 103.479 1066.39 103.203C1067.67 100.165 1069.33 99.8889 1070.25 99.7048C1070.53 99.7048 1070.71 99.6127 1070.8 99.5206C1070.8 99.5206 1070.9 99.4286 1070.8 99.1524C1070.62 97.8635 1069.24 95.2857 1067.67 95.2857ZM1121.62 101.638C1121.43 101.638 1121.25 101.546 1120.97 101.362C1120.23 100.81 1119.87 100.073 1120.05 99.5206C1120.14 99.1524 1120.6 98.8762 1121.15 98.8762C1121.62 98.8762 1121.98 99.2445 1122.17 99.8889C1122.35 100.441 1122.35 101.178 1121.98 101.546C1121.89 101.638 1121.8 101.638 1121.62 101.638ZM1121.15 99.4286C1120.79 99.4286 1120.6 99.5207 1120.51 99.7968C1120.42 100.073 1120.6 100.533 1121.34 101.086C1121.52 101.178 1121.71 101.27 1121.71 101.27C1121.8 101.178 1121.89 100.717 1121.71 100.165C1121.52 99.7048 1121.34 99.4286 1121.15 99.4286ZM1113.79 95.5619C1113.51 95.5619 1113.24 95.5619 1113.05 95.4699C1112.78 95.3778 1112.69 95.1937 1112.69 95.1016C1112.69 94.5492 1113.7 94.181 1114.34 94.0889C1114.53 93.9968 1116.55 93.6286 1116.92 94.3651C1117.01 94.5492 1117.01 94.7334 1116.83 94.8254C1116.37 95.1937 1114.8 95.5619 1113.79 95.5619ZM1113.15 95.0095C1113.33 95.1016 1114.07 95.1937 1115.08 94.9175C1116.09 94.7333 1116.46 94.4572 1116.46 94.3651C1116.46 94.273 1116 94.181 1115.17 94.273C1114.07 94.4572 1113.24 94.8254 1113.15 95.0095ZM1109.1 95.2857C1107.07 95.2857 1101.92 93.7206 1101.92 92.708C1101.92 92.2476 1102.65 92.1556 1102.93 92.1556C1103.21 92.1556 1103.48 92.0635 1103.67 92.0635C1105.51 91.7873 1106.33 91.6032 1108.82 92.8921C1110.94 93.9048 1111.31 94.3651 1111.21 94.8254C1111.12 95.1016 1110.57 95.2857 1109.1 95.2857ZM1105.51 92.2476C1104.95 92.2476 1104.49 92.3397 1103.76 92.4318C1103.48 92.4318 1103.3 92.5238 1103.02 92.5238C1102.47 92.6159 1102.38 92.708 1102.38 92.708C1102.56 93.2603 1106.89 94.8254 1109.1 94.8254C1110.57 94.8254 1110.75 94.6413 1110.75 94.5492C1110.75 94.4572 1110.66 94.181 1108.64 93.1683C1107.26 92.4318 1106.33 92.2476 1105.51 92.2476ZM1133.58 74.0191C1131.74 74.0191 1129.26 73.6508 1128.15 72.9143L1127.87 72.7302L1128.06 72.5461C1128.61 71.9937 1130.45 71.3492 1134.13 72.454C1135.33 72.8222 1135.61 73.0984 1135.61 73.2826C1135.61 73.3746 1135.61 73.5588 1135.42 73.6508C1135.24 73.927 1134.5 74.0191 1133.58 74.0191ZM1128.79 72.7302C1130.45 73.5588 1134.5 73.7429 1135.24 73.3746C1135.15 73.2826 1134.87 73.1905 1134.13 72.9143C1131.1 72.0857 1129.44 72.454 1128.79 72.7302Z" fill="#19181B"/>
<path d="M1125.94 157.797C1125.21 157.797 1124.56 157.152 1124.56 156.416C1124.56 155.679 1125.21 155.035 1125.94 155.035C1126.68 155.035 1127.32 155.679 1127.32 156.416C1127.32 157.152 1126.68 157.797 1125.94 157.797ZM1125.94 155.495C1125.48 155.495 1125.02 155.863 1125.02 156.416C1125.02 156.968 1125.39 157.336 1125.94 157.336C1126.49 157.336 1126.86 156.968 1126.86 156.416C1126.86 155.863 1126.4 155.495 1125.94 155.495ZM1086.18 144.724C1085.44 144.724 1084.8 144.079 1084.8 143.343C1084.8 142.606 1085.44 141.962 1086.18 141.962C1086.91 141.962 1087.56 142.606 1087.56 143.343C1087.56 144.171 1086.91 144.724 1086.18 144.724ZM1086.18 142.514C1085.72 142.514 1085.26 142.882 1085.26 143.435C1085.26 143.895 1085.62 144.355 1086.18 144.355C1086.73 144.355 1087.1 143.987 1087.1 143.435C1087.1 142.882 1086.64 142.514 1086.18 142.514ZM1123.18 126.219C1122.44 126.219 1121.8 125.575 1121.8 124.838C1121.8 124.102 1122.44 123.457 1123.18 123.457C1123.92 123.457 1124.56 124.102 1124.56 124.838C1124.56 125.575 1123.92 126.219 1123.18 126.219ZM1123.18 124.009C1122.72 124.009 1122.26 124.378 1122.26 124.93C1122.26 125.482 1122.63 125.851 1123.18 125.851C1123.73 125.851 1124.1 125.482 1124.1 124.93C1124.1 124.378 1123.64 124.009 1123.18 124.009ZM1092.99 113.238C1092.25 113.238 1091.61 112.594 1091.61 111.857C1091.61 111.121 1092.25 110.476 1092.99 110.476C1093.72 110.476 1094.37 111.121 1094.37 111.857C1094.37 112.594 1093.82 113.238 1092.99 113.238ZM1092.99 110.936C1092.53 110.936 1092.07 111.305 1092.07 111.857C1092.07 112.409 1092.44 112.778 1092.99 112.778C1093.54 112.778 1093.91 112.409 1093.91 111.857C1093.91 111.305 1093.54 110.936 1092.99 110.936ZM1156.78 109.095C1156.04 109.095 1155.4 108.451 1155.4 107.714C1155.4 106.978 1156.04 106.333 1156.78 106.333C1157.51 106.333 1158.16 106.978 1158.16 107.714C1158.16 108.451 1157.51 109.095 1156.78 109.095ZM1156.78 106.794C1156.32 106.794 1155.86 107.162 1155.86 107.714C1155.86 108.267 1156.23 108.635 1156.78 108.635C1157.33 108.635 1157.7 108.267 1157.7 107.714C1157.7 107.162 1157.24 106.794 1156.78 106.794ZM1068.6 99.6126C1067.86 99.6126 1067.21 98.9682 1067.21 98.2317C1067.21 97.4952 1067.86 96.8507 1068.6 96.8507C1069.33 96.8507 1069.98 97.4952 1069.98 98.2317C1069.98 99.0602 1069.42 99.6126 1068.6 99.6126ZM1068.6 97.4031C1068.14 97.4031 1067.68 97.7713 1067.68 98.3237C1067.68 98.784 1068.04 99.2444 1068.6 99.2444C1069.15 99.2444 1069.52 98.8761 1069.52 98.3237C1069.52 97.7713 1069.15 97.4031 1068.6 97.4031ZM1088.94 85.8031C1088.2 85.8031 1087.56 85.1586 1087.56 84.4221C1087.56 83.6856 1088.2 83.0412 1088.94 83.0412C1089.67 83.0412 1090.32 83.6856 1090.32 84.4221C1090.32 85.1586 1089.67 85.8031 1088.94 85.8031ZM1088.94 83.5015C1088.48 83.5015 1088.02 83.8698 1088.02 84.4221C1088.02 84.8825 1088.39 85.3428 1088.94 85.3428C1089.49 85.3428 1089.86 84.9745 1089.86 84.4221C1089.86 83.9618 1089.4 83.5015 1088.94 83.5015ZM1104.03 82.3967C1103.3 82.3967 1102.65 81.7523 1102.65 81.0158C1102.65 80.2793 1103.3 79.6348 1104.03 79.6348C1104.77 79.6348 1105.42 80.2793 1105.42 81.0158C1105.42 81.7523 1104.77 82.3967 1104.03 82.3967ZM1104.03 80.0952C1103.57 80.0952 1103.11 80.4634 1103.11 81.0158C1103.11 81.5682 1103.48 81.9364 1104.03 81.9364C1104.59 81.9364 1104.95 81.5682 1104.95 81.0158C1104.95 80.4634 1104.49 80.0952 1104.03 80.0952ZM1095.75 72.0856C1095.01 72.0856 1094.37 71.4412 1094.37 70.7047C1094.37 69.9682 1095.01 69.3237 1095.75 69.3237C1096.49 69.3237 1097.13 69.9682 1097.13 70.7047C1097.13 71.4412 1096.49 72.0856 1095.75 72.0856ZM1095.75 69.784C1095.29 69.784 1094.83 70.1523 1094.83 70.7047C1094.83 71.2571 1095.2 71.6253 1095.75 71.6253C1096.21 71.6253 1096.67 71.2571 1096.67 70.7047C1096.67 70.1523 1096.3 69.784 1095.75 69.784Z" fill="#19181B"/>
<path d="M87.3542 90.6825L82.6597 88.565L82.8438 69.2317L79.0698 72.0857L76.4004 67.4825L83.4882 62.2349L87.6304 64.0761L87.3542 90.6825Z" fill="#19181B"/>
<path d="M102.45 98.0477C99.0442 96.4827 96.2827 93.9969 94.0735 90.4065C91.8643 86.816 90.7598 83.0414 90.7598 78.9906C90.7598 74.9398 91.9564 72.1779 94.2576 70.6128C96.5588 69.0477 99.3203 69.0477 102.726 70.5208C106.868 72.362 109.906 75.9525 111.931 81.2001L107.881 81.7525C107.421 80.3716 106.684 79.1747 105.764 77.9779C104.843 76.7811 103.831 75.9525 102.726 75.4922C100.701 74.5716 99.0442 74.6636 97.7555 75.6763C96.4668 76.7811 95.7304 78.5303 95.7304 81.1081C95.7304 83.5938 96.3747 85.9874 97.6634 88.289C98.9521 90.4985 100.609 92.0636 102.634 92.9842C103.739 93.4446 104.751 93.6287 105.672 93.2604C106.592 92.9842 107.329 92.3398 107.881 91.4192L111.931 95.562C109.63 99.0604 106.5 99.889 102.45 98.0477Z" fill="#19181B"/>
<path d="M337.831 148.981H214.393V51.3936H337.831V148.981ZM215.314 148.06H336.91V52.3142H215.314V148.06Z" fill="#19181B"/>
<path d="M252.318 62.5332H247.071V63.4538H252.318V62.5332Z" fill="#19181B"/>
<path d="M303.313 65.6636H247.071V66.5842H303.313V65.6636Z" fill="#19181B"/>
<path d="M303.313 67.873H247.071V68.7937H303.313V67.873Z" fill="#19181B"/>
<path d="M303.313 133.606H247.071V134.527H303.313V133.606Z" fill="#19181B"/>
<path d="M303.313 136.092H247.071V137.013H303.313V136.092Z" fill="#19181B"/>
<path d="M303.313 138.486H247.071V139.406H303.313V138.486Z" fill="#19181B"/>
<path d="M303.313 70.3589H247.071V71.2795H303.313V70.3589Z" fill="#19181B"/>
<path d="M303.22 90.9808H246.61V74.6855H303.22V90.9808ZM247.531 90.0602H302.3V75.6062H247.531V90.0602Z" fill="#19181B"/>
<path d="M302.76 79.749H247.071V80.6697H302.76V79.749Z" fill="#19181B"/>
<path d="M302.76 84.9048H247.071V85.8254H302.76V84.9048Z" fill="#19181B"/>
<path d="M261.523 75.146H260.602V90.6127H261.523V75.146Z" fill="#19181B"/>
<path d="M275.422 75.146H274.501V90.6127H275.422V75.146Z" fill="#19181B"/>
<path d="M289.414 75.146H288.493V90.6127H289.414V75.146Z" fill="#19181B"/>
<path d="M252.318 93.4668H247.071V94.3874H252.318V93.4668Z" fill="#19181B"/>
<path d="M252.318 96.5049H247.071V97.4255H252.318V96.5049Z" fill="#19181B"/>
<path d="M252.318 99.7271H247.071V100.648H252.318V99.7271Z" fill="#19181B"/>
<path d="M252.318 102.949H247.071V103.87H252.318V102.949Z" fill="#19181B"/>
<path d="M303.312 96.5049H255.171V97.4255H303.312V96.5049Z" fill="#19181B"/>
<path d="M303.312 99.7271H255.171V100.648H303.312V99.7271Z" fill="#19181B"/>
<path d="M303.312 102.949H255.171V103.87H303.312V102.949Z" fill="#19181B"/>
<path d="M254.252 96.5049H253.33V97.4263H254.252V96.5049Z" fill="#19181B"/>
<path d="M254.252 99.7271H253.33V100.648H254.252V99.7271Z" fill="#19181B"/>
<path d="M254.252 102.949H253.33V103.871H254.252V102.949Z" fill="#19181B"/>
<path d="M247.715 128.267L246.887 127.898C251.029 118.6 254.527 114.273 257.656 114.641C258.577 114.733 259.221 115.286 259.958 115.838C260.878 116.482 261.891 117.311 263.64 117.771C264.56 118.048 267.23 118.692 269.807 117.587C271.372 116.943 271.924 115.93 272.66 114.825C273.305 113.721 274.041 112.524 275.79 111.603C278.275 110.222 281.589 109.946 284.167 110.959C286.744 111.971 287.572 112.708 289.782 115.102L290.426 115.746C291.53 116.851 293.648 117.587 296.685 117.679H296.777C299.999 117.679 302.392 112.8 303.313 108.197L304.233 108.381C303.313 113.536 300.643 118.6 296.869 118.6H296.777C293.556 118.508 291.254 117.771 289.966 116.39L289.321 115.746C287.02 113.352 286.376 112.708 283.982 111.787C281.589 110.867 278.552 111.143 276.342 112.432C274.778 113.26 274.225 114.273 273.489 115.378C272.752 116.482 272.016 117.679 270.267 118.508C267.414 119.797 264.468 118.968 263.548 118.784C261.523 118.232 260.418 117.403 259.497 116.667C258.761 116.114 258.301 115.746 257.564 115.654C255.723 115.378 252.594 117.403 247.715 128.267Z" fill="#19181B"/>
<path d="M247.255 130.108C246.15 130.108 245.229 129.187 245.229 128.083C245.229 126.978 246.15 126.057 247.255 126.057C248.359 126.057 249.28 126.978 249.28 128.083C249.28 129.187 248.359 130.108 247.255 130.108ZM247.255 126.978C246.61 126.978 246.15 127.438 246.15 128.083C246.15 128.727 246.61 129.187 247.255 129.187C247.899 129.187 248.359 128.727 248.359 128.083C248.359 127.438 247.899 126.978 247.255 126.978Z" fill="#19181B"/>
<path d="M257.564 117.127C256.46 117.127 255.539 116.206 255.539 115.102C255.539 113.997 256.46 113.076 257.564 113.076C258.669 113.076 259.589 113.997 259.589 115.102C259.589 116.206 258.669 117.127 257.564 117.127ZM257.564 113.997C256.92 113.997 256.46 114.457 256.46 115.102C256.46 115.746 256.92 116.206 257.564 116.206C258.208 116.206 258.669 115.746 258.669 115.102C258.669 114.549 258.116 113.997 257.564 113.997Z" fill="#19181B"/>
<path d="M267.045 120.717C265.94 120.717 265.02 119.797 265.02 118.692C265.02 117.587 265.94 116.667 267.045 116.667C268.15 116.667 269.07 117.587 269.07 118.692C269.07 119.797 268.15 120.717 267.045 120.717ZM267.045 117.587C266.401 117.587 265.941 118.047 265.941 118.692C265.941 119.336 266.401 119.797 267.045 119.797C267.689 119.797 268.15 119.336 268.15 118.692C268.15 118.047 267.597 117.587 267.045 117.587Z" fill="#19181B"/>
<path d="M280.669 112.892C279.564 112.892 278.644 111.971 278.644 110.867C278.644 109.762 279.564 108.841 280.669 108.841C281.773 108.841 282.694 109.762 282.694 110.867C282.694 111.971 281.773 112.892 280.669 112.892ZM280.669 109.762C280.024 109.762 279.564 110.222 279.564 110.867C279.564 111.511 280.024 111.971 280.669 111.971C281.313 111.971 281.773 111.511 281.773 110.867C281.773 110.222 281.221 109.762 280.669 109.762Z" fill="#19181B"/>
<path d="M296.041 120.165C294.936 120.165 294.016 119.244 294.016 118.139C294.016 117.034 294.936 116.114 296.041 116.114C297.145 116.114 298.066 117.034 298.066 118.139C298.066 119.244 297.145 120.165 296.041 120.165ZM296.041 117.126C295.396 117.126 294.936 117.587 294.936 118.231C294.936 118.876 295.396 119.336 296.041 119.336C296.685 119.336 297.145 118.876 297.145 118.231C297.145 117.587 296.593 117.126 296.041 117.126Z" fill="#19181B"/>
<path d="M303.681 110.314C302.576 110.314 301.656 109.394 301.656 108.289C301.656 107.184 302.576 106.264 303.681 106.264C304.785 106.264 305.706 107.184 305.706 108.289C305.706 109.394 304.877 110.314 303.681 110.314ZM303.681 107.184C303.037 107.184 302.576 107.645 302.576 108.289C302.576 108.934 303.037 109.394 303.681 109.394C304.325 109.394 304.785 108.934 304.785 108.289C304.785 107.645 304.325 107.184 303.681 107.184Z" fill="#19181B"/>
<path d="M215.314 49H214.393V152.203H215.314V49Z" fill="#19181B"/>
<path d="M337.831 49H336.91V152.203H337.831V49Z" fill="#19181B"/>
<path d="M340.316 51.3936H212V52.3142H340.316V51.3936Z" fill="#19181B"/>
<path d="M340.316 148.061H212V148.981H340.316V148.061Z" fill="#19181B"/>
<path d="M855.364 88.5744C854.628 88.5744 853.891 88.4823 853.247 88.2982C850.117 87.3776 848 84.5236 848 81.2093C848 77.1585 851.314 73.8442 855.364 73.8442C857.205 73.8442 858.862 74.4887 860.242 75.6855C861.807 77.0665 862.82 79.0919 862.82 81.2093C862.728 85.2601 859.414 88.5744 855.364 88.5744ZM855.364 74.7649C851.774 74.7649 848.92 77.7109 848.92 81.2093C848.92 84.0633 850.854 86.6411 853.523 87.3776C854.075 87.5617 854.72 87.6538 855.364 87.6538C858.954 87.6538 861.807 84.7077 861.807 81.2093C861.807 79.368 860.979 77.5268 859.598 76.33C858.402 75.3173 856.929 74.7649 855.364 74.7649Z" fill="#19181B"/>
<path d="M897.246 64.7302C896.51 64.7302 895.773 64.6381 895.129 64.454C892.184 63.6254 890.066 60.9556 889.882 57.9175C889.882 57.7333 889.882 57.5492 889.882 57.3651C889.882 53.3143 893.196 50 897.246 50C899.087 50 900.744 50.6444 902.125 51.8413C903.69 53.2222 904.702 55.2476 904.702 57.3651C904.702 57.5492 904.702 57.7333 904.702 57.9175C904.242 61.7841 901.02 64.7302 897.246 64.7302ZM897.246 50.9206C893.656 50.9206 890.803 53.8667 890.803 57.3651C890.803 57.5492 890.803 57.6413 890.803 57.8254C890.987 60.4952 892.828 62.7968 895.405 63.6254C895.958 63.8095 896.602 63.9016 897.246 63.9016C900.56 63.9016 903.413 61.2317 903.69 57.9175C903.69 57.7333 903.69 57.5492 903.69 57.4571C903.69 55.6159 902.861 53.7746 901.481 52.5778C900.284 51.473 898.811 50.9206 897.246 50.9206Z" fill="#19181B"/>
<path d="M923.204 73.4762C922.467 73.4762 921.731 73.3842 921.087 73.2C917.957 72.2794 915.84 69.4254 915.84 66.1112C915.84 64.5461 916.3 63.0731 917.221 61.7842C918.601 59.8509 920.81 58.7461 923.204 58.7461C925.045 58.7461 926.702 59.3905 928.082 60.5874C929.647 61.9683 930.66 63.9937 930.66 66.1112C930.66 67.4921 930.292 68.9651 929.463 70.162C927.99 72.1874 925.689 73.4762 923.204 73.4762ZM923.204 59.5747C921.087 59.5747 919.154 60.5874 917.957 62.2445C917.129 63.3493 916.76 64.6382 916.76 66.0191C916.76 68.8731 918.693 71.4508 921.363 72.1874C921.915 72.3715 922.559 72.4635 923.204 72.4635C925.413 72.4635 927.438 71.3588 928.635 69.5175C929.279 68.5048 929.647 67.2159 929.647 66.0191C929.647 64.1778 928.819 62.3366 927.438 61.1397C926.241 60.127 924.769 59.5747 923.204 59.5747Z" fill="#19181B"/>
<path d="M876.811 107.816C872.761 107.816 869.447 104.502 869.447 100.451C869.447 96.4002 872.761 93.0859 876.811 93.0859C880.861 93.0859 884.175 96.4002 884.175 100.451C884.175 104.502 880.861 107.816 876.811 107.816ZM876.811 94.0066C873.221 94.0066 870.368 96.9526 870.368 100.451C870.368 104.041 873.313 106.895 876.811 106.895C880.309 106.895 883.255 103.949 883.255 100.451C883.255 96.8605 880.401 94.0066 876.811 94.0066Z" fill="#19181B"/>
<path d="M901.388 91.5207C897.338 91.5207 894.024 88.2064 894.024 84.1556C894.024 80.1048 897.338 76.7905 901.388 76.7905C905.439 76.7905 908.752 80.1048 908.752 84.1556C908.752 88.2064 905.531 91.5207 901.388 91.5207ZM901.388 77.7112C897.798 77.7112 894.945 80.6572 894.945 84.1556C894.945 87.7461 897.89 90.6 901.388 90.6C904.886 90.6 907.832 87.654 907.832 84.1556C907.924 80.5651 904.978 77.7112 901.388 77.7112Z" fill="#19181B"/>
<path d="M919.798 109.657C915.748 109.657 912.434 106.343 912.434 102.292C912.434 98.2415 915.748 94.9272 919.798 94.9272C923.848 94.9272 927.162 98.2415 927.162 102.292C927.162 106.343 923.848 109.657 919.798 109.657ZM919.798 95.8479C916.208 95.8479 913.355 98.7939 913.355 102.292C913.355 105.883 916.3 108.737 919.798 108.737C923.296 108.737 926.241 105.791 926.241 102.292C926.241 98.7018 923.388 95.8479 919.798 95.8479Z" fill="#19181B"/>
<path d="M892.92 127.425C888.87 127.425 885.556 124.111 885.556 120.06C885.556 116.01 888.87 112.695 892.92 112.695C896.97 112.695 900.284 116.01 900.284 120.06C900.284 124.111 897.062 127.425 892.92 127.425ZM892.92 113.524C889.33 113.524 886.477 116.47 886.477 119.968C886.477 123.559 889.422 126.413 892.92 126.413C896.418 126.413 899.363 123.467 899.363 119.968C899.455 116.47 896.51 113.524 892.92 113.524Z" fill="#19181B"/>
<path d="M855.364 127.425C851.314 127.425 848 124.111 848 120.06C848 117.575 849.289 115.181 851.406 113.892C852.602 113.156 853.983 112.695 855.456 112.695C859.506 112.695 862.82 116.01 862.82 120.06C862.82 123.651 860.15 126.873 856.561 127.333C856.1 127.333 855.732 127.425 855.364 127.425ZM855.364 113.524C854.075 113.524 852.879 113.892 851.866 114.537C850.025 115.733 848.92 117.759 848.92 119.968C848.92 123.559 851.866 126.413 855.364 126.413C855.732 126.413 856.008 126.413 856.376 126.321C859.506 125.86 861.899 123.098 861.899 119.968C861.807 116.47 858.862 113.524 855.364 113.524Z" fill="#19181B"/>
<path d="M874.878 149.245C870.828 149.245 867.514 145.93 867.514 141.88C867.514 141.511 867.514 141.051 867.606 140.591C868.251 137 871.288 134.422 874.878 134.422C878.928 134.422 882.242 137.737 882.242 141.787C882.242 144.089 881.229 146.206 879.48 147.587C878.192 148.6 876.535 149.245 874.878 149.245ZM874.878 135.343C871.748 135.343 869.079 137.553 868.527 140.683C868.435 141.051 868.435 141.419 868.435 141.787C868.435 145.378 871.38 148.232 874.878 148.232C876.351 148.232 877.732 147.772 878.928 146.851C880.493 145.654 881.413 143.813 881.413 141.787C881.321 138.289 878.468 135.343 874.878 135.343Z" fill="#19181B"/>
<path d="M917.681 149.244C916.3 149.244 914.919 148.876 913.815 148.14C911.606 146.759 910.317 144.457 910.317 141.879C910.317 137.828 913.631 134.514 917.681 134.514C921.731 134.514 925.045 137.828 925.045 141.879C925.045 141.971 925.045 141.971 925.045 142.063C924.953 146.022 921.731 149.244 917.681 149.244ZM917.681 135.343C914.091 135.343 911.237 138.289 911.237 141.787C911.237 144.089 912.342 146.114 914.275 147.311C915.288 147.955 916.484 148.232 917.681 148.232C921.271 148.232 924.032 145.47 924.124 141.879V141.787C924.124 138.289 921.271 135.343 917.681 135.343Z" fill="#19181B"/>
<path d="M938.944 129.727C938.116 129.727 937.379 129.635 936.643 129.358C933.605 128.346 931.488 125.584 931.488 122.362C931.488 118.311 934.802 114.997 938.852 114.997C940.141 114.997 941.43 115.365 942.534 116.009C944.835 117.298 946.308 119.784 946.308 122.454C946.308 126.412 942.994 129.727 938.944 129.727ZM938.944 115.825C935.354 115.825 932.501 118.771 932.501 122.27C932.501 125.124 934.342 127.609 937.011 128.438C937.656 128.622 938.3 128.714 938.944 128.714C942.534 128.714 945.388 125.768 945.388 122.27C945.388 119.968 944.099 117.758 942.074 116.654C941.153 116.193 940.049 115.825 938.944 115.825Z" fill="#19181B"/>
<path d="M897.154 151.27C890.803 151.27 884.728 150.073 878.928 147.587L878.192 147.311L878.836 146.851C880.401 145.654 881.322 143.813 881.322 141.787C881.322 138.197 878.376 135.343 874.878 135.343C871.749 135.343 869.079 137.553 868.527 140.683L868.435 141.419L867.791 140.959C863.004 137.092 858.954 132.397 856.008 127.057L855.64 126.505L856.284 126.413C859.414 125.953 861.715 123.191 861.715 120.06C861.715 116.47 858.862 113.616 855.272 113.616C853.983 113.616 852.787 113.984 851.774 114.629L851.222 114.997L851.038 114.353C850.301 111.038 849.933 107.54 849.933 104.133C849.933 98.5176 850.946 92.9938 852.879 87.7462L853.063 87.3779L853.523 87.47C854.075 87.6541 854.72 87.7462 855.364 87.7462C858.954 87.7462 861.807 84.8002 861.807 81.3017C861.807 79.4605 860.979 77.6192 859.598 76.4224L859.23 76.1462L859.506 75.7779C867.054 65.743 877.916 59.2986 890.25 57.4573L890.711 57.3652V57.8256C890.895 60.4954 892.736 62.797 895.313 63.5335C895.865 63.7176 896.51 63.8097 897.154 63.8097C900.468 63.8097 903.321 61.1398 903.598 57.8256V57.3652L904.058 57.4573C908.752 58.1938 913.355 59.5748 917.681 61.6002L918.141 61.8763L917.865 62.3367C917.037 63.4414 916.669 64.7303 916.669 66.1113C916.669 68.9652 918.602 71.543 921.271 72.2795C921.823 72.4636 922.468 72.5557 923.112 72.5557C925.321 72.5557 927.346 71.451 928.543 69.6097L928.819 69.1494L929.187 69.5176C938.76 78.4478 944.283 91.0605 944.283 104.133C944.283 108.276 943.731 112.419 942.626 116.47L942.442 117.022L942.074 116.746C941.154 116.194 940.049 115.918 938.852 115.918C935.262 115.918 932.409 118.864 932.409 122.362C932.409 125.216 934.25 127.702 936.919 128.53L937.472 128.714L937.195 129.175C933.974 134.33 929.831 138.749 924.861 142.34L923.756 143.168L924.216 141.787C924.216 138.197 921.271 135.343 917.773 135.343C914.183 135.343 911.33 138.289 911.33 141.787C911.33 144.089 912.434 146.114 914.367 147.311L915.196 147.772L914.367 148.14C908.752 150.257 903.045 151.27 897.154 151.27ZM880.033 147.127C885.464 149.337 891.263 150.441 897.154 150.441C902.585 150.441 907.924 149.521 912.987 147.68C911.238 146.299 910.225 144.181 910.225 141.88C910.225 137.829 913.539 134.514 917.589 134.514C921.363 134.514 924.585 137.46 924.953 141.143C929.371 137.829 933.053 133.87 935.999 129.267C933.237 128.162 931.396 125.492 931.396 122.454C931.396 118.403 934.71 115.089 938.76 115.089C939.865 115.089 940.877 115.365 941.89 115.826C942.81 112.051 943.363 108.184 943.363 104.318C943.363 91.6129 938.116 79.4605 928.911 70.7144C927.53 72.5557 925.321 73.6605 923.02 73.6605C922.283 73.6605 921.547 73.5684 920.903 73.3843C917.773 72.4636 915.656 69.6097 915.656 66.2954C915.656 64.9144 916.024 63.6256 916.761 62.4287C912.802 60.5875 908.66 59.2986 904.426 58.6541C903.874 62.2446 900.836 65.0065 897.154 65.0065C896.418 65.0065 895.681 64.9144 895.037 64.7303C892.276 63.9017 890.25 61.5081 889.79 58.6541C878.008 60.4954 867.606 66.7557 860.335 76.2382C861.715 77.6192 862.544 79.5525 862.544 81.4859C862.544 85.5367 859.23 88.8509 855.18 88.8509C854.628 88.8509 854.075 88.7589 853.523 88.6668C851.682 93.7303 850.762 98.9779 850.762 104.318C850.762 107.448 851.038 110.578 851.682 113.708C852.787 113.156 853.891 112.88 855.088 112.88C859.138 112.88 862.452 116.194 862.452 120.245C862.452 123.651 860.058 126.597 856.837 127.426C859.598 132.213 863.188 136.54 867.514 140.038C868.435 136.908 871.288 134.699 874.602 134.699C878.652 134.699 881.966 138.013 881.966 142.064C882.242 143.813 881.414 145.746 880.033 147.127Z" fill="#19181B"/>
<path d="M886.016 119.508H862.268V120.428H886.016V119.508Z" fill="#19181B"/>
<path d="M912.894 102.752H895.865L880.125 81.6697H862.268V80.749H880.585L896.326 101.832H912.894V102.752Z" fill="#19181B"/>
<path d="M918.878 83.6953H908.384V84.616H918.878V83.6953Z" fill="#19181B"/>
<path d="M900.099 142.247H881.782V141.327H899.639L913.354 121.901H932.04V122.822H913.815L900.099 142.247Z" fill="#19181B"/>
<path d="M871.749 76.1459C870.736 76.1459 869.908 75.3173 869.908 74.3046C869.908 73.2919 870.736 72.4634 871.749 72.4634C872.761 72.4634 873.59 73.2919 873.59 74.3046C873.59 75.3173 872.761 76.1459 871.749 76.1459ZM871.749 73.384C871.288 73.384 870.828 73.7523 870.828 74.3046C870.828 74.857 871.196 75.2253 871.749 75.2253C872.301 75.2253 872.669 74.857 872.669 74.3046C872.669 73.7523 872.301 73.384 871.749 73.384Z" fill="#19181B"/>
<path d="M878.192 76.1459C877.18 76.1459 876.351 75.3173 876.351 74.3046C876.351 73.2919 877.18 72.4634 878.192 72.4634C879.205 72.4634 880.033 73.2919 880.033 74.3046C880.033 75.3173 879.205 76.1459 878.192 76.1459ZM878.192 73.384C877.732 73.384 877.272 73.7523 877.272 74.3046C877.272 74.857 877.64 75.2253 878.192 75.2253C878.744 75.2253 879.113 74.857 879.113 74.3046C879.113 73.7523 878.652 73.384 878.192 73.384Z" fill="#19181B"/>
<path d="M873.13 115.826C872.117 115.826 871.289 114.997 871.289 113.984C871.289 112.972 872.117 112.143 873.13 112.143C874.142 112.143 874.971 112.972 874.971 113.984C874.971 115.089 874.142 115.826 873.13 115.826ZM873.13 113.156C872.669 113.156 872.209 113.524 872.209 114.076C872.209 114.629 872.577 114.997 873.13 114.997C873.682 114.997 874.05 114.629 874.05 114.076C874.05 113.524 873.682 113.156 873.13 113.156Z" fill="#19181B"/>
<path d="M879.573 115.826C878.56 115.826 877.732 114.997 877.732 113.984C877.732 112.972 878.56 112.143 879.573 112.143C880.585 112.143 881.414 112.972 881.414 113.984C881.414 115.089 880.585 115.826 879.573 115.826ZM879.573 113.156C879.113 113.156 878.652 113.524 878.652 114.076C878.652 114.629 879.021 114.997 879.573 114.997C880.125 114.997 880.493 114.629 880.493 114.076C880.493 113.524 880.033 113.156 879.573 113.156Z" fill="#19181B"/>
<path d="M898.535 148.232C897.522 148.232 896.694 147.403 896.694 146.391C896.694 145.378 897.522 144.549 898.535 144.549C899.547 144.549 900.376 145.378 900.376 146.391C900.376 147.403 899.547 148.232 898.535 148.232ZM898.535 145.47C898.075 145.47 897.614 145.838 897.614 146.391C897.614 146.943 897.983 147.311 898.535 147.311C899.087 147.311 899.455 146.943 899.455 146.391C899.455 145.838 899.087 145.47 898.535 145.47Z" fill="#19181B"/>
<path d="M924.493 85.997C923.48 85.997 922.652 85.1684 922.652 84.1557C922.652 83.143 923.48 82.3145 924.493 82.3145C925.505 82.3145 926.334 83.143 926.334 84.1557C926.334 85.1684 925.505 85.997 924.493 85.997ZM924.493 83.2351C924.033 83.2351 923.572 83.6033 923.572 84.1557C923.572 84.7081 923.941 85.0764 924.493 85.0764C925.045 85.0764 925.413 84.7081 925.413 84.1557C925.413 83.6033 925.045 83.2351 924.493 83.2351Z" fill="#19181B"/>
<path d="M930.66 85.997C929.647 85.997 928.819 85.1684 928.819 84.1557C928.819 83.143 929.647 82.3145 930.66 82.3145C931.672 82.3145 932.501 83.143 932.501 84.1557C932.501 85.1684 931.672 85.997 930.66 85.997ZM930.66 83.2351C930.2 83.2351 929.739 83.6033 929.739 84.1557C929.739 84.7081 930.108 85.0764 930.66 85.0764C931.212 85.0764 931.58 84.7081 931.58 84.1557C931.58 83.6033 931.12 83.2351 930.66 83.2351Z" fill="#19181B"/>
<path d="M884.635 76.1459C883.623 76.1459 882.794 75.3173 882.794 74.3046C882.794 73.2919 883.623 72.4634 884.635 72.4634C885.648 72.4634 886.476 73.2919 886.476 74.3046C886.476 75.3173 885.648 76.1459 884.635 76.1459ZM884.635 73.384C884.175 73.384 883.715 73.7523 883.715 74.3046C883.715 74.857 884.083 75.2253 884.635 75.2253C885.188 75.2253 885.556 74.857 885.556 74.3046C885.556 73.7523 885.188 73.384 884.635 73.384Z" fill="#19181B"/>
<path d="M912.986 117.206C911.974 117.206 911.146 116.378 911.146 115.365C911.146 114.352 911.974 113.524 912.986 113.524C913.999 113.524 914.827 114.352 914.827 115.365C914.827 116.378 913.999 117.206 912.986 117.206ZM912.986 114.537C912.526 114.537 912.066 114.905 912.066 115.457C912.066 116.01 912.434 116.378 912.986 116.378C913.539 116.378 913.907 116.01 913.907 115.457C913.907 114.905 913.447 114.537 912.986 114.537Z" fill="#19181B"/>
<path d="M919.338 117.206C918.325 117.206 917.497 116.378 917.497 115.365C917.497 114.352 918.325 113.524 919.338 113.524C920.35 113.524 921.179 114.352 921.179 115.365C921.179 116.378 920.35 117.206 919.338 117.206ZM919.338 114.537C918.877 114.537 918.417 114.905 918.417 115.457C918.417 116.01 918.785 116.378 919.338 116.378C919.89 116.378 920.258 116.01 920.258 115.457C920.258 114.905 919.89 114.537 919.338 114.537Z" fill="#19181B"/>
<path d="M925.873 117.206C924.861 117.206 924.032 116.378 924.032 115.365C924.032 114.352 924.861 113.524 925.873 113.524C926.886 113.524 927.714 114.352 927.714 115.365C927.714 116.378 926.886 117.206 925.873 117.206ZM925.873 114.537C925.413 114.537 924.953 114.905 924.953 115.457C924.953 116.01 925.321 116.378 925.873 116.378C926.425 116.378 926.794 116.01 926.794 115.457C926.794 114.905 926.333 114.537 925.873 114.537Z" fill="#19181B"/>
</svg>
