<svg width="38" height="38" viewBox="0 0 38 38" fill="none" xmlns="http://www.w3.org/2000/svg">
<path d="M13.9507 17.361C14.828 17.361 15.5392 16.6498 15.5392 15.7725C15.5392 14.8952 14.828 14.1841 13.9507 14.1841C13.0735 14.1841 12.3623 14.8952 12.3623 15.7725C12.3623 16.6498 13.0735 17.361 13.9507 17.361Z" fill="black"/>
<path d="M24.042 23.8082C24.9193 23.8082 25.6305 23.0971 25.6305 22.2198C25.6305 21.3425 24.9193 20.6313 24.042 20.6313C23.1648 20.6313 22.4536 21.3425 22.4536 22.2198C22.4536 23.0971 23.1648 23.8082 24.042 23.8082Z" fill="black"/>
<path d="M37.1388 21.0984L36.5626 20.312C35.9396 19.4555 35.9241 18.2953 36.5392 17.4232L37.0998 16.629C37.9563 15.4143 37.5592 13.7247 36.2433 13.0161L35.3868 12.5567C34.4524 12.0584 33.9385 11.015 34.1176 9.96381L34.2811 9.00607C34.5303 7.54222 33.4324 6.18738 31.9452 6.12508L30.9719 6.08615C29.9129 6.03943 28.9941 5.32308 28.6982 4.30305L28.4257 3.36868C28.013 1.93597 26.4402 1.19626 25.0698 1.78803L24.1743 2.16956C23.201 2.59003 22.0642 2.34087 21.3556 1.54665L20.7093 0.822508C19.7205 -0.283169 17.9841 -0.275382 17.003 0.853654L16.3645 1.58558C15.6637 2.38759 14.5347 2.65232 13.5536 2.24743L12.6504 1.87368C11.2722 1.30527 9.71486 2.07613 9.31776 3.50883L9.0608 4.451C8.78049 5.47881 7.87726 6.21073 6.8183 6.26524L5.845 6.31975C4.35778 6.4054 3.28325 7.77581 3.55578 9.23967L3.73487 10.1974C3.92953 11.2408 3.4312 12.292 2.50461 12.8059L1.65588 13.2808C0.355546 14.005 -0.0182038 15.7024 0.861666 16.9015L1.43786 17.688C2.06078 18.5445 2.07635 19.7047 1.46122 20.5767L0.900598 21.371C0.0440879 22.5856 0.441197 24.2753 1.75711 24.9839L2.61362 25.4433C3.54799 25.9416 4.0619 26.985 3.88281 28.0362L3.71929 28.9939C3.47013 30.4578 4.56802 31.8126 6.05523 31.8749L7.02854 31.9138C8.0875 31.9605 9.0063 32.6769 9.30218 33.6969L9.57471 34.6313C9.98739 36.064 11.5603 36.8037 12.9307 36.2119L13.8261 35.8304C14.7994 35.4099 15.9362 35.6591 16.6448 36.4533L17.2911 37.1775C18.2878 38.2831 20.0241 38.2754 20.9974 37.1463L21.6359 36.4144C22.3367 35.6124 23.4657 35.3476 24.4468 35.7525L25.3501 36.1263C26.7283 36.6947 28.2856 35.9238 28.6827 34.4911L28.9396 33.549C29.2199 32.5212 30.1232 31.7892 31.1821 31.7347L32.1554 31.6802C33.6426 31.5946 34.7172 30.2242 34.4446 28.7603L34.2656 27.8026C34.0709 26.7592 34.5692 25.708 35.4958 25.1941L36.3445 24.7191C37.6449 24.0028 38.0186 22.3053 37.1388 21.0984ZM10.112 15.7725C10.112 13.6546 11.825 11.9416 13.9429 11.9416C16.0608 11.9416 17.7738 13.6546 17.7738 15.7725C17.7738 17.8904 16.0608 19.6034 13.9429 19.6034C11.825 19.6034 10.112 17.8826 10.112 15.7725ZM14.6826 25.6535C14.3556 26.0506 13.7638 26.1051 13.3667 25.7781C12.9696 25.4511 12.9151 24.8593 13.2421 24.4622L23.2944 12.3542C23.6215 11.9571 24.2132 11.9026 24.6104 12.2297C25.0075 12.5567 25.062 13.1485 24.7349 13.5456L14.6826 25.6535ZM24.0419 26.0506C21.924 26.0506 20.211 24.3376 20.211 22.2197C20.211 20.1018 21.924 18.3888 24.0419 18.3888C26.1599 18.3888 27.8729 20.1018 27.8729 22.2197C27.8729 24.3376 26.1599 26.0506 24.0419 26.0506Z" fill="black"/>
</svg>
