<svg width="166" height="166" viewBox="0 0 166 166" fill="none" xmlns="http://www.w3.org/2000/svg">
<g clip-path="url(#clip0)">
<path d="M58.5707 27.4754C58.8364 27.675 59.1353 27.8081 59.4674 27.9079C59.7996 28.0077 60.1317 28.041 60.4971 28.041C60.8625 28.041 61.2278 27.9412 61.6264 27.7749C62.025 27.6085 62.3903 27.4089 62.6893 27.176C62.9882 26.9431 63.1875 26.6769 63.3536 26.3775C63.5196 26.0781 63.6193 25.8119 63.6193 25.5125C63.6525 25.2131 63.6193 24.9469 63.5196 24.6807C63.42 24.4479 63.2871 24.2482 63.0879 24.0819C62.8886 23.9155 62.6561 23.7825 62.3571 23.6826C62.0582 23.5828 61.7261 23.5496 61.3607 23.5828C60.9953 23.6161 60.5968 23.6826 60.1982 23.849L59.1685 24.2482L58.6039 22.7511L59.6335 22.3518C59.9657 22.2188 60.2646 22.0524 60.4971 21.8195C60.7296 21.6199 60.9289 21.387 61.0618 21.1209C61.1946 20.8547 61.2943 20.6218 61.2943 20.3557C61.3275 20.0895 61.2943 19.8566 61.1946 19.6237C61.095 19.3908 60.9621 19.1912 60.7628 19.0249C60.5635 18.8585 60.331 18.7254 60.0653 18.6256C59.7996 18.5258 59.5007 18.4925 59.1685 18.4925C58.8364 18.4925 58.5042 18.5591 58.1389 18.7254C57.4081 18.9916 56.9431 19.3908 56.6442 19.9231C56.3785 20.4222 56.2456 21.0211 56.2456 21.6532L54.4852 22.0524C54.4188 21.5866 54.452 21.0876 54.5517 20.6218C54.6513 20.156 54.8174 19.6903 55.0499 19.2577C55.2824 18.8252 55.6145 18.4593 56.0463 18.0933C56.4449 17.7273 56.9431 17.4612 57.541 17.2283C58.1389 16.9954 58.7367 16.8623 59.3014 16.8623C59.866 16.8623 60.3975 16.9288 60.8625 17.0952C61.3275 17.2615 61.7261 17.5277 62.0914 17.8271C62.4236 18.1598 62.6893 18.5258 62.8554 18.9583C63.0546 19.4574 63.0879 19.9231 62.9882 20.2891C62.8886 20.6884 62.7557 20.9878 62.5564 21.2872C62.3239 21.6199 62.0582 21.8861 61.6928 22.119L61.7593 22.2853C62.2243 22.1855 62.6893 22.1855 63.1211 22.2853C63.4864 22.3518 63.8518 22.5182 64.2504 22.7511C64.6489 22.984 64.9479 23.4165 65.1472 23.9821C65.3465 24.4479 65.4129 24.9469 65.3797 25.446C65.3465 25.945 65.2136 26.4441 64.9479 26.9098C64.6822 27.3756 64.35 27.8081 63.885 28.2074C63.42 28.6066 62.8554 28.9393 62.1911 29.2055C61.5268 29.4716 60.9289 29.6047 60.3643 29.638C59.7996 29.6712 59.2682 29.6047 58.7699 29.4384C58.2717 29.272 57.8067 29.0391 57.3749 28.7397C56.9431 28.4403 56.5778 28.041 56.2124 27.6085L57.7735 26.7435C58.0392 27.0762 58.3049 27.3091 58.5707 27.4754Z" fill="#FF6F43"/>
<path d="M72.2218 13.835L77.2704 24.9804L75.4436 25.3131L74.2479 22.6848L68.3356 23.816L68.2028 26.6772L66.376 27.0431L66.9738 14.8331L72.2218 13.835ZM73.5836 21.1876L71.1257 15.6981L68.701 16.1639L68.4353 22.1857L73.5836 21.1876Z" fill="#FF6F43"/>
<path d="M86.305 19.4908C86.4711 19.6571 86.6372 19.8567 86.8033 20.1229C86.9361 20.3891 87.0358 20.7218 87.0025 21.1543L86.9693 22.5849C86.9693 23.2503 87.2683 23.6163 87.8993 23.6163H88.3976L88.3643 25.2132H87.8661C86.9693 25.2132 86.305 24.9471 85.84 24.5145C85.375 24.0488 85.1757 23.4166 85.1757 22.5516L85.2089 21.121C85.2089 20.7218 85.1093 20.4223 84.8768 20.1894C84.6443 19.9566 84.3122 19.8235 83.8804 19.8235L80.1603 19.7569L80.0939 24.9138L78.3003 24.8805L78.4996 13.0031L80.2932 13.0364L80.2267 18.1267L83.7807 18.1932C84.2125 18.1932 84.5447 18.0934 84.7772 17.8605C85.0097 17.6277 85.1425 17.3282 85.1425 16.929L85.1757 15.5649C85.1757 14.7332 85.4415 14.0678 85.9065 13.6353C86.3715 13.2028 87.0358 12.9699 87.9326 13.0031H88.4308L88.3976 14.6334H87.8993C87.2683 14.6334 86.9693 14.9661 86.9361 15.6315L86.9029 16.9955C86.9029 17.3948 86.8365 17.7275 86.6704 17.9604C86.5375 18.1932 86.3715 18.3929 86.2054 18.5592C86.0061 18.7256 85.8068 18.8586 85.5743 18.9252V19.0915C85.8732 19.1581 86.1057 19.2912 86.305 19.4908Z" fill="#FF6F43"/>
<path d="M98.8595 14.8996L99.4242 27.1097L97.5974 26.7437L97.4645 23.8492L91.5523 22.6848L90.3566 25.3131L88.5298 24.9471L93.6116 13.835L98.8595 14.8996ZM97.3981 22.219L97.1656 16.1971L94.7409 15.7313L92.2498 21.2209L97.3981 22.219Z" fill="#FF6F43"/>
<path d="M102.282 25.6125C102.348 25.9452 102.481 26.2446 102.647 26.544C102.813 26.8434 103.046 27.1096 103.311 27.3425C103.577 27.5754 103.909 27.775 104.308 27.9414C104.706 28.1077 105.105 28.1742 105.503 28.2075C105.869 28.2075 106.234 28.1742 106.533 28.0744C106.832 27.9746 107.098 27.8083 107.33 27.6087C107.563 27.409 107.729 27.1761 107.795 26.9433C107.895 26.7104 107.895 26.4775 107.862 26.2113C107.829 25.9452 107.729 25.679 107.596 25.4461C107.43 25.18 107.231 24.9471 106.932 24.7142C106.633 24.4813 106.301 24.2817 105.902 24.1153L104.872 23.7161L105.47 22.2189L106.5 22.6182C106.832 22.7512 107.164 22.8178 107.496 22.8178C107.829 22.8178 108.127 22.7845 108.393 22.6847C108.659 22.5849 108.891 22.4518 109.091 22.2855C109.29 22.1191 109.423 21.9195 109.522 21.6866C109.622 21.4537 109.622 21.2208 109.589 20.9547C109.556 20.6885 109.456 20.4223 109.323 20.1895C109.19 19.9233 108.991 19.6904 108.759 19.4908C108.526 19.2912 108.194 19.0915 107.862 18.9585C107.131 18.6923 106.5 18.6258 105.968 18.8254C105.437 19.025 104.939 19.3577 104.507 19.8235L102.946 18.9252C103.245 18.526 103.577 18.1933 103.942 17.8938C104.341 17.5944 104.74 17.3948 105.238 17.2284C105.703 17.0953 106.201 17.0288 106.732 17.0288C107.264 17.0288 107.829 17.1619 108.426 17.3948C109.024 17.6277 109.556 17.9271 109.987 18.3263C110.419 18.6923 110.751 19.1248 110.984 19.5573C111.216 19.9898 111.349 20.4556 111.383 20.9214C111.416 21.3872 111.349 21.853 111.183 22.2855C110.984 22.7845 110.718 23.1505 110.386 23.3834C110.054 23.6163 109.722 23.7493 109.39 23.8159C108.991 23.8824 108.592 23.9157 108.194 23.8492L108.127 24.0155C108.526 24.2817 108.858 24.5811 109.124 24.9138C109.356 25.2132 109.522 25.5792 109.622 26.0117C109.722 26.4442 109.689 26.9765 109.456 27.5421C109.257 28.0079 108.991 28.4404 108.626 28.7731C108.26 29.1391 107.829 29.4052 107.33 29.5716C106.832 29.7379 106.267 29.8377 105.67 29.8045C105.072 29.8045 104.407 29.6381 103.743 29.4052C103.079 29.1391 102.547 28.8396 102.116 28.4737C101.684 28.1077 101.318 27.7085 101.053 27.2427C100.787 26.8102 100.621 26.3111 100.521 25.7788C100.422 25.2465 100.388 24.7142 100.422 24.1486L102.182 24.5478C102.149 24.9471 102.215 25.2798 102.282 25.6125Z" fill="#FF6F43"/>
<path d="M121.512 24.7472L117.792 36.3917L116.198 35.4269L117.095 32.6988L111.947 29.5381L109.92 31.5676L108.326 30.6028L116.962 21.9858L121.512 24.7472ZM117.593 31.0685L119.453 25.3461L117.361 24.0486L113.109 28.3071L117.593 31.0685Z" fill="#FF6F43"/>
<path d="M124.435 26.644L131.842 32.9653L130.812 34.1963L127.79 31.6013L121.147 39.4197L119.785 38.2553L126.428 30.4368L123.406 27.8418L124.435 26.644Z" fill="#FF6F43"/>
<path d="M132.506 48.2359C132.008 48.369 131.476 48.4022 130.945 48.3357C130.414 48.2691 129.882 48.0695 129.384 47.7701C128.886 47.4707 128.388 47.0382 127.923 46.5058L124.734 42.6465L133.901 35.0942L135.03 36.4583L132.008 38.9536L134.067 41.4488C134.499 41.9811 134.831 42.5467 135.03 43.1123C135.23 43.6779 135.329 44.2435 135.296 44.7758C135.263 45.3081 135.13 45.8072 134.898 46.2729C134.665 46.7387 134.333 47.1712 133.901 47.5039C133.469 47.8699 133.004 48.1028 132.506 48.2359ZM130.015 46.2397C130.314 46.4393 130.646 46.5391 130.945 46.6056C131.277 46.6722 131.576 46.6389 131.908 46.5724C132.207 46.5058 132.506 46.3395 132.772 46.1399C133.038 45.9402 133.237 45.6741 133.37 45.3747C133.503 45.0752 133.569 44.7758 133.569 44.4431C133.569 44.1104 133.503 43.7777 133.403 43.445C133.303 43.1123 133.104 42.7796 132.838 42.4802L130.779 39.9849L127.125 43.0125L129.185 45.5077C129.417 45.8072 129.683 46.0401 130.015 46.2397Z" fill="#FF6F43"/>
<path d="M139.282 61.3774C138.784 61.4107 138.319 61.3109 137.854 61.1113C137.389 60.9117 136.957 60.6455 136.559 60.2463C136.16 59.847 135.795 59.348 135.496 58.7158L133.071 53.6588L143.766 48.502L147.553 56.3869L146.091 57.0856L143.069 50.8309L140.545 52.0618L142.205 55.4886C142.504 56.0875 142.67 56.6864 142.737 57.252C142.803 57.8175 142.77 58.3499 142.604 58.8156C142.471 59.2814 142.239 59.7139 141.906 60.0799C141.574 60.4459 141.176 60.7453 140.711 60.9782C140.246 61.2111 139.781 61.3442 139.282 61.3774ZM138.286 59.481C138.817 59.6807 139.382 59.6474 139.947 59.3812C140.511 59.1151 140.91 58.6826 141.043 58.1502C141.176 57.6179 141.109 56.9525 140.744 56.1873L139.083 52.7605L135.263 54.5904L136.924 58.0172C137.323 58.7824 137.755 59.2814 138.286 59.481Z" fill="#FF6F43"/>
<path d="M140.013 72.2234L137.721 63.8061L149.147 60.6787L151.439 69.096L149.878 69.5285L148.051 62.808L144.696 63.7395L146.158 69.0627L144.597 69.4953L143.135 64.1721L139.714 65.1036L141.541 71.8242L140.013 72.2234Z" fill="#FF6F43"/>
<path d="M140.445 76.1825C140.71 75.4173 141.142 74.7186 141.674 74.0865C142.205 73.4543 142.836 72.9553 143.6 72.556C144.364 72.1568 145.161 71.9239 146.058 71.8574C146.955 71.7908 147.785 71.8906 148.582 72.1568C149.38 72.423 150.11 72.8222 150.741 73.3545C151.372 73.8868 151.871 74.4857 152.269 75.2176C152.668 75.9496 152.9 76.7148 152.967 77.5133C153.033 78.2452 152.967 78.9439 152.801 79.5427C152.635 80.1416 152.402 80.7072 152.07 81.2062C151.771 81.7053 151.406 82.1045 150.974 82.4372C150.542 82.7699 150.11 83.0361 149.678 83.2357L149.28 81.4724C149.579 81.3393 149.845 81.1397 150.11 80.9068C150.376 80.6739 150.608 80.4078 150.808 80.0751C151.007 79.7424 151.14 79.4097 151.24 78.9771C151.339 78.5779 151.372 78.1121 151.339 77.6463C151.306 77.0808 151.14 76.5152 150.841 76.0161C150.542 75.5171 150.177 75.0513 149.712 74.6853C149.247 74.3193 148.715 74.0199 148.117 73.8536C147.52 73.6539 146.888 73.5874 146.191 73.6539C145.493 73.7205 144.896 73.8868 144.331 74.1863C143.766 74.4857 143.268 74.8517 142.869 75.2842C142.471 75.7167 142.172 76.2157 141.973 76.7813C141.773 77.3469 141.674 77.8792 141.74 78.4781C141.773 79.0104 141.906 79.4762 142.072 79.8754C142.238 80.2747 142.471 80.6406 142.737 80.9401C143.002 81.2395 143.301 81.5057 143.633 81.7053C143.966 81.9049 144.298 82.0713 144.663 82.2043L144.563 84.0009C144.065 83.9011 143.567 83.7015 143.069 83.4021C142.571 83.1026 142.106 82.7367 141.707 82.3041C141.275 81.8384 140.943 81.306 140.644 80.6739C140.345 80.0418 140.179 79.3431 140.113 78.5779C140.046 77.7462 140.179 76.9477 140.445 76.1825Z" fill="#FF6F43"/>
<path d="M151.572 96.3111L139.814 94.8805L140.013 93.1171L150.177 94.3481L150.908 88.3595L140.744 87.1285L140.943 85.3652L152.701 86.7958L151.572 96.3111Z" fill="#FF6F43"/>
<path d="M136.758 104.728L147.254 105.593L148.084 103.098L139.116 97.5752L139.681 95.8784L150.044 102.333L148.383 107.423L136.227 106.458L136.758 104.728Z" fill="#FF6F43"/>
<path d="M142.438 119.533L130.68 116.24L131.576 114.61L134.333 115.375L137.289 110.118L135.164 108.155L136.06 106.525L144.995 114.842L142.438 119.533ZM135.994 115.84L141.773 117.504L142.969 115.375L138.552 111.249L135.994 115.84Z" fill="#FF6F43"/>
<path d="M140.678 122.528L134.633 130.18L133.371 129.182L135.828 126.055L127.791 119.7L128.887 118.303L136.925 124.657L139.382 121.53L140.678 122.528Z" fill="#FF6F43"/>
<path d="M131.245 133.54L127.823 129.648L123.306 133.64L126.727 137.533L125.399 138.697L117.56 129.781L118.889 128.616L122.243 132.442L126.761 128.45L123.406 124.624L124.734 123.459L132.573 132.376L131.245 133.54Z" fill="#FF6F43"/>
<path d="M111.847 133.806C112.046 133.108 112.544 132.509 113.308 132.043L114.271 131.478L115.102 132.875L114.139 133.44C113.806 133.64 113.574 133.906 113.441 134.239C113.308 134.572 113.308 135.004 113.408 135.536L113.674 137.167L116.464 135.536L122.94 140.56L121.346 141.492L116.264 137.499L114.006 138.83L115.069 145.185L113.474 146.116L111.847 136.468C111.614 135.403 111.614 134.505 111.847 133.806Z" fill="#FF6F43"/>
<path d="M106.798 136.401L110.252 147.746L108.558 148.279L107.064 143.322L105.104 143.92C105.27 144.719 105.303 145.484 105.204 146.249C105.104 147.015 104.871 147.713 104.539 148.345C104.207 148.977 103.775 149.543 103.211 150.009C102.679 150.475 102.048 150.807 101.318 151.04C100.587 151.273 99.8561 151.306 99.0921 151.207C98.3282 151.107 97.5975 150.841 96.9332 150.475C96.2689 150.109 95.671 149.543 95.1396 148.878C94.6082 148.212 94.2096 147.447 93.9439 146.549C93.6781 145.65 93.5785 144.785 93.6449 143.92C93.7114 143.089 93.9106 142.29 94.2428 141.591C94.5749 140.893 95.0399 140.294 95.6046 139.762C96.1692 139.229 96.8335 138.897 97.5643 138.664C98.2618 138.431 98.9925 138.364 99.7232 138.464C100.454 138.564 101.118 138.764 101.749 139.096C102.38 139.429 102.945 139.861 103.443 140.427C103.941 140.993 104.34 141.625 104.639 142.357L106.599 141.758L105.104 136.9L106.798 136.401ZM96.5678 147.813C96.9664 148.312 97.3982 148.711 97.8632 149.011C98.3282 149.31 98.8264 149.51 99.3578 149.576C99.8893 149.643 100.388 149.61 100.886 149.477C101.384 149.343 101.816 149.077 102.214 148.711C102.613 148.345 102.912 147.913 103.144 147.414C103.377 146.915 103.51 146.316 103.543 145.684C103.576 145.052 103.51 144.386 103.277 143.688C103.078 142.989 102.779 142.39 102.38 141.891C101.982 141.392 101.55 140.993 101.085 140.693C100.62 140.394 100.122 140.194 99.5904 140.128C99.0589 140.061 98.5607 140.094 98.0625 140.227C97.5643 140.361 97.1325 140.627 96.7339 140.993C96.3353 141.359 96.0364 141.791 95.8039 142.29C95.5714 142.789 95.4385 143.388 95.4053 144.02C95.3721 144.652 95.4385 145.318 95.671 146.016C95.9035 146.715 96.1692 147.314 96.5678 147.813Z" fill="#FF6F43"/>
<path d="M87.5341 138.963L89.3277 138.93L89.3941 142.59L88.1319 142.623L85.8401 152.937L80.6586 153.037L78.0346 142.823L76.7725 142.856L76.7061 139.196L78.4997 139.163L78.5329 141.193L87.6005 141.059L87.5341 138.963ZM86.3383 142.623L79.8282 142.723L81.9872 151.34L84.4451 151.307L86.3383 142.623Z" fill="#FF6F43"/>
<path d="M67.472 139.229L76.0413 140.826L73.8492 152.504L65.2798 150.907L65.5787 149.31L72.4209 150.574L73.052 147.147L67.638 146.149L67.937 144.552L73.351 145.55L74.0152 142.057L67.173 140.793L67.472 139.229Z" fill="#FF6F43"/>
<path d="M61.0949 146.948L61.261 147.015L64.815 138.398L66.4757 139.063L61.9585 150.042L60.1649 149.31L58.3049 142.956L52.4923 146.15L50.6987 145.418L55.2159 134.438L56.8767 135.104L53.3227 143.721L53.4888 143.787L59.3013 140.593L61.0949 146.948Z" fill="#FF6F43"/>
<path d="M42.229 129.481C42.9598 129.049 43.7237 128.749 44.5208 128.616C45.318 128.483 46.1484 128.516 46.9787 128.683C47.8091 128.849 48.573 129.215 49.2706 129.714C49.9681 130.213 50.5327 130.845 50.9645 131.577C51.3963 132.309 51.662 133.074 51.7949 133.873C51.9277 134.671 51.8945 135.503 51.7284 136.335C51.5624 137.167 51.197 137.932 50.6656 138.664C50.1341 139.396 49.5031 139.961 48.7723 140.394C48.0416 140.826 47.2777 141.126 46.4805 141.259C45.6834 141.392 44.853 141.359 44.0226 141.192C43.1923 141.026 42.4283 140.66 41.7308 140.161C41.0333 139.662 40.4687 139.03 40.0369 138.298C39.6051 137.566 39.3394 136.801 39.2065 136.002C39.0736 135.204 39.1068 134.372 39.2729 133.54C39.439 132.709 39.8044 131.943 40.3358 131.211C40.8672 130.513 41.4983 129.914 42.229 129.481ZM50.0345 135.869C50.1673 135.237 50.2006 134.638 50.1341 134.039C50.0345 133.44 49.8684 132.875 49.5363 132.343C49.2373 131.81 48.8388 131.378 48.3405 131.012C47.8423 130.646 47.3109 130.413 46.713 130.28C46.1152 130.147 45.5173 130.147 44.9194 130.247C44.3216 130.346 43.7569 130.579 43.2255 130.912C42.694 131.245 42.1958 131.677 41.7972 132.243C41.3987 132.808 41.1329 133.374 41.0001 134.006C40.8672 134.638 40.834 135.237 40.9004 135.836C40.9669 136.435 41.1662 137 41.4983 137.533C41.7972 138.065 42.1958 138.497 42.694 138.863C43.1923 139.229 43.7237 139.462 44.3216 139.595C44.9194 139.728 45.5173 139.728 46.1152 139.629C46.713 139.529 47.2777 139.296 47.8091 138.963C48.3405 138.631 48.8388 138.198 49.2373 137.632C49.6027 137.067 49.8684 136.501 50.0345 135.869Z" fill="#FF6F43"/>
<path d="M33.0287 132.11L36.8484 128.65L32.8294 124.191L29.0097 127.651L27.814 126.321L36.6159 118.369L37.8116 119.7L34.0251 123.127L38.0441 127.585L41.8306 124.158L43.0263 125.489L34.2244 133.44L33.0287 132.11Z" fill="#FF6F43"/>
<path d="M33.8591 114.11C33.9587 114.942 33.8923 115.741 33.6598 116.506C33.4605 117.304 33.0951 118.036 32.5969 118.702C32.0987 119.4 31.4676 119.966 30.7037 120.398C29.9397 120.831 29.1426 121.13 28.279 121.23C27.4486 121.33 26.6183 121.297 25.8211 121.097C25.024 120.897 24.2932 120.565 23.629 120.099C22.9647 119.633 22.4 119.034 22.0014 118.336C21.6361 117.704 21.3704 117.071 21.2707 116.439C21.1378 115.807 21.1378 115.208 21.2043 114.643C21.2707 114.077 21.4368 113.545 21.6693 113.046C21.9018 112.547 22.1675 112.114 22.4997 111.782L23.629 113.179C23.4297 113.445 23.2636 113.744 23.1307 114.044C22.9979 114.343 22.8982 114.709 22.865 115.109C22.8318 115.474 22.865 115.874 22.9314 116.273C23.0311 116.672 23.1639 117.105 23.4297 117.504C23.7286 118.003 24.094 118.402 24.5922 118.735C25.0904 119.068 25.6218 119.301 26.1865 119.434C26.7511 119.567 27.3822 119.6 28.0133 119.5C28.6444 119.4 29.2422 119.201 29.8401 118.868C30.438 118.535 30.903 118.103 31.3015 117.604C31.7001 117.105 31.9658 116.572 32.1319 115.974C32.298 115.408 32.3644 114.809 32.298 114.244C32.2316 113.678 32.0655 113.112 31.7666 112.613C31.5008 112.148 31.2019 111.782 30.8365 111.482C30.5044 111.183 30.139 110.95 29.7737 110.817C29.4083 110.65 29.0097 110.551 28.6112 110.517C28.2126 110.484 27.8472 110.484 27.4819 110.517L26.8176 108.854C27.3158 108.721 27.8472 108.687 28.4119 108.754C28.9765 108.821 29.5744 108.92 30.139 109.153C30.7037 109.386 31.2683 109.719 31.7998 110.151C32.3312 110.584 32.7962 111.149 33.1948 111.815C33.5269 112.547 33.7927 113.312 33.8591 114.11Z" fill="#FF6F43"/>
<path d="M18.8127 111.316L15.5244 102.133L17.0523 101.601L18.4141 105.361L28.0464 101.867L28.6442 103.531L19.012 106.991L20.3738 110.75L18.8127 111.316Z" fill="#FF6F43"/>
<path d="M19.1114 88.7919C19.676 88.925 20.1743 89.1911 20.6393 89.5238C21.1043 89.8565 21.4696 90.3223 21.8018 90.8546C22.1339 91.3869 22.3332 92.0191 22.4661 92.6845L23.0307 96.0447L26.2193 95.5124L26.5183 97.2757L14.8267 99.2386L13.9631 94.1483C13.8635 93.4497 13.8635 92.8175 13.9963 92.1854C14.1292 91.5533 14.3617 91.021 14.6606 90.5552C14.9928 90.0894 15.3914 89.6902 15.8564 89.3575C16.3214 89.058 16.8528 88.8252 17.4507 88.7253C17.9821 88.6255 18.5467 88.6255 19.1114 88.7919ZM15.8896 91.5533C15.491 92.1521 15.3581 92.9174 15.5242 93.8489L16.0556 97.1759L21.4032 96.2776L20.8386 92.9173C20.6725 91.9858 20.3071 91.3204 19.7425 90.8879C19.1778 90.4554 18.4803 90.3223 17.6832 90.4554C16.886 90.5885 16.2881 90.9544 15.8896 91.5533Z" fill="#FF6F43"/>
<path d="M13.0996 79.3765L24.9905 76.6816L24.9573 78.5448L22.1673 79.1769L22.0676 85.232L24.8577 85.9307L24.8244 87.7938L13 84.733L13.0996 79.3765ZM20.5397 79.5429L14.6607 80.8404L14.6275 83.3024L20.4401 84.7995L20.5397 79.5429Z" fill="#FF6F43"/>
<path d="M13.5645 73.2217L13.9298 71.4917L23.9607 73.621L25.1232 68.0649L15.0923 65.9356L15.4577 64.2056L25.4885 66.3348L25.7543 65.004L29.3082 65.7693L28.9429 67.4993L26.95 67.0668L25.1232 75.6837L13.5645 73.2217Z" fill="#FF6F43"/>
<path d="M20.6063 50.9639L31.5007 55.6549L30.8032 57.2852L22.6324 53.7918L22.566 53.9582L28.4782 62.7747L27.7142 64.5713L16.8198 59.8802L17.5173 58.25L25.6882 61.7766L25.7546 61.6103L19.8424 52.7937L20.6063 50.9639Z" fill="#FF6F43"/>
<path d="M32.0985 53.992L22.6323 46.8722L23.6952 45.4416L27.8138 48.569L29.0428 46.9388C28.4449 46.4064 27.9467 45.8076 27.5813 45.1422C27.216 44.4768 26.9834 43.7781 26.8838 43.0794C26.7842 42.3808 26.8174 41.6488 26.9834 40.9502C27.1495 40.2515 27.4485 39.5861 27.9135 38.9872C28.3785 38.3884 28.9431 37.8893 29.6074 37.5234C30.2717 37.1574 31.0024 36.9245 31.7664 36.858C32.5303 36.7914 33.3275 36.858 34.1578 37.0908C34.9882 37.3237 35.7521 37.6897 36.5161 38.2553C37.28 38.8209 37.8447 39.453 38.3097 40.1849C38.7415 40.9169 39.0404 41.6488 39.1732 42.414C39.3061 43.1792 39.3061 43.9445 39.14 44.6764C38.974 45.4416 38.675 46.107 38.21 46.7059C37.7782 47.3047 37.2136 47.7705 36.5825 48.1365C35.9514 48.5024 35.2871 48.7353 34.5896 48.8351C33.8921 48.9349 33.1614 48.9017 32.4307 48.7686C31.6999 48.6355 31.0024 48.3361 30.3381 47.9036L29.1092 49.5338L33.1614 52.5946L32.0985 53.992ZM33.6928 38.7543C33.095 38.588 32.4971 38.5215 31.9324 38.5547C31.3678 38.588 30.8696 38.7211 30.3713 38.9872C29.9063 39.2201 29.5078 39.5528 29.2088 39.9521C28.9099 40.3513 28.7106 40.8171 28.611 41.3494C28.5113 41.8817 28.5113 42.414 28.6442 42.9464C28.777 43.4787 28.9763 44.0443 29.3417 44.5766C29.6738 45.1089 30.1388 45.608 30.7035 46.0405C31.2681 46.473 31.866 46.7724 32.4971 46.972C33.095 47.1384 33.6928 47.2049 34.2575 47.1716C34.8221 47.1384 35.3203 47.0053 35.8186 46.7391C36.2836 46.5062 36.6821 46.1735 36.9811 45.7743C37.28 45.3751 37.4793 44.9093 37.5789 44.377C37.6786 43.8446 37.6786 43.3123 37.5457 42.78C37.4129 42.2477 37.2136 41.6821 36.8482 41.1498C36.5161 40.6175 36.0511 40.1184 35.4864 39.6859C34.9218 39.2534 34.2907 38.9207 33.6928 38.7543Z" fill="#FF6F43"/>
</g>
<path d="M127.5 83C127.5 108.139 107.566 128.5 83 128.5C58.4336 128.5 38.5 108.139 38.5 83C38.5 57.8606 58.4336 37.5 83 37.5C107.566 37.5 127.5 57.8606 127.5 83Z" stroke="#FF6F43"/>
<path d="M127.5 83C127.5 108.139 107.566 128.5 83 128.5C58.4336 128.5 38.5 108.139 38.5 83C38.5 57.8606 58.4336 37.5 83 37.5C107.566 37.5 127.5 57.8606 127.5 83Z" stroke="#FF6F43"/>
<circle cx="83" cy="83" r="82.5" stroke="#FF6F43"/>
<circle cx="83" cy="83" r="82.5" stroke="#FF6F43"/>
<defs>
<clipPath id="clip0">
<rect width="140" height="140" fill="white" transform="translate(13 13)"/>
</clipPath>
</defs>
</svg>
